/* XPM */
static char *result[] = {
/* columns rows colors chars-per-pixel */
"64 64 200 2 ",
"   c #003A00",
".  c #002812",
"X  c #00002E",
"o  c #000D2D",
"O  c #00152D",
"+  c #001C2D",
"@  c #001826",
"#  c #000032",
"$  c #0B0032",
"%  c #1D0033",
"&  c #150032",
"*  c #0E1A31",
"=  c #210033",
"-  c #2A1B33",
";  c #391134",
":  c #04292D",
">  c #02312D",
",  c #063A2A",
"<  c #1C342D",
"1  c #193D2D",
"2  c #003131",
"3  c #2E3530",
"4  c #450000",
"5  c #4F0000",
"6  c #520000",
"7  c #430536",
"8  c #56003A",
"9  c #481E36",
"0  c #5B1C3A",
"q  c #660027",
"w  c #660037",
"e  c #6B0239",
"r  c #680037",
"t  c #730038",
"y  c #740A37",
"u  c #6B1D3A",
"i  c #711F36",
"p  c #572335",
"a  c #4B2232",
"s  c #692637",
"d  c #762A3A",
"f  c #7D303C",
"g  c #77303D",
"h  c #005500",
"j  c #005900",
"k  c #006400",
"l  c #006C00",
"z  c #00651F",
"x  c #09691F",
"c  c #166A1E",
"v  c #047617",
"b  c #15771A",
"n  c #1A7C17",
"m  c #007000",
"M  c #257B19",
"N  c #2F771D",
"B  c #004728",
"V  c #1E422C",
"C  c #1D4D29",
"Z  c #005529",
"A  c #045829",
"S  c #1D5328",
"D  c #22442C",
"F  c #234B2F",
"G  c #2E4C2C",
"H  c #3B462F",
"J  c #3B4B2E",
"K  c #344A2E",
"L  c #2D5627",
"P  c #3D522D",
"I  c #365A2A",
"U  c #254D31",
"Y  c #274933",
"T  c #295133",
"R  c #275033",
"E  c #385532",
"W  c #3C4D30",
"Q  c #1A6725",
"!  c #006420",
"~  c #2E6D27",
"^  c #2C6C28",
"/  c #286828",
"(  c #3D7825",
")  c #445B2C",
"_  c #415731",
"`  c #435A31",
"'  c #4A5535",
"]  c #496B2C",
"[  c #486133",
"{  c #5A6E38",
"}  c #556835",
"|  c #5A7334",
" . c #467B26",
".. c #7A1A45",
"X. c #661F40",
"o. c #1C4D4D",
"O. c #6A7A7D",
"+. c #B91C39",
"@. c #B61838",
"#. c #86333F",
"$. c #8D2E3C",
"%. c #A9293F",
"&. c #851948",
"*. c #961C49",
"=. c #9D174C",
"-. c #A31C4C",
";. c #AA1F4C",
":. c #912B44",
">. c #A92749",
",. c #B62A45",
"<. c #BA2C44",
"1. c #B32A4D",
"2. c #BA2649",
"3. c #BD3B42",
"4. c #C52D49",
"5. c #CA2E4A",
"6. c #C42D45",
"7. c #CD3148",
"8. c #CC3A46",
"9. c #D3324A",
"0. c #DC394B",
"q. c #D22F49",
"w. c #E23A4D",
"e. c #C84144",
"r. c #D34546",
"t. c #DD434C",
"y. c #DA4649",
"u. c #E1464D",
"i. c #E6494B",
"p. c #F24B4E",
"a. c #2C8400",
"s. c #258603",
"d. c #328A00",
"f. c #2B9200",
"g. c #3B9307",
"h. c #278217",
"j. c #338910",
"k. c #3B8A12",
"l. c #368419",
"z. c #3D8819",
"x. c #378317",
"c. c #42930C",
"v. c #529A0D",
"b. c #5F9C0C",
"n. c #458C15",
"m. c #4C9213",
"M. c #5D941B",
"N. c #5A9818",
"B. c #5F8C18",
"V. c #659700",
"C. c #669900",
"Z. c #618C1E",
"A. c #6C9D16",
"S. c #67971F",
"D. c #69971F",
"F. c #669B1B",
"G. c #6B9D1B",
"H. c #649B16",
"J. c #709F1D",
"K. c #6EA11A",
"L. c #73A21D",
"P. c #7AA51E",
"I. c #79AA1A",
"U. c #77A81A",
"Y. c #5D8126",
"T. c #5D8B23",
"R. c #628A24",
"E. c #669421",
"W. c #6A9522",
"Q. c #6C9A21",
"!. c #72A021",
"~. c #7CA925",
"^. c #7FAB28",
"/. c #78A622",
"(. c #388045",
"). c #76877E",
"_. c #75927C",
"`. c #80AD29",
"'. c #80AF24",
"]. c #83B127",
"[. c #8DBA2F",
"{. c #8BB334",
"}. c #93BD36",
"|. c #95B93F",
" X c #9CC53D",
".X c #A1C93F",
"XX c #96BA41",
"oX c #A5CD42",
"OX c #AAD244",
"+X c #7B878B",
"@X c #808B8E",
"#X c #82968A",
"$X c #86988E",
"%X c #D7DBD8",
"&X c #EFEFF0",
"*X c #EFF2F0",
"=X c #F1F2F2",
"-X c #F7F6F8",
";X c #F8F9F8",
":X c None",
/* pixels */
":X:X:X:X:X:X:X:X:X:X:X:X:X:X:X:X:X:X:X:X:X:X:X:X:X:X:X:X:X:X:X:X:X:X:X:X:X:X:X:X:X:X:X:X:X:X:X:X:X:X:X:X:X:X:X:X:X:X:X:X:X:X:X:X",
":X:X:X:X:X:X:X:X:X:X:X:X:X:X:X:X:X:X:X:X:X:X:X:X:X:X:X:X:X:X:X:X:X:X:X:X:X:X:X:X:X:X:X:X:X:X:X:X:X:X:X:X:X:X:X:X:X:X:X:X:X:X:X:X",
":X:X:X:X:X:X:X:X:X:X:X:X:X:X:X:X:X:X:X:X:X:X:X:X:X:X:X:X:X:X:X:X:X:X:X:X:X:X:X:X:X:X:X:X:X:X:X:X:X:X:X:X:X:X:X:X:X:X:X:X:X:X:X:X",
":X:X:X:X:X:X:X:X:X:X:X:X:X:X:X:X:X:X:X:X:X:X:X:X:X:X:X:X:X:X:X:X:X:X:X:X:X:X:X:X:X:X:X:X:X:X:X:X:X:X:X:X:X:X:X:X:X:X:X:X:X:X:X:X",
":X:X:X:X:X:X:X:X:X:X:X:X:X:X:X:X:X:X:X:X:X:X:X:X:X:X:X:X:X:X:X:X:X:X:X:X:X:X:X:X:X:X:X:X:X:X:X:X:X:X:X:X:X:X:X:X:X:X:X:X:X:X:X:X",
":X:X:X:X:X:X:X:X:X:X:X:X:X:X:X:X:X:X:X:X:X:X:X:X:X:X:X:X:X:X:X:X:X:X:X:X:X:X:X:X:X:X:X:X:X:X:X:X:X:X:X:X:X:X:X:X:X:X:X:X:X:X:X:X",
":X:X:X:X:X:X:X:X:X:X:X:X:X:X:X:X:X:X:X:X:X:X:X:X:X:X:X:X:X:X:X:X:X:X:X:X:X:X:X:X:X:X:X:X:X:X:X:X:X:X:X:X:X:X:X:X:X:X:X:X:X:X:X:X",
":X:X:X:X:X:X:X:X:X:X:X:X:X:X:X:X:X:X:X:X:X:X:X:X:X:X:X:X:X:X:X:X:X:X:X:X:X:X:X:X:X:X:X:X:X:X:X:X:X:X:X:X:X:X:X:X:X:X:X:X:X:X:X:X",
":X:X:X:X:X:X:X:X:X:X:X:X:X:X:X:X:X:X:X:X:X:X:X:X:X:X:X:X:X:X:X:X:X:X:X:X:X:X:X:X:X:X:X:X:X:X:X:X:X:X:X:X:X:X:X:X:X:X:X:X:X:X:X:X",
":X:X:X:X:X:X:X:X:X:X:X:X:X:X:X:X:X:X:X:X:X:X:X:X:X:X:X:X:X:X:X:X:X:X:X:X:X:X:X:X:X:X:X:X:X:X:X:X:X:X:X:X:X:X:X:X:X:X:X:X:X:X:X:X",
":X:X:X:X:X:X:X:X:X:X:X:X:X:X:X:X:X:X:X:X:X:X:X:X:X:X:X:X:X:X:X:X:X:X:X:X:X:X:X:X:X:X:X:X:X:X:X:X:X:X:X:X:X:X:X:X:X:X:X:X:X:X:X:X",
":X:X:X:X:X:X:X:X:X:X:X:X:X:X:X:X:X:X:X:X:X:X:X:X:X:X:X:X:X:X:X:X:X:X:X:X:X:X:X:X:X:X:X:X:X:X:X:X:X:X:X:X:X:X:X:X:X:X:X:X:X:X:X:X",
":X:X:X:X:X:X:X:X:X:X+ + O O O O :X:X:X:X:X:X# # # # # # # # # # # # :X:X:X:X:X:X# # # # # # # # :X:X:X:X:X:X:X:X:X:X:X:X:X:X:X:X",
":X:X:X:X:X:X:X:X:X:Xs #.f f #.d :X:X:X:X:X:XP [ ` ` ` ` ` ` ` ` [ P :X:X:X:X:X:XP [ ` ` ` ` [ P :X:X:X:X:X:X:X:X:X:X:X:X:X:X:X:X",
":X:X:X:X:X:X:X:XO d 3.y.r.r.y.3.s @ :X:X# P R.!.Q.Q.Q.Q.Q.Q.Q.Q.!.R.P # :X:X# P R.!.Q.Q.Q.Q.L.R.P # :X:X:X:X:X:X:X:X:X:X:X:X:X:X",
":X:X:X:X:X:X:X:XO #.y.p.i.i.p.r.:.- :X:X# E T.G.S.S.S.S.S.S.S.W.G.T.E # :X:X# E T.G.W.D.S.S.G.T.E # :X:X:X:X:X:X:X:X:X:X:X:X:X:X",
":X:X:X:X:X:X:X:X+ d 7.w.0.0.0.7.>...; : O 2 B A Z Z Z Z Z Z Z Z A B 2 O + O o > B A Z Z Z A A B 2 X :X:X:X:X:X:X:X:X:X:X:X:X:X:X",
":X:X:X:X:X:X:X:X+ s >.<.,.,.2.2.-.&.X.p s i y t t t t t r r t t w w u s d s s i y t r r e t t y #.d :X:X:X:X:X:X:X:X:X:X:X:X:X:X",
":X:X:X:X:X:X:X:X:X:Xp p a d -.>.s 0 &.>.,.4.e.r.r.r.r.8.<.<.r.r.<.,.,.<.,.<.,.3.r.e.<.<.8.r.r.r.y.e.d O :X:X:X:X:X:X:X:X:X:X:X:X",
":X:X:X:X:X:X:X:X:X:X0 p - p &...- - ..-.,.7.t.u.u.u.u.u.9.9.t.t.9.9.9.9.9.9.5.0.t.t.0.9.t.u.t.t.y.e.g O :X:X:X:X:X:X:X:X:X:X:X:X",
":X:X:X:X:X:X:X:X+ s >.,.*...s ; + : ; 9 a d >.1.>.1.>.1.5.5.1.1.7.7.7.7.7.7.9.4.1.1.7.5.1.>.1.>.f p a : :X:X:X:X:X:X:X:X:X:X:X:X",
":X:X:X:X:X:X:X:XO g 8.9.2.*.a + 9 p a 9 a s *.-.-.-.=.;.5.5.;.;.4.9.7.7.5.7.q.4.;.;.5.5.;.-.-.=.s a - * :X:X:X:X:X:X:X:X:X:X:X:X",
":X:X:X:X:X:X:X:XO f r.i.9.>.a - &.*.*.*.,.4.4.5.5.5.5.5.q.9.5.5.q.9.9.9.9.9.9.9.5.5.7.9.5.5.5.5.6.>.s + :X:X:X:X:X:X:X:X:X:X:X:X",
":X:X:X:X:X:X:X:XO f r.i.0.<.u - ..=.&.=.2.4.<.2.<.<.+.@.@.@.+.+.@.@.,.<.<.2.,.,.+.@.@.@.+.+.+.+.6.,.s O :X:X:X:X:X:X:X:X:X:X:X:X",
":X:X:X:X:X:X:X:XO f r.i.0.<.s O 7 8 8 8 r e e e s q 6 4 4 4 4 4 4 5 q u r e u q 6 4 4 4 4 4 4 6 q X.7 # :X:X:X:X:X:X:X:X:X:X:X:X",
":X:X:X:X:X:X:X:XO f r.i.8.%.u : , B B B B B B , . o.O.@X+X+X+X+X+XO.o.. B , . o.O.@X+X+X+X+X@XO.o.. B D :X:X:X:X:X:X:X:X:X:X:X:X",
":X:X:X:X:X:X:X:X+ #.i.i.$.7 = , x v v v v v v l   ).%X-X=X&X&X=X;X%X+X  l l   ).%X-X=X&X&X=X-X%X+X  m b V = :X:X:X:X:X:X:X:X:X:X",
":X:X:X:X:X:X:X:X+ g 3.e.s : > L z.c.c.c.c.c.c.a.k _.%X;X=X*X*X=X;X%X_.k d.d.k _.%X;X=X*X*X=X;X%X_.k d.z.E % :X:X:X:X:X:X:X:X:X:X",
":X:X:X:X:X:X:X:X:X:Xd d ; , z x.M.A.G.F.F.G.A.N.s.( _.$X#X+X#X#X$X_.(.s.H.N.s.( _.$X#X#X#X#X$X_.( s.b.E.P $ :X:X:X:X:X:X:X:X:X:X",
":X:X:X:X:X:X:X:X:X:XO o # G x.v.K./.P.L.L.L./.G.M.h.l h j k j h h l a.m.L.L.N.h.k h j j j h h k h.M.L.W.` # :X:X:X:X:X:X:X:X:X:X",
":X:X:X:X:X:X:X:X:X:X:X:X# P T.K.L.L.J.J.L.L.L.L.K.K.C.V.C.C.C.C.V.C.K.K.L.U.K.K.C.C.C.C.C.C.b.V.H.K.U.E.` # :X:X:X:X:X:X:X:X:X:X",
":X:X:X:X:X:X:X:X:X:X:X:X# ` W.I.L.L.L.L.L.L.L.J.Q.E.E.G.Q.Q.D.D.D.W.Q.Q.E.E.E.Q.Q.D.D.D.D.D.Q.Q.L././.E.` # :X:X:X:X:X:X:X:X:X:X",
":X:X:X:X:X:X:X:X:X:X:X:X# ` W.U.L.L.L.K.L.L.L.Q. ./ ^ ~ ~ ^ ~ ~ ~ ~ ~ ^ ^ ^ ^ ~ ^ ^ ~ ^ ~ ^ Q  .Q.P.I.W._ # :X:X:X:X:X:X:X:X:X:X",
":X:X:X:X:X:X:X:X:X:X:X:X# E E.U.L.L.J.L.L.K.K.M.( Q / / ^ ^ ^ / ~ ~ ~ ^ ^ ~ ^ ^ ^ ^ ^ ^ ^ / Q ( T.K.U.E.` # :X:X:X:X:X:X:X:X:X:X",
":X:X:X:X:X:X:X:X:X:X:X:X# _ W.P.L.G.L.L.!.D.c.n.M.E.E.E.S.S.E.W.W.Q.W.S.Q.S.Q.W.S.Q.E.Q.S.S.W.M.k.m.K.E.` # :X:X:X:X:X:X:X:X:X:X",
":X:X:X:X:X:X:X:X:X:X:X:X# ` W.P.L.!.L.L.L.G.n.n.K.P.U.U.L.L.U.L.K.G.K.F.F.K.F.K.K.K.L.P.L.U.U.K.m.n.L.W.` # :X:X:X:X:X:X:X:X:X:X",
":X:X:X:X:X:X:X:X:X:X:X:X# [ Q.I.P.L.L.L.L.L.G.G.K.L.L.L.L.L.L.G.m.j.k.k.k.k.k.k.j.m.D.L.L.L.L.K.G.K.I.Q.[ # :X:X:X:X:X:X:X:X:X:X",
":X:X:X:X:X:X:X:X:X:X:X:X# W Y.Q.G.G.K.L.L.L.L.!.!.L.!.K.L.L.L.G.m.j.j.k.k.k.k.j.j.m.F.L.L.L.L.L.K.G.Q.Y.P # :X:X:X:X:X:X:X:X:X:X",
":X:X:X:X:X:X:X:X:X:X:X:X:X:XK ] z.v.K./.L.L.L.J.L.L.L.L.L.J.L.J.F.F.F.F.F.G.H.F.F.G.L.L.L.L.P.K.v.z.] H :X:X:X:X:X:X:X:X:X:X:X:X",
":X:X:X:X:X:X:X:X:X:X:X:X:X:X# : z l.M.G.G.G.G.!.L.L.G.L.L.J.L.L.L.L.P.L.L.L.L.L.L.L.L.G.G.G.G.M.l.z : # :X:X:X:X:X:X:X:X:X:X:X:X",
":X:X:X:X:X:X:X:X:X:X:X:X:X:X:X:X< ^ k.c.g.m.A./.L.J.L.L.L.G.L.L.L.L.L.J.L.L.J.L.J.L.L.A.v.g.c.k./ < :X:X:X:X:X:X:X:X:X:X:X:X:X:X",
":X:X:X:X:X:X:X:X:X:X:X:X:X:X:X:X= < Q v v N D.L.L.L.L.J.J.L.J.J.L.L.L.J.J.J.J.L.L.L.L.S.N v b c < = :X:X:X:X:X:X:X:X:X:X:X:X:X:X",
":X:X:X:X:X:X:X:X:X:X:X:X:X:X:X:X:X:X> > o P E.U.!.L.L.L.A.G.A.G.A.A.A.G.G.A.A.A.A.A.U.E.P O V D :X:X:X:X:X:X:X:X:X:X:X:X:X:X:X:X",
":X:X:X:X:X:X:X:X:X:X:X:X:X:X:X:X:X:XH ' 3 ] E.U.L.L.A.L.^.`.`.^.^.^.^.^.^.^.`.^.`.^.P.E.] 3 - % :X:X:X:X:X:X:X:X:X:X:X:X:X:X:X:X",
":X:X:X:X:X:X:X:X:X:X:X:X:X:X:X:X# K Y.Q.W.W.J.L.L.J.A.P.}. X X X X X X X X X X X X}./.H.D.| J $ = % :X:X:X:X:X:X:X:X:X:X:X:X:X:X",
":X:X:X:X:X:X:X:X:X:X:X:X:X:X:X:X3 | Q.I.I.P.L.L.J.J.P.{.oXOXOXoXoXoXoXOXoXoXoXOXOXoX{./.I.A.) $ Y D :X:X:X:X:X:X:X:X:X:X:X:X:X:X",
":X:X:X:X:X:X:X:X:X:X:X:X:X:X# H Y.K.L.L.L.L.U.L.A.`.}.oXoXoXoXoXoXoXoXoXoXoXoXoXoXoX X}.'.Z._ : ^ M < = :X:X:X:X:X:X:X:X:X:X:X:X",
":X:X:X:X:X:X:X:X:X:X:X:X:X:X> ] !.I.L.L.A.S.E.S.G.`.|.oXoXoXoX.XoXoXoXoXoXoXoXoXoXoXOXoX].Z.3 1 h.h./ 3 :X:X:X:X:X:X:X:X:X:X:X:X",
":X:X:X:X:X:X:X:X:X:X:X:X= V x n.G.P.P.K.v.x.L ) Z.'. XOXoXoXoXoXoXoXoXoXoXoXoXoXoXoXoX X'.Z.H , n h.h./ D = :X:X:X:X:X:X:X:X:X:X",
":X:X:X:X:X:X:X:X:X:X:X:X= R n g.N.G.K.M.x.z D [ Z.'. XOXoXoXoXoXoXoXoX.XoXoX.XoXoXoXOX X].Z.H < M f.f.h.R = :X:X:X:X:X:X:X:X:X:X",
":X:X:X:X:X:X:X:X:X:X:X:X= T h.g.g.c.c.x.C J Y.D.G.'. XoXoXoXoXoXoX.XoXoXoXoXoXoXoXoXOX X].R.H , M f.f.h.R = :X:X:X:X:X:X:X:X:X:X",
":X:X:X:X:X:X:X:X:X:X:X:X= 1 M M n b b Q , I W.U.A.'.|.OXoXoXoXoXoXoXoXoXoXoXoXoXoXoXoX X].Z.J : / M M M D = :X:X:X:X:X:X:X:X:X:X",
":X:X:X:X:X:X:X:X:X:X:X:X:X:XD T U V V S c n.G.L.A.`..XOXoXoXoXoXoXoXoXoXoXoXoX.XoXoXOX X].Z.P $ V R T D :X:X:X:X:X:X:X:X:X:X:X:X",
":X:X:X:X:X:X:X:X:X:X:X:X:X:X= = = = = D b c.F.U.J.`.}..XoXOXoXOXoXoXoXoX.XOXoXOXoXoX.X}.'.Z.P $ % % = = :X:X:X:X:X:X:X:X:X:X:X:X",
":X:X:X:X:X:X:X:X:X:X:X:X:X:X:X:X:X:X% D b g.F.L.J.L.P.[..XOXOXOXOXOXoXOXOXOXOXOXOXoX{./.L.E._ # :X:X:X:X:X:X:X:X:X:X:X:X:X:X:X:X",
":X:X:X:X:X:X:X:X:X:X:X:X:X:X:X:X:X:X= U b c.F.P.L.J.Z.W.{.XXXXXX|.|.|.|.|.|.|.|.XX{.!.A.U.E.` # :X:X:X:X:X:X:X:X:X:X:X:X:X:X:X:X",
":X:X:X:X:X:X:X:X:X:X:X:X:X:X:X:X:X:X= F b k.F.L.I.W.] W } { { { { { { { { { } } ' | Q.U.P.W.` # :X:X:X:X:X:X:X:X:X:X:X:X:X:X:X:X",
":X:X:X:X:X:X:X:X:X:X:X:X:X:X:X:X:X:X= F b c.F.L.K.Z.H # # X X X X X X X X X X X X L W.P.K.T.P $ :X:X:X:X:X:X:X:X:X:X:X:X:X:X:X:X",
":X:X:X:X:X:X:X:X:X:X:X:X:X:X:X:X:X:X= F b c.G.L.v.l.T & :X:X:X:X:X:X:X:X:X:X& 1 ! z.G.K.v.l.T % :X:X:X:X:X:X:X:X:X:X:X:X:X:X:X:X",
":X:X:X:X:X:X:X:X:X:X:X:X:X:X:X:X:X:X= F n c.F.F.l.z 1 = :X:X:X:X:X:X:X:X:X:X% U h.g.H.H.k.z V = :X:X:X:X:X:X:X:X:X:X:X:X:X:X:X:X",
":X:X:X:X:X:X:X:X:X:X:X:X:X:X:X:X:X:X= T h.f.g.z.^ < :X:X:X:X:X:X:X:X:X:X:X:X= R h.f.g.n./ < :X:X:X:X:X:X:X:X:X:X:X:X:X:X:X:X:X:X",
":X:X:X:X:X:X:X:X:X:X:X:X:X:X:X:X:X:X= D ~ h.n Q < = :X:X:X:X:X:X:X:X:X:X:X:X= D ~ M n c < = :X:X:X:X:X:X:X:X:X:X:X:X:X:X:X:X:X:X",
":X:X:X:X:X:X:X:X:X:X:X:X:X:X:X:X:X:X:X:XD F U D :X:X:X:X:X:X:X:X:X:X:X:X:X:X:X:XY U U D :X:X:X:X:X:X:X:X:X:X:X:X:X:X:X:X:X:X:X:X",
":X:X:X:X:X:X:X:X:X:X:X:X:X:X:X:X:X:X:X:X= = = = :X:X:X:X:X:X:X:X:X:X:X:X:X:X:X:X= = = = :X:X:X:X:X:X:X:X:X:X:X:X:X:X:X:X:X:X:X:X"
};
