/* XPM */
static char *result[] = {
/* columns rows colors chars-per-pixel */
"64 64 187 2 ",
"   c #01002C",
".  c #1A002F",
"X  c #001927",
"o  c #001B2B",
"O  c #1D152D",
"+  c #1B1B2D",
"@  c #000031",
"#  c #0F0032",
"$  c #130632",
"%  c #181831",
"&  c #261E2F",
"*  c #2B1D2F",
"=  c #321C2F",
"-  c #2A1D31",
";  c #211E32",
":  c #00232F",
">  c #14222E",
",  c #173A2D",
"<  c #0E2030",
"1  c #1B2431",
"2  c #1F2A31",
"3  c #212A2E",
"4  c #232332",
"5  c #222B31",
"6  c #362133",
"7  c #2A3431",
"8  c #353C35",
"9  c #560038",
"0  c #431F32",
"q  c #4C1B34",
"w  c #5B1F35",
"e  c #661038",
"r  c #4C2234",
"t  c #472D31",
"y  c #562134",
"u  c #5B2234",
"i  c #513232",
"p  c #6B263A",
"a  c #6C2B39",
"s  c #6B2A35",
"d  c #742539",
"f  c #7C2539",
"g  c #752A3A",
"h  c #7C2F3D",
"j  c #7D343B",
"k  c #703037",
"l  c #0A671B",
"z  c #077817",
"x  c #187918",
"c  c #296F1F",
"v  c #247C13",
"b  c #247A19",
"n  c #3E7B1D",
"m  c #14472B",
"M  c #025B24",
"N  c #095228",
"B  c #185127",
"V  c #0A4528",
"C  c #224A2D",
"Z  c #35462E",
"A  c #24552D",
"S  c #32592B",
"D  c #334033",
"F  c #3B5731",
"G  c #276B21",
"H  c #386026",
"J  c #457C1F",
"K  c #4C4A2D",
"L  c #43582C",
"P  c #544430",
"I  c #4A5C35",
"U  c #465937",
"Y  c #4C6434",
"T  c #516234",
"R  c #586E3A",
"E  c #54663C",
"W  c #5C7436",
"Q  c #596528",
"!  c #7A672E",
"~  c #64783E",
"^  c #93083F",
"/  c #97153C",
"(  c #83263C",
")  c #8D243E",
"_  c #84293B",
"`  c #8A283F",
"'  c #92253D",
"]  c #95353D",
"[  c #833A37",
"{  c #BD323E",
"}  c #A3413C",
"|  c #AA6C37",
" . c #8F2A41",
".. c #832740",
"X. c #AF2240",
"o. c #A52A42",
"O. c #AB2B43",
"+. c #A12640",
"@. c #B42D44",
"#. c #BB2C45",
"$. c #BF2F48",
"%. c #AC3542",
"&. c #B53546",
"*. c #B63C43",
"=. c #BE3945",
"-. c #C32D46",
";. c #C42F48",
":. c #CB2E48",
">. c #D22F4A",
",. c #CC3445",
"<. c #CD3248",
"1. c #C93B45",
"2. c #DB3B45",
"3. c #D33249",
"4. c #D9314C",
"5. c #D53B48",
"6. c #DB3D4A",
"7. c #D33943",
"8. c #E23D4B",
"9. c #E23E45",
"0. c #BA4043",
"q. c #CF4746",
"w. c #DC4249",
"e. c #D84747",
"r. c #E34346",
"t. c #E2464A",
"y. c #E9474C",
"u. c #E44A4A",
"i. c #EB4D4C",
"p. c #E5514E",
"a. c #E8524F",
"s. c #F1524E",
"d. c #E65550",
"f. c #E85650",
"g. c #E65C54",
"h. c #EA5C55",
"j. c #F45F56",
"k. c #EA655A",
"l. c #EB6C5E",
"z. c #E86157",
"x. c #F26B5E",
"c. c #EC7563",
"v. c #ED7E69",
"b. c #ED7A67",
"n. c #F17362",
"m. c #F07865",
"M. c #188A06",
"N. c #14810D",
"B. c #1D8A09",
"V. c #288B0A",
"C. c #3E8E0D",
"Z. c #2C8512",
"A. c #3E8414",
"S. c #4A920E",
"D. c #4E891E",
"F. c #4C8417",
"G. c #4E9215",
"H. c #529715",
"J. c #62831D",
"K. c #649819",
"L. c #68A21A",
"P. c #428520",
"I. c #5C8823",
"U. c #62842B",
"Y. c #689624",
"T. c #73992C",
"R. c #70863B",
"E. c #7E9A3D",
"W. c #6C863B",
"Q. c #7EA928",
"!. c #7DAD33",
"~. c #85A83A",
"^. c #8EB23C",
"/. c #88BC33",
"(. c #98BF3F",
"). c #9AC439",
"_. c #8BAB40",
"`. c #91AF41",
"'. c #EF806A",
"]. c #F0856E",
"[. c #F18A72",
"{. c #F08770",
"}. c #F39075",
"|. c #F49579",
" X c #9EC640",
".X c #A0C741",
"XX c None",
/* pixels */
"XXXXXXXXXXXXXXXXXXXXXXXXXXXXXXXXXXXXXXXXXXXXXXXXXXXXXXXXXXXXXXXXXXXXXXXXXXXXXXXXXXXXXXXXXXXXXXXXXXXXXXXXXXXXXXXXXXXXXXXXXXXXXXXX",
"XXXXXXXXXXXXXXXXXXXXXXXXXXXXXXXXXXXXXXXXXXXXXXXXXXXXXXXXXXXXXXXXXXXXXXXXXXXXXXXXXXXXXXXXXXXXXXXXXXXXXXXXXXXXXXXXXXXXXXXXXXXXXXXX",
"XXXXXXXXXXXXXXXXXXXXXXXXXXXXXXXXXXXXXXXXXXXXXXXXXXXXXXXXXXXXXXXXXXXXXXXXXXXXXXXXXXXXXXXXXXXXXXXXXXXXXXXXXXXXXXXXXXXXXXXXXXXXXXXX",
"XXXXXXXXXXXXXXXXXXXXXXXXXXXXXXXXXXXXXXXXXXXXXXXXXXXXXXXXXXXXXXXXXXXXXXXXXXXXXXXXXXXXXXXXXXXXXXXXXXXXXXXXXXXXXXXXXXXXXXXXXXXXXXXX",
"XXXXXXXXXXXXXXXXXXXXXXXXXXXXXXXXXXXXXXXXXXXXXXXXXXXXXXXXXXXXXXXXXXXXXXXXXXXXXXXXXXXXXXXXXXXXXXXXXXXXXXXXXXXXXXXXXXXXXXXXXXXXXXXX",
"XXXXXXXXXXXXXXXXXXXXXXXXXXXXXXXXXXXXXXXXXXXXXXXXXXXXXXXXXXXXXXXXXXXXXXXXXXXXXXXXXXXXXXXXXXXXXXXXXXXXXXXXXXXXXXXXXXXXXXXXXXXXXXXX",
"XXXXXXXXXXXXXXXXXXXXXXXXXXXXXXXXXXXXXXXXXXXXXXXXXXXXXXXXXXXXXXXXXXXXXXXXXXXXXXXXXXXXXXXXXXXXXXXXXXXXXXXXXXXXXXXXXXXXXXXXXXXXXXXX",
"XXXXXXXXXXXXXXXXXXXXXXXXXXXXXXXXXXXXXXXXXXXXXXXXXXXXXXXXXXXXXXXXXXXXXXXXXXXXXXXXXXXXXXXXXXXXXXXXXXXXXXXXXXXXXXXXXXXXXXXXXXXXXXXX",
"XXXXXXXXXXXXXXXXXXXXXXXXXXXXXXXXXXXXXXXXXXXXXXXXXXXXXXXXXXXXXXXXXXXXXXXXXXXXXXXXXXXXXXXXXXXXXXXXXXXXXXXXXXXXXXXXXXXXXXXXXXXXXXXX",
"XXXXXXXXXXXXXXXXXXXXXXXXXXXXXXXXXXXXXXXXXXXXXXXXXXXXXXXXXXXXXXXXXXXXXXXXXXXXXXXXXXXXXXXXXXXXXXXXXXXXXXXXXXXXXXXXXXXXXXXXXXXXXXXX",
"XXXXXXXXXXXXXXXXXXXXXXXXXXXXXXXXXXXXXXXXXXXXXXXXXXXXXXXXXXXXXXXXXXXXXXXXXXXXXXXXXXXXXXXXXXXXXXXXXXXXXXXXXXXXXXXXXXXXXXXXXXXXXXXX",
"XXXXXXXXXXXXXXXXXXXXXXXXXXXXXXXXXXXXXXXXXXXXXXXXXXXX    XXXXXXXXXXXXXXXXXXXXXXXXXXXXXXXXXXXXXXXXXXXXXXXXXXXXXXXXXXXXXXXXXXXXXXXX",
"XXXXXXXXXXXXXXXXXXXXXXXXXXXXXXXXXXXXXXXXXXXXXXXX4 4 4 7 7 XXXXXXXXXXXXXXXXXXXXXXXXXXXXXXXXXXXXXXXXXXXXXXXXXXXXXXXXXXXXXXXXXXXXXX",
"XXXXXXXXXXXXXXXXXXXXXXXXXXXXXXXXXXXXXXXXXXXXXXXX  6 U W R T XXXXXXXXXXXXXXXXXXXXXXXXXXXXXXXXXXXXXXXXXXXXXXXXXXXXXXXXXXXXXXXXXXXX",
"XXXXXXXXXXXXXXXXXXXXXXXXXXXXXXXXXXXXXXXXXXXXXXXX@ D ~ `.`.R.8 XXXXXXXXXXXXXXXXXXXXXXXXXXXXXXXXXXXXXXXXXXXXXXXXXXXXXXXXXXXXXXXXXX",
"XXXXXXXXXXXXXXXXXXXXXXXXXXXXXXXXXXXXXXXXXXXXXXXX@ D R.`.).~.Y   XXXXXXXXXXXXXXXXXXXXXXXXXXXXXXXXXXXXXXXXXXXXXXXXXXXXXXXXXXXXXXXX",
"XXXXXXXXXXXXXXXXXXXXXXXXXXXXXXXXXXXXXXXXXXXXXX@   7 W !./.!.W L Z XXXXXXXXXXXXXXXXXXXXXXXXXXXXXXXXXXXXXXXXXXXXXXXXXXXXXXXXXXXXXX",
"XXXXXXXXXXXXXXXXXXXXXXXXXXXXXXXXXXXXXX3 5 5 1 % $ 3 S D.H.L.L.U.L 5 XXXXXXXXXXXXXXXXXXXXXXXXXXXXXXXXXXXXXXXXXXXXXXXXXXXXXXXXXXXX",
"XXXXXXXXXXXXXXXXXXXXXXXXXXXXXXXXXXXXXXY R R Y F Z C N l x H.L.Y.Y 7 @ XXXXXXXXXXXXXXXXXXXXXXXXXXXXXXXXXXXXXXXXXXXXXXXXXXXXXXXXXX",
"XXXXXXXXXXXXXXXXXXXXXXXXXXXXXXXXXX3 T E.^.^.T.I.J c M V B n H.D.F 5 # XXXXXXXXXXXXXXXXXXXXXXXXXXXXXXXXXXXXXXXXXXXXXXXXXXXXXXXXXX",
"XXXXXXXXXXXXXXXXXXXXXXXXXXXXXXXXXX5 E _. X(.Q.K.S.Z.l m , G Z.b A 1 # XXXXXXXXXXXXXXXXXXXXXXXXXXXXXXXXXXXXXXXXXXXXXXXXXXXXXXXXXX",
"XXXXXXXXXXXXXXXXXXXXXXXXXXXXXXXX@ 1 E E.^.~.Y.F.C.V.z M M z N.x N : @ XXXXXXXXXXXXXXXXXXXXXXXXXXXXXXXXXXXXXXXXXXXXXXXXXXXXXXXXXX",
"XXXXXXXXXXXXXXXXXXXXXXXXXXXXXXXXXX% 8 U T I C M b V.M.N.x M.M.x B > . % + + + + > + XXXXXXXXXXXXXXXXXXXXXXXXXXXXXXXXXXXXXXXXXXXX",
"XXXXXXXXXXXXXXXXXXXXXXXXXXXXXXXXXX4 % + < - q i H x A.J.J.F.Z.c K w e a g a a a p y q XXXXXXXXXXXXXXXXXXXXXXXXXXXXXXXXXXXXXXXXXX",
"XXXXXXXXXXXXXXXXXXXXXXXXXXXXXXXXXXXXXX    9 ^ ' P M Q | | ! M B j ' @.*.0.0.*.&.O.) w o XXXXXXXXXXXXXXXXXXXXXXXXXXXXXXXXXXXXXXXX",
"XXXXXXXXXXXXXXXXXXXXXXXXXXXXXXXXXXXXXXO q ) -.#.( t [ q.e.} i u O.3.w.w.u.u.e.w.3.#.` r o XXXXXXXXXXXXXXXXXXXXXXXXXXXXXXXXXXXXXX",
"XXXXXXXXXXXXXXXXXXXXXXXXXXXXXXXXXXXXXXk ] =.2.4.X./ { 4.8.-./ / ;.6.y.i.s.i.i.y.t.3.&.` y r XXXXXXXXXXXXXXXXXXXXXXXXXXXXXXXXXXXX",
"XXXXXXXXXXXXXXXXXXXXXXXXXXXXXXXXXX* s %.q.r.2.2.,.,.7.w.t.e.7.7.w.r.u.u.u.i.u.u.w.w.5.#.' u & XXXXXXXXXXXXXXXXXXXXXXXXXXXXXXXXXX",
"XXXXXXXXXXXXXXXXXXXXXXXXXXXXXXXXXX= h 1.u.a.a.f.a.a.a.u.u.a.a.a.p.u.u.u.u.u.u.u.u.u.8.<.O.p 4 XXXXXXXXXXXXXXXXXXXXXXXXXXXXXXXXXX",
"XXXXXXXXXXXXXXXXXXXXXXXXXXXXXXXXXX= h 1.i.x.l.c.m.n.k.p.a.k.c.c.f.u.r.u.u.u.u.i.u.t.8.3.O.g = XXXXXXXXXXXXXXXXXXXXXXXXXXXXXXXXXX",
"XXXXXXXXXXXXXXXXXXXXXXXXXXXXXXXXXX= g { u.x.v.[.}.].c.a.p.l.'.'.k.u.r.u.u.u.u.u.u.t.6.<.O.p = XXXXXXXXXXXXXXXXXXXXXXXXXXXXXXXXXX",
"XXXXXXXXXXXXXXXXXXXXXXXXXXXXXXXXXX* g { u.x.].|.|.}.'.g.p.l.'.v.g.u.r.u.u.w.w.t.u.y.6.:.+.p 4 XXXXXXXXXXXXXXXXXXXXXXXXXXXXXXXXXX",
"XXXXXXXXXXXXXXXXXXXXXXXXXXXXXXXXXX* g { i.x.{.|.|.}.'.g.t.d.z.z.a.u.u.u.w.5.7.w.u.w.6.<.o.p - XXXXXXXXXXXXXXXXXXXXXXXXXXXXXXXXXX",
"XXXXXXXXXXXXXXXXXXXXXXXXXXXXXXXXXX= d =.u.l.v.[.}.{.c.g.t.r.u.u.t.u.u.u.t.7.<.5.t.u.8.<.o.p - XXXXXXXXXXXXXXXXXXXXXXXXXXXXXXXXXX",
"XXXXXXXXXXXXXXXXXXXXXXXXXXXXXXXXXX* g #.w.h.l.c.c.c.l.p.r.r.r.r.u.u.u.u.t.w.6.w.u.u.8.3.O.p - XXXXXXXXXXXXXXXXXXXXXXXXXXXXXXXXXX",
"XXXXXXXXXXXXXXXXXXXXXXXXXXXXXXXXXX* p O.3.y.a.f.d.p.a.u.u.u.u.u.u.u.u.u.u.u.e.u.u.y.6.3.O.d - XXXXXXXXXXXXXXXXXXXXXXXXXXXXXXXXXX",
"XXXXXXXXXXXXXXXXXXXXXXXXXXXXXXXXXX* u ' #.<.2.9.r.r.r.u.u.u.u.u.u.u.u.u.u.u.u.u.w.w.1.@.' u - XXXXXXXXXXXXXXXXXXXXXXXXXXXXXXXXXX",
"XXXXXXXXXXXXXXXXXXXXXXXXXXXXXXXXXXXXXXw ( O.-.2.w.u.u.u.u.u.u.u.u.u.u.u.u.i.u.u.6.1.&.( u XXXXXXXXXXXXXXXXXXXXXXXXXXXXXXXXXXXXXX",
"XXXXXXXXXXXXXXXXXXXXXXXXXXXXXXXXXXXXXXo r ` #.3.w.r.u.u.u.u.u.u.u.u.u.u.u.u.u.w.4.#.` y o XXXXXXXXXXXXXXXXXXXXXXXXXXXXXXXXXXXXXX",
"XXXXXXXXXXXXXXXXXXXXXXXXXXXXXXXXXXXXXXX 6 ( #.4.6.w.w.w.w.w.5.w.w.w.5.w.w.w.6.6.4.#.( 6 X XXXXXXXXXXXXXXXXXXXXXXXXXXXXXXXXXXXXXX",
"XXXXXXXXXXXXXXXXXXXXXXXXXXXXXXXXXXXXXXo r  .-.4.3.<.3.<.<.5.<.<.<.<.5.<.3.<.3.3.4.;.` r o XXXXXXXXXXXXXXXXXXXXXXXXXXXXXXXXXXXXXX",
"XXXXXXXXXXXXXXXXXXXXXXXXXXXXXXXXXXXXXXo r d O.;.:.:.<.:.:.:.:.:.:.:.:.:.:.:.<.:.;.O.f r o XXXXXXXXXXXXXXXXXXXXXXXXXXXXXXXXXXXXXX",
"XXXXXXXXXXXXXXXXXXXXXXXXXXXXXXXXXXXXXXXXXXu d o.$.3.4.>.3.>.>.3.>.>.3.>.4.4.:.#.o.g u XXXXXXXXXXXXXXXXXXXXXXXXXXXXXXXXXXXXXXXXXX",
"XXXXXXXXXXXXXXXXXXXXXXXXXXXXXXXXXXXXXXXXXXXX6 p o.:.4.:.:.<.<.:.<.<.:.<.:.>.;.{ p = XXXXXXXXXXXXXXXXXXXXXXXXXXXXXXXXXXXXXXXXXXXX",
"XXXXXXXXXXXXXXXXXXXXXXXXXXXXXXXXXXXXXXXXXXXXXX4 ( ] #.O.O.O.o.O.o.O.o.O.O.@.' _ 4 XXXXXXXXXXXXXXXXXXXXXXXXXXXXXXXXXXXXXXXXXXXXXX",
"XXXXXXXXXXXXXXXXXXXXXXXXXXXXXXXXXXXXXXXXXXXXXXXXu p f p p p p p p p p p p g p p XXXXXXXXXXXXXXXXXXXXXXXXXXXXXXXXXXXXXXXXXXXXXXXX",
"XXXXXXXXXXXXXXXXXXXXXXXXXXXXXXXXXXXXXXXXXXXXXXXXXX* 4 * & * - * & - * * 4 - 4 XXXXXXXXXXXXXXXXXXXXXXXXXXXXXXXXXXXXXXXXXXXXXXXXXX",
"XXXXXXXXXXXXXXXXXXXXXXXXXXXXXXXXXXXXXXXXXXXXXXXXXXXXXXXXXXXXXXXXXXXXXXXXXXXXXXXXXXXXXXXXXXXXXXXXXXXXXXXXXXXXXXXXXXXXXXXXXXXXXXXX",
"XXXXXXXXXXXXXXXXXXXXXXXXXXXXXXXXXXXXXXXXXXXXXXXXXXXXXXXXXXXXXXXXXXXXXXXXXXXXXXXXXXXXXXXXXXXXXXXXXXXXXXXXXXXXXXXXXXXXXXXXXXXXXXXX",
"XXXXXXXXXXXXXXXXXXXXXXXXXXXXXXXXXXXXXXXXXXXXXXXXXXXXXXXXXXXXXXXXXXXXXXXXXXXXXXXXXXXXXXXXXXXXXXXXXXXXXXXXXXXXXXXXXXXXXXXXXXXXXXXX",
"XXXXXXXXXXXXXXXXXXXXXXXXXXXXXXXXXXXXXXXXXXXXXXXXXXXXXXXXXXXXXXXXXXXXXXXXXXXXXXXXXXXXXXXXXXXXXXXXXXXXXXXXXXXXXXXXXXXXXXXXXXXXXXXX",
"XXXXXXXXXXXXXXXXXXXXXXXXXXXXXXXXXXXXXXXXXXXXXXXXXXXXXXXXXXXXXXXXXXXXXXXXXXXXXXXXXXXXXXXXXXXXXXXXXXXXXXXXXXXXXXXXXXXXXXXXXXXXXXXX",
"XXXXXXXXXXXXXXXXXXXXXXXXXXXXXXXXXXXXXXXXXXXXXXXXXXXXXXXXXXXXXXXXXXXXXXXXXXXXXXXXXXXXXXXXXXXXXXXXXXXXXXXXXXXXXXXXXXXXXXXXXXXXXXXX",
"XXXXXXXXXXXXXXXXXXXXXXXXXXXXXXXXXXXXXXXXXXXXXXXXXXXXXXXXXXXXXXXXXXXXXXXXXXXXXXXXXXXXXXXXXXXXXXXXXXXXXXXXXXXXXXXXXXXXXXXXXXXXXXXX",
"XXXXXXXXXXXXXXXXXXXXXXXXXXXXXXXXXXXXXXXXXXXXXXXXXXXXXXXXXXXXXXXXXXXXXXXXXXXXXXXXXXXXXXXXXXXXXXXXXXXXXXXXXXXXXXXXXXXXXXXXXXXXXXXX",
"XXXXXXXXXXXXXXXXXXXXXXXXXXXXXXXXXXXXXXXXXXXXXXXXXXXXXXXXXXXXXXXXXXXXXXXXXXXXXXXXXXXXXXXXXXXXXXXXXXXXXXXXXXXXXXXXXXXXXXXXXXXXXXXX",
"XXXXXXXXXXXXXXXXXXXXXXXXXXXXXXXXXXXXXXXXXXXXXXXXXXXXXXXXXXXXXXXXXXXXXXXXXXXXXXXXXXXXXXXXXXXXXXXXXXXXXXXXXXXXXXXXXXXXXXXXXXXXXXXX",
"XXXXXXXXXXXXXXXXXXXXXXXXXXXXXXXXXXXXXXXXXXXXXXXXXXXXXXXXXXXXXXXXXXXXXXXXXXXXXXXXXXXXXXXXXXXXXXXXXXXXXXXXXXXXXXXXXXXXXXXXXXXXXXXX",
"XXXXXXXXXXXXXXXXXXXXXXXXXXXXXXXXXXXXXXXXXXXXXXXXXXXXXXXXXXXXXXXXXXXXXXXXXXXXXXXXXXXXXXXXXXXXXXXXXXXXXXXXXXXXXXXXXXXXXXXXXXXXXXXX",
"XXXXXXXXXXXXXXXXXXXXXXXXXXXXXXXXXXXXXXXXXXXXXXXXXXXXXXXXXXXXXXXXXXXXXXXXXXXXXXXXXXXXXXXXXXXXXXXXXXXXXXXXXXXXXXXXXXXXXXXXXXXXXXXX",
"XXXXXXXXXXXXXXXXXXXXXXXXXXXXXXXXXXXXXXXXXXXXXXXXXXXXXXXXXXXXXXXXXXXXXXXXXXXXXXXXXXXXXXXXXXXXXXXXXXXXXXXXXXXXXXXXXXXXXXXXXXXXXXXX",
"XXXXXXXXXXXXXXXXXXXXXXXXXXXXXXXXXXXXXXXXXXXXXXXXXXXXXXXXXXXXXXXXXXXXXXXXXXXXXXXXXXXXXXXXXXXXXXXXXXXXXXXXXXXXXXXXXXXXXXXXXXXXXXXX",
"XXXXXXXXXXXXXXXXXXXXXXXXXXXXXXXXXXXXXXXXXXXXXXXXXXXXXXXXXXXXXXXXXXXXXXXXXXXXXXXXXXXXXXXXXXXXXXXXXXXXXXXXXXXXXXXXXXXXXXXXXXXXXXXX",
"XXXXXXXXXXXXXXXXXXXXXXXXXXXXXXXXXXXXXXXXXXXXXXXXXXXXXXXXXXXXXXXXXXXXXXXXXXXXXXXXXXXXXXXXXXXXXXXXXXXXXXXXXXXXXXXXXXXXXXXXXXXXXXXX"
};
