/* XPM */
static char *result[] = {
/* columns rows colors chars-per-pixel */
"64 64 32 1 ",
"  c black",
". c #140801",
"X c #270300",
"o c #341301",
"O c #571000",
"+ c #482503",
"@ c #472614",
"# c #5E3B18",
"$ c #623A14",
"% c #734B08",
"& c #785738",
"* c #676434",
"= c #414C55",
"- c #923000",
"; c #B34C00",
": c #82601A",
"> c #986B1A",
", c #AA7F32",
"< c #C47301",
"1 c #A98740",
"2 c #B39F59",
"3 c #A5A170",
"4 c #C8A360",
"5 c #CCB47C",
"6 c #718391",
"7 c #BDB983",
"8 c #EED297",
"9 c #DEDAA5",
"0 c #A0B2C0",
"q c #C7DCED",
"w c white",
"e c None",
/* pixels */
"eeeeeeeeeeeeeeeeeeeeeeeeeeeeeeeeeeeeeeeeeeeeeeeeeeeeeeeeeeeeeeee",
"eeeeeeeeeeeeeeeeeeeeeeeeeeeeeeeeeeeeeeeeeeeeeeeeeeeeeeeeeeeeeeee",
"eeeeeeeeeeeeeeeeeeeeeeeeeeeeeeeeeeeeeeeeeeeeeeeeeeeeeeeeeeeeeeee",
"eeeeeeeeeeeeeeeeeeeeeeeeeeeeeeeeeeeeeeeeeeeeeeeeeeeeeeeeeeeeeeee",
"eeeeeeeeeeeeeeeeeeeeeeee=eeeeeeeeeeeeeeeeeeeeeeeeeeeeeeeeeeeeeee",
"eeeeeeeeeeeeeeeeeeeeeee=6=eeeeeeeeeeeeeeeeeeeeeeeeeeeeeeeeeeeeee",
"eeeeeeeeeeeeeeeeeeeeeee=60=eeeee*eee*eeeeeeeeeeeeeeeeeeeeeeeeeee",
"eeeeeeeeeeeeeeeeeeeeeee=60q=eee*eeeee*eeeeeeeeeeeeeeeeeeeeeeeeee",
"eeeeeeeeeeeeeeeeeeeeeee=660=eee*eeeee**eeeeeeeeeeeeeeeeeeeeeeeee",
"eeeeeeeeeeeeeeeeeeeeeee=660q=e**eeeee*w*eeeeeeeeeeeeeeeeeeeeeeee",
"eeeeeeeeeeeeeeeeeeeeeee=6600X*3*eXXXX39*eeeeeeeeeeeeeeeeeeeeeeee",
"eeeeeeeeeeeeeeeeeeeeeee=6XXX$*3w*&222XX*eeeeeeeeeeeeeeeeeeeeeeee",
"eeeeeeeeeeeeeeeeeeeeeeXXX$$$*33w*XX$$$2XXeeeeeeeeeeeeeeeeeeeeeee",
"eeeeeeeeeeeeeeeeeeeeeX++$$$$*33w*22XX$$$2Xeeeeeeeeeeeeeeeeeeeeee",
"eeeeeeeeeeeeeeeeeeeeX++$$$$*733w*&&22XX+$2Xeeeeeeeeeeeeeeeeeeeee",
"eeeeeeeeeeeeeeeeeeeX++$$$$&*7339w*&&&22X+$2Xeeeeeeeeeeeeeeeeeeee",
"eeeeeeeeeeeeeeeeeeX++$$$$&*77339w*&&&&22X+$2Xeeeeeeeeeeeeeeeeeee",
"eeeeeeeeeeeeeeeeeeX+$$$$$&*77339ww*&&&&22X+$2Xeeeeeeeeeeeeeeeeee",
"eeeeeeeeeeeeeeeeeX++$$$$&&*773399w*&&&&&&2X$$Xeeeeeeeeeeeeeeeeee",
"eeeeeeeeeeeeeeeeeXX++++$$$*7733999w*&&&&&&X+$&Xeeeeeeeeeeeeeeeee",
"eeeeeeeeeeeeeeeeeX+X++++++$*733399w*$$$$$$$X+$Xeeeeeeeeeeeeeeeee",
"eeeeeeeeeeeeeeeeX+++XXX++++*7733999*$$$$$$+X+++Xeeeeeeeeeeeeeeee",
"eeeeeeeeeeeeeeeeX+++$$&XXX+*7733399*+++++XXXXXXXeeeeeeeeeeeeeeee",
"eeeeeeeeeeeeeeeeX+++$$$&&&XX*77339*XXXXXX::111#eeeeeeeeeeeeeeeee",
"eeeeeeeeeeeeeeeeX+++$$$&&&&&*77333*&&&&X::1555#eeeeeeeeeeeeeeeee",
"eeeeeeeeeeeeeeeeX+++$$$&&&&&&**73*&&&&&X:151 8#eeeeeeeeeeeeeeeee",
"eeeeeeeeeeeeeeeeX+++$$$&&&&&&&&**&&&&&&X:11  8#eeeeeeeeeeeeeeeee",
"eeeeeeeeeeeeeeeeX+++$$$&&&&&&&&&&&&&&&&X:11w 8#eeeeeeeeeeeeeeeee",
"eeeeeeeeeeeeeeeeX+++$$$&&&&&&&&&&&&&&&&X:11  8#eeeeeeeeeeeeeeeee",
"eeeeeeeeeeeeeeeeX+++$$$&&&&&&&&&&&&&&&&X:11 X8#eeeeeeeeeeeeeeeee",
"eeeeeeeeeeeeeeeeX++++$$$&&&&&&&&&&&&&&&X:15 X88#eeeeeeeeeeeeeeee",
"eeeeeeeeeeeeeeeeeX+++$$$$&&&&&&&&&&&&&&&X:5 X58#eeeeeeeeeeeeeeee",
"eeeeeeeeeeeeeeeeeX++++$$$$&&&&&&&&&&&&&&X::5 58#eeeeeeeeeeeeeeee",
"eeeeeeeeeeeeeeeeeeX+++$$$$&&&&&&&&&&&&&&&X:11OOOeeeeeeeeeeeeeeee",
"eeeeeeeeeeeeeeeeeeeX+++$$$$&&&&&&&&&&&&&&&XXO-<<Oeeeeeeeeeeeeeee",
"eeeeeeeeeeeeeeeeeeeX++++$$$$$&&&&&&&&&&&&&$O-<;<Oeeeeeeeeeeeeeee",
"eeeeeeeeeeeeeeeee%%%X+++++$$$$$&&&&&&&&&$OO-;-;-Oeeeeeeeeeeeeeee",
"eeeeeeeeeeeeeeee%%,,,X+++++$$$$$$$&&&&&$$$O----Oeeeeeeeeeeeeeeee",
"eeeeeeeeeeeeeeeeee%%44XX++++++$$$$$$$$$$$O-OOOOOeeeeeeeeeeeeeeee",
"eeeeeeeeeeeeeeeeee%4,4,,XX+++++++$$$$$$$$O-<<<;Oeeeeeeeeeeeeeeee",
"eeeeeeeeeeeeeeeee%,>,,444,XXX++++++++++++O-;-;Oeeeeeeeeeeeeeeeee",
"eeeeeeeeeeeeeeee%>,>,444,444,XXXXX++++XXXO---Oeeeeeeeeeeeeeeeeee",
"eeeeeeeeeeeeeee%%%%,,4,,444,444,44XXXX44,O--Oeeeeeeeeeeeeeeeeeee",
"eeeeeeeeeeeeeeeeee%,>,,444,,44,444444444%eOOeeeeeeeeeeeeeeeeeeee",
"eeeeeeeeeeeeeeeee%,>%,%,,,,,,,,44,44,44,,%eeeeeeeeeeeeeeeeeeeeee",
"eeeeeeeeeeeeeeeee%>>%>%,,>,,,,,,4,44,44,,%eeeeeeeeeeeeeeeeeeeeee",
"eeeeeeeeeeeeeeeee%%%>%%,>>>XXXXX,,4,,44,%%eeeeeeeeeeeeeeeeeeeeee",
"eeeeeeeeeeeeeeeee%.%%o%>>%%$$+&&X,,,,4,%%%eeeeeeeeeeeeeeeeeeeeee",
"eeeeeeeeeeeeeeee% ..oo%>%.X$+&&&2X,,,,,%e%eeeeeeeeeeeeeeeeeeeeee",
"eeeeeeeeeeeeeeeeeeXXXXX%@X$++&&2X ,,,>,%e%eeeeeeeeeeeeeeeeeeeeee",
"eeeeeeeeeeeeeeeeeX$$++&X@X$+++&2X>,>>>>%eeeeeeeeeeeeeeeeeeeeeeee",
"eeeeeeeeeeeeeeeeeX$$++&2X@X$++&&X>>>%>%eeeeeeeeeeeeeeeeeeeeeeeee",
"eeeeeeeeeeeeeeeeeX$$++&2X@X$$++$X%>%%>%eeeeeeeeeeeeeeeeeeeeeeeee",
"eeeeeeeeeeeeeeeeeX$$++&&2X@X$$$X@%%o%%Xeeeeeeeeeeeeeeeeeeeeeeeee",
"eeeeeeeeeeeeeeeeeeX$$++&2X@@XXX@@%@ %22Xeeeeeeeeeeeeeeeeeeeeeeee",
"eeeeeeeeeeeeeeeeeeX$$+++&2XX.o@@@@ &&&&&XXeeeeeeeeeeeeeeeeeeeeee",
"eeeeeeeeeeeeeeeeeeeX$$++&&X.oo@@  &&&+++$$Xeeeeeeeeeeeeeeeeeeeee",
"eeeeeeeeeeeeeeeeeeeeX$$++&X.o   +++++++$$$Xeeeeeeeeeeeeeeeeeeeee",
"eeeeeeeeeeeeeeeeeeeeeX$$++X  $$$$$$$$$$XXXeeeeeeeeeeeeeeeeeeeeee",
"eeeeeeeeeeeeeeeeeeeeeeX$$$XeeXXXXXXXXXXeeeeeeeeeeeeeeeeeeeeeeeee",
"eeeeeeeeeeeeeeeeeeeeeeeXXXeeeeeeeeeeeeeeeeeeeeeeeeeeeeeeeeeeeeee",
"eeeeeeeeeeeeeeeeeeeeeeeeeeeeeeeeeeeeeeeeeeeeeeeeeeeeeeeeeeeeeeee",
"eeeeeeeeeeeeeeeeeeeeeeeeeeeeeeeeeeeeeeeeeeeeeeeeeeeeeeeeeeeeeeee",
"eeeeeeeeeeeeeeeeeeeeeeeeeeeeeeeeeeeeeeeeeeeeeeeeeeeeeeeeeeeeeeee"
};
