/* XPM */
static char *result[] = {
/* columns rows colors chars-per-pixel */
"64 64 32 1 ",
"  c black",
". c #140801",
"X c #270300",
"o c #341301",
"O c #571000",
"+ c #482503",
"@ c #472614",
"# c #5E3B18",
"$ c #623A14",
"% c #734B08",
"& c #785738",
"* c #676434",
"= c #414C55",
"- c #923000",
"; c #B34C00",
": c #82601A",
"> c #986B1A",
", c #AA7F32",
"< c #C47301",
"1 c #A98740",
"2 c #B39F59",
"3 c #A5A170",
"4 c #C8A360",
"5 c #CCB47C",
"6 c #718391",
"7 c #BDB983",
"8 c #EED297",
"9 c #DEDAA5",
"0 c #A0B2C0",
"q c #C7DCED",
"w c white",
"e c None",
/* pixels */
"eeeeeeeeeeeeeeeeeeeeeeeeeeeeeeeeeeeeeeeeeeeeeeeeeeeeeeeeeeeeeeee",
"eeeeeeeeeeeeeeeeeeeeeeeeeeeeeeeeeeeeeeeeeeeeeeeeeeeeeeeeeeeeeeee",
"eeeeeeeeeeeeeeeeeeeeeeeeeeeeeeeeeeeeeeeeeeeeeeeeeeeeeeeeeeeeeeee",
"eeeeeeeeeeeeeeeeeeeeeeeeeeeeeeeeeeeeeeeeeeeeeeeeeeeeeeeeeeeeeeee",
"eeeeeeeeeeeeeeeeeeeeeeeeeeeeeeeeeeeeeeeeeeeeeeeeeeeeeeeeeeeeeeee",
"eeeeeeeeeeeeeeeeeeeeeeeeeeeeeeeeeeeeeeeeeeeeeeeeeeeeeeeeeeeeeeee",
"eeeeeeeeeeeeeeeeeeeeeeeeeeeee=eeeeee*eeeeeeeeeeeeeeeeeeeeeeeeeee",
"eeeeeeeeeeeeeeeeeeeeeee*eeee=q=eeeeee*eeeeeeeeeeeeeeeeeeeeeeeeee",
"eeeeeeeeeeeeeeeeeeeeee*eeeee=6q=eeeee**eeeeeeeeeeeeeeeeeeeeeeeee",
"eeeeeeeeeeeeeeeeeeeee**eeeee=60q=eeeee**eeeeeeeeeeeeeeeeeeeeeeee",
"eeeeeeeeeeeeeeeeeeeee**eeeee=660=eeeee*3*eeeeeeeeeeeeeeeeeeeeeee",
"eeeeeeeeeeeeeeeeeeee*7*eeeXXXXXXXXXXXe*3*eeeeeeeeeeeeeeeeeeeeeee",
"eeeeeeeeeeeeeeeeeeee*73*XXXXX$$$&22XXX*39*eeeeeeeeeeeeeeeeeeeeee",
"eeeeeeeeeeeeeeeeeeee*7XX+X+$$$$&&&&22X*39*eeeeeeeeeeeeeeeeeeeeee",
"eeeeeeeeeeeeeeeeeeee*X$XX+$$$$&&&&&&&2*33*Xeeeeeeeeeeeeeeeeeeeee",
"eeeeeeeeeeeeeeeeeeeeX$X++$$$$&&&&&&&&*733wXXeeeeeeeeeeeeeeeeeeee",
"eeeeeeeeeeeeeeeeeeeX$X++$$$$&&&&&&&&&*733w*2Xeeeeeeeeeeeeeeeeeee",
"eeeeeeeeeeeeeeeeeeX+$X++$$$$&&&&&&&&*7733w*X2Xeeeeeeeeeeeeeeeeee",
"eeeeeeeeeeeeeeeeeeX+X+++$$$$&&&&&&&*77733w*X2Xeeeeeeeeeeeeeeeeee",
"eeeeeeeeeeeeeeeeeX++XX+++$$$&&&&&&*777339w*2X&Xeeeeeeeeeeeeeeeee",
"eeeeeeeeeeeeeeeeeX+X$&X+++$$$&&&&*7777339w*2X$Xeeeeeeeeeeeeeeeee",
"eeeeeeeeeeeeeeeeeX+X$&&X+++$$$$&&*7777339w*&&X&Xeeeeeeeeeeeeeeee",
"eeeeeeeeeeeeeeeeX++X$&&&XX+++$$$$*7773339w*&$X$Xeeeeeeeeeeeeeeee",
"eeeeeeeeeeeeeeeeX+$X$&&&&&XX++++$*7733399*+$$X$Xeeeeeeeeeeeeeeee",
"eeeeeeeeeeeeeeeeX+$X+$&&&&&&XXX++*733339w*++XXXXXeeeeeeeeeeeeeee",
"eeeeeeeeeeeeeeeeX+$X++&&&&&&&&&XXX*33399*XXX:15 eeeeeeeeeeeeeeee",
"eeeeeeeeeeeeeeeeX+$X++&&&&&&&&&&&&&*****&&&X:5  eeeeeeeeeeeeeeee",
"eeeeeeeeeeeeeeeeX+$X++&&&&&&&&&&&&&&&&&&&&&X:1w eeeeeeeeeeeeeeee",
"eeeeeeeeeeeeeeeeX++X++$&&&&&&&&&&&&&&&&&&&&X:1 Xeeeeeeeeeeeeeeee",
"eeeeeeeeeeeeeeeeX++X++$&&&&&&&&&&&&&&&&&&&&X:1 Xeeeeeeeeeeeeeeee",
"eeeeeeeeeeeeeeeeeX+X++$$&&&&&&&&&&&&&&&&&&&X:1  eeeeeeeeeeeeeeee",
"eeeeeeeeeeeeeeeeeX+X+++$$&&&&&&&&&&&&&&&&&&X:5 5#eeeeeeeeeeeeeee",
"eeeeeeeeeeeeeeeeeX+X+++$$$&&&&&&&&&&&&&&&&&X:558OOeeeeeeeeeeeeee",
"eeeeeeeeeeeeeeeeeeX+X+++$$$&&&&&&&&&&&&&&&&&X:OO<;Oeeeeeeeeeeeee",
"eeeeeeeeeeeeeeeeeeX+X+++$$$$$&&&&&&&&&&&&&&&&X<<;-Oeeeeeeeeeeeee",
"eeeeeeeeeeeeeeeeeeeXX++++$$$$$&&&&&&&&&&&&&&O;-;-Oeeeeeeeeeeeeee",
"eeeeeeeeeeeeeeeeeeeeXX++++$$$$$&&&&&&&&&&&&&O---OOeeeeeeeeeeeeee",
"eeeeeeeeeeeeeeeeeeeeXX++++++$$$$&&&&&&&&&&&OOOOO<Oeeeeeeeeeeeeee",
"eeeeeeeeeeeeeeeeeeee%%X+++++++$$$$&&&&&&&&$$$O<<Oeeeeeeeeeeeeeee",
"eeeeeeeeeeeeeeeeee%%,,4XX+++++++$$$$$$$$$$$$O;;;Oeeeeeeeeeeeeeee",
"eeeeeeeeeeeeeeeee%e%,44,,XXX++++++$$$$$$$$$$O-;-Oeeeeeeeeeeeeeee",
"eeeeeeeeeeeeeeeeee%,44,,4444XX+++++++++++$++X---Oeeeeeeeeeeeeeee",
"eeeeeeeeeeeeeeeee%>,,,,4444,,4XXXX+++++++XXXO--Oeeeeeeeeeeeeeeee",
"eeeeeeeeeeeeeeeee%>,,>44,44,,44,44XXXXXXX4%eeOOeeeeeeeeeeeeeeeee",
"eeeeeeeeeeeeeeee%>,>>,4,,4,,444,44444444,%,%eeeeeeeeeeeeeeeeeeee",
"eeeeeeeeeeeeeeee%>%%>4,,4,,,44,,4%,4,44,,,%%eeeeeeeeeeeeeeeeeeee",
"eeeeeeeeeeeeeeee%%@%,,,4,,,44,,,%@ ,,4,,,>%e%eeeeeeeeeeeeeeeeeee",
"eeeeeeeeeeeeeeee%.o%>,%,,>4,,%%>%@@XXX,,>%%eeeeeeeeeeeeeeeeeeeee",
"eeeeeeeeeeeeeeeee .%>%,,>,,,>%.%oXX$22X>%e%eeeeeeeeeeeeeeeeeeeee",
"eeeeeeeeeeeeeeeee .%>%%>%%>>>%..X$++&&2X%e%eeeeeeeeeeeeeeeeeeeee",
"eeeeeeeeeeeeeeeee ..%o%%o%>>>% .X$++$&XXeeeeeeeeeeeeeeeeeeeeeeee",
"eeeeeeeeeeeeeeeeee .%oo%oo%>%%% X$$+++&Xeeeeeeeeeeeeeeeeeeeeeeee",
"eeeeeeeeeeeeeeeeee ..oooooo%%+&%2XX$+$&Xeeeeeeeeeeeeeeeeeeeeeeee",
"eeeeeeeeeeeeeeeeeee ..o@@@@X%++&&2&XX$Xeeeeeeeeeeeeeeeeeeeeeeeee",
"eeeeeeeeeeeeeeeeeeee .ooo@X$++++&&222Xeeeeeeeeeeeeeeeeeeeeeeeeee",
"eeeeeeeeeeeeeeeeeeeee     X$$+++++&&&&Xeeeeeeeeeeeeeeeeeeeeeeeee",
"eeeeeeeeeeeeeeeeeeeeX&+&&&2X$$$++++++$$Xeeeeeeeeeeeeeeeeeeeeeeee",
"eeeeeeeeeeeeeeeeeeeeX$++&&&2XXX$$$$$$$$Xeeeeeeeeeeeeeeeeeeeeeeee",
"eeeeeeeeeeeeeeeeeeeeX$$+++&&&&2XXXXXXXXeeeeeeeeeeeeeeeeeeeeeeeee",
"eeeeeeeeeeeeeeeeeeeeeX$$$$++++++Xeeeeeeeeeeeeeeeeeeeeeeeeeeeeeee",
"eeeeeeeeeeeeeeeeeeeeeeXXXXXX$$$$$Xeeeeeeeeeeeeeeeeeeeeeeeeeeeeee",
"eeeeeeeeeeeeeeeeeeeeeeeeeeeeXXXXXeeeeeeeeeeeeeeeeeeeeeeeeeeeeeee",
"eeeeeeeeeeeeeeeeeeeeeeeeeeeeeeeeeeeeeeeeeeeeeeeeeeeeeeeeeeeeeeee",
"eeeeeeeeeeeeeeeeeeeeeeeeeeeeeeeeeeeeeeeeeeeeeeeeeeeeeeeeeeeeeeee"
};
