/* XPM */
static char *apple[] = {
/* columns rows colors chars-per-pixel */
"64 64 8 1 ",
"  c None",
". c #211F30",
"X c #CC3048",
"o c #E44A4A",
"O c #28860F",
"+ c #72A11D",
"@ c #F18B72",
"# c #A4CC42",
/* pixels */
"                                                                ",
"                                                                ",
"                                                                ",
"                                                                ",
"                    ........                                    ",
"                    ........                                    ",
"                    ........                                    ",
"                    ........                                    ",
"                    ....####....                                ",
"                    ....####....                                ",
"                    ....####....                                ",
"                    ....####....                                ",
"            ............OOOO++++....                            ",
"            ............OOOO++++....                            ",
"            ............OOOO++++....                            ",
"            ............OOOO++++....                            ",
"        ....####++++OOOO....OOOO....                            ",
"        ....####++++OOOO....OOOO....                            ",
"        ....####++++OOOO....OOOO....                            ",
"        ....####++++OOOO....OOOO....                            ",
"        ............OOOOOOOOOOOO................                ",
"        ............OOOOOOOOOOOO................                ",
"        ............OOOOOOOOOOOO................                ",
"        ............OOOOOOOOOOOO................                ",
"            ....XXXX....oooo....XXXXooooooooXXXX....            ",
"            ....XXXX....oooo....XXXXooooooooXXXX....            ",
"            ....XXXX....oooo....XXXXooooooooXXXX....            ",
"            ....XXXX....oooo....XXXXooooooooXXXX....            ",
"        ....ooooooooooooooooooooooooooooooooooooXXXX....        ",
"        ....ooooooooooooooooooooooooooooooooooooXXXX....        ",
"        ....ooooooooooooooooooooooooooooooooooooXXXX....        ",
"        ....ooooooooooooooooooooooooooooooooooooXXXX....        ",
"        ....oooo@@@@@@@@oooo@@@@ooooooooooooooooXXXX....        ",
"        ....oooo@@@@@@@@oooo@@@@ooooooooooooooooXXXX....        ",
"        ....oooo@@@@@@@@oooo@@@@ooooooooooooooooXXXX....        ",
"        ....oooo@@@@@@@@oooo@@@@ooooooooooooooooXXXX....        ",
"        ....oooo@@@@@@@@ooooooooooooooooXXXXooooXXXX....        ",
"        ....oooo@@@@@@@@ooooooooooooooooXXXXooooXXXX....        ",
"        ....oooo@@@@@@@@ooooooooooooooooXXXXooooXXXX....        ",
"        ....oooo@@@@@@@@ooooooooooooooooXXXXooooXXXX....        ",
"        ....XXXXooooooooooooooooooooooooooooooooXXXX....        ",
"        ....XXXXooooooooooooooooooooooooooooooooXXXX....        ",
"        ....XXXXooooooooooooooooooooooooooooooooXXXX....        ",
"        ....XXXXooooooooooooooooooooooooooooooooXXXX....        ",
"            ....XXXXooooooooooooooooooooooooXXXX....            ",
"            ....XXXXooooooooooooooooooooooooXXXX....            ",
"            ....XXXXooooooooooooooooooooooooXXXX....            ",
"            ....XXXXooooooooooooooooooooooooXXXX....            ",
"            ....XXXXXXXXXXXXXXXXXXXXXXXXXXXXXXXX....            ",
"            ....XXXXXXXXXXXXXXXXXXXXXXXXXXXXXXXX....            ",
"            ....XXXXXXXXXXXXXXXXXXXXXXXXXXXXXXXX....            ",
"            ....XXXXXXXXXXXXXXXXXXXXXXXXXXXXXXXX....            ",
"                ....XXXXXXXXXXXXXXXXXXXXXXXX....                ",
"                ....XXXXXXXXXXXXXXXXXXXXXXXX....                ",
"                ....XXXXXXXXXXXXXXXXXXXXXXXX....                ",
"                ....XXXXXXXXXXXXXXXXXXXXXXXX....                ",
"                    ........................                    ",
"                    ........................                    ",
"                    ........................                    ",
"                    ........................                    ",
"                                                                ",
"                                                                ",
"                                                                ",
"                                                                "
};
