/* XPM */
static char *bigger_rocky01[] = {
/* columns rows colors chars-per-pixel */
"64 64 140 2 ",
"   c None",
".  c #3E3E3E",
"X  c #444444",
"o  c #4C4C4C",
"O  c #4F5050",
"+  c #535353",
"@  c #575858",
"#  c #5B5B5B",
"$  c #605F5F",
"%  c #60605F",
"&  c #5F6060",
"*  c #636363",
"=  c #686767",
"-  c #696A66",
";  c #676868",
":  c #6B6B6B",
">  c #6F7070",
",  c #747474",
"<  c #777778",
"1  c #7B7B7B",
"2  c #807F7F",
"3  c #80807F",
"4  c #7F8080",
"5  c #838383",
"6  c #888787",
"7  c #888887",
"8  c #8C8B8B",
"9  c #908F8F",
"0  c #96928E",
"q  c #8F8F90",
"w  c #939393",
"e  c #989797",
"r  c #979798",
"t  c #979898",
"y  c #9C9B9B",
"u  c #A1A19E",
"i  c #9F9FA0",
"p  c #A09FA0",
"a  c #A4A4A4",
"s  c #A8A7A7",
"d  c #A9A8A7",
"f  c #A7A6A9",
"g  c #A8A7A9",
"h  c #AAAAAA",
"j  c #B0AFAF",
"k  c #AFB1A0",
"l  c #AFB0A8",
"z  c #B0B0AF",
"x  c #B7B9AD",
"c  c #AFAFB1",
"v  c #B0AFB0",
"b  c #B2B2B2",
"n  c #B8B7B6",
"m  c #B8B8B7",
"M  c #B8B9B7",
"N  c #B9BAB6",
"B  c #BABBB7",
"V  c #BBBCB6",
"C  c #BFBFB4",
"Z  c #B9B9B7",
"A  c #B7B7B8",
"S  c #B7B7B8",
"D  c #B8B7B8",
"F  c #B8B8B8",
"G  c #B9B8B8",
"H  c #B9B9B8",
"J  c #B9B9B9",
"K  c #BAB9B8",
"L  c #BAB9B9",
"P  c #B9BAB9",
"I  c #BABAB9",
"U  c #BBBAB9",
"Y  c #BABBB9",
"T  c #BBBBB9",
"R  c #B8B8BA",
"E  c #BAB9BA",
"W  c #BABABA",
"Q  c #BBBABB",
"!  c #BBBCB8",
"~  c #BCBCBA",
"^  c #BCBCBB",
"/  c #BFBFBB",
"(  c #BCBBBC",
")  c #BBBCBC",
"_  c #BCBDBD",
"`  c #BDBDBD",
"'  c #BEBEBC",
"]  c #BEBDBE",
"[  c #BEBEBE",
"{  c #BFBFBF",
"}  c #BBBBBB",
"|  c #C0BFBD",
" . c #C0BFBF",
".. c #C2C3B6",
"X. c #C1C0BF",
"o. c #C0BFC0",
"O. c #C0BFC0",
"+. c #C1C0C1",
"@. c #C1C1C1",
"#. c #C2C1C0",
"$. c #C2C1C2",
"%. c #C3C2C3",
"&. c #C3C3C3",
"*. c #C4C3C3",
"=. c #C4C4C2",
"-. c #C4C3C4",
";. c #C5C4C4",
":. c #C5C4C5",
">. c #C4C4C4",
",. c #C6C5C4",
"<. c #C6C5C6",
"1. c #C6C6C6",
"2. c #C7C6C7",
"3. c #C6C7C7",
"4. c #C7C7C7",
"5. c #C4C3C4",
"6. c #C8C7C6",
"7. c #C7C8C6",
"8. c #C7C7C8",
"9. c #C7C7C8",
"0. c #C8C7C8",
"q. c #C7C8C8",
"w. c #C7C8C8",
"e. c gray79",
"r. c #C8C8C8",
"t. c #CAC9CA",
"y. c #CACACA",
"u. c #CBCBCB",
"i. c #CCCCCC",
"p. c #CCCDCD",
"a. c #CECDCD",
"s. c #CECECE",
"d. c #CBCBCB",
"f. c #D0CFCF",
"g. c #D0D0D0",
"h. c #D2D2D2",
"j. c #D3D3D3",
"k. c #D6D6D6",
"l. c #D2D2D2",
"z. c #D8D8D8",
/* pixels */
"      C L L L L L L C L L L L L L L L C L L L L C L L L L L L F L L C L L C L L C L L L L L L L L L L L C L L L L L L L x       ",
"  ..L h h h h h h h h h h h h h h h h h h h h h h h h h h h h h h h h h h h h h h h h h h h h h h h h h h h h h h h h h h c k   ",
"  L h h h h h h h h h h h h h h h h h h h h h h h a h h h a a h a h a h h h g h h h h h h h h h h h h h h h h h h h h h h h h   ",
"L h h h h h y w 8 8 y a h h h h h h h h h h a h h h a a a a a a a a a a a a a a a h h h h h h h h h h h h h h h h h h h h h h e ",
"b h h h h a a @.q.i.a y h h h h h h h h h a a a a a a a a a a a a a a a a a a a a h a h h h h h h h h h h h h h h h h h h h h w ",
"b h h h h y h w 1 : : 1 h h h h h h a h a a a a a a a a a a a a a a a a a a a a a a a a a a h h h h h h h h h h h h h h h h h 8 ",
"b h h h h a 6 O + + * : i h h h h a a a a a a a a a a a a a a a a a a a a a a a a a a a a a a h h h h h h h h h h h h h h h h 8 ",
"b h h h h h b b b m b b h h a h a a a w 8 w y y y a a a a a a a a a a a y 6 w 8 w y a a a a a a a h y w y h h h h h h h h h h 8 ",
"b h h h h h h h h h h h h h h a y 8 8 b i.L h y w 8 8 w y y y y y y a y 8 L 7.h a w a a a a a a a w y @.y y a h h h h h h h h 8 ",
"b h h h h h h h h h h h h a w 6 a @.h.i.i.L @.@.@.@.L h y 8 8 w y y y y w * * : + : a a a a a a w a i.b 8 8 y h h h h h h h h 8 ",
"b h h h h h h h h h a y 8 w b i.i.@.@.i.@.C L L L L L @.@.i.L w y y y y y a 1 o = h a y a a a w i h.h # o < b h h h h h h h h 8 ",
"b h h h h h h h p 8 8 h i.i.@.@.@.@.@.@.@.b b b b b L L b 0 * t y y w w y y y y a y y y y y y y @.y + . 6 b h h h h h h h h h 8 ",
"c h h h h h h y a @.h.f.i.@.@.@.@.@.@.@.@.j h h h b h 6 : : * a w w y w y y y y y y y y y y y y : + X y h a h h h h h h h h h 8 ",
"b h h h h h h y b 8.h.i.i.@.@.@.@.@.@.@.@.b h a y 1 * * : * 8 y w w w w w w w w y y y y y y y a h a s h a a a a h h h h h h h 8 ",
"b h h h h h h w L D @.i.i.@.@.@.@.@.@.L y : # + o + # : : # y w w w w w w w w w w y y y y y y y a a a a a a a a h h h h h h h 8 ",
"b h h h h h g w L b b b @.@.@.@.@.h 8 * o o o o o + # * * 1 t w w w w w w w w w w w w y y y y y y y a a a a a a a h h h h h h 8 ",
"c h h h h h a w L b b h s L b w 1 * o o o o o o O + # * # w 8 8 8 8 8 8 q w w w w w w w y y y y y y a a a a a a a a h h h h a 8 ",
"b h h h h h a y L A b h w * + # + o o o o o o o + @ + o 6 w 8 8 8 8 8 8 8 8 8 9 8 w w w w w y y y y y y y a a a a y w y h h h 8 ",
"b h h h h h a u L b b 6 # + + + o o o o o o o + + o : y w 8 8 8 8 6 8 8 8 8 8 6 6 8 9 w w w y y y y y a y a a a a w h y y h h 8 ",
"z h h h h g i a L a < * * # # # + o o o o O + X # w w 8 6 8 8 6 6 6 7 8 8 6 < a a w 6 6 1 6 8 w w y y y y y a a a y < : 1 h h 8 ",
"b h h h a a y a 8 < : : : * * & # O o o + o + 8 y 8 6 7 8 6 6 6 6 6 6 6 < 8 i.i.L @.i.i.@.L h y 8 6 6 w y a a a a a 8 o h h h 8 ",
"b h h h a a a y 1 * * : : : : * * + o o X 1 y 8 8 8 6 6 6 6 6 6 6 6 < < L h.@.@.L L L L L @.@.@.i.i.@.y a y a a a a a 6 c h h 8 ",
"c h h h h a a a h h y 6 : * * * * + X * y w 8 6 6 6 6 6 6 1 1 6 1 : y z.h.i.@.@.L b b b b L L L X.@.y 1 y y y a a a a h a h h 8 ",
"b h h h a a a a a a y u a a 8 < @ # w t 8 8 6 6 6 6 6 1 6 1 1 1 1 h @.@.i.i.i.q.L z h b b b b L @.a 6 6 y y a a a a a a a h h 8 ",
"c h h a a a a a a y y y y w y y y y 8 8 8 6 6 6 6 6 2 1 1 1 1 1 1 1 < 6 6 6 6 1 6 w h c b j b b u 6 6 6 8 y y a a a a a a h h 8 ",
"b h h a a a a a y y y y y y w w 8 8 8 8 6 6 6 6 6 1 1 1 1 1 1 1 1 1 6 1 1 6 6 1 < : : < 1 8 y w 1 6 6 6 6 p y p a a a a a h a 8 ",
"b h h a a a a a a w w y y w w w 8 8 8 8 6 6 6 6 6 1 1 1 1 1 1 1 1 1 1 1 < 6 6 1 1 < * + + o + + : 1 6 6 1 y y y y a a a a h a 8 ",
"b h h a a a a a 8 8 a 8 6 w w w 8 8 8 8 6 6 6 1 1 1 1 1 1 1 1 1 < 1 < 1 6 1 6 1 6 1 * # + + + + # > 6 6 1 w y y a a a a a a h 8 ",
"c h a a a a a y w L b h s w 8 9 8 8 8 8 6 6 6 6 1 1 1 1 1 1 1 < < < < 1 1 1 1 1 6 1 * & # # + + + # : 1 3 6 y y y a a a a a a 8 ",
"b g h a a a a y y < < 1 < * 6 w 8 8 8 8 6 6 6 1 : > < 1 1 < < < < < < < < 1 6 1 1 < : * * * * & # + # * < < y y a a a a a h h 8 ",
"b h a a a a a p y w : X o w u w 8 8 8 7 6 1 : 1 h h 1 1 < < < < < < < < < 1 1 6 1 * $ # # @ # + + o X o + # w y a a a a a h a 8 ",
"b h a a a a a a y y < : a y w 8 8 8 8 6 < q L h.@.1 1 < < < < < < < < < < 1 1 1 6 w w w w y w w w w 8 6 1 1 w a y a a a a h a 8 ",
"b h h a a a a y y y y a w w w w 8 8 8 1 a @.a < * * > 1 < < < < < < < < < 1 1 1 1 6 6 6 6 8 8 8 9 w w y y y y y y a a a g h h 8 ",
"b h a a a a y y a y y y w w w w 8 8 8 1 w + o X + # < 1 < < < < < < < < < 1 1 1 1 1 6 6 6 8 8 8 9 w w w y y y y a a a a a h a 8 ",
"b h a a a a a a y y y y w w w 8 8 8 8 6 8 w w w 8 6 6 1 < < < < < < < < < 1 1 1 1 6 6 6 6 6 8 8 8 w w w y y y y y a a a a h h 8 ",
"b h g y y a a a a y y y w w w w w 8 8 8 6 6 6 6 1 1 1 1 < < < < < < < < 1 1 1 1 6 6 6 6 6 8 8 8 w w w w y y y y a a a a h h h 8 ",
"b h a 8 a w a a y y y y e w w w 8 8 8 8 6 6 6 6 1 1 1 1 1 1 1 < < < < 1 1 1 1 2 6 6 6 6 6 8 8 8 w w w w w 8 y y y a a a a a a 8 ",
"b h w L y 9 w a a y y y e w w w q 8 8 8 7 6 6 6 1 1 1 1 1 1 1 1 1 < 1 1 1 1 1 2 6 6 6 8 8 8 8 9 w w w y 6 h 8 w a a a a a h a 8 ",
"b h y : o X : a a y y y w 8 w w w 8 8 8 8 6 6 6 1 6 1 1 1 1 1 1 1 1 1 1 1 1 6 6 6 1 < 1 1 6 8 9 w w w y w 6 8 6 y a a a a a a 8 ",
"b h h s 6 h c a a y y w 8 y 6 6 8 8 8 8 8 6 6 6 6 1 6 6 1 < < : 1 1 1 1 3 3 6 1 : 6 A i.z w 2 8 w w w y y 8 o 1 a a a a a h h 8 ",
"b h h h h a a a a y y 6 8.b b z w 6 6 8 8 8 6 6 6 6 6 4 1 < o.1 1 1 1 6 2 < : w @.h.i.6.b L b w 6 w y y y i a h a a a a h h h 8 ",
"b h h h a a a a a y 6 @.@.L h b L @.h 6 1 6 8 7 6 6 6 6 1 w & * 8 1 1 : < a i.i.@.@.i.@.b b b L b w 8 w y y y a a a a a a h h 8 ",
"b h h h a a a a y 6 @.i.@.L h b b C C L b r 1 1 6 6 6 6 6 < : w 6 < 6 L z.h.q.q.@.@.@.L a h h b b L b y 8 y a a a a a a h h h 8 ",
"b h h h h a a a 6 L h.i.@.@.h h c b b C L L L 8 8 6 8 6 6 6 w 6 6 4 h @.h.h.i.q.@.@.@.b y a s h b c b b L y 8 y a a a h h h h 8 ",
"b h h h h h a 8 b h.i.@.@.X.h a a h h h w 6 # 6 w 6 8 6 8 6 6 6 6 6 8 w y b @.i.@.@.@.b y y a a a h c b b b L a w a a a h h h 8 ",
"b h h h h h y a h.i.i.@.@.@.C a w 1 : * * * ; y 8 8 8 8 8 8 8 8 8 8 6 w w w w w h @.L y w y y y a a a h h b b b b y h h h h h 8 ",
"c h h h h h w L @.i.i.@.L w = # O + # & * + y w 8 8 8 8 8 8 8 8 8 8 8 w w w w 8 1 1 < < < 6 e y y y y a h c h w : y h h h h h 8 ",
"b h h h h h w @.@.L b 6 # O + + + + # * # 6 y w w q q 8 8 8 8 8 8 8 8 8 w w w 8 6 < : > < < < 6 w y y y y 6 < < * h h h h h h 8 ",
"c h h h h a y a w w < # # + + + + # & * * a w w w w w w 8 w w 8 9 9 w 8 w w w w 8 : # # * : < < < 6 8 < * * : < : b h h h h h 8 ",
"c h h h h h h w 8 6 : * # # # + + # & + a y w w w w w w w w w w w w w w 8 w w w 6 * $ # @ @ # * : < * @ # : : : 1 b h h h h h 8 ",
"b h h h h h h a 8 : : = * * & # + @ o 6 a y y y y w w w w w w w w w w w w w w 8 < : * # # # # @ # # # # * : < : w h h h h h h 8 ",
"b h h h h h h h w 1 < : * # + o o X # h y y y y y y y w w w w w w w w w w w 6 < < < : * * * # # # # # # * : < * s h h h h h h 8 ",
"b h h h h h h h h h b b z b h h u y a a y y y y y y y y y y y y e w y y y y 6 : * < < < : : * * # # # # * : < * b h h h h h h 8 ",
"b h h h h h h h h h h h a a a a a a a a a y y y y y y y y y y y y y y y y y y a w 1 * : < < > : : * # # * : : < b h h h h h h 8 ",
"b h h h h h h h h h h h a a a a a a a a a a y a y y y y y y y y y y y y y y y y a a a 8 : ; < < : : = # * : * 8 h h h h h h h 8 ",
"b h h h h h h h h h h h h h a a a a a a a a a a y 8 w 8 y y y y y y y y y a y a a a a a h y 1 * : < : * # * # y h h h h h h h 8 ",
"b h h h h h h h h h h a g h h a a a a a a a a a a 8 L a w 8 y y a a a a a a a a a a a a a a z h w : * * # # + h h h h h h h h 8 ",
"b h h h h h h h a w w y y h h h h a a a a a a a w h h y a h a w y a a a a a a a a a a a a a a a h b a 1 + o # b h h h h h h h 8 ",
"b h h h h h h h y a w 1 < h h h h h h a a a a a y 8 < < < < 1 1 w a a a a a a a a a a a a a h h h g h z b 8 6 h h h h h h h h 8 ",
"h h h h h h h h a 8 6 8 w h h h h h h h a h a a a h 6 : X . : a h a a a a a a a a a a a h h h h h h h h h h j h h h h h h h a 6 ",
"l h h h h h h h h h h h h h h h h h h h h h a h g a a * < l h a a a a a a a a a h a h h h h h h h h h h h h h h h h h h h h y 1 ",
"  a h h h h h h h h h h h h h h h h h h h h h h h h h z z h g a h a h a h h a h h h h h h h h h h h h h h h h h h h h h h a 6   ",
"  0 w a a h h h h h a h s h h h a a h a g a h a a a a a a a a a a a a a a a a a h a h a a a h a a h h a a g g a a h a h y 6 :   ",
"      1 1 6 6 6 6 6 6 6 1 1 6 6 6 6 6 6 6 6 1 6 6 6 6 4 6 1 6 6 1 6 1 6 6 6 6 6 6 6 6 6 6 6 1 6 6 6 6 6 6 6 6 6 6 6 6 1 <       "
};
