/* XPM */
static char *box[] = {
/* columns rows colors chars-per-pixel */
"64 55 133 2 ",
"   c None",
".  c #211F30",
"X  c #2F2233",
"o  c #302432",
"O  c #312433",
"+  c #322533",
"@  c #3D2536",
"#  c #322834",
"$  c #342935",
"%  c #352B35",
"&  c #372F38",
"*  c #373038",
"=  c #37323C",
"-  c #38323B",
";  c #39333B",
":  c #39343D",
">  c #452A36",
",  c #462A36",
"<  c #562F38",
"1  c #4C353A",
"2  c #4C363A",
"3  c #583039",
"4  c #5F3F3F",
"5  c #632C3F",
"6  c #67353B",
"7  c #6A363B",
"8  c #62413F",
"9  c #793B43",
"0  c #7E3841",
"q  c #7C3F45",
"w  c #524241",
"e  c #534342",
"r  c #704040",
"t  c #734542",
"y  c #764843",
"u  c #744A44",
"i  c #784C45",
"p  c #6C554B",
"a  c #7E594B",
"s  c #813D3F",
"d  c #843346",
"f  c #8D3D48",
"g  c #903C45",
"h  c #844346",
"j  c #8D4744",
"k  c #80484A",
"l  c #824D4C",
"z  c #884848",
"x  c #9C4543",
"c  c #93444A",
"v  c #91454D",
"b  c #9B4C4C",
"n  c #805E4E",
"m  c #935A4B",
"M  c #975B4C",
"N  c #9A5C4D",
"B  c #944C54",
"V  c #995251",
"C  c #A04644",
"Z  c #A14744",
"A  c #A04B45",
"S  c #A34A45",
"D  c #A34B46",
"F  c #A44D46",
"G  c #A35048",
"H  c #A1534E",
"J  c #A85249",
"K  c #A9574C",
"L  c #AC594B",
"P  c #AA5B4F",
"I  c #AF5D4D",
"U  c #B05F4E",
"Y  c #AA5D50",
"T  c #AC5F51",
"R  c #826351",
"E  c #806552",
"W  c #846853",
"Q  c #866C57",
"!  c #9F6652",
"~  c #89715C",
"^  c #B1614F",
"/  c #B2634F",
"(  c #AD6252",
")  c #AD6D5C",
"_  c #B36450",
"`  c #B46651",
"'  c #B56751",
"]  c #B36B53",
"[  c #B56851",
"{  c #B56852",
"}  c #B46B53",
"|  c #B66A52",
" . c #B76B53",
".. c #B76C53",
"X. c #B76E55",
"o. c #B56E56",
"O. c #B86D53",
"+. c #B96E54",
"@. c #A47E5F",
"#. c #A77F5F",
"$. c #B9765B",
"%. c #BA785A",
"&. c #BF7C5B",
"*. c #8E7B66",
"=. c #8F7E69",
"-. c #B97D60",
";. c #BA7F63",
":. c #90806B",
">. c #AB8060",
",. c #BC8364",
"<. c #C38460",
"1. c #C88E65",
"2. c #C18C6B",
"3. c #C59069",
"4. c #CB966A",
"5. c #C8996B",
"6. c #C9996C",
"7. c #CC9A6C",
"8. c #CF9E6E",
"9. c #D09F6F",
"0. c #D1A272",
"q. c #D2A373",
"w. c #D2A474",
"e. c #D3A575",
"r. c #D5AA79",
"t. c #D7AE7D",
"y. c #DBB685",
"u. c #DBB785",
"i. c #DDBA89",
"p. c #DEBD8B",
"a. c #E0C08E",
"s. c #E2C594",
"d. c #E4C997",
/* pixels */
"                                                                                                                                ",
"                                                                                                                                ",
"                                                                                                                                ",
"                                                                                                                                ",
"                                                                                                                                ",
"                      . . . . . . . . . . . . . . . . . . . . . . . . . . . . . . . . . . . . . . . . . .                       ",
"                      $ $ $ & & & & & & & & & & & & & & & & & & & & : : : & & : : : : : : : : : : : : : =                       ",
"                  . . i +.&.8.8.8.8.8.8.8.8.8.8.8.8.8.8.8.8.8.8.8.8.i.d.y.8.e.d.d.d.d.d.d.d.d.d.d.d.d.d.:.. .                   ",
"                  . . i +.&.8.8.8.8.8.8.8.8.8.8.8.8.8.8.8.8.8.8.8.8.i.d.y.8.e.d.d.d.d.d.d.d.d.d.d.d.d.d.:.. .                   ",
"                  . . i +.( v v 8.8.8.8.8.8.8.8.8.8.8.8.8.8.8.8.8.8.e.e.e.8.8.e.e.e.e.e.e.e.e.e.B B 2.e.W . .                   ",
"                  . . i +.T d d 8.8.8.8.8.8.8.8.8.8.8.8.8.8.8.8.8.8.8.8.8.8.8.8.8.8.8.8.8.8.8.8.d d ;.8.W . .                   ",
"                  . . r L J H H <.<.<.<.<.<.<.<.<.<.<.<.<.<.<.<.<.<.<.<.<.<.<.<.<.<.<.<.<.<.<.<.H H $.<.a . .                   ",
"                  . . 7 Z J +.+.+.+.+.+.+.+.+.+.+.+.+.+.+.+.+.+.+.+.+.+.+.+.+.+.+.+.+.+.+.+.+.+.+.+.+.+.i . .                   ",
"                  . . 3 s j T T T T N m m m m T T T T T T T T T T T T T T T T T T m m m m N T T T T N m 8 . .                   ",
"                  . . . . @ d d d d @ . . . X d d d d d d d d d d d d d d d d d d X . . . @ d d d d @ . . . .                   ",
"                  . . . . @ d d d d @ . . . X d d d d d d d d d d d d d d d d d d X . . . @ d d d d @ . . . .                   ",
"                  . . 6 x H ........1 . < x x Z Z Z Z Z Z Z Z Z Z Z Z Z Z Z Z Z Z x x < . , Z Z ........u . .                   ",
"                  . . 7 Z J +.+.+.+.1 . 3 Z Z Z Z Z Z Z Z Z Z Z Z Z Z Z Z Z Z Z Z Z Z 3 . , Z Z +.+.+.+.i . .                   ",
"                  . . r ^ ..1.1.1.1.k 5 h ^ ^ ^ ^ ^ ^ ^ ^ ^ ^ ^ ^ ^ ^ ^ ^ ^ ^ ^ ^ S Z q 5 q ^ ^ 1.1.1.1.n . .                   ",
"                  . . i +.&.8.8.8.8.V d b +.+.+.+.+.+.+.+.+.+.+.+.+.+.+.+.+.+.+.+.S Z g d v +.+.8.8.8.8.W . .                   ",
"                  . . i +.&.8.8.8.8.V d b +.+.+.+.+.+.+.+...U U +.+._ U ^ ^ ^ +.+.S Z g d v +.+.8.8.t.t.~ . .                   ",
"                  . . i +.&.8.8.8.8.V d b +.+.+.+.+.+.+.+.^ Z Z +.+.J Z Z Z S +.+.S Z g d v +.+.8.8.i.d.:.. .                   ",
"                  . . i +.&.8.8.8.8.V d b +.+.+.+.+.+.+.+._ S S +.+.J Z Z S S +.+.S Z g d v +.+.8.8.i.d.:.. .                   ",
"                  . . i +.&.8.8.8.8.V d b +.+.+.+.+.+.+.+.+.+.+.+.+.J Z Z Z S +.+.S Z g d v +.+.8.8.i.d.:.. .                   ",
"                  . . i +.&.8.8.8.8.V d b +.+.+.+.+.+.+.+.+.+.+.+.+.J Z Z Z S +.+.S Z g d v +.+.8.8.i.d.:.. .                   ",
"                  . . i +.&.8.8.8.8.V d b +.+.+.+.+.+.+.+.+.+.+.+.+..._ _ _ _ +.+.S Z g d v +.+.8.8.i.d.:.. .                   ",
"                  . . i +.&.8.8.8.8.V d b +.+.+.+.+.+.+.+.+.+.+.+.+.+.+.+.+.+.+.+.S Z g d v +.+.8.8.i.d.:.. .                   ",
"                  . . i +.&.8.8.8.8.V d b +.+.+.+.+.+.+.+.+.+.+.+.+.+.+.+.+.+.+.+.S Z g d v +.+.8.8.i.d.:.. .                   ",
"                  . . i +.&.8.8.8.8.V d b +.+.+.+.+.+.+.+.+.+.+.+.+.+.+.+.+.+.+.+.S Z g d v +.+.8.8.i.d.:.. .                   ",
"                  . . i +.&.8.8.8.8.V d b +.+.+.+.+.+.+.+.+.+.+.+.+.+.+..._ _ +.+.S Z g d v +.+.8.8.y.a.*.. .                   ",
"                  . . i +.&.8.8.8.8.V d b +.+.+.+.+.+.+.+.+.+.+.+.+.+.+.L Z S +.+.S Z g d v +.+.8.8.8.8.W . .                   ",
"                  . . i +.&.8.8.8.8.V d b +.+.+.+.+.+.+.+.+.+.+.+.+.+.+.L Z S +.+.S Z g d v +.+.8.8.8.8.W . .                   ",
"                  . . i +.&.8.8.8.8.V d b +.+.+.+.+.+.+.+.+.+.+.+.+.+.+.+.....+.+.S Z g d v +.+.8.8.i.s.=.. .                   ",
"                  . . i +.&.8.8.8.8.V d b +.+.+.+.+.+.+.+.+.+.+.+.+.+.+.+.+.+.+.+.S Z g d v +.+.8.8.i.d.:.. .                   ",
"                  . . i +.&.8.8.8.8.V d b +.+.+.+.+.+.+.+.+.+.+.+.+.+.+.+.+.+.+.+.S Z g d v +.+.8.8.t.t.~ . .                   ",
"                  . . i +.&.8.8.8.8.V d b +.+.+.+.+.+.+.+.+.+.+.+.+.+.+.+.+.+.+.+.S Z g d v +.+.8.8.8.8.R . .                   ",
"                  . . i +.&.8.8.8.8.k 5 z +.+.+.+.+.+.+.+.+.+.+.+.+.+.+.+.+.+.+.+.S Z q 5 q +.+.8.8.8.8.W . .                   ",
"                  . . i +.&.8.8.8.8.w . 8 +.+.+.+.+.+.+.+.+.+.+.+.+.+.+.+.+.+.+.+.S Z 3 . 1 +.+.8.8.8.8.W . .                   ",
"                  . . u ..&.8.8.8.8.w . 6 ........................................S x < . 1 ....8.8.8.8.R . .                   ",
"                  . . . . @ d d d d @ . . . X d d d d d d d d d d d d d d d d d d X . . . @ d d d d @ . . . .                   ",
"                  . . . . @ d d d d @ . . . X d d d d d d d d d d d d d d d d d d X . . . @ d d d d @ . . . .                   ",
"                  . . 8 m ! ,.,.,.,.>.@.@.@.@.,.,.,.,.,.,.,.,.,.,.,.,.,.,.,.,.,.,.@.@.@.@.>.,.,.,.,.#.@.p . .                   ",
"                  . . i +.&.8.8.8.8.8.8.8.8.8.8.8.8.8.8.8.8.8.8.8.8.8.8.8.8.8.8.8.8.8.8.8.8.8.8.8.8.8.8.W . .                   ",
"                  . . i +...) ) 8.8.8.8.8.8.8.8.8.8.8.8.8.8.8.8.8.8.8.8.8.8.8.8.8.8.8.8.8.8.8.8.) ) 3.8.W . .                   ",
"                  . . i +.T d d 8.8.8.8.8.8.8.8.8.8.8.8.8.8.8.8.8.8.8.8.8.8.8.8.8.8.8.8.8.8.8.8.d d ;.8.W . .                   ",
"                  . . u ..L f f 4.4.4.4.4.4.4.4.4.4.4.4.4.4.4.4.4.4.4.4.4.4.4.4.4.4.4.4.4.4.4.4.f f ;.4.R . .                   ",
"                  . . 7 Z J +.+.+.+.+.+.+.+.+.+.+.+.+.+.+.+.+.+.+.+.+.+.+.+.+.+.+.+.+.+.+.+.+.+.+.+.+.+.i . .                   ",
"                  . . 7 Z J +.+.+.+.+.+.+.+.+.+.+.+.+.+.+.+.+.+.+.+.+.+.+.+.+.+.+.+.+.+.+.+.+.+.+.+.+.+.i . .                   ",
"                      o o o $ $ $ $ $ $ $ $ $ $ $ $ $ $ $ $ $ $ $ $ $ $ $ $ $ $ $ $ $ $ $ $ $ $ $ $ $ $ $                       ",
"                      . . . . . . . . . . . . . . . . . . . . . . . . . . . . . . . . . . . . . . . . . .                       ",
"                                                                                                                                ",
"                                                                                                                                ",
"                                                                                                                                ",
"                                                                                                                                ",
"                                                                                                                                "
};
