/* XPM */
static char *result[] = {
/* columns rows colors chars-per-pixel */
"64 42 91 1 ",
"  c #000000",
". c #00000C",
"X c #010015",
"o c #03001B",
"O c #0C031D",
"+ c #10071F",
"@ c #000024",
"# c #0D0322",
"$ c #000029",
"% c #110723",
"& c #130C23",
"* c #150E28",
"= c #161125",
"- c #191427",
"; c #171228",
": c #1A172A",
"> c #1D1A2C",
", c #061034",
"< c #201E2F",
"1 c #211F30",
"2 c #1E203B",
"3 c #242233",
"4 c #2D2A32",
"5 c #262238",
"6 c #282639",
"7 c #2C2B3C",
"8 c #30303F",
"9 c #2F2F40",
"0 c #2B324C",
"q c #333344",
"w c #373845",
"e c #363648",
"r c #383448",
"t c #373848",
"y c #3B3B4D",
"u c #313750",
"i c #3E3D51",
"p c #403E52",
"a c #3F4252",
"s c #40424E",
"d c #424454",
"f c #454659",
"g c #46495B",
"h c #4A4C5D",
"j c #4E535E",
"k c #53525B",
"l c #4C4D61",
"z c #4E5163",
"x c #4B5168",
"c c #515465",
"v c #555964",
"b c #535669",
"n c #55596C",
"m c #595C6E",
"M c #5A5E71",
"N c #5D626E",
"B c #5D6275",
"V c #5F6478",
"C c #626165",
"Z c #616673",
"A c #636974",
"S c #62677A",
"D c #64697C",
"F c #696E7D",
"G c #6B727D",
"H c #676D80",
"J c #686E81",
"K c #6E7483",
"L c #6F7588",
"P c #707685",
"I c #737A86",
"U c #757C8B",
"Y c #787F8D",
"T c #7A818E",
"R c #7D8491",
"E c #868587",
"W c #808795",
"Q c #828A96",
"! c #858D99",
"~ c #87909B",
"^ c #89919D",
"/ c #8C94A0",
"( c #B5B5B6",
") c #BBBABB",
"_ c #BFBFC0",
"` c #C1C1C2",
"' c #CBCBCC",
"] c #D7D6D7",
"[ c #DADADA",
"{ c #FDFDFD",
"} c None",
/* pixels */
"}}}}}}}}}}}}}}}}}}}}}}}}}}}}}}}}}}}}}}}}}}}}}}}}}}}}}}}}}}}}}}}}",
"}}}}}}}}}}}}}}}}}}}}}}}}}}}}}}}}}}}}}}}}}}}}}}}}}}}}}}}}}}}}}}}}",
"}}}}}}}}}}}}}}}}}}}}}}}}}}}}}}}}}}}}}}}}}}}}}}}}}}}}}}}}}}}}}}}}",
"}}}}}}}}}}}}}}}}}}}15<5<}}}}}}}}}}}3331}}}}}}}}}}}}}}}}}}}}}}}}}",
"}}}}}}}}}}}}}}}}}}}+yBlq>}}  XOo}}qMBz;}}}}}}}}}}}}}}}}}}}}}}}}}",
"}}}}}}}}}}}}}}}}}}}}qbbio}cDAchd}ybMBd}}}}}}}}}}}}}}}}}}}}}}}}}}",
"}}}}}}}}}}}}}}}}}}}}}&yfw3G/!LSVqnSd1}}}}}}}}}}}}}}}}}}}}}}}}}}}",
"}}}}}}}}}}}}}}}}}}}}}} vQSSFFSSFSDn3}}}}}}}}}}}}}}}}}}}}}}}}}}}}",
"}}}}}}}}}}}}}}}}}}}}};AUUHSVSFl$dBMq6}}}}}}}}}}}}}}}}}}}}}}}}}}}",
"}}}}}}}}}}}}}}}}}}}}}>GUBSSSSxGE4lScq=}}}}}}}}}}}}}}}}}}}}}}}}}}",
"}}}}}}}}}}}}}}}}}}}}}<&dDSVDS ({CuHSyo}}}}}}}}}}}}}}}}}}}}}}}}}}",
"}}}}}}}}}}}}}}}}}}}}}X]',MHnq'{{C0HSe }}}}}}}}}}}}}}}}}}}}}}}}}}",
"}}}}}}}}}}}}}}}}}}}}}o`(@MHb6)[_kgDSbt}}}}}}}}}}}}}}}}}}}}}}}}}}",
"}}}}}}}}}}}}}}}}}}}}}< 2nDDBz@  fBDSHb69qq7}}}}}}}}}}}}}}}}}}}}}",
"}}}}}}}}}}}}}}}}}}}}}.G~W~UMSMMMVSSSSSBBBSB7 X}}}}}}}}}}}}}}}}}}",
"}}}}}}}}}}}}}}}}}}}}aGAP!SKUDHJHHDDSSDDDSSSKIS8}}}}}}}}}}}}}}}}}",
"}}}}}}}}}}}}}}}}}}} c^djQ;A!DMnnnbBSSSSSSVDR/Q8}}}}}}}}}}}}}}}}}",
"}}}}}}}}}}}}}}}}}}} h!jkQqA!Sy&1<=ySDSSSSDVVTR8}}}}}}}}}}}}}}}}}",
"}}}}}}}}}}}}}}}}}}}};sG!^E!TyryyyegSSSSSDSSVFLTk}}}}}}}}}}}}}}}}",
"}}}}}}}}}}}}}}}}}}}cNyAGFGPZ7hbbbbmSSSSSDSSSBF^N }}}}}}}}}}}}}}}",
"}}}}}}}}}}}}}}}}}} P^Fi#>@X6lSJKFHHFDSVBVVDVVHQB3}}}}}}}}}}}}}}}",
"}}}}}}}}}}}}}}}}}} G~DBBm77hBTQRQQQQHVB7bFSDSDHRG&}}}}}}}}}}}}}}",
"}}}}}}}}}}}}}}}}}8DIISVHV3aFTQ~~!!!!RKBzfzDVSSVQY%}}}}}}}}}}}}}}",
"}}}}}}}}}}}}}}}}}qRTBSVDVagF^!!!!!!!~RFJy9DDSSVQI&}}}}}}}}}}}}}}",
"}}}}}}}}}}}}}}}}}8RTVVDSSDad!!!!!!!!!!QFywSSVSVRI%}}}}}}}}}}}}}}",
"}}}}}}}}}}}}}}}}}8RTBDSSDJgtPQ~!!!!!!!QFyyFDDSSKB-}}}}}}}}}}}}}}",
"}}}}}}}}}}}}}}}}}8RTVVSSSny7lLQ!!!!!!~QHy6cBSSDDb:}}}}}}}}}}}}}}",
"}}}}}}}}}}}}}}}}}8RTVSSDB7}}&lL!!!!!!!RHfO>MDSSDn:}}}}}}}}}}}}}}",
"}}}}}}}}}}}}}}}}}qQTBSSFSt}}}>zL!^~!~YDDcq3MHSSHn:}}}}}}}}}}}}}}",
"}}}}}}}}}}}}}}}}}}vPUSSBd7}}}}7zPUUUULDDSl<ynDSHm:}}}}}}}}}}}}}}",
"}}}}}}}}}}}}}}}}}} G~DFz.}}}}}}5bMbbbnnMDm> gFSZh:}}}}}}}}}}}}}}",
"}}}}}}}}}}}}}}}}}}.G!SDb;}}}}}}7gq:111<-nM>OhDSfo}}}}}}}}}}}}}}}",
"}}}}}}}}}}}}}}}}}}}smFHb.}}}}}}}6py<}}}}yy>.fFFgX}}}}}}}}}}}}}}}",
"}}}}}}}}}}}}}}}}}}}}>zSBg7}}}}}}}ei3}}}}}+3dBSny}}}}}}}}}}}}}}}}",
"}}}}}}}}}}}}}}}}}}}}}OcDBe}}}}}}}}<1}}}}}}5MSn>}}}}}}}}}}}}}}}}}",
"}}}}}}}}}}}}}}}}}}}}}}7qq6}}}}}}}}}}}}}}}}39q8}}}}}}}}}}}}}}}}}}",
"}}}}}}}}}}}}}}}}}}}}}}}}}}}}}}}}}}}}}}}}}}}}}}}}}}}}}}}}}}}}}}}}",
"}}}}}}}}}}}}}}}}}}}}}}}}}}}}}}}}}}}}}}}}}}}}}}}}}}}}}}}}}}}}}}}}",
"}}}}}}}}}}}}}}}}}}}}}}}}}}}}}}}}}}}}}}}}}}}}}}}}}}}}}}}}}}}}}}}}",
"}}}}}}}}}}}}}}}}}}}}}}}}}}}}}}}}}}}}}}}}}}}}}}}}}}}}}}}}}}}}}}}}",
"}}}}}}}}}}}}}}}}}}}}}}}}}}}}}}}}}}}}}}}}}}}}}}}}}}}}}}}}}}}}}}}}",
"}}}}}}}}}}}}}}}}}}}}}}}}}}}}}}}}}}}}}}}}}}}}}}}}}}}}}}}}}}}}}}}}"
};
