/* XPM */
static char *e50517b1d4124cd9974c60d75c93f3ee47od2NRsmreQe0We[] = {
/* columns rows colors chars-per-pixel */
"64 64 13 1 ",
"  c None",
". c black",
"X c #332625",
"o c #651922",
"O c #69453A",
"+ c #394270",
"@ c #CC3333",
"# c #F06050",
"$ c #DE9473",
"% c #3A55B2",
"& c #FFC594",
"* c #B5B5D6",
"= c #E8E8F8",
/* pixels */
"                           ooooooooooooooooooo                  ",
"                           ooooooooooooooooooo                  ",
"                           ooooooooooooooooooo                  ",
"                     OOOooo################@@@oooo              ",
"                     OOOooo################@@@oooo              ",
"                     OOOooo################@@@oooo              ",
"              OOOOooo#########################@@@@ooo           ",
"              OOOOooo#########################@@@@ooo           ",
"              OOOOooo#########################@@@@ooo           ",
"              OOOOooo#########################@@@@ooo           ",
"           ooo@@@@######################ooo===*******ooo        ",
"           ooo@@@@######################ooo===*******ooo        ",
"           ooo@@@@######################ooo===*******ooo        ",
"        ooo@@@oooo@@@#########@@@@oooooo===***+++++++ooo        ",
"        ooo@@@oooo@@@#########@@@@oooooo===***+++++++ooo        ",
"        ooo@@@oooo@@@#########@@@@oooooo===***+++++++ooo        ",
"        ooo@@@@@@@oooooooooooooooo@@@@@@***+++****+++OOO        ",
"        ooo@@@@@@@oooooooooooooooo@@@@@@***+++****+++OOO        ",
"        ooo@@@@@@@oooooooooooooooo@@@@@@***+++****+++OOO        ",
"           OOO@@@@@@@@@@@@@@@@@@@@@@@@@@***++++++++++...        ",
"           OOO@@@@@@@@@@@@@@@@@@@@@@@@@@***++++++++++...        ",
"           OOO@@@@@@@@@@@@@@@@@@@@@@@@@@***++++++++++...        ",
"           ...++++++++++@@@@@@@@@@@@@@@@++++++....$$$...        ",
"           ...++++++++++@@@@@@@@@@@@@@@@++++++....$$$...        ",
"           ...++++++++++@@@@@@@@@@@@@@@@++++++....$$$...        ",
"           ...++++++++++@@@@@@@@@@@@@@@@++++++....$$$...        ",
"              ....OOO$$$++++++++++++++++&&&$$$OOOO...           ",
"              ....OOO$$$++++++++++++++++&&&$$$OOOO...           ",
"              ....OOO$$$++++++++++++++++&&&$$$OOOO...           ",
"              ....$$$$$$&&&...&&&&&&&...&&&$$$$$$$...           ",
"              ....$$$$$$&&&...&&&&&&&...&&&$$$$$$$...           ",
"              ....$$$$$$&&&...&&&&&&&...&&&$$$$$$$...           ",
"                  OOO$$$$$$OOO&&&&&&&OOO$$$$$$OOOO              ",
"                  OOO$$$$$$OOO&&&&&&&OOO$$$$$$OOOO              ",
"                  OOO$$$$$$OOO&&&&&&&OOO$$$$$$OOOO              ",
"              ....%%%...OOO$$$$$$$$$$$$$OOO...%%%%...           ",
"              ....%%%...OOO$$$$$$$$$$$$$OOO...%%%%...           ",
"              ....%%%...OOO$$$$$$$$$$$$$OOO...%%%%...           ",
"           OOO&&&&%%%***%%%.............%%%***%%%%&&&OOO        ",
"           OOO&&&&%%%***%%%.............%%%***%%%%&&&OOO        ",
"           OOO&&&&%%%***%%%.............%%%***%%%%&&&OOO        ",
"           OOO&&&&%%%***%%%.............%%%***%%%%&&&OOO        ",
"           OOO$$$$$$$+++%%%***=======***%%%+++$$$$$$$OOO        ",
"           OOO$$$$$$$+++%%%***=======***%%%+++$$$$$$$OOO        ",
"           OOO$$$$$$$+++%%%***=======***%%%+++$$$$$$$OOO        ",
"              OOOO...%%%%%%XXX*******XXX%%%%%%....OOO           ",
"              OOOO...%%%%%%XXX*******XXX%%%%%%....OOO           ",
"              OOOO...%%%%%%XXX*******XXX%%%%%%....OOO           ",
"                  ...XXX+++XXX@@@@@@@XXX+++XXX....              ",
"                  ...XXX+++XXX@@@@@@@XXX+++XXX....              ",
"                  ...XXX+++XXX@@@@@@@XXX+++XXX....              ",
"                  ...XXX+++OOOXXXXXXXOOO+++XXX....              ",
"                  ...XXX+++OOOXXXXXXXOOO+++XXX....              ",
"                  ...XXX+++OOOXXXXXXXOOO+++XXX....              ",
"                  ...@@@###...       ...###@@@....              ",
"                  ...@@@###...       ...###@@@....              ",
"                  ...@@@###...       ...###@@@....              ",
"                  ...@@@###...       ...###@@@....              ",
"                     ......             ......                  ",
"                     ......             ......                  ",
"                     ......             ......                  ",
"                                                                ",
"                                                                ",
"                                                                "
};
