/* XPM */
static char *ground05_bigger[] = {
/* columns rows colors chars-per-pixel */
"64 64 152 2 ",
"   c #75563A",
".  c #76583D",
"X  c #7A5A3D",
"o  c #7A5D42",
"O  c #7E6144",
"+  c #7E6449",
"@  c #815E3E",
"#  c #846243",
"$  c #896645",
"%  c #8E6946",
"&  c #82664A",
"*  c #886748",
"=  c #866A4D",
"-  c #8C6A4A",
";  c #906A47",
":  c #926D4A",
">  c #96714D",
",  c #98734F",
"<  c #866B51",
"1  c #896E52",
"2  c #8C7155",
"3  c #8C745A",
"4  c #957452",
"5  c #9A7552",
"6  c #9C7955",
"7  c #927659",
"8  c #94795D",
"9  c #9D7D5B",
"0  c #A07E5C",
"q  c #947C63",
"w  c #9A7E62",
"e  c #A07F60",
"r  c #9F805E",
"t  c #A1815E",
"y  c #9B8166",
"u  c #9B8369",
"i  c #A48463",
"p  c #A88765",
"a  c #A78867",
"s  c #A98966",
"d  c #A1866B",
"f  c #A4896C",
"g  c #AC8C6B",
"h  c #B08F6D",
"j  c #AF906E",
"k  c #B1916E",
"l  c #A58C72",
"z  c #A98E72",
"x  c #AC9173",
"c  c #AC947A",
"v  c #B49573",
"b  c #B89775",
"n  c #B79876",
"m  c #B89976",
"M  c #B19679",
"N  c #B5997B",
"B  c #BC9D7B",
"V  c #BFA07E",
"C  c #C09F7D",
"Z  c #C0A17E",
"A  c #B49B80",
"S  c #B89E81",
"D  c #BEA182",
"F  c #BEA58A",
"G  c #C2A382",
"H  c #C2A381",
"J  c #C1A483",
"K  c #C3A482",
"L  c #C2A483",
"P  c #C4A583",
"I  c #C5A683",
"U  c #C1A484",
"Y  c #C2A584",
"T  c #C3A584",
"R  c #C3A686",
"E  c #C4A684",
"W  c #C5A684",
"Q  c #C4A685",
"!  c #C6A785",
"~  c #C5A786",
"^  c #C4A583",
"/  c #C7A886",
"(  c #C6A887",
")  c #C7A987",
"_  c #C7A886",
"`  c #C8A987",
"'  c #C8A986",
"]  c #C8A987",
"[  c #C1A688",
"{  c #C7A988",
"}  c #C7AA89",
"|  c #C6A98A",
" . c #C8AA88",
".. c #C9AA88",
"X. c #C8AA89",
"o. c #C9AB89",
"O. c #CAAB89",
"+. c #C9AB8A",
"@. c #C8AB8B",
"#. c #CAAC8B",
"$. c #CBAC8B",
"%. c #CAAD8D",
"&. c #CBAD8D",
"*. c #CBAE8D",
"=. c #CCAE8C",
"-. c #CCAE8D",
";. c #CCAF8E",
":. c #C9AB89",
">. c #CDB08F",
",. c #CDB08F",
"<. c #C3AA90",
"1. c #C7AD91",
"2. c #C6AD92",
"3. c #C5AC91",
"4. c #C8AE92",
"5. c #C9AF91",
"6. c #CDB090",
"7. c #CCB091",
"8. c #CDB191",
"9. c #CEB191",
"0. c #CDB192",
"q. c #CEB192",
"w. c #CFB293",
"e. c #CFB393",
"r. c #CFB394",
"t. c #CEB497",
"y. c #CDB192",
"u. c #CAB399",
"i. c #CDB498",
"p. c #CCB398",
"a. c #D0B495",
"s. c #D3B799",
"d. c #D0B79B",
"f. c #D1B79B",
"g. c #D2B79A",
"h. c #D0B79C",
"j. c #D2B799",
"k. c #D3B89B",
"l. c #D3B99B",
"z. c #D2B89B",
"x. c #D4B89B",
"c. c #D2B89C",
"v. c #D3B89C",
"b. c #D3B99C",
"n. c #D2B99D",
"m. c #D3B99E",
"M. c #D3BA9E",
"N. c #D4B99D",
"B. c #D4B99C",
"V. c #D5BA9D",
"C. c #D4B99B",
"Z. c #D9BEA2",
/* pixels */
"u u A u.Z.s.l.l.s.l.Z.s.l.Z.l.l.l.l.l.l.l.l.l.l.l.l.s.s.l.s.s.l.l.s.l.l.s.l.s.s.l.l.s.l.l.l.l.l.l.l.l.l.l.s.s.s.l.l.l.s.{ c u u ",
"u F l.6.>.*.*.*.( { *.*.*.( { { *.*.*.*.*.*.*.*.*.*.*.] *.*.*.*.*.*.*.*.*.*.*.*.*.*.*.*.*.*.*.*.*.*.*.*.*.*.*.*.*.] *.*.*.6.N u ",
"N l.*.*.*.( ( 4.*.*.*.*.*.*.*.( *.*.*.*.*.*.*.*.*.] *.*.*.] ] ] *.*.*.*.] ] *.*.*.*.] ] *.*.*.*.*.*.*.*.*.*.*.*.*.*.*.*.*.*.*.l ",
"4.6.*.*.( *.*.( *.*.( *.( ( *.{ *.*.*.*.] ] ] ] ] ] *.] ] *.] ] ] ] ] ] ] ] { *.*.] *.] *.*.*.*.*.*.*.*.*.*.*.*.*.*.*.*.*.*.*.x ",
"6.*.*.*.*.*.*.( E N { ( *.*.( *.*.] ] *.*.] ] ] { ] ( ] ( ( ( ( ( ( ( ] ] ] ] ] ( ] ] *.*.] *.] *.*.*.*.*.*.*.*.*.*.*.*.*.*.*.x ",
"6.*.*.*.*.*.*.Z u i i Z *.( *.( ] ] ] ] ] ( ( ( ] E ( ] E E ( ( E ( ( ( *.E ( ] ( ( E ] ( *.*.] ] ] ] *.*.*.*.*.*.*.*.*.*.*.] z ",
"6.*.*.*.( *.*.Z 9 X - E *.*.( ( ] ] ] ] ( ] ( ( E E E E E E E E E E E E E D z f x D E E ( ] ] ] ] *.] ] ] ] *.*.] *.*.*.*.*.] z ",
"6.*.*.*.*.*.E 4.6.6.s.>.] ] *.( E Z N N M M M M N N D E E E E E E E E E D u d i 9 i E ( E ( ( ] ( ] ] ] ] ] *.*.*.( *.*.*.*.] z ",
"6.*.*.*.*.*.*.] ] ] ] ] E N l u u u d d d f d f f d d f l M N E E E E E V t # # @ O *.E E E ] ] ( ] ] *.*.E E E E ( *.*.*.*.] z ",
"6.*.*.*.*.*.*.*.] ] E z u u d i 9 5 4 > > > > , 5 6 0 i f f d g m E Z E E E x u l 1.( E E E E E E ( E N u u u u d M N ] *.*.] z ",
"6.*.*.*.*.*.*.*.] M u l i 4 ; ; ; ; : ; : : : : : : > , 5 6 0 p d x N V Z Z E E E E E E E E E E E E x u f 9 5 4 6 i i N *.*.] z ",
">.*.*.*.*.*.*.] x f g 5 : : ; ; ; ; ; ; ; ; : : : : : : > 5 5 5 0 i x N N N V Z Z Z Z E E E E E E E d i > : ; : > > 5 5 *.*.*.z ",
"6.*.*.*.*.] *.D f s 6 5 > : : ; ; % % ; ; ; ; ; ; ; ; : : > , 5 6 0 0 m N N C C N N Z Z E Z E E E E g > > > : ; : > : & 6.*.*.z ",
"6.*.*.*.*.] *.M g 6 6 5 : : : ; ; ; % ; % ; ; ; ; ; ; : : : > 5 6 6 5 g N N N N N N N V V Z Z E E E E f # # % $ @ X & 1.*.*.*.z ",
"6.*.*.*.] ] *.N i 9 6 5 > : : : ; ; ; ; % ; % % % % ; ; : : : , 5 6 > f N m m N N N N N N N Z E Z E E { { N l d x F s.*.*.*.*.z ",
"6.*.*.*.] ] ] E s 5 6 5 5 > : : ; ; ; ; % ; % % % % % ; ; : : > 5 5 # S m m m m m M M M m N N Z Z E E E E ( *.*.*.{ *.*.*.*.] z ",
"6.*.*.*.*.*.] ] E 9 > 6 5 , > : : : : : ; ; : ; ; ; % ; ; : : > : o l N M M g q q q w u y y d M N Z E E E E E E E ] ] *.*.] ] g ",
"6.*.*.] *.*.] ( ( *.g - > 5 5 , > : : : : : : : ; ; ; ; ; : % X & N N k M 8 q d 0 5 4 5 6 t i i M N Z E E E E ( E E ] *.*.*.{ z ",
"6.*.*.*.] *.( E E E *.{ z 1 % - > > > > > > : : : : % # X . 1 c D M h k g y 9 > > : : : : , 5 6 5 E Z Z E E E E E E ] *.*.*.] z ",
"6.*.*.*.*.] ( E E E E E E *.[ x y 3 = & # O o O O + 3 w x S N g g g g g g 9 > 5 5 > : ; : , , : & ( Z Z E E E E E ( ] *.*.*.( l ",
">.*.*.( z u d l N E E E Z Z N Z D E E E D D D D V N N M g g g s s g g g g k 9 = $ - $ $ # # o 3 F Z V Z Z E N V E E ( ] *.*.] z ",
">.*.] N u i 9 9 4 E E Z Z V N m m m M M M k k g g g g s s s s s s s s s g g M N x d w w u c F [ N N V N f y u u u z V ] *.*.( z ",
"6.*.] ( f O . o u *.Z Z Z N N N m n M M k h g g g s s s i i i i i p i i s s s g g k M M M M M m m N V x d i 5 5 5 9 s *.*.*.*.z ",
"6.*.] *.*.6.6.6.*.E E Z Z N N N m M M k k h g g s s p s i i i i i i i i i s s s g g g g k M M b m N N N 9 # % % # X f *.*.*.( z ",
"6.*.*.*.] ( E E E E E C N N N m M M M k g g g s s i i i i i i i i i i i i i i s g g g g k k M M m N N N E A l f c 1.6.] ] *.] z ",
"6.*.] ] ] ( E E E E E Z N N N m M M M k g s 4 3 3 3 3 7 t t t t t t t t i i i 9 4 4 3 3 3 8 8 q w y f M N E E { { E E ] *.] ] z ",
"4.*.] ] ] E E E E E Z N N N m M M M k g g 8 y i 9 9 9 4 9 r t 9 t t 0 t 9 1 1 q y w i t i 0 0 i i i i d u f n E E E ( ( ( *.] z ",
"6.*.] ] ] ( E E E E Z V N N m b M k k k g i - @ # # @   y 0 9 t t t 9 - 3 f i 5 : ; ; ; : : : : : : > 5 9 i f M E E E ( ] ] ] z ",
"6.*.] ] ( E D N x x x M m N m M M k k g g g g i 8 7 y x f 9 9 9 9 9 < y f 6 > : : ; $ : ; ; : : : : : : , 5 9 t M E ( ( ] *.] z ",
"6.*.*.] N u u u u d d u y d M M M k k g g s p p p i i t 9 9 9 9 9 9 3 i 5 5 5 > : : : $ % % ; ; ; : : : , 5 6 6 6 ] E ( ] ] ] z ",
"6.*.*.N u g 0 5 : : > 5 0 i i M M k k g g s p i i t t t 9 9 9 9 9 9 9 6 6 6 5 > : : : ; ; % ; % : ; : : > 5 6 5 = *.E ( ] ] ] z ",
"6.*.*.N i > > > : ; : > , , $ N M k h g g s i i i t t 9 9 9 9 9 9 9 9 5 5 6 5 , : : : : ; ; ; ; ; ; : : > 5 5 O x *.E ( ] ] { z ",
"6.*.*.] x - - : : : % % # o f N M k g g s s i i t t t 9 9 9 9 9 9 9 9 i 4 - : > > : : : : : : : : ; ; : - # + A 6.E E ( ] *.] z ",
"6.*.] ] *.{ x w 3 = < 8 l F D M M k h g g s i i t t t 9 0 9 9 9 9 9 9 9 i f 8 = # # # $ % % % $ # @ X o 3 A 6.( E E E ( ] *.*.z ",
"6.*.] ] ] E ] *.*.4.*.E D N m M k k g i 9 9 9 i i t t t 9 9 9 9 9 9 9 r r t i j M x f u w w y u l N [ *.{ E Z E E E ( E ] *.] g ",
"4.*.*.*.( E E E E E Z N N N m M M g 3 q y w 9 4 t i t 9 t 9 9 9 9 9 9 6 6 9 t i i s g g M M M n m N m N N V E E E E E ( ] ] ] z ",
"6.*.*.] ] ( E E E E Z Z N N m m M g 4 # $ $ # o g i t t t t r 9 3 & 3 3 7 3 3 8 i s s s g k k M m m N N N Z Z E E E ( ( ] *.] z ",
"6.*.] ] ( E E E E Z Z Z N N m m M M M f q q u M g i i t t t 0 = y f t 6 4 4 9 9 9 s g g g k M M m m N N V Z E E E E E ( ] *.] z ",
"*.*.*.] ] ( E E E E Z Z C N m m M M M M M k g s i i i i t t 9 7 0 > > : ; : : > 4 g g g g k M M m m N N V Z E E E E ( ] ] *.] z ",
"6.*.] ] ] ( E E E E Z Z C N N m m M M k g g g s s i i i i i t 9 % : > : : ; % X w k g g k k M M m N N N V N n M Z E ( ] *.*.] z ",
"6.*.*.] ] ( E E E E Z Z C N N N b M M k k g g g s s i i i i i i f 4 O o . o < l N g g k k M M b m N N N Z g u i i E ( ] *.*.] z ",
"6.*.] ] ( ] E E E E E Z N N M f y w 8 8 8 9 9 r i s s s s p i i p g M N N N n g g g k k M M M m m N N Z Z N 4 X 3 *.E ] ] *.] z ",
"6.*.*.*.*.] E E E E E M y q y u u i d i d d f y w 8 9 i s s s s i s i s s g g g g k k k M M m m N N N Z Z E *.6.6.] ( ] ] *.] z ",
"6.*.*.] ] ] ( ( E Z d u z i 5 : : ; : : : > 5 6 0 i i 9 i s s s g s g g g g g g k k M M M m m m N N Z Z Z E E E E ( ( ] ] *.*.z ",
"6.*.*.*.*.] ( E E z l i 5 5 > : : % ; : : : > , 5 5 6 0 0 g g g g g g g g g j k k M x M k k m N N N Z Z E E E E ( ( ] ] *.*.*.l ",
"6.*.*.*.] *.] ( E x t 5 6 5 5 > : : ; % ; : : > 5 5 5 5 - m g k g h g k k k k j i 8 q q y y y d x N Z Z E E E E ( ] { ] ] ] ] z ",
"6.*.] *.*.] ] E E E 9 > 6 6 5 , > : : : ; ; : : > 5 5 # q N k k k k k M k k g 3 u f 9 5 5 6 t i d g Z E E E E E ( ( { *.] *.] z ",
"6.*.*.*.*.*.*.( ( E { f - % > 5 , > > : : ; ; % $ o + l E M M M M M M M M M 9 z 9 , : : : > 5 5 6 9 m E E E E ( ] ( ] *.] ] ] z ",
"6.*.*.*.E E E E ] E E ] *.A d 7 = & O o o O O 1 u A { N m b M M M M M b m M i 0 6 5 , : ; : > 5 5 4 f E E E ( ( ] ] ] ] *.*.] z ",
"6.*.*.N u y M ] ( ( ( E E E { *.*.*.*.1.{ { { E D N m m m m m m n m m m m m h 4 5 5 5 > : : > 5 5 O S E E E ( ( ] ] ] ] *.*.*.z ",
"6.*.*.E y 3 M *.] ( E E E E E E E Z Z Z N N N N N N N N N m N N m m m m N N N M : - > > : % % # O c *.E E ( ( ] ] ] ] *.*.*.*.z ",
"6.*.*.*.a.a.*.] ] ] E E E E E E E E E Z E Z V N C N N N N N N N N N N N N N N Z E N w 3 < 1 q c 4.*.E E ( ] ] *.] ] ] *.*.*.*.z ",
">.*.*.*.*.*.*.] ] *.] ( ( E E E E E E E E E Z Z V V N N N N N N N N N N C Z Z Z N E ( *.*.*.*.( E E E E ] ] ] ] ] *.*.*.*.*.*.z ",
">.*.*.*.*.*.*.] *.] ] ( ( ( E E E E E E E E E Z Z Z Z Z Z Z V N N V Z Z Z Z Z Z E E E E E E E E E E ( E ] ] ] ] ] *.*.*.*.*.] z ",
"6.*.*.*.*.*.*.*.*.*.*.*.] *.] E E E E E E E E E E E Z Z E N f u y y i M Z Z E E E E E E E E E E ( ( ( ] ] ] *.*.] *.*.*.*.*.*.z ",
">.*.*.*.*.*.*.] E N x z f f z M N E E E E E E E E E E E E z i w 9 9 9 7 E E E E E E E E E ( E ( ] ( ] ( ( *.*.*.*.*.*.*.*.*.] z ",
"*.*.*.*.*.*.N u u d d i i d d f f f M E ( E E E E E E E E E 9 O X X O l *.E E E E E E E E E E ] E M d u d f N ] *.*.{ ( 4.*.( M ",
"6.*.*.*.*.E d g 9 > : : % : > , 5 0 9 E ( ( E E E E ( E E E *.6.6.6.a.*.E E E E E ( ] ( ( ( ] ] N d i 9 9 9 9 E *.*.*.( ( { E k ",
"6.*.*.*.*.*.i - > > , : ; ; : > > - X { ] ( ] ( ] E ( ( ( ( E ] E E ] ] E ( E ( ( ] ] ] ] ( ] ] E i X X X   & 4.*.*.*.*.*.*.( M ",
">.*.*.*.*.*.*.M 7 & # # @ X X X + q 1.*.] ] ( ] ] ] ] ( ( ( E E ( ( ( ] ( ( ( ] ] ] ] *.] *.] *.*.6.4.F F 1.l.*.*.*.] *.*.*.{ f ",
"E *.*.*.*.*.*.*.a.6.1.[ F [ 1.u.l.6.*.] *.*.{ ] *.] ] ] ] ] ] E ] *.] ] ] ] ] ] ] *.*.] ] *.*.*.*.*.*.*.*.*.*.*.*.*.*.*.*.*.E q ",
"l E *.*.*.*.*.*.*.*.*.*.*.*.*.*.*.*.*.*.] *.*.] ] *.*.*.*.] *.*.] ] *.*.*.] *.*.*.*.*.*.*.*.*.*.*.*.*.*.*.*.*.*.*.*.*.*.*.( d q ",
"u f N E ( ] ( ( *.*.] *.] ] *.] { ] ] ( ] ] ( ( ] ( ( ( E ] ( ( ( ] ] ( ( ( ( ( E ( ( ] ( ] ] E ] ] ] *.*.] ] ] ( E E ( D u 3 u ",
"y u u y y u u u u y u u y y u y u u u u y u u u y y u y y u y u y y u u y y u y y u y y u y u u y u y y u y y u y i u q 3 q u u "
};
