/* XPM */
static char *Idle32x32[] = {
/* columns rows colors chars-per-pixel */
"62 64 144 2 ",
"   c None",
".  c #211F30",
"X  c #3C1E36",
"o  c #1B2E2E",
"O  c #1F322C",
"+  c #222D2C",
"@  c #233D26",
"#  c #223529",
"$  c #2E332D",
"%  c #30362D",
"&  c #323A2C",
"*  c #2A373B",
"=  c #471E39",
"-  c #4C1E3A",
";  c #541D3C",
":  c #5C1D3E",
">  c #621D3F",
",  c #492536",
"<  c #522139",
"1  c #5B2439",
"2  c #5E2D38",
"3  c #552A37",
"4  c #64243A",
"5  c #6C263B",
"6  c #632E39",
"7  c #74273C",
"8  c #762A3C",
"9  c #7A293C",
"0  c #6F303A",
"q  c #7F333D",
"w  c #25561F",
"e  c #255D1C",
"r  c #2D5F1E",
"t  c #1C761B",
"y  c #1D7918",
"u  c #1B7719",
"i  c #266E17",
"p  c #26631A",
"a  c #2D651C",
"s  c #266B18",
"d  c #32681C",
"f  c #31621E",
"g  c #277116",
"h  c #277B14",
"j  c #287F11",
"k  c #247B1A",
"l  c #3C781A",
"z  c #244424",
"x  c #244E21",
"c  c #3D4B2A",
"v  c #36412B",
"b  c #3C5127",
"n  c #325822",
"m  c #3D5E23",
"M  c #0C6625",
"N  c #0E6824",
"B  c #076029",
"V  c #146C23",
"C  c #116628",
"Z  c #4A7E1D",
"A  c #465A27",
"S  c #485E27",
"D  c #425328",
"F  c #4C6426",
"G  c #436822",
"H  c #526E24",
"J  c #567424",
"K  c #527B20",
"L  c #5D7F22",
"P  c #353E45",
"I  c #691D41",
"U  c #641D40",
"Y  c #781C45",
"T  c #731C43",
"R  c #7D2440",
"E  c #484A55",
"W  c #53525F",
"Q  c #84293E",
"!  c #89363E",
"~  c #92383F",
"^  c #9C1B4D",
"/  c #A61F4C",
"(  c #822242",
")  c #882343",
"_  c #9A2B41",
"`  c #922944",
"'  c #993940",
"]  c #AA2D43",
"[  c #AD224B",
"{  c #A32944",
"}  c #B4254B",
"|  c #BB294A",
" . c #A93A43",
".. c #B33544",
"X. c #C52D49",
"o. c #C82E48",
"O. c #C6364B",
"+. c #CC3048",
"@. c #D23749",
"#. c #D63B49",
"$. c #BD4145",
"%. c #C54346",
"&. c #DE444A",
"*. c #E44A4A",
"=. c #28860F",
"-. c #2F8910",
";. c #268311",
":. c #348A11",
">. c #398C12",
",. c #3D8516",
"<. c #418F14",
"1. c #53821E",
"2. c #469115",
"3. c #4C9316",
"4. c #529517",
"5. c #569618",
"6. c #5C9919",
"7. c #659C1B",
"8. c #6E9F1D",
"9. c #6FA01C",
"0. c #72A11D",
"q. c #408323",
"w. c #4E8B21",
"e. c #5E8321",
"r. c #628623",
"t. c #628821",
"y. c #76A126",
"u. c #78A722",
"i. c #7EAB26",
"p. c #428856",
"a. c #498A62",
"s. c #6BA27B",
"d. c #829F3D",
"f. c #83AF29",
"g. c #8FBA32",
"h. c #93BD35",
"j. c #97C138",
"k. c #98C239",
"l. c #A4CC42",
"z. c #7BAA8D",
"x. c #AECCB8",
"c. c #CDDFD4",
"v. c #D7E5DC",
"b. c white",
/* pixels */
"                                                                                                                            ",
"                                                                                                                            ",
"                                                                                                                            ",
"                                                                                                                            ",
"                                                                                                                            ",
"                                                                                                                            ",
"                                                                                                                            ",
"                                                                                                                            ",
"                                                                                                                            ",
"                                                                                                                            ",
"            . . . . . .               . . . . . . . . . . . .             . . . . . . . .                                   ",
"            . . . . . .               . . . . . . . . . . . .             . . . . . . . .                                   ",
"        . . ! ' ' ' ' ' 2 .       . c H H H H H H H H H H H H . .     . . F H H H H H H H c .                               ",
"        . . $.*.*.*.*.*.0 .       . D 0.0.0.0.0.0.0.0.0.0.0.0.. .     . . r.0.0.0.0.0.0.0.A . .                             ",
"        . . ..#.#.#.#.#.` U - . . . % A A A A A A A A A A A A . . . . . . c A A A A A A A & . .                             ",
"        . . ] +.+.+.+.+.[ ^ : . . . . . . . . . . . . . . . . . . . . . . . . . . . . . . . . .                             ",
"          . 5 8 8 8 { } ( > : : 4 7 8 q q q q q q 7 8 q q 7 7 7 7 7 7 7 7 q q 8 7 q q q q q ! 6                             ",
"            . . . . T ^ ; . > ^ } +.#.*.*.*.*.*.&.+.+.*.*.+.+.+.+.+.+.+.+.&.*.@.+.&.*.*.*.*.*.! . .                         ",
"            4 5 1 ; > I X . = I R Q _ O.O.O.O.O.O.+.+.O.O.+.+.+.+.+.+.+.+.O.O.+.+.+.O.O.O. .~ 2 . .                         ",
"        . . ] +.[ ^ - . . . . . . . ; ^ ^ ^ ^ ^ / +.X.^ ^ +.+.+.+.+.+.+.+./ ^ | +.[ ^ ^ ^ : . . . .                         ",
"        . . ..#.| [ < . X - - - < 1 R [ [ [ [ [ } +.o.[ [ +.+.+.+.+.+.+.+.} [ X.+.} [ [ [ ( 1 , . .                         ",
"        . . $.*.@.+.1 . I ^ ^ ^ } +.+.+.+.+.+.+.+.+.+.+.+.+.+.+.+.+.+.+.+.+.+.+.+.+.+.+.+.+.+.8 . .                         ",
"        . . $.*.@.+.1 . ; Y Y Y ) _ _ _ _ _ _ _ _ _ _ _ _ _ _ _ _ _ _ _ _ _ _ _ _ _ _ _ _ _ _ 4 . .                         ",
"        . . $.*.@.+.1 . . . . . . . . . . . . . . . . . . . . . . . . . . . . . . . . . . . . . . .                         ",
"        . . $.*...{ , . + # # # # # # # # o * W W W W W W W W o o # # o o E W W W W W W W P o O # #                         ",
"        . . $.*.3 . . . e =.=.=.=.=.=.=.y B a.b.b.b.b.b.b.b.b.B B ;.=.M B c.b.b.b.b.b.b.b.z.B t =.e . .                     ",
"        . .  .%., . + # a :.:.:.:.:.:.:.k M p.v.v.v.v.v.v.v.v.M M :.:.V M x.v.v.v.v.v.v.v.s.M t :.r . .                     ",
"            . . . . p =.5.0.0.0.0.0.0.0.6.=.y B B B B B B B B =.=.8.0.:.=.N B B B B B B B t =.3.0.H . .                     ",
"            . . . . a -.5.0.0.0.0.0.0.0.6.-.h C C C C C C C C -.-.8.0.>.-.V C C C C C C C k -.3.0.H . .                     ",
"                . . J 0.0.0.0.0.0.0.0.0.0.0.0.0.0.0.0.0.0.0.0.0.0.0.0.0.0.0.0.0.0.0.0.0.0.0.0.0.0.H . .                     ",
"                . . J 0.0.0.0.0.0.0.0.0.0.8.8.8.8.8.8.8.8.8.8.8.8.8.8.8.8.8.8.8.8.8.8.8.8.0.0.0.0.H . .                     ",
"                . . J 0.0.0.0.0.0.0.0.0.w.B B B B B B B B B B B B B B B B B B B B B B B B q.0.0.0.H . .                     ",
"                . . J 0.0.0.0.0.0.0.0.0.w.B B B B B B B B B B B B B B B B B B B B B B B B q.0.0.0.H . .                     ",
"                . . J 0.0.0.0.0.0.0.5.=.<.8.8.8.8.8.8.8.8.8.8.8.8.8.8.8.8.8.8.8.8.8.8.8.8.3.=.3.0.H . .                     ",
"                . . J 0.0.0.0.0.0.0.5.=.<.0.0.0.0.0.0.0.0.0.0.0.0.0.0.0.0.0.0.0.0.0.0.0.0.3.=.3.0.H . .                     ",
"                . . J 0.0.0.0.0.0.0.9.8.8.0.0.0.0.0.0.0.8.-.-.-.-.-.-.-.-.-.-.7.0.0.0.0.0.9.8.9.0.H . .                     ",
"                . . J 0.0.0.0.0.0.0.0.0.0.0.0.0.0.0.0.0.8.=.=.=.=.=.=.=.=.=.=.6.0.0.0.0.0.0.0.0.0.H . .                     ",
"                    $ $ d :.5.0.0.0.0.0.0.0.0.0.0.0.0.0.0.7.7.7.7.7.7.7.7.7.7.9.0.0.0.0.0.5.:.f $ $                         ",
"                    . . e =.3.0.0.0.0.0.0.0.0.0.0.0.0.0.0.0.0.0.0.0.0.0.0.0.0.0.0.0.0.0.0.3.=.w . .                         ",
"                        # # a >.>.>.5.0.0.0.0.0.0.0.0.0.0.0.0.0.0.0.0.0.0.0.0.0.0.3.>.>.>.r # #                             ",
"                        . . w =.=.=.2.0.0.0.0.0.0.0.0.0.0.0.0.0.0.0.0.0.0.0.0.0.0.<.=.=.=.x . .                             ",
"                            # @ @ @ G 0.0.0.0.0.0.0.0.0.0.0.0.0.0.0.0.0.0.0.0.0.0.m @ @ @ #                                 ",
"                            . . . . D 0.0.0.0.0.0.0.0.0.0.0.0.0.0.0.0.0.0.0.0.0.0.c . . .                                   ",
"                          . D J J J r.0.0.0.0.0.u.h.h.h.h.h.h.h.h.h.h.h.h.h.h.i.0.e.J v . . .                               ",
"                        . . F 0.0.0.0.0.0.0.0.0.i.l.l.l.l.l.l.l.l.l.l.l.l.l.l.i.0.0.0.D . . . .                             ",
"                      . D H t.0.0.0.0.0.0.0.i.g.h.l.l.l.l.l.l.l.l.l.l.l.l.l.l.h.g.i.0.D . @ e z .                           ",
"                    . . H 0.0.0.0.0.0.0.0.0.i.l.l.l.l.l.l.l.l.l.l.l.l.l.l.l.l.l.l.f.0.D . w =.w . .                         ",
"                  . x w 1.0.0.0.7.3.Z S J 0.i.l.l.l.l.l.l.l.l.l.l.l.l.l.l.l.l.l.l.f.0.D . w =.i w z .                       ",
"                . . p =.5.0.0.0.3.=.e . c 0.i.l.l.l.l.l.l.l.l.l.l.l.l.l.l.l.l.l.l.f.0.D . w =.=.=.e . .                     ",
"                . . p =.<.5.5.5.l e n A J 0.i.l.l.l.l.l.l.l.l.l.l.l.l.l.l.l.l.l.l.f.0.D . w =.=.=.e . .                     ",
"                . . p =.=.=.=.=.w . D 0.0.0.i.l.l.l.l.l.l.l.l.l.l.l.l.l.l.l.l.l.l.f.0.D . w =.=.=.e . .                     ",
"                  . x e e e e e w z G 0.0.0.i.l.l.l.l.l.l.l.l.l.l.l.l.l.l.l.l.l.l.f.0.D . z e e e x .                       ",
"                    . . . . . . x =.2.0.0.0.f.l.l.l.l.l.l.l.l.l.l.l.l.l.l.l.l.l.l.f.0.D . . . . . .                         ",
"                      . . . . . x =.2.0.0.0.i.h.j.l.l.l.l.l.l.l.l.l.l.l.l.l.l.k.h.i.0.D . . . . .                           ",
"                            . . x =.2.0.0.0.0.0.i.l.l.l.l.l.l.l.l.l.l.l.l.l.l.i.0.0.0.D .                                   ",
"                            . . x =.2.0.0.0.8.L r.d.d.d.d.d.d.d.d.d.d.d.d.d.d.y.0.0.0.D .                                   ",
"                            . . x =.2.0.0.0.L . . . . . . . . . . . . . . . . L 0.0.0.D .                                   ",
"                            . . x =.2.0.8.7.K . . . . . . . . . . . . . . + # e.0.8.7.b .                                   ",
"                            . . x =.2.0.6.=.s . .                     . . g =.6.0.<.=.x .                                   ",
"                            . . x =.2.8.5.h p . .                     . . g =.5.8.,.h z .                                   ",
"                            . . x =.=.=.p . .                         . . g =.=.=.z .                                       ",
"                              . x h ;.;.p . .                         . . i j j h z .                                       ",
"                                  . . . .                                 . . . .                                           ",
"                                  . . . .                                 . . . .                                           "
};
