/* XPM */
static char *result[] = {
/* columns rows colors chars-per-pixel */
"64 64 204 2 ",
"   c #003A00",
".  c #002812",
"X  c #00002E",
"o  c #000D2D",
"O  c #00152D",
"+  c #001C2D",
"@  c #001826",
"#  c #000032",
"$  c #090033",
"%  c #1D0034",
"&  c #180532",
"*  c #0E1A31",
"=  c #210033",
"-  c #271B33",
";  c #391134",
":  c #03282D",
">  c #01312D",
",  c #06392A",
"<  c #19352D",
"1  c #0F3132",
"2  c #223A2D",
"3  c #342733",
"4  c #213931",
"5  c #2A2E31",
"6  c #450000",
"7  c #4F0000",
"8  c #520000",
"9  c #430536",
"0  c #56003A",
"q  c #481E36",
"w  c #5B1C3A",
"e  c #650027",
"r  c #660037",
"t  c #6B0239",
"y  c #680037",
"u  c #730038",
"i  c #750B38",
"p  c #6B1D3A",
"a  c #711F36",
"s  c #572335",
"d  c #4B2232",
"f  c #692637",
"g  c #732C37",
"h  c #78283C",
"j  c #7D303C",
"k  c #77303D",
"l  c #005500",
"z  c #005900",
"x  c #006400",
"c  c #006C00",
"v  c #00651F",
"b  c #09691F",
"n  c #176C1E",
"m  c #037617",
"M  c #157719",
"N  c #197B18",
"B  c #007000",
"V  c #25791A",
"C  c #387F1A",
"Z  c #004728",
"A  c #1F422C",
"S  c #1A482A",
"D  c #005529",
"F  c #0A5729",
"G  c #1D4A2D",
"H  c #22442C",
"J  c #234A2E",
"K  c #2E4C2C",
"L  c #3B452F",
"P  c #3D4C2E",
"I  c #344A2E",
"U  c #2B5627",
"Y  c #3D522D",
"T  c #365A2A",
"R  c #244C31",
"E  c #284931",
"W  c #285133",
"Q  c #375533",
"!  c #3C4D30",
"~  c #196724",
"^  c #266D20",
"/  c #2E6D27",
"(  c #2C6C28",
")  c #28642A",
"_  c #3D7825",
"`  c #445B2C",
"'  c #435A31",
"]  c #415731",
"[  c #525C37",
"{  c #496B2C",
"}  c #486133",
"|  c #5A6E38",
" . c #556735",
".. c #53782C",
"X. c #7A1A45",
"o. c #661F40",
"O. c #1C4D4D",
"+. c #6A7A7D",
"@. c #B51A39",
"#. c #B91B39",
"$. c #B61737",
"%. c #86333F",
"&. c #8D2E3C",
"*. c #A5273F",
"=. c #851948",
"-. c #961C49",
";. c #9D174C",
":. c #A31C4C",
">. c #AA1F4C",
",. c #912B44",
"<. c #A92749",
"1. c #B62944",
"2. c #BA2C44",
"3. c #B32A4D",
"4. c #B82647",
"5. c #BC3F42",
"6. c #C52D49",
"7. c #CA2E4A",
"8. c #C42D45",
"9. c #CD3E45",
"0. c #CD3148",
"q. c #C93646",
"w. c #D3324A",
"e. c #DC394B",
"r. c #D22F49",
"t. c #E23A4D",
"y. c #C84144",
"u. c #D34546",
"i. c #DD434C",
"p. c #DA4649",
"a. c #E1464D",
"s. c #E6494B",
"d. c #F24B4E",
"f. c #2C8400",
"g. c #268604",
"h. c #348B04",
"j. c #2B9200",
"k. c #3B9208",
"l. c #278216",
"z. c #358317",
"x. c #338910",
"c. c #3A8A11",
"v. c #3C8519",
"b. c #3A8518",
"n. c #42930C",
"m. c #449706",
"M. c #549A0D",
"N. c #458C15",
"B. c #4C9213",
"V. c #5D941B",
"C. c #5A9818",
"Z. c #5D8D1B",
"A. c #659700",
"S. c #669900",
"D. c #628C1E",
"F. c #6C9D16",
"G. c #67971F",
"H. c #69971F",
"J. c #669B1B",
"K. c #6A9C1C",
"L. c #659A15",
"P. c #719F1D",
"I. c #6EA11A",
"U. c #6EA417",
"Y. c #73A21D",
"T. c #7AA61E",
"R. c #79AA1B",
"E. c #77A81A",
"W. c #5E8C23",
"Q. c #5D8226",
"!. c #638B23",
"~. c #669421",
"^. c #6A9522",
"/. c #6C9921",
"(. c #72A121",
"). c #7CAA24",
"_. c #7FAB28",
"`. c #78A622",
"'. c #388045",
"]. c #76877E",
"[. c #75927C",
"{. c #80AD27",
"}. c #86B42A",
"|. c #8BB334",
" X c #93BD36",
".X c #95B93F",
"XX c #9CC53D",
"oX c #9FC83E",
"OX c #A1C93F",
"+X c #96BA41",
"@X c #A5CD42",
"#X c #A8CF44",
"$X c #AAD344",
"%X c #7A868A",
"&X c #808B8E",
"*X c #819689",
"=X c #86988E",
"-X c #D7DBD8",
";X c #EFEFF0",
":X c #EFF2F0",
">X c #F1F2F2",
",X c #F7F6F8",
"<X c #F8F9F8",
"1X c None",
/* pixels */
"1X1X1X1X1X1X1X1X1X1X1X1X1X1X1X1X1X1X1X1X1X1X1X1X1X1X1X1X1X1X1X1X1X1X1X1X1X1X1X1X1X1X1X1X1X1X1X1X1X1X1X1X1X1X1X1X1X1X1X1X1X1X1X1X",
"1X1X1X1X1X1X1X1X1X1X1X1X1X1X1X1X1X1X1X1X1X1X1X1X1X1X1X1X1X1X1X1X1X1X1X1X1X1X1X1X1X1X1X1X1X1X1X1X1X1X1X1X1X1X1X1X1X1X1X1X1X1X1X1X",
"1X1X1X1X1X1X1X1X1X1X1X1X1X1X1X1X1X1X1X1X1X1X1X1X1X1X1X1X1X1X1X1X1X1X1X1X1X1X1X1X1X1X1X1X1X1X1X1X1X1X1X1X1X1X1X1X1X1X1X1X1X1X1X1X",
"1X1X1X1X1X1X1X1X1X1X1X1X1X1X1X1X1X1X1X1X1X1X1X1X1X1X1X1X1X1X1X1X1X1X1X1X1X1X1X1X1X1X1X1X1X1X1X1X1X1X1X1X1X1X1X1X1X1X1X1X1X1X1X1X",
"1X1X1X1X1X1X1X1X1X1X1X1X1X1X1X1X1X1X1X1X1X1X1X1X1X1X1X1X1X1X1X1X1X1X1X1X1X1X1X1X1X1X1X1X1X1X1X1X1X1X1X1X1X1X1X1X1X1X1X1X1X1X1X1X",
"1X1X1X1X1X1X1X1X1X1X1X1X1X1X1X1X1X1X1X1X1X1X1X1X1X1X1X1X1X1X1X1X1X1X1X1X1X1X1X1X1X1X1X1X1X1X1X1X1X1X1X1X1X1X1X1X1X1X1X1X1X1X1X1X",
"1X1X1X1X1X1X1X1X1X1X1X1X1X1X1X1X1X1X1X1X1X1X1X1X1X1X1X1X1X1X1X1X1X1X1X1X1X1X1X1X1X1X1X1X1X1X1X1X1X1X1X1X1X1X1X1X1X1X1X1X1X1X1X1X",
"1X1X1X1X1X1X1X1X1X1X1X1X1X1X1X1X1X1X1X1X1X1X1X1X1X1X1X1X1X1X1X1X1X1X1X1X1X1X1X1X1X1X1X1X1X1X1X1X1X1X1X1X1X1X1X1X1X1X1X1X1X1X1X1X",
"1X1X1X1X1X1X1X1X1X1X1X1X1X1X1X1X1X1X1X1X1X1X1X1X1X1X1X1X1X1X1X1X1X1X1X1X1X1X1X1X1X1X1X1X1X1X1X1X1X1X1X1X1X1X1X1X1X1X1X1X1X1X1X1X",
"1X1X1X1X1X1X1X1X1X1X1X1X1X1X1X1X1X1X1X1X1X1X1X1X1X1X1X1X1X1X1X1X1X1X1X1X1X1X1X1X1X1X1X1X1X1X1X1X1X1X1X1X1X1X1X1X1X1X1X1X1X1X1X1X",
"1X1X1X1X1X1X1X1X1X1X1X1X1X1X1X1X1X1X1X1X1X1X1X1X1X1X1X1X1X1X1X1X1X1X1X1X1X1X1X1X1X1X1X1X1X1X1X1X1X1X1X1X1X1X1X1X1X1X1X1X1X1X1X1X",
"1X1X1X1X1X1X1X1X1X1X1X1X1X1X1X1X1X1X1X1X1X1X1X1X1X1X1X1X1X1X1X1X1X1X1X1X1X1X1X1X1X1X1X1X1X1X1X1X1X1X1X1X1X1X1X1X1X1X1X1X1X1X1X1X",
"1X1X1X1X1X1X1X1X1X1X1X1X1X1X1X1X1X1X1X1X1X1X1X1X1X1X1X1X1X1X1X1X1X1X1X1X1X1X1X1X1X1X1X1X1X1X1X1X1X1X1X1X1X1X1X1X1X1X1X1X1X1X1X1X",
"1X1X1X1X1X1X1X1X1X1X1X1X1X1X1X1X1X1X1X1X1X1X1X1X1X1X1X1X1X1X1X1X1X1X1X1X1X1X1X1X1X1X1X1X1X1X1X1X1X1X1X1X1X1X1X1X1X1X1X1X1X1X1X1X",
"1X1X1X1X1X1X1X1X1X1X1X1X1X1X1X1X1X1X1X1X1X1X1X1X1X1X1X1X1X1X1X1X1X1X1X1X1X1X1X1X1X1X1X1X1X1X1X1X1X1X1X1X1X1X1X1X1X1X1X1X1X1X1X1X",
"1X1X1X1X1X1X1X1X1X1X1X1X1X1X1X1X1X1X1X1X1X1X1X1X1X1X1X1X1X1X1X1X1X1X1X1X1X1X1X1X1X1X1X1X1X1X1X1X1X1X1X1X1X1X1X1X1X1X1X1X1X1X1X1X",
"1X1X1X1X1X1X1X1X1X1X1X1X1X1X# # # # # # # # # # 1X1X1X1X1X1X# # # # # # # # # # # # # # 1X1X1X1X1X1XO O O O + + 1X1X1X1X1X1X1X1X",
"1X1X1X1X1X1X1X1X1X1X1X1X1X1XY } ' ' ' ' ' ' } Y 1X1X1X1X1X1XY } ' ' ' ' ' ' ' ' ' ' } Y 1X1X1X1X1X1Xg %.j j ,.f 1X1X1X1X1X1X1X1X",
"1X1X1X1X1X1X1X1X1X1X1X1X# Y !.(././././././.Y.!.Y # 1X1X# Y !.(././././././././././.(.!.Y # 1X1X@ f 5.p.u.u.p.5.g O 1X1X1X1X1X1X",
"1X1X1X1X1X1X1X1X1X1X1X1X# Q W./.G.G.G.G.~./.K.W.Q # 1X1X# Q W./.G.G.G.G.H.H.G.~.G././.W.Q # 1X1X- ,.u.d.s.d.d.u.,.+ 1X1X1X1X1X1X",
"1X1X1X1X1X1X1X1X1X1X1X1XX > Z D D D D D D D D D > O @ + O > Z F F D D D D D D D D D D Z > O @ q X.<.w.e.e.e.e.q.j + 1X1X1X1X1X1X",
"1X1X1X1X1X1X1X1X1X1X1X1Xg %.i u u u r r u u y r p f f h f p y r r y u u r r u u u u u i f f s o.=.;.3.4.2.1.2.<.f + 1X1X1X1X1X1X",
"1X1X1X1X1X1X1X1X1X1X@ g y.a.u.u.u.9.2.2.9.9.2.4.1.2.2.2.2.2.1.1.1.2.u.9.2.2.u.u.u.u.u.u.q.1.<.=.s f :.<.h s s w 1X1X1X1X1X1X1X1X",
"1X1X1X1X1X1X1X1X1X1X+ k 5.s.p.a.a.i.w.e.i.i.e.w.w.w.w.w.w.w.w.r.r.e.i.i.w.w.i.a.i.a.p.e.q.3.;.X.- - X.=.q - s s 1X1X1X1X1X1X1X1X",
"1X1X1X1X1X1X1X1X1X1X+ 3 s &.<.<.<.3.7.7.3.3.6.0.0.0.0.0.0.0.0.r.0.6.3.3.7.0.3.<.3.<.3.<.o.d q ; + + 3 p X.-.1.*.f + 1X1X1X1X1X1X",
"1X1X1X1X1X1X1X1X1X1X* 3 3 p -.:.:.>.7.7.>.>.6.w.0.0.0.0.7.0.0.0.r.6.>.>.7.8.3.;.:.:.:.;.h d q q w q + q -.4.e.q.h + 1X1X1X1X1X1X",
"1X1X1X1X1X1X1X1X1X1X* f <.q.7.7.7.7.w.w.7.7.w.w.r.r.r.r.w.w.w.w.r.w.7.7.w.w.7.7.0.0.7.7.6.1.-.-.-.X.- s <.w.a.u.j O 1X1X1X1X1X1X",
"1X1X1X1X1X1X1X1X1X1XO f 1.8.#.#.#.#.$.$.#.#.$.@.1.2.2.2.1.1.@.$.$.$.$.#.@.$.$.#.#.2.2.2.2.4.<.=.;.=.- f 2.t.d.u.j O 1X1X1X1X1X1X",
"1X1X1X1X1X1X1X1X1X1X# 9 p e 8 6 6 6 6 6 6 6 6 7 e p y y p e 8 6 6 6 6 6 6 6 6 8 e p t t t y 0 0 0 9 O f 2.t.s.u.j O 1X1X1X1X1X1X",
"1X1X1X1X1X1X1X1X1X1XJ Z . O.+.%X%X%X%X%X%X%X&X+.O.. Z , . O.+.&X%X%X%X%X%X%X%X+.O.. Z Z Z Z Z Z Z , : w *.9.s.u.j O 1X1X1X1X1X1X",
"1X1X1X1X1X1X1X1X= A n B   %X-X,X>X;X;X;X;X>X,X-X].  c c   ].-X,X>X;X;X;X;X;X<X-X%X  x m m m m m m b > = 9 &.s.p.%.O 1X1X1X1X1X1X",
"1X1X1X1X1X1X1X1X% Q v.h.x [.-X<X>X>X:X:X>X>X<X-X[.x h.h.x [.-X<X>X>X:X:X:X,X<X-X[.x f.n.n.n.n.n.m.N.U 1 : s y.9.g + 1X1X1X1X1X1X",
"1X1X1X1X1X1X1X1X$ ] ~.M.l._ [.=X*X*X*X*X*X*X=X[.'.g.L.C.g.'.[.=X*X*X*X*X*X*X=X[.'.g.C.K.J.J.J.K.K.C.z.v , ; h g 1X1X1X1X1X1X1X1X",
"1X1X1X1X1X1X1X1X# ' /.U.C.f.x l l z z z z l l x f.C.Y.Y.C.f.x l z z z z z z l x g.C.F.T.T.Y.T.(.T.I.M.z.K # o O 1X1X1X1X1X1X1X1X",
"1X1X1X1X1X1X1X1X# ' ~.`.J.I.S.S.S.A.A.A.A.S.A.A.L.U.E.Y.I.L.S.A.A.A.A.S.S.S.A.A.L.I.Y.(.Y.Y.Y.P.Y.Y.I.Z.Q # 1X1X1X1X1X1X1X1X1X1X",
"1X1X1X1X1X1X1X1X# ] ~.E.(.(././.G././.K.G.G././././.~.~.~././.G././.G.G.G.G.G./././.I.Y.Y.Y.P.Y.Y.Y.T.^.] # 1X1X1X1X1X1X1X1X1X1X",
"1X1X1X1X1X1X1X1X# ] ^.`.R./...~ / / / / / / / / ( ( ( ( ( / / / / / / ( / / / ( ~ ..~.Y.Y.Y.P.Y.I.(.E.^.] # 1X1X1X1X1X1X1X1X1X1X",
"1X1X1X1X1X1X1X1X# ' ^.Y.I.V._ ~ ( ( ( ( / / ( / ( ( ( ( ( ( ( ( / ( ( ( / ( ( ( ) _ C.I.P.P.Y.Y.Y.Y.Y.^.] # 1X1X1X1X1X1X1X1X1X1X",
"1X1X1X1X1X1X1X1X# ' ^.I.B.c.V.^.~.G.~.~.G.G.G.G.G.G.~./.G./.^.^./.~.~.~.~.~.~.~.~.V.c.N.G.Y.Y.P.Y.Y.Y.^.] # 1X1X1X1X1X1X1X1X1X1X",
"1X1X1X1X1X1X1X1X# ' ^.I.N.N.K.R.Y.E.Y.Y.I.I.K.I.K.I.K.I.I.K.I.F.I.I.E.Y.E.Y.E.Y.E.I.B.N.K.Y.Y.P.P.Y.E.^.] # 1X1X1X1X1X1X1X1X1X1X",
"1X1X1X1X1X1X1X1X# } /.R.I.I.I.(.Y.Y.T.K.B.x.c.c.c.c.c.c.c.c.c.c.x.B.J.Y.Y.Y.Y.Y.Y.K.K.K.K.Y.Y.Y.Y.`.R./.' # 1X1X1X1X1X1X1X1X1X1X",
"1X1X1X1X1X1X1X1X# ! Q././.I.Y.I.Y.Y.(.K.N.x.x.c.c.c.c.x.c.c.c.x.x.N.K.Y.P.Y.Y.Y.P.Y.(.Y.Y.Y.Y.Y.K.K./.Q.Y # 1X1X1X1X1X1X1X1X1X1X",
"1X1X1X1X1X1X1X1X1X1XL { v.M.I.`.Y.Y.Y.I.K.J.J.J.G.J.J.J.L.J.J.J.J.J.Y.Y.P.Y.Y.P.K.Y.Y.Y.Y.T.T.U.M.b.{ ! 1X1X1X1X1X1X1X1X1X1X1X1X",
"1X1X1X1X1X1X1X1X1X1X# : v b.C.I.J.I.I.Y.Y.Y.T.Y.T.Y.T.T.Y.T.Y.T.Y.Y.Y.Y.Y.P.Y.Y.Y.Y.Y.Y.K.J.F.D.z.v : # 1X1X1X1X1X1X1X1X1X1X1X1X",
"1X1X1X1X1X1X1X1X1X1X1X1X< ) v.m.k.B.F.P.Y.Y.Y.P.P.P.Y.Y.P.Y.P.Y.Y.Y.P.Y.P.Y.P.Y.Y.Y.Y.I.B.k.n.v.) < 1X1X1X1X1X1X1X1X1X1X1X1X1X1X",
"1X1X1X1X1X1X1X1X1X1X1X1X= 5 n m m C G.T.Y.Y.Y.P.P.P.P.P.P.Y.P.Y.K.Y.P.P.P.P.Y.Y.Y.Y.Y.G.C m m n < = 1X1X1X1X1X1X1X1X1X1X1X1X1X1X",
"1X1X1X1X1X1X1X1X1X1X1X1X= - 2 S + T ~.E.F.K.F.J.F.F.F.K.F.F.F.F.F.K.F.K.F.F.P.Y.P.Y.Y.~.T O > + $ $ 1X1X1X1X1X1X1X1X1X1X1X1X1X1X",
"1X1X1X1X1X1X1X1X1X1X1X1XH 2 - = 3 } D.T.{.{.{.{._._.{._.{.{._._.{.{.{.{.{._.(.P.P.Y.E.^.{ 3 ] ] ] Y 1X1X1X1X1X1X1X1X1X1X1X1X1X1X",
"1X1X1X1X1X1X1X1X1X1X= 2 V V 1 5 ..P.L.T. XOXXXXXXXXXXXXXXXXXXXXXXXXXXXXXXX X`.F.P.P.E.Y.^.^.^.~./.!.L # 1X1X1X1X1X1X1X1X1X1X1X1X",
"1X1X1X1X1X1X1X1X1X1X4 ) l.V < ` H.R.T.|.OX$X#X@X@X#X#X@X@X$X@X#X#X#X@X@X#X@X}.(.Y.K.~.G.K.U.Y.E.R./.{ : 1X1X1X1X1X1X1X1X1X1X1X1X",
"1X1X1X1X1X1X1X1X= H ^ l.j.V , ] D.{. X@X@X@X@X@X@X@X@X@X@X@XOX@X@X@X@X@X@X@X@X X{.D.` K b.M.I.T.)./.N.b A = 1X1X1X1X1X1X1X1X1X1X",
"1X1X1X1X1X1X1X1X= W l.j.j.V < 5 D.{.oX#X@X@X@X@X@X@X@X@X@X@X@X@X@X@X@X@X@X@X#XXX}.D.` H v C C.I.I.C.k.l.W = 1X1X1X1X1X1X1X1X1X1X",
"1X1X1X1X1X1X1X1X= W l.j.j.V , L D.}.oX$X@X@X@X@X@X@XOX@X@X@X#X@X@X@X@X@X@X@X$X@X{.F.H...I G v.m.n.k.j.l.W = 1X1X1X1X1X1X1X1X1X1X",
"1X1X1X1X1X1X1X1X= H ^ l.V ^ 1 P D.). XOX@X@X@X@X@X@X@X@X@X@XOX$X@X@X@X@X#X#XOX X_.F.R.P.T , n M M M V ^ H = 1X1X1X1X1X1X1X1X1X1X",
"1X1X1X1X1X1X1X1X1X1XH W W 2 $ P ~.T.`.|.OX$X$X$X#X$X$X$X$X$X$XOX$X$X#X$X$X#X|.R.Y.P.T.J.N.n G A R R R H 1X1X1X1X1X1X1X1X1X1X1X1X",
"1X1X1X1X1X1X1X1X1X1X= = = % X ] ~.E.F.`.|..X.X.X.X.X.X.X.X.X.X.X.X.X.X.X+X|./.D.P.Y.Y.F.k.N H = % = = = 1X1X1X1X1X1X1X1X1X1X1X1X",
"1X1X1X1X1X1X1X1X1X1X1X1X1X1X# ' ^.R.E.^.| [  . .| | | | | | | | | | | | |  .! { ^.R.`.J.n.M H % 1X1X1X1X1X1X1X1X1X1X1X1X1X1X1X1X",
"1X1X1X1X1X1X1X1X1X1X1X1X1X1X$ Q ~.U.I.Z.U X # # X X X X X X X X X X X X X # # I W.U.Y.K.n.M J = 1X1X1X1X1X1X1X1X1X1X1X1X1X1X1X1X",
"1X1X1X1X1X1X1X1X1X1X1X1X1X1X% Q v.m.n.c.g.~ H & 1X1X1X1X1X1X1X1X1X1X1X1X1X1X& E z.M.Y.I.N.M J = 1X1X1X1X1X1X1X1X1X1X1X1X1X1X1X1X",
"1X1X1X1X1X1X1X1X1X1X1X1X1X1X= A n N M N l.V H = 1X1X1X1X1X1X1X1X1X1X1X1X1X1X= < v z.J.L.k.N R % 1X1X1X1X1X1X1X1X1X1X1X1X1X1X1X1X",
"1X1X1X1X1X1X1X1X1X1X1X1X1X1X1X1XH R R J W J 1X1X1X1X1X1X1X1X1X1X1X1X1X1X1X1X1X1X< ) N.n.j.V J % 1X1X1X1X1X1X1X1X1X1X1X1X1X1X1X1X",
"1X1X1X1X1X1X1X1X1X1X1X1X1X1X1X1X= = % = = = 1X1X1X1X1X1X1X1X1X1X1X1X1X1X1X1X1X1X= < ~ N l.^ H % 1X1X1X1X1X1X1X1X1X1X1X1X1X1X1X1X",
"1X1X1X1X1X1X1X1X1X1X1X1X1X1X1X1X1X1X1X1X1X1X1X1X1X1X1X1X1X1X1X1X1X1X1X1X1X1X1X1X1X1XH R J H 4 - 1X1X1X1X1X1X1X1X1X1X1X1X1X1X1X1X",
"1X1X1X1X1X1X1X1X1X1X1X1X1X1X1X1X1X1X1X1X1X1X1X1X1X1X1X1X1X1X1X1X1X1X1X1X1X1X1X1X1X1X= = = = - - 1X1X1X1X1X1X1X1X1X1X1X1X1X1X1X1X"
};
