/* XPM */
static char *result[] = {
/* columns rows colors chars-per-pixel */
"64 64 200 2 ",
"   c #003A00",
".  c #002812",
"X  c #00002E",
"o  c #000D2D",
"O  c #00152D",
"+  c #001C2D",
"@  c #001826",
"#  c #000032",
"$  c #0B0032",
"%  c #1D0033",
"&  c #150032",
"*  c #0E1A31",
"=  c #210033",
"-  c #2A1B33",
";  c #391134",
":  c #04292D",
">  c #02312D",
",  c #063A2A",
"<  c #1C342D",
"1  c #193D2D",
"2  c #003131",
"3  c #2E3530",
"4  c #450000",
"5  c #4F0000",
"6  c #520000",
"7  c #430536",
"8  c #56003A",
"9  c #481E36",
"0  c #5B1C3A",
"q  c #660027",
"w  c #660037",
"e  c #6B0239",
"r  c #680037",
"t  c #730038",
"y  c #740A37",
"u  c #6B1D3A",
"i  c #711F36",
"p  c #572335",
"a  c #4B2232",
"s  c #692637",
"d  c #762A3A",
"f  c #7D303C",
"g  c #77303D",
"h  c #005500",
"j  c #005900",
"k  c #006400",
"l  c #006C00",
"z  c #00651F",
"x  c #09691F",
"c  c #166A1E",
"v  c #047617",
"b  c #15771A",
"n  c #1A7C17",
"m  c #007000",
"M  c #257B19",
"N  c #2F771D",
"B  c #004728",
"V  c #1E422C",
"C  c #1D4D29",
"Z  c #005529",
"A  c #045829",
"S  c #1D5328",
"D  c #22442C",
"F  c #234B2F",
"G  c #2E4C2C",
"H  c #3B462F",
"J  c #3B4B2E",
"K  c #344A2E",
"L  c #2D5627",
"P  c #3D522D",
"I  c #365A2A",
"U  c #254D31",
"Y  c #274933",
"T  c #295133",
"R  c #275033",
"E  c #385532",
"W  c #3C4D30",
"Q  c #1A6725",
"!  c #006420",
"~  c #2E6D27",
"^  c #2C6C28",
"/  c #286828",
"(  c #3D7825",
")  c #445B2C",
"_  c #415731",
"`  c #435A31",
"'  c #4A5535",
"]  c #496B2C",
"[  c #486133",
"{  c #5A6E38",
"}  c #556835",
"|  c #5A7334",
" . c #467B26",
".. c #7A1A45",
"X. c #661F40",
"o. c #1C4D4D",
"O. c #6A7A7D",
"+. c #B91C39",
"@. c #B61838",
"#. c #86333F",
"$. c #8D2E3C",
"%. c #A9293F",
"&. c #851948",
"*. c #961C49",
"=. c #9D174C",
"-. c #A31C4C",
";. c #AA1F4C",
":. c #912B44",
">. c #A92749",
",. c #B62A45",
"<. c #BA2C44",
"1. c #B32A4D",
"2. c #BA2649",
"3. c #BD3B42",
"4. c #C52D49",
"5. c #CA2E4A",
"6. c #C42D45",
"7. c #CD3148",
"8. c #CC3A46",
"9. c #D3324A",
"0. c #DC394B",
"q. c #D22F49",
"w. c #E23A4D",
"e. c #C84144",
"r. c #D34546",
"t. c #DD434C",
"y. c #DA4649",
"u. c #E1464D",
"i. c #E6494B",
"p. c #F24B4E",
"a. c #2C8400",
"s. c #258603",
"d. c #328A00",
"f. c #2B9200",
"g. c #3B9307",
"h. c #278217",
"j. c #338910",
"k. c #3B8A12",
"l. c #368419",
"z. c #3D8819",
"x. c #378317",
"c. c #42930C",
"v. c #529A0D",
"b. c #5F9C0C",
"n. c #458C15",
"m. c #4C9213",
"M. c #5D941B",
"N. c #5A9818",
"B. c #5F8C18",
"V. c #659700",
"C. c #669900",
"Z. c #618C1E",
"A. c #6C9D16",
"S. c #67971F",
"D. c #69971F",
"F. c #669B1B",
"G. c #6B9D1B",
"H. c #649B16",
"J. c #709F1D",
"K. c #6EA11A",
"L. c #73A21D",
"P. c #7AA51E",
"I. c #79AA1A",
"U. c #77A81A",
"Y. c #5D8126",
"T. c #5D8B23",
"R. c #628A24",
"E. c #669421",
"W. c #6A9522",
"Q. c #6C9A21",
"!. c #72A021",
"~. c #7CA925",
"^. c #7FAB28",
"/. c #78A622",
"(. c #388045",
"). c #76877E",
"_. c #75927C",
"`. c #80AD29",
"'. c #80AF24",
"]. c #83B127",
"[. c #8DBA2F",
"{. c #8BB334",
"}. c #93BD36",
"|. c #95B93F",
" X c #9CC53D",
".X c #A1C93F",
"XX c #96BA41",
"oX c #A5CD42",
"OX c #AAD244",
"+X c #7B878B",
"@X c #808B8E",
"#X c #82968A",
"$X c #86988E",
"%X c #D7DBD8",
"&X c #EFEFF0",
"*X c #EFF2F0",
"=X c #F1F2F2",
"-X c #F7F6F8",
";X c #F8F9F8",
":X c None",
/* pixels */
":X:X:X:X:X:X:X:X:X:X:X:X:X:X:X:X:X:X:X:X:X:X:X:X:X:X:X:X:X:X:X:X:X:X:X:X:X:X:X:X:X:X:X:X:X:X:X:X:X:X:X:X:X:X:X:X:X:X:X:X:X:X:X:X",
":X:X:X:X:X:X:X:X:X:X:X:X:X:X:X:X:X:X:X:X:X:X:X:X:X:X:X:X:X:X:X:X:X:X:X:X:X:X:X:X:X:X:X:X:X:X:X:X:X:X:X:X:X:X:X:X:X:X:X:X:X:X:X:X",
":X:X:X:X:X:X:X:X:X:X:X:X:X:X:X:X:X:X:X:X:X:X:X:X:X:X:X:X:X:X:X:X:X:X:X:X:X:X:X:X:X:X:X:X:X:X:X:X:X:X:X:X:X:X:X:X:X:X:X:X:X:X:X:X",
":X:X:X:X:X:X:X:X:X:X:X:X:X:X:X:X:X:X:X:X:X:X:X:X:X:X:X:X:X:X:X:X:X:X:X:X:X:X:X:X:X:X:X:X:X:X:X:X:X:X:X:X:X:X:X:X:X:X:X:X:X:X:X:X",
":X:X:X:X:X:X:X:X:X:X:X:X:X:X:X:X:X:X:X:X:X:X:X:X:X:X:X:X:X:X:X:X:X:X:X:X:X:X:X:X:X:X:X:X:X:X:X:X:X:X:X:X:X:X:X:X:X:X:X:X:X:X:X:X",
":X:X:X:X:X:X:X:X:X:X:X:X:X:X:X:X:X:X:X:X:X:X:X:X:X:X:X:X:X:X:X:X:X:X:X:X:X:X:X:X:X:X:X:X:X:X:X:X:X:X:X:X:X:X:X:X:X:X:X:X:X:X:X:X",
":X:X:X:X:X:X:X:X:X:X:X:X:X:X:X:X:X:X:X:X:X:X:X:X:X:X:X:X:X:X:X:X:X:X:X:X:X:X:X:X:X:X:X:X:X:X:X:X:X:X:X:X:X:X:X:X:X:X:X:X:X:X:X:X",
":X:X:X:X:X:X:X:X:X:X:X:X:X:X:X:X:X:X:X:X:X:X:X:X:X:X:X:X:X:X:X:X:X:X:X:X:X:X:X:X:X:X:X:X:X:X:X:X:X:X:X:X:X:X:X:X:X:X:X:X:X:X:X:X",
":X:X:X:X:X:X:X:X:X:X:X:X:X:X:X:X:X:X:X:X:X:X:X:X:X:X:X:X:X:X:X:X:X:X:X:X:X:X:X:X:X:X:X:X:X:X:X:X:X:X:X:X:X:X:X:X:X:X:X:X:X:X:X:X",
":X:X:X:X:X:X:X:X:X:X:X:X:X:X:X:X:X:X:X:X:X:X:X:X:X:X:X:X:X:X:X:X:X:X:X:X:X:X:X:X:X:X:X:X:X:X:X:X:X:X:X:X:X:X:X:X:X:X:X:X:X:X:X:X",
":X:X:X:X:X:X:X:X:X:X:X:X:X:X:X:X:X:X:X:X:X:X:X:X:X:X:X:X:X:X:X:X:X:X:X:X:X:X:X:X:X:X:X:X:X:X:X:X:X:X:X:X:X:X:X:X:X:X:X:X:X:X:X:X",
":X:X:X:X:X:X:X:X:X:X:X:X:X:X:X:X:X:X:X:X:X:X:X:X:X:X:X:X:X:X:X:X:X:X:X:X:X:X:X:X:X:X:X:X:X:X:X:X:X:X:X:X:X:X:X:X:X:X:X:X:X:X:X:X",
":X:X:X:X:X:X:X:X:X:X:X:X:X:X:X:X# # # # # # # # :X:X:X:X:X:X# # # # # # # # # # # # :X:X:X:X:X:XO @ O O : O :X:X:X:X:X:X:X:X:X:X",
":X:X:X:X:X:X:X:X:X:X:X:X:X:X:X:XP [ ` ` ` ` [ P :X:X:X:X:X:XP [ ` ` ` ` ` ` ` ` [ P :X:X:X:X:X:Xd #.f f :.s :X:X:X:X:X:X:X:X:X:X",
":X:X:X:X:X:X:X:X:X:X:X:X:X:X# P R.!.Q.Q.Q.Q.!.R.P # :X:X# P R.!.Q.Q.Q.Q.S.Q.Q.Q.L.R.P # :X:X@ s 3.y.r.r.y.3.d O :X:X:X:X:X:X:X:X",
":X:X:X:X:X:X:X:X:X:X:X:X:X:X# E T.G.S.S.S.Q.G.T.E # :X:X# E R.G.Q.S.S.S.S.S.D.S.G.T.E # :X:X- :.r.p.p.i.p.r.#.O :X:X:X:X:X:X:X:X",
":X:X:X:X:X:X:X:X:X:X:X:X:X:XX > Z Z Z Z Z Z Z B > O O O O 2 Z A Z Z Z Z Z Z Z Z Z Z > O + 9 ..>.8.0.0.0.0.8.d + :X:X:X:X:X:X:X:X",
":X:X:X:X:X:X:X:X:X:X:X:X:X:Xd #.y t t t w w t y s s s d s u w r t t e e t t t t t t i s p X.&.-.2.4.,.,.<.>.s O :X:X:X:X:X:X:X:X",
":X:X:X:X:X:X:X:X:X:X:X:XO d e.y.r.r.r.8.<.<.e.r.<.,.<.<.<.<.,.<.e.8.<.<.8.r.r.r.r.8.3.2.-.&.p s -.>.d 9 p p :X:X:X:X:X:X:X:X:X:X",
":X:X:X:X:X:X:X:X:X:X:X:XO g e.y.u.u.u.t.0.9.t.t.0.q.9.9.9.q.7.9.u.u.9.9.t.u.t.t.u.t.8.,.-...- - ....0 - p p :X:X:X:X:X:X:X:X:X:X",
":X:X:X:X:X:X:X:X:X:X:X:X* 3 p f >.1.1.1.5.5.1.1.4.q.7.7.7.7.9.4.1.1.5.5.2.>.1.1.1.>.d 9 9 9 + + ; s ..*.1.>.s O :X:X:X:X:X:X:X:X",
":X:X:X:X:X:X:X:X:X:X:X:X* - a u *.-.=.;.6.7.>.;.4.9.7.7.5.7.9.4.;.;.4.5.;.-.=.-.-.*.s 9 9 9 0 9 + 9 *.4.9.8.f O :X:X:X:X:X:X:X:X",
":X:X:X:X:X:X:X:X:X:X:X:X+ s >.6.5.5.5.5.q.q.5.5.q.q.9.q.9.9.9.7.5.5.9.9.5.5.5.5.5.4.5.<.=.&.*.&.- p >.9.u.r.f O :X:X:X:X:X:X:X:X",
":X:X:X:X:X:X:X:X:X:X:X:XO s ,.4.+.@.+.+.@.@.@.+.,.,.<.<.<.,.@.@.+.@.@.@.@.+.<.<.<.<.6.2.-.&.*.&.- s <.0.i.r.f O :X:X:X:X:X:X:X:X",
":X:X:X:X:X:X:X:X:X:X:X:X# 7 u q 6 4 4 4 4 4 4 6 q u e e u q 5 4 4 4 4 4 4 6 q u e r t r 8 8 8 7 O u 6.u.i.r.f @ :X:X:X:X:X:X:X:X",
":X:X:X:X:X:X:X:X:X:X:X:XF B . o.O.@X+X+X+X+X+XO.o.. , B . o.O.@X+X+X+X+X@XO.o.. B B B B B B B , : 0 %.8.i.r.f O :X:X:X:X:X:X:X:X",
":X:X:X:X:X:X:X:X:X:X= D c m   ).%X-X=X=X*X=X-X%X).  m l   ).%X-X=X&X&X=X;X%X).  k v v v v v v x > = 7 $.i.u.#.O :X:X:X:X:X:X:X:X",
":X:X:X:X:X:X:X:X:X:X% T z.d.k _.%X;X=X=X*X=X;X%X_.k d.d.k _.%X;X=X=X*X=X;X%X_.j d.c.k.c.c.c.c.k.I > : p e.e.d O :X:X:X:X:X:X:X:X",
":X:X:X:X:X:X:X:X:X:X$ P E.b.s.(._.$X#X#X#X#X$X_.(.s.b.N.s.(._.$X#X#X#X#X$X_.(.s.N.A.G.G.G.G.A.N.j.z , ; g d :X:X:X:X:X:X:X:X:X:X",
":X:X:X:X:X:X:X:X:X:X# ` Q.L.M.a.k h j j j h h k a.M.L.L.N.a.k h j j j j h k a.N.G./.P.L.L.L./.G.v.x.G X o O :X:X:X:X:X:X:X:X:X:X",
":X:X:X:X:X:X:X:X:X:X# ` W.L.K.H.V.V.V.V.V.V.V.V.A.K.U.L.K.K.V.V.V.V.V.V.V.C.A.K.L.J.J.L.L.L.L.L.K.T.P X :X:X:X:X:X:X:X:X:X:X:X:X",
":X:X:X:X:X:X:X:X:X:X# ` E./.L.L.Q.Q.Q.S.S.G.Q.Q.W.S.E.E.W.W.S.G.Q.Q.G.W.G.W.E.Q.J.L.L.L.J.L.L.L.I.W.` # :X:X:X:X:X:X:X:X:X:X:X:X",
":X:X:X:X:X:X:X:X:X:X# _ W.U.P.Q. ./ ^ ^ ~ ^ ^ ^ ~ ^ ^ ^ ~ ~ ^ ^ ^ ^ ^ ^ ^ ^ Q  .W.L.L.L.L.K.L.L.L.W._ # :X:X:X:X:X:X:X:X:X:X:X:X",
":X:X:X:X:X:X:X:X:X:X# ` E.U.K.M.( Q ^ ^ ^ ^ ^ ^ ^ ^ ^ ^ ^ ^ ^ ^ ^ ^ ^ / ^ ^ / ( M.K.L.L.J.L.L.L.U.E._ # :X:X:X:X:X:X:X:X:X:X:X:X",
":X:X:X:X:X:X:X:X:X:X# ` W.K.m.z.M.E.E.E.S.S.E.Q.W.W.W.W.Q.W.Q.W.S.E.S.E.S.W.E.M.n.n.S.J.L.L.L.L.!.W._ # :X:X:X:X:X:X:X:X:X:X:X:X",
":X:X:X:X:X:X:X:X:X:X# ` W.K.c.n.K.P.L.U.L.U.K.K.K.K.A.K.G.K.A.A.L.U.L.U.U.L.P.G.c.n.G./.L.J.J.L.U.W.` # :X:X:X:X:X:X:X:X:X:X:X:X",
":X:X:X:X:X:X:X:X:X:X# ` Q./.K.Q.K.L.L.L.!.K.m.j.j.k.k.k.k.k.j.m.G.L.L.L.K.L.L.G.G.G.K.L.L.L.L.L.I.Q.[ # :X:X:X:X:X:X:X:X:X:X:X:X",
":X:X:X:X:X:X:X:X:X:X# P Y.Q.K.K.L.L.L.L.L.G.n.j.j.k.j.k.k.j.j.n.G.!.J.L.L.L.L.L.L.L.L.L.L.L.K.S.Q.R.W # :X:X:X:X:X:X:X:X:X:X:X:X",
":X:X:X:X:X:X:X:X:X:X:X:XH ] z.v.K.L./.L.L.K.G.G.G.G.K.H.F.F.F.F.L.L.J.L.L.J.L.!.L.L.L././.G.v.z.] H :X:X:X:X:X:X:X:X:X:X:X:X:X:X",
":X:X:X:X:X:X:X:X:X:X:X:X# : ! l.N.G.G.S.K.L.L.L.L.L.L.L.P.L.P.P.L.L.L.L.!.L.K.L.L.G.G.G.A.N.l.! : # :X:X:X:X:X:X:X:X:X:X:X:X:X:X",
":X:X:X:X:X:X:X:X:X:X:X:X:X:X< ^ z.c.g.m.A.L.L.J.L.J.L.J.L.L.J.L.G.L.J.L.L.J.L.J.L.A.m.g.c.n./ < :X:X:X:X:X:X:X:X:X:X:X:X:X:X:X:X",
":X:X:X:X:X:X:X:X:X:X:X:X:X:X= < b b v ( F.L.L.L.J.J.J.L.J.J.J.J.L.L.L.G.L.J.L.L.L.S.( v v c < = :X:X:X:X:X:X:X:X:X:X:X:X:X:X:X:X",
":X:X:X:X:X:X:X:X:X:X:X:X:X:X:X:XV 1 O I E.U.J.A.A.A.G.A.A.A.A.A.A.G.A.A.L.L.J.L.P.W.I @ 2 : :X:X:X:X:X:X:X:X:X:X:X:X:X:X:X:X:X:X",
":X:X:X:X:X:X:X:X:X:X:X:X:X:X:X:X% - 3 ] Z.P.~.`.^.`.`.`.`.`.`.`.`.^.`.^.L.J.L.L.L.W.] 3 _ H :X:X:X:X:X:X:X:X:X:X:X:X:X:X:X:X:X:X",
":X:X:X:X:X:X:X:X:X:X:X:X:X:X% % $ J | D.H.P.}..X X X X X X X X X X X.X}./.H.J.L.L.J.E.E.W.| K X :X:X:X:X:X:X:X:X:X:X:X:X:X:X:X:X",
":X:X:X:X:X:X:X:X:X:X:X:X:X:XD D $ ) A.I.~.{..XoXOXoXoXoXoXOXoXoXoXoXoXoX{./.L.J.L.L.U.U.I.L.| K :X:X:X:X:X:X:X:X:X:X:X:X:X:X:X:X",
":X:X:X:X:X:X:X:X:X:X:X:X% < M / : _ Z.`.}.oXoXoXoXoXoXoXoXoX.XoXoXoXoXoX.X}.~.A.L.U.P.U.U.A.Q.| H # :X:X:X:X:X:X:X:X:X:X:X:X:X:X",
":X:X:X:X:X:X:X:X:X:X:X:X3 ^ j.M , H Z.'..XOXoXoXoXoXoXoXoXoXoXoXoXoXoXoXOX.X`.D.D.Z.D.G.L.U.I.!.] 2 :X:X:X:X:X:X:X:X:X:X:X:X:X:X",
":X:X:X:X:X:X:X:X:X:X= D / h.s.M , J Z.]. X.XoXoXoXoXoXoXoXoXoXoXoXoXoXoXOX X].Z.) G x.v.K.P.P.G.n.Q V % :X:X:X:X:X:X:X:X:X:X:X:X",
":X:X:X:X:X:X:X:X:X:X% T h.f.f.M , a Z.]. XOXoXoXoXoXoXoXoXoXoXoXoXoXoXoXoX X].Z.) D z x.N.K.K.H.g.n R % :X:X:X:X:X:X:X:X:X:X:X:X",
":X:X:X:X:X:X:X:X:X:X= R h.f.f.M , _ Z.]. XOX.XoXoXoXoXoX.XoXoXOXoXoXoXoXoX.X`.G.S.Y.J C x.c.c.k.f.h.T = :X:X:X:X:X:X:X:X:X:X:X:X",
":X:X:X:X:X:X:X:X:X:X= D / h.h./ : J Z.]. XOXOX.XoXoXoX.XoXoXoX.XoXoXoXoXoX X`.A.I.S.I , c b b b h.^ D % :X:X:X:X:X:X:X:X:X:X:X:X",
":X:X:X:X:X:X:X:X:X:X:X:XV T U D $ J Z.].oXoXoXoXoXoXoXoX.XoX.XOXoXoXoXoXOX X`.A.U.F.n.c S 1 F U U D :X:X:X:X:X:X:X:X:X:X:X:X:X:X",
":X:X:X:X:X:X:X:X:X:X:X:X% = % % X _ Z.].}.oXoXoXoXoXoX.XoXoXOX.XoX.XoXoX.X}.^.A.L.G.g.b D = = = = % :X:X:X:X:X:X:X:X:X:X:X:X:X:X",
":X:X:X:X:X:X:X:X:X:X:X:X:X:X:X:X# _ D.P.!.{.oXOXOXOXOXOXOXOXOXOXOXOXOX.X[.~.L.J.L.F.c.b D % :X:X:X:X:X:X:X:X:X:X:X:X:X:X:X:X:X:X",
":X:X:X:X:X:X:X:X:X:X:X:X:X:X:X:X# _ W.J.A.P.{.XX|.|.|.|.|.|.|.|.XXXX X{.W.Z.J.L.P.F.c.b F = :X:X:X:X:X:X:X:X:X:X:X:X:X:X:X:X:X:X",
":X:X:X:X:X:X:X:X:X:X:X:X:X:X:X:X# ` W.P.U.Q.| } } { { { { { { { { { { } _ ] W.P.L.K.k.b U % :X:X:X:X:X:X:X:X:X:X:X:X:X:X:X:X:X:X",
":X:X:X:X:X:X:X:X:X:X:X:X:X:X:X:X$ _ T.K.U.E.L X X X X X X X # # X # X # # K Z.K.L.G.c.n F % :X:X:X:X:X:X:X:X:X:X:X:X:X:X:X:X:X:X",
":X:X:X:X:X:X:X:X:X:X:X:X:X:X:X:X% T l.v.L.G.n.! < & :X:X:X:X:X:X:X:X:X:X& T x.v.L.K.c.b F = :X:X:X:X:X:X:X:X:X:X:X:X:X:X:X:X:X:X",
":X:X:X:X:X:X:X:X:X:X:X:X:X:X:X:X= V ! l.N.H.g.n F = :X:X:X:X:X:X:X:X:X:X= V z x.M.F.g.n U % :X:X:X:X:X:X:X:X:X:X:X:X:X:X:X:X:X:X",
":X:X:X:X:X:X:X:X:X:X:X:X:X:X:X:X:X:X< ^ n.g.f.M R = :X:X:X:X:X:X:X:X:X:X:X:X< / n.g.d.h.R = :X:X:X:X:X:X:X:X:X:X:X:X:X:X:X:X:X:X",
":X:X:X:X:X:X:X:X:X:X:X:X:X:X:X:X:X:X= < Q n h.N D = :X:X:X:X:X:X:X:X:X:X:X:X= < c n h.^ D = :X:X:X:X:X:X:X:X:X:X:X:X:X:X:X:X:X:X",
":X:X:X:X:X:X:X:X:X:X:X:X:X:X:X:X:X:X:X:XV F U D :X:X:X:X:X:X:X:X:X:X:X:X:X:X:X:XD U F D :X:X:X:X:X:X:X:X:X:X:X:X:X:X:X:X:X:X:X:X",
":X:X:X:X:X:X:X:X:X:X:X:X:X:X:X:X:X:X:X:X= = = = :X:X:X:X:X:X:X:X:X:X:X:X:X:X:X:X= = = = :X:X:X:X:X:X:X:X:X:X:X:X:X:X:X:X:X:X:X:X"
};
