/* XPM */
static char *result[] = {
/* columns rows colors chars-per-pixel */
"64 64 202 2 ",
"   c #003A00",
".  c #002812",
"X  c #00002E",
"o  c #000D2D",
"O  c #00152D",
"+  c #001C2D",
"@  c #001826",
"#  c #000032",
"$  c #090032",
"%  c #1D0033",
"&  c #190731",
"*  c #0E1A31",
"=  c #210033",
"-  c #271B33",
";  c #391134",
":  c #03282D",
">  c #01312D",
",  c #06392A",
"<  c #1B342D",
"1  c #183A2D",
"2  c #0F3132",
"3  c #223A2D",
"4  c #342733",
"5  c #213931",
"6  c #2A2E31",
"7  c #450000",
"8  c #4F0000",
"9  c #520000",
"0  c #430536",
"q  c #56003A",
"w  c #481E36",
"e  c #5B1C3A",
"r  c #650027",
"t  c #660037",
"y  c #6B0239",
"u  c #680037",
"i  c #730038",
"p  c #750B38",
"a  c #6B1D3A",
"s  c #711F36",
"d  c #572335",
"f  c #4B2232",
"g  c #692637",
"h  c #732C37",
"j  c #78283C",
"k  c #7D303C",
"l  c #77303D",
"z  c #005500",
"x  c #005900",
"c  c #006400",
"v  c #006C00",
"b  c #00651F",
"n  c #09691F",
"m  c #166B1E",
"M  c #037617",
"N  c #187B17",
"B  c #007000",
"V  c #257A19",
"C  c #387F1A",
"Z  c #004728",
"A  c #1D442B",
"S  c #005529",
"D  c #0A5729",
"F  c #1D5328",
"G  c #22432C",
"H  c #264A2D",
"J  c #3B452F",
"K  c #3C4D2E",
"L  c #354B2D",
"P  c #2D5727",
"I  c #3D522D",
"U  c #365A2A",
"Y  c #254B31",
"T  c #2A5133",
"R  c #265033",
"E  c #3B5632",
"W  c #345533",
"Q  c #196724",
"!  c #006420",
"~  c #266D20",
"^  c #2E6D27",
"/  c #2C6C28",
"(  c #29642B",
")  c #3D7825",
"_  c #445B2C",
"`  c #435A31",
"'  c #415731",
"]  c #525C37",
"[  c #496B2D",
"{  c #486133",
"}  c #5A6E38",
"|  c #556736",
" . c #53792B",
".. c #7A1A45",
"X. c #661F40",
"o. c #1C4D4D",
"O. c #6A7A7D",
"+. c #B51A39",
"@. c #B91B39",
"#. c #B61737",
"$. c #86333F",
"%. c #8D2E3C",
"&. c #A5273F",
"*. c #851948",
"=. c #961C49",
"-. c #9D174C",
";. c #A31C4C",
":. c #AA1F4C",
">. c #912B44",
",. c #A92749",
"<. c #B62944",
"1. c #BA2C44",
"2. c #B32A4D",
"3. c #B82647",
"4. c #BC3F42",
"5. c #C52D49",
"6. c #CA2E4A",
"7. c #C42D45",
"8. c #CD3148",
"9. c #CC3A46",
"0. c #D3324A",
"q. c #DC394B",
"w. c #D22F49",
"e. c #E23A4D",
"r. c #C84144",
"t. c #D34546",
"y. c #DD434C",
"u. c #DA4649",
"i. c #E1464D",
"p. c #E6494B",
"a. c #F24B4E",
"s. c #2C8400",
"d. c #258603",
"f. c #328A00",
"g. c #2B9200",
"h. c #3B9307",
"j. c #278216",
"k. c #358317",
"l. c #338910",
"z. c #3A8A11",
"x. c #368419",
"c. c #3C8618",
"v. c #42930B",
"b. c #439607",
"n. c #529A0D",
"m. c #5F9C0C",
"M. c #458C15",
"N. c #4C9213",
"B. c #5D941B",
"V. c #5A9818",
"C. c #659700",
"Z. c #669900",
"A. c #628C1E",
"S. c #6B9D16",
"D. c #67971F",
"F. c #69971F",
"G. c #669B1B",
"H. c #6A9D1C",
"J. c #659A15",
"K. c #709F1C",
"L. c #6EA11A",
"P. c #6FA517",
"I. c #73A21D",
"U. c #7AA51E",
"Y. c #79AA1A",
"T. c #77A81A",
"R. c #5E8C23",
"E. c #5D8326",
"W. c #638B23",
"Q. c #669421",
"!. c #6A9522",
"~. c #6C9921",
"^. c #73A121",
"/. c #78A622",
"(. c #7FAB28",
"). c #7CAA25",
"_. c #388045",
"`. c #76877E",
"'. c #75927C",
"]. c #80AD27",
"[. c #84B228",
"{. c #8BB433",
"}. c #93BD36",
"|. c #95B93F",
" X c #9CC53D",
".X c #9FC83E",
"XX c #A1C93F",
"oX c #96B940",
"OX c #A5CD42",
"+X c #A8CF44",
"@X c #AAD344",
"#X c #7A868A",
"$X c #808B8E",
"%X c #819689",
"&X c #86988E",
"*X c #D7DBD8",
"=X c #EFEFF0",
"-X c #EFF2F0",
";X c #F1F2F2",
":X c #F7F6F8",
">X c #F8F9F8",
",X c None",
/* pixels */
",X,X,X,X,X,X,X,X,X,X,X,X,X,X,X,X,X,X,X,X,X,X,X,X,X,X,X,X,X,X,X,X,X,X,X,X,X,X,X,X,X,X,X,X,X,X,X,X,X,X,X,X,X,X,X,X,X,X,X,X,X,X,X,X",
",X,X,X,X,X,X,X,X,X,X,X,X,X,X,X,X,X,X,X,X,X,X,X,X,X,X,X,X,X,X,X,X,X,X,X,X,X,X,X,X,X,X,X,X,X,X,X,X,X,X,X,X,X,X,X,X,X,X,X,X,X,X,X,X",
",X,X,X,X,X,X,X,X,X,X,X,X,X,X,X,X,X,X,X,X,X,X,X,X,X,X,X,X,X,X,X,X,X,X,X,X,X,X,X,X,X,X,X,X,X,X,X,X,X,X,X,X,X,X,X,X,X,X,X,X,X,X,X,X",
",X,X,X,X,X,X,X,X,X,X,X,X,X,X,X,X,X,X,X,X,X,X,X,X,X,X,X,X,X,X,X,X,X,X,X,X,X,X,X,X,X,X,X,X,X,X,X,X,X,X,X,X,X,X,X,X,X,X,X,X,X,X,X,X",
",X,X,X,X,X,X,X,X,X,X,X,X,X,X,X,X,X,X,X,X,X,X,X,X,X,X,X,X,X,X,X,X,X,X,X,X,X,X,X,X,X,X,X,X,X,X,X,X,X,X,X,X,X,X,X,X,X,X,X,X,X,X,X,X",
",X,X,X,X,X,X,X,X,X,X,X,X,X,X,X,X,X,X,X,X,X,X,X,X,X,X,X,X,X,X,X,X,X,X,X,X,X,X,X,X,X,X,X,X,X,X,X,X,X,X,X,X,X,X,X,X,X,X,X,X,X,X,X,X",
",X,X,X,X,X,X,X,X,X,X,X,X,X,X,X,X,X,X,X,X,X,X,X,X,X,X,X,X,X,X,X,X,X,X,X,X,X,X,X,X,X,X,X,X,X,X,X,X,X,X,X,X,X,X,X,X,X,X,X,X,X,X,X,X",
",X,X,X,X,X,X,X,X,X,X,X,X,X,X,X,X,X,X,X,X,X,X,X,X,X,X,X,X,X,X,X,X,X,X,X,X,X,X,X,X,X,X,X,X,X,X,X,X,X,X,X,X,X,X,X,X,X,X,X,X,X,X,X,X",
",X,X,X,X,X,X,X,X,X,X,X,X,X,X,X,X,X,X,X,X,X,X,X,X,X,X,X,X,X,X,X,X,X,X,X,X,X,X,X,X,X,X,X,X,X,X,X,X,X,X,X,X,X,X,X,X,X,X,X,X,X,X,X,X",
",X,X,X,X,X,X,X,X,X,X,X,X,X,X,X,X,X,X,X,X,X,X,X,X,X,X,X,X,X,X,X,X,X,X,X,X,X,X,X,X,X,X,X,X,X,X,X,X,X,X,X,X,X,X,X,X,X,X,X,X,X,X,X,X",
",X,X,X,X,X,X,X,X,X,X,X,X,X,X,X,X,X,X,X,X,X,X,X,X,X,X,X,X,X,X,X,X,X,X,X,X,X,X,X,X,X,X,X,X,X,X,X,X,X,X,X,X,X,X,X,X,X,X,X,X,X,X,X,X",
",X,X,X,X,X,X,X,X,X,X,X,X,X,X,X,X,X,X,X,X,X,X,X,X,X,X,X,X,X,X,X,X,X,X,X,X,X,X,X,X,X,X,X,X,X,X,X,X,X,X,X,X,X,X,X,X,X,X,X,X,X,X,X,X",
",X,X,X,X,X,X,X,X,X,X,X,X,X,X,X,X,X,X,X,X,X,X,X,X,X,X,X,X,X,X,X,X,X,X,X,X,X,X,X,X,X,X,X,X,X,X,X,X,X,X,X,X,X,X,X,X,X,X,X,X,X,X,X,X",
",X,X,X,X,X,X,X,X,X,X,X,X,X,X,X,X,X,X,X,X,X,X,X,X,X,X,X,X,X,X,X,X,X,X,X,X,X,X,X,X,X,X,X,X,X,X,X,X,X,X,X,X,X,X,X,X,X,X,X,X,X,X,X,X",
",X,X,X,X,X,X,X,X,X,X,X,X,X,X,X,X,X,X,X,X,X,X,X,X,X,X,X,X,X,X,X,X,X,X,X,X,X,X,X,X,X,X,X,X,X,X,X,X,X,X,X,X,X,X,X,X,X,X,X,X,X,X,X,X",
",X,X,X,X,X,X,X,X,X,X,X,X,X,X,X,X,X,X,X,X,X,X,X,X,X,X,X,X,X,X,X,X,X,X,X,X,X,X,X,X,X,X,X,X,X,X,X,X,X,X,X,X,X,X,X,X,X,X,X,X,X,X,X,X",
",X,X,X,X,X,X,X,X,X,X,X,X,X,X# # # # # # # # # # ,X,X,X,X,X,X# # # # # # # # # # # # # # ,X,X,X,X,X,XO O + O O + ,X,X,X,X,X,X,X,X",
",X,X,X,X,X,X,X,X,X,X,X,X,X,XI { ` ` ` ` ` ` { I ,X,X,X,X,X,XI ` ` ` ` ` ` ` ` _ ` ` { I ,X,X,X,X,X,Xh >.k k >.g ,X,X,X,X,X,X,X,X",
",X,X,X,X,X,X,X,X,X,X,X,X# I W.^.~.~.~.~.~.~.I.W.I # ,X,X# ' W.^.~.~.~.~.~.~.F.F.~.~.^.W.I # ,X,X@ g 4.t.t.t.u.4.h O ,X,X,X,X,X,X",
",X,X,X,X,X,X,X,X,X,X,X,X# W R.H.~.D.D.D.D.!.H.R.W # ,X,X# W W.H.!.H.D.D.!.H.D.F.D.D.~.R.W # ,X,X- >.t.a.p.p.a.t.>.+ ,X,X,X,X,X,X",
",X,X,X,X,X,X,X,X,X,X,X,XX > Z S S S S S S S S S > O O + O > Z D D S S S S S S S S S S S > O @ w ..,.8.q.q.q.e.8.j + ,X,X,X,X,X,X",
",X,X,X,X,X,X,X,X,X,X,X,Xl $.p i i i y y i i u t a g g h g a y t t t i i t y i i i i i p g g d X...;.2.5.<.<.1.,.g : ,X,X,X,X,X,X",
",X,X,X,X,X,X,X,X,X,XO h r.u.t.t.t.9.1.1.9.t.1.3.<.1.1.1.1.<.<.<.<.7.r.9.1.1.9.t.t.t.t.9.7.<.,.*.d g ;.:.j d d d ,X,X,X,X,X,X,X,X",
",X,X,X,X,X,X,X,X,X,X+ h r.p.u.u.i.y.0.0.y.i.0.0.0.0.0.0.0.0.0.0.w.0.i.i.0.0.y.i.i.i.i.y.8.<.;...4 - ....w - e d ,X,X,X,X,X,X,X,X",
",X,X,X,X,X,X,X,X,X,X+ 4 d k ,.2.,.2.6.6.2.2.5.8.8.8.8.8.8.8.8.8.8.7.2.2.6.6.<.,.,.2.2.,.g w w ; + + 4 a ..=.<.&.g O ,X,X,X,X,X,X",
",X,X,X,X,X,X,X,X,X,X* 4 w g =.;.;.,.6.6.:.:.5.0.8.8.8.8.6.8.8.8.0.5.:.:.6.6.2.-.;.;.;.-.j w w w e w + w =.3.q.9.j + ,X,X,X,X,X,X",
",X,X,X,X,X,X,X,X,X,X* g ,.7.6.6.6.6.0.0.6.6.0.0.w.w.w.w.0.0.w.0.0.6.6.6.0.w.6.6.6.6.6.6.7.<.=.=.=...- d ,.0.p.t.k O ,X,X,X,X,X,X",
",X,X,X,X,X,X,X,X,X,XO g <.7.@.@.@.@.#.#.@.@.#.+.<.1.1.1.1.<.+.#.#.@.@.@.+.+.#.@.1.1.<.7.7.3.;.*.-.*.- g 1.e.p.t.k + ,X,X,X,X,X,X",
",X,X,X,X,X,X,X,X,X,X# 0 X.r 9 7 7 7 7 7 7 7 7 8 r a y y a r 8 7 7 7 7 7 7 7 7 8 r g y y i y q q q 0 O g 1.e.p.t.k O ,X,X,X,X,X,X",
",X,X,X,X,X,X,X,X,X,XG Z . o.O.#X#X#X#X#X#X#X$XO.o.. Z , . o.O.$X#X#X#X#X#X#X$XO.o.. Z Z Z Z Z Z Z , : e &.9.p.u.k O ,X,X,X,X,X,X",
",X,X,X,X,X,X,X,X= A m B   '.*X:X;X=X=X=X=X;X:X*X`.  v v   `.*X:X;X;X=X=X=X;X:X*X`.  v M M M M M M n > = 0 %.p.u.$.O ,X,X,X,X,X,X",
",X,X,X,X,X,X,X,X% W M.f.c #X*X>X;X;X-X-X;X;X>X*X'.c f.f.c '.*X>X;X;X-X-X-X;X>X*X'.x f.v.v.z.v.v.b.c.P 2 : d r.9.h + ,X,X,X,X,X,X",
",X,X,X,X,X,X,X,X$ E D.J.d._.'.&X%X%X%X%X%X%X&X'._.d.J.V.d._.'.&X%X%X%X%X%X%X&X'.) j.n.L.G.G.H.H.L.B.k.b , ; j h ,X,X,X,X,X,X,X,X",
",X,X,X,X,X,X,X,X# ` !.I.V.d.c z z x x x x z z v d.V.I.L.B.s.c z z x x x x z z c d.V.~./.I.^.I.I.I.L.n.x.L # o O ,X,X,X,X,X,X,X,X",
",X,X,X,X,X,X,X,X# ` !.I.H.J.C.C.C.C.C.C.C.C.C.C.S.L.T.I.L.J.C.C.C.C.C.C.C.C.C.C.P.L.L.^.I.I.I.^.I.I.P.R.E # ,X,X,X,X,X,X,X,X,X,X",
",X,X,X,X,X,X,X,X# ' !.T.I.I.~.~.~.H.!.H.!.H.~.G.H.D.D.Q.!.~.~.H.~.~.H.~.H.!.H.~.!.~.^.L.I.I.I.L.I.I.T.!.` # ,X,X,X,X,X,X,X,X,X,X",
",X,X,X,X,X,X,X,X# ' Q.U.T.~. .Q / / / ^ / ^ ^ ^ / / / / / / / ^ ^ ^ ^ / / / / / (  .D.I.I.I.K.I.I.I.T.!.' # ,X,X,X,X,X,X,X,X,X,X",
",X,X,X,X,X,X,X,X# ` !.I.L.B.) Q / / / / / / / / / / / / / / / / ^ / / / / / / / Q ) B.L.H.K.I.I.K.I.I.!.' # ,X,X,X,X,X,X,X,X,X,X",
",X,X,X,X,X,X,X,X# ` !.L.v.M.B.D.Q.D.Q.Q.D.!.!.!.!.Q.!.!.Q.~.!.F.~.Q.Q.D.D.Q.Q.Q.Q.B.M.M.H.^.K.^.I.I.I.Q.' # ,X,X,X,X,X,X,X,X,X,X",
",X,X,X,X,X,X,X,X# ` F.L.M.M.H.U.I.T.I.I.L.L.L.S.L.P.H.L.S.H.P.L.L.L.I.T.I.I.T.I.T.P.M.M.H.I.I.I.I.I.T.!.` # ,X,X,X,X,X,X,X,X,X,X",
",X,X,X,X,X,X,X,X# ` ~.T.L.~.I.I.I.I./.H.N.l.z.z.z.z.z.z.z.z.z.z.l.N.G.I.I.I.I.I.I.I.G.G.L.I.I.K.I./.Y.~.` # ,X,X,X,X,X,X,X,X,X,X",
",X,X,X,X,X,X,X,X# E W.~.H.L.I.I.I.I.I.G.N.l.l.z.z.z.z.z.l.z.l.z.l.M.L.I.I.I.K.I.K.^.I.I.I.I.I.I.L.H.~.E.I # ,X,X,X,X,X,X,X,X,X,X",
",X,X,X,X,X,X,X,X,X,XJ [ c.n.L./.I.I.I.I.H.G.G.G.S.D.H.S.G.G.G.H.G.H.L.I.K.^.I.I.I.I.I.I.I.U.U.L.n.x.[ J ,X,X,X,X,X,X,X,X,X,X,X,X",
",X,X,X,X,X,X,X,X,X,X# : b x.B.L.G.L.L.I.I.I.I.I.U.^.K.U.I.U.I.I.I.^.I.I.I.I.K.K.K.K.I.I.H.J.S.A.x.b : # ,X,X,X,X,X,X,X,X,X,X,X,X",
",X,X,X,X,X,X,X,X,X,X,X,X< ( z.b.z.N.H.I.I.I.I.I.K.K.U.K.K.I.K.I.I.I.I.K.I.K.K.I.^.I.I.L.N.h.b.c.( < ,X,X,X,X,X,X,X,X,X,X,X,X,X,X",
",X,X,X,X,X,X,X,X,X,X,X,X% 6 m M M C S.I.I.K.K.K.K.K.K.K.K.I.K.K.I.K.I.K.H.I.I.I.I.I.I.D.C M M m < = ,X,X,X,X,X,X,X,X,X,X,X,X,X,X",
",X,X,X,X,X,X,X,X,X,X,X,X= - 3 A O U W.T.S.H.H.S.F.S.S.H.S.S.H.S.S.S.S.H.S.H.K.I.K.I.I.Q.U * > : $ $ ,X,X,X,X,X,X,X,X,X,X,X,X,X,X",
",X,X,X,X,X,X,X,X,X,X,X,XG 3 - = 4 [ D.U.].].(.].].].].].].].].].(.(.(.(.].(.I.K.K.I.T.!.{ 6 ' J ` I ,X,X,X,X,X,X,X,X,X,X,X,X,X,X",
",X,X,X,X,X,X,X,X,X,X= 3 V V 2 6  .K.S.U.}. X X X X X X X X X X X X X XXXXX}.^.S.K.I.U.U.!.Q.Q.!.!.E.J # ,X,X,X,X,X,X,X,X,X,X,X,X",
",X,X,X,X,X,X,X,X,X,X5 ( j.V 1 _ F.T./.{.XX@X+XOXOX+X+XOXOX@XOXOXOX+XOXOX+XXX{.^.I.H.!.A.H.P.T.T.Y.~.[ > ,X,X,X,X,X,X,X,X,X,X,X,X",
",X,X,X,X,X,X,X,X= G ~ j.s.V 2 J A.].}.OXOXOXOXOXOXOXOXOXOXOXOX@XOXOXOXOXOXXXOX}.].A._ P C n.H.U./.H.M.Q A = ,X,X,X,X,X,X,X,X,X,X",
",X,X,X,X,X,X,X,X= T j.g.g.V , J A.[. X@XOXOXOXOXOXOXOXOXOXXXOXOXOXOXOXOXOXOX+XXX[.A._ G b C V.H.L.V.h.j.R = ,X,X,X,X,X,X,X,X,X,X",
",X,X,X,X,X,X,X,X% T j.g.g.V , J A.[.XX@XOXOXOXOXOXOXOXOXXXOXOXXXOXOXOXOXOXOX@X X].S.F. .L F c.v.h.z.g.j.T = ,X,X,X,X,X,X,X,X,X,X",
",X,X,X,X,X,X,X,X= G ~ j.V ~ 2 J A.].}.XXXXOXOXOXOXOXOXOXOXOXOXXXOXOXOXOXOXOXOX}.).P.].F.U , m N N N V ~ G = ,X,X,X,X,X,X,X,X,X,X",
",X,X,X,X,X,X,X,X,X,XG T T 3 $ I W.T.).{.XX@X@X@XOX@X@X@X@X@X@X@X@X@X@X@X@XOX{.U.U.I.T.S.c.Q F A Y Y R G ,X,X,X,X,X,X,X,X,X,X,X,X",
",X,X,X,X,X,X,X,X,X,X= % = % X ' Q.T.S./.{.oX|.|.|.|.|.|.|.|.|.|.|.|.|.|.oX{.^.S.K.K.K.S.b.N 3 = % % = % ,X,X,X,X,X,X,X,X,X,X,X,X",
",X,X,X,X,X,X,X,X,X,X,X,X,X,X# ` ~.Y.T.!.} ] | | } } } } } } } } } } } } |  .^.U.K.I.U.L.b.N Y = ,X,X,X,X,X,X,X,X,X,X,X,X,X,X,X,X",
",X,X,X,X,X,X,X,X,X,X,X,X,X,X$ E R.P.T.Q.P X X X # X X X X X X X X X X X # 3 Q.U.T.I.H.B.c.m G = ,X,X,X,X,X,X,X,X,X,X,X,X,X,X,X,X",
",X,X,X,X,X,X,X,X,X,X,X,X,X,X% T x.n.I.~.M.b 1 & ,X,X,X,X,X,X,X,X,X,X,X,X# ` !.Y.T.L.n.k.( 5 ,X,X,X,X,X,X,X,X,X,X,X,X,X,X,X,X,X,X",
",X,X,X,X,X,X,X,X,X,X,X,X,X,X= 1 b x.J.J.h.N Y = ,X,X,X,X,X,X,X,X,X,X,X,X# J W.~.~.W.x.b < = ,X,X,X,X,X,X,X,X,X,X,X,X,X,X,X,X,X,X",
",X,X,X,X,X,X,X,X,X,X,X,X,X,X,X,X< / M.h.g.j.H % ,X,X,X,X,X,X,X,X,X,X,X,X,X,XK ` ` E T A ,X,X,X,X,X,X,X,X,X,X,X,X,X,X,X,X,X,X,X,X",
",X,X,X,X,X,X,X,X,X,X,X,X,X,X,X,X= < Q N V ~ G % ,X,X,X,X,X,X,X,X,X,X,X,X,X,X# # # $ % = ,X,X,X,X,X,X,X,X,X,X,X,X,X,X,X,X,X,X,X,X",
",X,X,X,X,X,X,X,X,X,X,X,X,X,X,X,X,X,XG H H G 5 - ,X,X,X,X,X,X,X,X,X,X,X,X,X,X,X,X,X,X,X,X,X,X,X,X,X,X,X,X,X,X,X,X,X,X,X,X,X,X,X,X",
",X,X,X,X,X,X,X,X,X,X,X,X,X,X,X,X,X,X= = = = - - ,X,X,X,X,X,X,X,X,X,X,X,X,X,X,X,X,X,X,X,X,X,X,X,X,X,X,X,X,X,X,X,X,X,X,X,X,X,X,X,X"
};
