/* XPM */
static char *lIdle_0_bigger[] = {
/* columns rows colors chars-per-pixel */
"64 64 10 1 ",
"  c None",
". c #353540",
"X c #494851",
"o c #5E5C62",
"O c #726F73",
"+ c #878384",
"@ c #B0AAA7",
"# c #C4BDB8",
"$ c #D9D1C9",
"% c #EDE4DA",
/* pixels */
"                                                                ",
"                                                                ",
"                                                                ",
"                                                                ",
"                                                                ",
"                                                                ",
"                                                                ",
"                                                                ",
"                                                                ",
"                                                                ",
"                                                                ",
"                                                                ",
"                                                                ",
"                                                                ",
"                                                                ",
"                                                                ",
"                                                                ",
"                                                                ",
"                                                                ",
"                                                                ",
"                                                                ",
"                   ..........................                   ",
"                   ..........................                   ",
"                   ..........................                   ",
"                   ..@%%%%%%%%%%%%%%%%%%%%@..                   ",
"                   ..@%%%%%%%%%%%%%%%%%%%%@..                   ",
"                   ..@%%%%%%%%%%%%%%%%%%%%@..                   ",
"                   ..@%%%%%%%%%%%%%%%%%%%%@..                   ",
"                   ..@%%%%%%%%%%%%%%%%%%%%@..                   ",
"                   ..@%%%%%%%%%%%%%%%%%%%%@..                   ",
"                   ..@%%%%%%%%%%%%%%%%%%%%@..                   ",
"                   ..@%%%%%%%%%%%%%%%%%%%%@..                   ",
"                   .....%%%%%%%%.....@%%%%@..                   ",
"                   .....%%%%%%%%.....@%%%%@..                   ",
"                   .....%%%%%%%%.....@%%%%@..                   ",
"                   .....%%%%%%%%.....@%%%%@..                   ",
"                   .....%%%%%%%%.....@%%%%@..                   ",
"                   ..+@@%%#OO#%%@@@@@$%%%%@..                   ",
"                   ..@%%%%@..@%%%%%%%%%%%%@..                   ",
"                   ..@%%%%@..@%%%%%%%%%%%%@..                   ",
"                   ..@%%%%%%%%%%%%%%%%%%%%@..                   ",
"                   ..@%%%%%%%%%%%%%%%%%%%%@..                   ",
"                   ..@%%%%%%%%%%%%%%%%%%%%@..                   ",
"                   ..@%%%%%%%%%%%%%%%%%%%%@..                   ",
"                   ..@%%%%%%%%%%%%%%%%%%%%@..                   ",
"                   ..oOOOOOOO#%%%%#OOOOOOOo..                   ",
"                   ..........@%%%%@..........                   ",
"                   ..........@%%%%@..........                   ",
"                        ..O%%%%%%%%%%O..                        ",
"                        ..O%%%%%%%%%%O..                        ",
"                        ..o@@$%%%%$@@o..                        ",
"                        .....@%%%%@.....                        ",
"                        .....@%%%%@.....                        ",
"                        ..o@@$%%%%$@@o..                        ",
"                        ..O%%%%%%%%%%O..                        ",
"                        ..O%%%%%%%%%%O..                        ",
"                        ................                        ",
"                        ................                        ",
"                        ..XOOX....XOOX..                        ",
"                        ..O%%O....O%%O..                        ",
"                        ..O%%O....O%%O..                        ",
"                        ..XOOX....XOOX..                        ",
"                        ................                        ",
"                        ................                        "
};
