/* XPM */
static char *result[] = {
/* columns rows colors chars-per-pixel */
"24 24 5 1 ",
"  c #353540",
". c #EEB551",
"X c #7C6DA2",
"o c #EDE4DA",
"O c None",
/* pixels */
"OOOOOOOOOOOOOOOOOOOOOOOO",
"OOOOOOOOOOOOOOOOOOOOOOOO",
"OOOOOOOOOOOOOOOOOOOOOOOO",
"OOOOOOOOOOOOOOOOOOOOOOOO",
"OOOOOOOOOOOOOOOOOOOOOOOO",
"OOOOOOOOOOOOOOOOOOOOOOOO",
"OOOOOOOOOOOOOOOOOOOOOOOO",
"OOOOOO            OOOOOO",
"OOOOOO XXXXXXXooo OOOOOO",
"OOOOOO XXXXXXXXXo OOOOOO",
"OOOOOO XX    XXXX OOOOOO",
"OOOOOO X      XXX OOOOOO",
"OOOOOO Xo   ooXXX OOOOOO",
"OOOOOO Xo   ooXXX OOOOOO",
"OOOOOO X      XXX OOOOOO",
"OOOOOO XX    XXXX OOOOOO",
"OOOOOO XXX  XXXXX OOOOOO",
"OOOOOO  XX..XXXX  OOOOOO",
"OOOOOOO XX  XXXX OOOOOOO",
"OOOOOOO XX  XXXX  OOOOOO",
"OOOOOOO XX  XXXXX  OOOOO",
"OOOOOOO XX  XXXXXX OOOOO",
"OOOOOOO X    XXXXX OOOOO",
"OOOOOOO            OOOOO"
};
