/* XPM */
static char *result[] = {
/* columns rows colors chars-per-pixel */
"64 42 108 2 ",
"   c #000000",
".  c #020015",
"X  c #060019",
"o  c #0A011B",
"O  c #000020",
"+  c #0C0020",
"@  c #000029",
"#  c #130C23",
"$  c #171226",
"%  c #191527",
"&  c #1A152A",
"*  c #1D1B2D",
"=  c #000035",
"-  c #1B1B32",
";  c #201E2F",
":  c #211E31",
">  c #242133",
",  c #282737",
"<  c #2A2A37",
"1  c #272339",
"2  c #2A2639",
"3  c #2C2B3C",
"4  c #31323F",
"5  c #272F4A",
"6  c #322D42",
"7  c #323343",
"8  c #373845",
"9  c #393B47",
"0  c #34344A",
"q  c #38324C",
"w  c #373948",
"e  c #3A3B4C",
"r  c #3E3C51",
"t  c #413F54",
"y  c #3E414C",
"u  c #3F4152",
"i  c #434355",
"p  c #484655",
"a  c #494D57",
"s  c #454559",
"d  c #48465A",
"f  c #464859",
"g  c #4A4B5D",
"h  c #4F535F",
"j  c #52545D",
"k  c #474C62",
"l  c #4C4E61",
"z  c #4E5163",
"x  c #4E546A",
"c  c #515464",
"v  c #575C67",
"b  c #5D5E64",
"n  c #535669",
"m  c #565A6C",
"M  c #595C6D",
"N  c #5A5D71",
"B  c #5E626E",
"V  c #5D6274",
"C  c #5F6478",
"Z  c #636266",
"A  c #60676E",
"S  c #616674",
"D  c #656A76",
"F  c #6C6D77",
"G  c #62677A",
"H  c #656A7C",
"J  c #696E7B",
"K  c #6C717E",
"L  c #676C81",
"P  c #686E80",
"I  c #6D7381",
"U  c #717684",
"Y  c #747A86",
"T  c #7B7C84",
"R  c #757B89",
"E  c #787E8D",
"W  c #7A818E",
"Q  c #7D8492",
"!  c #818183",
"~  c #808794",
"^  c #828995",
"/  c #858D99",
"(  c #87909B",
")  c #89919D",
"_  c #989799",
"`  c #8D95A0",
"'  c #8F98A4",
"]  c #929BA5",
"[  c #959FA9",
"{  c #96A0A9",
"}  c #9BA5AE",
"|  c #9DA8AF",
" . c #9DA7B1",
".. c #9EA9B2",
"X. c #A1ABB5",
"o. c #A4AFB8",
"O. c #A7B2BB",
"+. c #AAB6BE",
"@. c #B4B3B4",
"#. c #BCBCBC",
"$. c #ACB7C0",
"%. c #ADB9C1",
"&. c #B1BDC5",
"*. c #C0C0C1",
"=. c #CBCBCC",
"-. c gainsboro",
";. c gray99",
":. c None",
/* pixels */
":.:.:.:.:.:.:.:.:.:.:.:.:.:.:.:.:.:.:.:.:.:.:.:.:.:.:.:.:.:.:.:.:.:.:.:.:.:.:.:.:.:.:.:.:.:.:.:.:.:.:.:.:.:.:.:.:.:.:.:.:.:.:.:.",
":.:.:.:.:.:.:.:.:.:.:.:.:.:.:.:.:.:.:.:.:.:.:.:.:.:.:.:.:.:.:.:.:.:.:.:.:.:.:.:.:.:.:.:.:.:.:.:.:.:.:.:.:.:.:.:.:.:.:.:.:.:.:.:.",
":.:.:.:.:.:.:.:.:.:.:.:.:.:.:.:.:.:.:.:.:.:.:.:.:.:.:.:.:.:.:.:.:.:.:.:.:.:.:.:.:.:.:.:.:.:.:.:.:.:.:.:.:.:.:.:.:.:.:.:.:.:.:.:.",
":.:.:.:.:.:.:.:.:.:.:.:.:.:.:.:.:.:.:.:.:.:.:.:.:.:.:.:.:.:.:.:.:.:.:.:.:.:.:.:.:.:.:.:.:.:.:.:.:.:.:.:.:.:.:.:.:.:.:.:.:.:.:.:.",
":.:.:.:.:.:.:.:.:.:.:.:.:.:.:.:.:.:.> $ o % :.:.:.:.:.:.:.:.:.:.:.:.o o * :.:.:.:.:.:.:.:.:.:.:.:.:.:.:.:.:.:.:.:.:.:.:.:.:.:.:.",
":.:.:.:.:.:.:.:.:.:.:.:.:.:.:.:.:.:.* i l e 2 :.:.:.:.:.:.:.:.:.:.e c l 0 % :.:.:.:.:.:.:.:.:.:.:.:.:.:.:.:.:.:.:.:.:.:.:.:.:.:.",
":.:.:.:.:.:.:.:.:.:.:.:.:.:.:.:.:.:.o l G g 0 # :.8 i 8 7 0 3 :., m H G e :.:.:.:.:.:.:.:.:.:.:.:.:.:.:.:.:.:.:.:.:.:.:.:.:.:.:.",
":.:.:.:.:.:.:.:.:.:.:.:.:.:.:.:.:.:.:.2 e g 2   3 W / W V G g * N M s 4 :.:.:.:.:.:.:.:.:.:.:.:.:.:.:.:.:.:.:.:.:.:.:.:.:.:.:.:.",
":.:.:.:.:.:.:.:.:.:.:.:.:.:.:.:.:.:.:.:.+ : V D n U W U G P G M H z : :.:.:.:.:.:.:.:.:.:.:.o         :.:.:.:.:.:.:.:.:.:.:.:.:.",
":.:.:.:.:.:.:.:.:.:.:.:.:.:.:.:.:.:.:.:.:.g Q Q H C C C G n x V H l & :.:.:.:.:.:.:.:.:.:.:.e c c c v i :.:.:.:.:.:.:.:.:.:.:.:.",
":.:.:.:.:.:.:.:.:.:.:.:.:.:.:.:.:.:.:.  a / I C C H H H G y o 3 S M r ; :.:.:.:.:.:.> : $ 6 V Q ( / ) S . > :.:.:.:.:.:.:.:.:.:.",
":.:.:.:.:.:.:.:.:.:.o       o o :.:.:.:.- @ m P H C P x   =.#.  N G n ; :.:.:.o   8 V V N M g n M v v M N V 7     :.:.:.:.:.:.:.",
":.:.:.:.:.:.:.:.:.6 l S D S g z u :.:.  b @.T k H C k J @.;.-.  N P N $ :.:., i l z N N N N D S D S D N M M S J B < :.:.:.:.:.:.",
":.:.:.:.:.:.:.9 7 i G ~ ( ~ H H m 3 7   T ;._ O H L = ! ;.;.*.  C L N 3 :.:.r C H N s i s V ( ) ( ( ) U d l E ) Q z > :.:.:.:.:.",
":.:.:.:.:.:.7 Q Y n i g l l s i c G G i < Z p l G H n p B Z j s C H G V 2 u C g s s t q J ( ) ^ ^ / / ^ ~ ~ S i c ^ B   :.:.:.:.",
":.:.:.:.:.c R J m M U U I I U U H z M e * B P E Q H N n 0 5 s V G G G H M z m I U U U U F G V [ ..~ / ( ) ( R K I I S s > :.:.:.",
":.:.:.:.3 J Q N c K ) ) ) ( ( ) W v i e b W ( ^ R I P H H L H H H G G G L C S / ) ) ) ) R c c ) X.] ( ^ / ^ ( ) ^ d m G : :.:.:.",
":.:.:.> N m c ^ ( / / / / ( / / ( ^ 8 D W > W U , Q W C G C G G G G G G N R / / / / ( / ^ ( ( m R &.` ^ ( ^ ( ( ^ c N N : :.:.:.",
":.:.:.$ V n r Q / ^ / / / / / Q [ +.e S ^   U K X Q Q N e 8 w w 7 m H G G L Y / ( / ( / / ( ( W U U ~ ^ ~ ~ X.&.$.O.~ d M e :.:.",
":.:.7 f n U )  ...{ ^ / ^ ^ / { } ` F B D A Q Q S / I t 3 2 3 2 : n H G G C G E ~ / ^ / / / / ` U r ] X.X.} [ ] ] } K e H s X :.",
":.. i H q W &.+.+.o.) ) ) ) ^ o.[ s ^ D y ^ ^ Q ^ ^ v & l l l l l N G G G G G C E ) / / / / / ) U l  .%.+.+.A         e V u o :.",
":.. i H r 8 h a 4 W &.&.&.+./ D D Q ( / Y 4 , 4 e 8 e g N C N V V V G G G G G G W ) / ( ) ( ( ` E s a a a h :.:.:.:.:.:.7 3 ; :.",
":.& 0 g 7 :.:.:.:.j ^ ^ W ) O.K c ) ( ( ^ J F j X : s G E Q Q E E E Y C G G V i R ` ( F B V S S m 7   :.:.:.:.:.:.:.:.:.:.:.:.:.",
":.:.* o :.:.:.:.:.:.      i } U M ) ( ( ( ) ' U # k G E / ) / / ` ` Q I H H N # A ~ R 8         . & :.:.:.:.:.:.:.:.:.:.:.:.:.:.",
":.:.:.:.:.:.:.:.:.:.:.:.:.:.* 0 D ( / / / / ) K * M W ( / / / / / / / / P C V 3 * : ; :.:.:.:.:.:.:.:.:.:.:.:.:.:.:.:.:.:.:.:.:.",
":.:.:.:.:.:.:.:.:.:.:.:.:.:.# 1 e c h h h h c i > 3 I ` / / / / / / / / Q R N 3 . :.:.:.:.:.:.:.:.:.:.:.:.:.:.:.:.:.:.:.:.:.:.:.",
":.:.:.:.:.:.:.:.:.:.:.:.:.:.> * X             . ;   V ^ / / / / / / / / ` W N 3 :.:.:.:.:.:.:.:.:.:.:.:.:.:.:.:.:.:.:.:.:.:.:.:.",
":.:.:.:.:.:.:.:.:.:.:.:.:.:.:.:.:.:.:.:.:.:.:.:.:.# s K ~ / / / / / / / / W N 3 :.:.:.:.:.:.:.:.:.:.:.:.:.:.:.:.:.:.:.:.:.:.:.:.",
":.:.:.:.:.:.:.:.:.:.:.:.:.:.:.:.:.:.:.:.:.:.:.:.:.:.* f P ^ ) / / / / / ` W N 2 :.:.:.:.:.:.:.:.:.:.:.:.:.:.:.:.:.:.:.:.:.:.:.:.",
":.:.:.:.:.:.:.:.:.:.:.:.:.:.:.:.:.:.:.:.:.:.:.:.:.:.:., s P ~ ) / ( ) ) E L V u 2 :.:.:.:.:.:.:.:.:.:.:.:.:.:.:.:.:.:.:.:.:.:.:.",
":.:.:.:.:.:.:.:.:.:.:.:.:.:.:.:.:.:.:.:.:.:.:.:.:.:.:.:.. s I ~ Q Q Q Q L C C n e # :.:.:.:.:.:.:.:.:.:.:.:.:.:.:.:.:.:.:.:.:.:.",
":.:.:.:.:.:.:.:.:.:.:.:.:.:.:.:.:.:.:.:.:.:.:.:.:.:.:.:.:.o f H C H C H C H C L f X :.:.:.:.:.:.:.:.:.:.:.:.:.:.:.:.:.:.:.:.:.:.",
":.:.:.:.:.:.:.:.:.:.:.:.:.:.:.:.:.:.:.:.:.:.:.:.:.:.:.:.:.# t l e 0 e u e e f H n 6 * :.:.:.:.:.:.:.:.:.:.:.:.:.:.:.:.:.:.:.:.:.",
":.:.:.:.:.:.:.:.:.:.:.:.:.:.:.:.:.:.:.:.:.:.:.:.:.:.:.:.:.:.3 e 7 > o . X   > z N z * :.:.:.:.:.:.:.:.:.:.:.:.:.:.:.:.:.:.:.:.:.",
":.:.:.:.:.:.:.:.:.:.:.:.:.:.:.:.:.:.:.:.:.:.:.:.:.:.:.:.:.:.:., s 0 & :.:.:.:.. c V * :.:.:.:.:.:.:.:.:.:.:.:.:.:.:.:.:.:.:.:.:.",
":.:.:.:.:.:.:.:.:.:.:.:.:.:.:.:.:.:.:.:.:.:.:.:.:.:.:.:.:.:.:.:., 3 ; :.:.:.:.:.3 7 > :.:.:.:.:.:.:.:.:.:.:.:.:.:.:.:.:.:.:.:.:.",
":.:.:.:.:.:.:.:.:.:.:.:.:.:.:.:.:.:.:.:.:.:.:.:.:.:.:.:.:.:.:.:.:.:.:.:.:.:.:.:.:.:.:.:.:.:.:.:.:.:.:.:.:.:.:.:.:.:.:.:.:.:.:.:.",
":.:.:.:.:.:.:.:.:.:.:.:.:.:.:.:.:.:.:.:.:.:.:.:.:.:.:.:.:.:.:.:.:.:.:.:.:.:.:.:.:.:.:.:.:.:.:.:.:.:.:.:.:.:.:.:.:.:.:.:.:.:.:.:.",
":.:.:.:.:.:.:.:.:.:.:.:.:.:.:.:.:.:.:.:.:.:.:.:.:.:.:.:.:.:.:.:.:.:.:.:.:.:.:.:.:.:.:.:.:.:.:.:.:.:.:.:.:.:.:.:.:.:.:.:.:.:.:.:.",
":.:.:.:.:.:.:.:.:.:.:.:.:.:.:.:.:.:.:.:.:.:.:.:.:.:.:.:.:.:.:.:.:.:.:.:.:.:.:.:.:.:.:.:.:.:.:.:.:.:.:.:.:.:.:.:.:.:.:.:.:.:.:.:.",
":.:.:.:.:.:.:.:.:.:.:.:.:.:.:.:.:.:.:.:.:.:.:.:.:.:.:.:.:.:.:.:.:.:.:.:.:.:.:.:.:.:.:.:.:.:.:.:.:.:.:.:.:.:.:.:.:.:.:.:.:.:.:.:.",
":.:.:.:.:.:.:.:.:.:.:.:.:.:.:.:.:.:.:.:.:.:.:.:.:.:.:.:.:.:.:.:.:.:.:.:.:.:.:.:.:.:.:.:.:.:.:.:.:.:.:.:.:.:.:.:.:.:.:.:.:.:.:.:."
};
