/* XPM */
static char *result[] = {
/* columns rows colors chars-per-pixel */
"64 42 108 2 ",
"   c #000001",
".  c #00000F",
"X  c #020014",
"o  c #06001B",
"O  c #0A011B",
"+  c #030023",
"@  c #0C0121",
"#  c #00002D",
"$  c #130D23",
"%  c #171226",
"&  c #171129",
"*  c #1A1629",
"=  c #1D1A2C",
"-  c #0F1037",
";  c #101536",
":  c #1C1631",
">  c #1F1E32",
",  c #12193E",
"<  c #201E2F",
"1  c #211F30",
"2  c #242234",
"3  c #282737",
"4  c #2B2B3C",
"5  c #2F2E40",
"6  c #332F43",
"7  c #333243",
"8  c #373946",
"9  c #393A47",
"0  c #373548",
"q  c #39364B",
"w  c #373849",
"e  c #3B3C4C",
"r  c #333953",
"t  c #3D3E51",
"y  c #3E404C",
"u  c #3E4151",
"i  c #3A4058",
"p  c #42454E",
"a  c #4A474B",
"s  c #434255",
"d  c #464956",
"f  c #45455A",
"g  c #48475B",
"h  c #474A5C",
"j  c #4A4B5D",
"k  c #4D515D",
"l  c #50555D",
"z  c #4C4E61",
"x  c #4E5164",
"c  c #4C5268",
"v  c #515465",
"b  c #555965",
"n  c #545669",
"m  c #56596C",
"M  c #595C6D",
"N  c #5A5E71",
"B  c #5D626D",
"V  c #5D6274",
"C  c #5F6478",
"Z  c #61656D",
"A  c #6B6A6D",
"S  c #626674",
"D  c #656A76",
"F  c #62667A",
"G  c #64697C",
"H  c #686D7C",
"J  c #6C727E",
"K  c #76777B",
"L  c #7B7A7D",
"P  c #676C80",
"I  c #686D80",
"U  c #6E7382",
"Y  c #717684",
"T  c #747A86",
"R  c #757C8A",
"E  c #787F8C",
"W  c #7A818E",
"Q  c #7E8592",
"!  c #89898E",
"~  c #808793",
"^  c #828A95",
"/  c #8F8E90",
"(  c #858D99",
")  c #87909B",
"_  c #89919D",
"`  c #8C95A1",
"'  c #8F98A3",
"]  c #939CA6",
"[  c #959EA9",
"{  c #97A1AB",
"}  c #9AA4AE",
"|  c #9DA7B1",
" . c #9EA9B2",
".. c #A1ACB5",
"X. c #A4AFB8",
"o. c #A5B0B7",
"O. c #A4B0B8",
"+. c #AAB6BE",
"@. c #B2B1B3",
"#. c #AEBAC3",
"$. c #B1BDC5",
"%. c #B5C1C9",
"&. c #CBCBCB",
"*. c #D3D2D3",
"=. c gray86",
"-. c #EBEBEB",
";. c white",
":. c None",
/* pixels */
":.:.:.:.:.:.:.:.:.:.:.:.:.:.:.:.:.:.:.:.:.:.:.:.:.:.:.:.:.:.:.:.:.:.:.:.:.:.:.:.:.:.:.:.:.:.:.:.:.:.:.:.:.:.:.:.:.:.:.:.:.:.:.:.",
":.:.:.:.:.:.:.:.:.:.:.:.:.:.:.:.:.:.:.:.:.:.:.:.:.:.:.:.:.:.:.:.:.:.:.:.:.:.:.:.:.:.:.:.:.:.:.:.:.:.:.:.:.:.:.:.:.:.:.:.:.:.:.:.",
":.:.:.:.:.:.:.:.:.:.:.:.:.:.:.:.:.:.:.:.:.:.:.:.:.:.:.:.:.:.:.:.:.:.:.:.:.:.:.:.:.:.:.:.:.:.:.:.:.:.:.:.:.:.:.:.:.:.:.:.:.:.:.:.",
":.:.:.:.:.:.:.:.:.:.:.:.:.:.:.:.:.:.:.:.:.:.:.:.:.:.:.:.:.:.:.:.:.:.:.:.:.:.:.:.:.:.:.:.:.:.:.:.:.:.:.:.:.:.:.:.:.:.:.:.:.:.:.:.",
":.:.:.:.:.:.:.:.:.:.:.:.:.:.:.:.:.:.:.:.:.:.:.:.:.:.:.:.:.:.:.:.:.:.:.:.:.:.:.:.:.:.:.:.:.:.:.:.:.:.:.:.:.:.:.:.:.:.:.:.:.:.:.:.",
":.:.:.:.:.:.:.:.:.:.:.:.:.:.:.:.:.:.:.:.:.:.:.:.:.:.:.:.:.:.:.:.:.:.:.:.:.:.:.:.:.:.:.:.:.:.:.:.:.:.:.:.:.:.:.:.:.:.:.:.:.:.:.:.",
":.:.:.:.:.:.:.:.:.:.:.:.:.:.:.:.:.:.:.= 4 7 :.:.:.:.:.:.:.:.:.:.:.4 7 2 :.:.:.:.:.:.:.:.:.:.:.:.:.:.:.:.:.:.:.:.:.:.:.:.:.:.:.:.",
":.:.:.:.:.:.:.:.:.:.:.:.:.:.:.:.:.:.:.O w V e o :.:.:.:.:.:.:.:.$ b M < :.:.:.:.:.:.:.:.:.:.:.:.:.:.:.:.:.:.:.:.:.:.:.:.:.:.:.:.",
":.:.:.:.:.:.:.:.:.:.:.:.:.:.:.:.:.:.:.X e H h X :.:.    X o :.:.X M C > :.:.:.:.:.:.:.:.:.:.O           O o :.:.:.:.:.:.:.:.:.:.",
":.:.:.:.:.:.:.:.:.:.:.:.:.:.:.:.:.:.:.O q V t   :.j b j y s 7 :.7 M M = :.:.:.:.:.:.:.:.:.:.e v b v v h e s 4 :.:.:.:.:.:.:.:.:.",
":.:.:.:.:.:.:.:.:.:.:.:.:.:.:.:.:.:.:.* 5 g 7 o 7 W ` Q G G x 3 C m t = :.:.:.:.:.:.:.1 * 6 V Q ) ( ( E C G e $ 1 2 2 < :.:.:.:.",
":.:.:.:.:.:.:.:.:.O O       O O :.:.:.:.:.@ H T M U U U G I F V G x * :.:.:.:.:.:.X $ n V m z v M m M x g g Y ~ W W ~ J $ :.:.:.",
":.:.:.:.:.:.:.:.t z j S D S j x u :.:.:.:.V W E G C V C G f i m G z 1 :.:.:.:.:.u x j M N N D D S S S D G G Y T T Y R U j 4 :.:.",
":.:.:.:.4 q e 8 N G F Q ) ~ G G m 4 7 & d Q U V G G G C N Z a > C N s 2 :.:.:.3 m G F z s N ( _ ) ) _ ( _ _ S s z j j v G h < :.",
":.:.:.% v R ^ ^ T M s j z j f s v F G h X   m H C G I c   =.&.  V G m = :.:.4 N n s f q D ( _ ( ^ ( ( ( ( ( ^ Q Q Q Q T z V x % ",
":.:.4 m v N H G m m Y Y Y U Y Y G z b - A *.^ r G G i K *.;.=.  V H m $   u M c G Y Y Y U S V [  .~ ( ( ( ( ^ ^ ( X.#.{ j C M % ",
":.7 z F N n m b v J _ _ _ _ _ _ W M B ; K -./ # F P , T -.-.@.+ V H V q q z S m W _ _ _ T v v _ ..] ( ^ ^ ^ ] [ { } O.] s m j * ",
"% b V j E _ ( ( ( ( ( ( ( ( ( ( ( ( _ S . < e n G G m t 2 % 6 z C G C F G n v ^ _ ( ( ( ( ( ) n T $.] ^ ( ^ o.%.o.k   2 < < 1 1 ",
"% m C j ....~ ^ ~ ^ ( ( ( ^ ^ X.} v S e 4 Y E ~ Q P N N x z m V C G F G F U Q ( ( ( ( ( ( ( ( Q Y Y E } +.%.^ D Z :.:.:.:.:.:.:.",
"= f x e ^ } | | ..[ ^ ( ^ _ } } ^ N q d S K ( ~ I T U F H P P P G G F G C U ^ ( ( ( ( ( ( ( ( ` Y q [ } { { l     :.:.:.:.:.:.:.",
"< * % =   T $.+.+...) _ ( ` #.Y B ) 4 H ~ o T U % ~ E V V V V V V C G G F V G Q ( ( ( ( ( ( ( _ T x o.~     :.:.:.:.:.:.:.:.:.:.",
":.:.:.:.:.p l d 8 R $.%...R M T ( ( 4 D ^ o R J $ W Q M 4 3 4 4 2 c G C F G G G Q ( ( ( ( ( ) ` E s j p :.:.:.:.:.:.:.:.:.:.:.:.",
":.:.:.:.:.:.:.:.:.l ! ~ [ ..s Y _ ( T B b J ( ^ Y _ U q 7 7 6 6 4 n H C F F F F Q ( ( _ ` ( D S n 7 @ :.:.:.:.:.:.:.:.:.:.:.:.:.",
":.:.:.:.:.:.:.:.:.:.    E } z Y _ ( _ J d W R R W E v 2 z n v v x N G G F F F n E _ ( E W J O   X = = :.:.:.:.:.:.:.:.:.:.:.:.:.",
":.:.:.:.:.:.:.:.:.:.:.:.:.4 s R _ ( ( _ W 3 % < < = q v F G F F F F F F F G N : J ` ( d o > :.:.:.:.:.:.:.:.:.:.:.:.:.:.:.:.:.:.",
":.:.:.:.:.:.:.:.:.:.:.:.@ : 5 d k b ^ ' ) R W B O 7 j G Q Q Q Q Q Q R C F G V 3 y b k :.:.:.:.:.:.:.:.:.:.:.:.:.:.:.:.:.:.:.:.:.",
":.:.:.:.:.:.:.:.:.:.:.:.:.1 =     o D J R _ ] Y & x I Q ( _ _ ( _ _ ^ R G C V 4       :.:.:.:.:.:.:.:.:.:.:.:.:.:.:.:.:.:.:.:.:.",
":.:.:.:.:.:.:.:.:.:.:.:.:.:.:.:.:.:.X   y W ( H = m E _ ( ( ( ( ( ( ( ( Y G V 4 :.:.:.:.:.:.:.:.:.:.:.:.:.:.:.:.:.:.:.:.:.:.:.:.",
":.:.:.:.:.:.:.:.:.:.:.:.:.:.:.:.:.:.:.:.:.9 y 7 1 : J _ ( ( ( ( ( ( ) Q ( R N 4 :.:.:.:.:.:.:.:.:.:.:.:.:.:.:.:.:.:.:.:.:.:.:.:.",
":.:.:.:.:.:.:.:.:.:.:.:.:.:.:.:.:.:.:.:.:.:.:.:.:.X V Q ( ( ( ( ( ( ( ( ) Q N 4 :.:.:.:.:.:.:.:.:.:.:.:.:.:.:.:.:.:.:.:.:.:.:.:.",
":.:.:.:.:.:.:.:.:.:.:.:.:.:.:.:.:.:.:.:.:.:.:.:.:.$ t G Q ( ( ( ( ( ( ( ( W N 4 :.:.:.:.:.:.:.:.:.:.:.:.:.:.:.:.:.:.:.:.:.:.:.:.",
":.:.:.:.:.:.:.:.:.:.:.:.:.:.:.:.:.:.:.:.:.:.:.:.:.:.X e F Q ( ( ( ( ( ( ) W N 5 :.:.:.:.:.:.:.:.:.:.:.:.:.:.:.:.:.:.:.:.:.:.:.:.",
":.:.:.:.:.:.:.:.:.:.:.:.:.:.:.:.:.:.:.:.:.:.:.:.:.:.:.:.q G Q _ ) ) ` Q R P V i 4 * :.:.:.:.:.:.:.:.:.:.:.:.:.:.:.:.:.:.:.:.:.:.",
":.:.:.:.:.:.:.:.:.:.:.:.:.:.:.:.:.:.:.:.:.:.:.:.:.:.:.:.X t F Q W W W W P P F M s O :.:.:.:.:.:.:.:.:.:.:.:.:.:.:.:.:.:.:.:.:.:.",
":.:.:.:.:.:.:.:.:.:.:.:.:.:.:.:.:.:.:.:.:.:.:.:.:.:.:.:.:.  s C V N N V V V C G j $ :.:.:.:.:.:.:.:.:.:.:.:.:.:.:.:.:.:.:.:.:.:.",
":.:.:.:.:.:.:.:.:.:.:.:.:.:.:.:.:.:.:.:.:.:.:.:.:.:.:.:.:.% t j 5 4 5 5 5 4 t G n 0 < :.:.:.:.:.:.:.:.:.:.:.:.:.:.:.:.:.:.:.:.:.",
":.:.:.:.:.:.:.:.:.:.:.:.:.:.:.:.:.:.:.:.:.:.:.:.:.:.:.:.:.:.4 q e 4 $ :.:.:.3 s N m = :.:.:.:.:.:.:.:.:.:.:.:.:.:.:.:.:.:.:.:.:.",
":.:.:.:.:.:.:.:.:.:.:.:.:.:.:.:.:.:.:.:.:.:.:.:.:.:.:.:.:.:.:.2 s w % :.:.:.:.  x m < :.:.:.:.:.:.:.:.:.:.:.:.:.:.:.:.:.:.:.:.:.",
":.:.:.:.:.:.:.:.:.:.:.:.:.:.:.:.:.:.:.:.:.:.:.:.:.:.:.:.:.:.:.:.1 2 1 :.:.:.:.:.1 2 1 :.:.:.:.:.:.:.:.:.:.:.:.:.:.:.:.:.:.:.:.:.",
":.:.:.:.:.:.:.:.:.:.:.:.:.:.:.:.:.:.:.:.:.:.:.:.:.:.:.:.:.:.:.:.:.:.:.:.:.:.:.:.:.:.:.:.:.:.:.:.:.:.:.:.:.:.:.:.:.:.:.:.:.:.:.:.",
":.:.:.:.:.:.:.:.:.:.:.:.:.:.:.:.:.:.:.:.:.:.:.:.:.:.:.:.:.:.:.:.:.:.:.:.:.:.:.:.:.:.:.:.:.:.:.:.:.:.:.:.:.:.:.:.:.:.:.:.:.:.:.:.",
":.:.:.:.:.:.:.:.:.:.:.:.:.:.:.:.:.:.:.:.:.:.:.:.:.:.:.:.:.:.:.:.:.:.:.:.:.:.:.:.:.:.:.:.:.:.:.:.:.:.:.:.:.:.:.:.:.:.:.:.:.:.:.:."
};
