/* XPM */
static char *result[] = {
/* columns rows colors chars-per-pixel */
"64 42 94 2 ",
"   c #000001",
".  c #000009",
"X  c #050017",
"o  c #050019",
"O  c #0B021C",
"+  c #10071F",
"@  c #100B1F",
"#  c #0C0121",
"$  c #00002D",
"%  c #140E24",
"&  c #180F27",
"*  c #161125",
"=  c #181427",
"-  c #151329",
";  c #191529",
":  c #1E1B2D",
">  c #000637",
",  c #1F1E33",
"<  c #211E2F",
"1  c #211F30",
"2  c #242233",
"3  c #292739",
"4  c #2C2C3D",
"5  c #1E2443",
"6  c #2F2E43",
"7  c #322F42",
"8  c #2B3346",
"9  c #2C324D",
"0  c #333344",
"q  c #373845",
"w  c #373749",
"e  c #343849",
"r  c #3B3C4D",
"t  c #313750",
"y  c #3E3E51",
"u  c #3E414C",
"i  c #3F4152",
"p  c #4A484D",
"a  c #434554",
"s  c #484655",
"d  c #474956",
"f  c #444659",
"g  c #48475B",
"h  c #46495A",
"j  c #4A4C5B",
"k  c #4D505C",
"l  c #4C4C60",
"z  c #4D5063",
"x  c #4F5568",
"c  c #515464",
"v  c #555964",
"b  c #5F5E63",
"n  c #535669",
"m  c #565A6C",
"M  c #595D6E",
"N  c #5A5E71",
"B  c #5C616D",
"V  c #5E6275",
"C  c #5F6478",
"Z  c #656468",
"A  c #616673",
"S  c #626875",
"D  c #6F6F75",
"F  c #62677A",
"G  c #646A7C",
"H  c #686E7C",
"J  c #6B717D",
"K  c #7B7A7E",
"L  c #676C80",
"P  c #696E81",
"I  c #6D7383",
"U  c #717787",
"Y  c #737985",
"T  c #747B8A",
"R  c #807F82",
"E  c #7B828E",
"W  c #7D8492",
"Q  c #838285",
"!  c #828288",
"~  c #88898E",
"^  c #808794",
"/  c #828A96",
"(  c #858D99",
")  c #87909B",
"_  c #89919D",
"`  c #949495",
"'  c #8C94A1",
"]  c #C5C5C6",
"[  c #D7D7D7",
"{  c #DDDDDD",
"}  c #E9E9EA",
"|  c #F3F3F3",
" . c white",
".. c None",
/* pixels */
"................................................................................................................................",
"................................................................................................................................",
"................................................................................................................................",
"......................................1 2 1 1 2 1 ..2 2 1 1 2 , ..1 2 1 1 2 1 ..................................................",
"......................................+ w V c 0     S ^ E S M n & f F N V z * ..................................................",
"........................................q n y d B h H / W I G G z n N n M h ....................................................",
"..........................................* : V ( I V F C F C V F m y 1 ; * ....................................................",
"..........................................= Y W G G F F F P h   1 n N i 4 ; ....................................................",
"..........................................< e x G F F G G $ ~ ] p f G N w O ....................................................",
"..........................................= K ! n C G C m D [  .Z 9 L G r . ....................................................",
"........................................... } {   N L x - {  .| b t G F r o ....................................................",
"..........................................= ! K 6 N G N r R ` ! d n G F V d   O O ..............................................",
"..........................................O 8 v P T I N m 5 o > l F G F L N h j z i ............................................",
"..........................................q Y _ _ / T G G G G G G G F F F G G G L V q ..........................................",
"........................................a W k B / a H ^ G G G L G G G F F F G F C I ^ u ........................................",
"......................................  n ' a j / % S ( L l i f a i l G F F F F C P T T v ......................................",
"........................................a T v J ( v Y / M 0 ; 1 1 & r F G F F F F C C ) Y   ....................................",
"..........................................= T _ ( ( ) T 2 r g g g f c F F F G F F F G / J . ....................................",
"..........................................  u d d k j d r n N N N N N C F F F F F F F I T J 4 ..................................",
"........................................u B j r r # o 7 n I T T T T T U G C G F F F F V E ) 3 ..................................",
"......................................  k _ T F C 4 q m P W _ ) ( ( _ ( U C V F F C G C E E u ..................................",
"........................................a ) T C V 2 f I / ( ( ( ( ( ( ( ) S , S H G F F F I W v   ..............................",
"......................................v Y T H C F n a B ' _ ( ( ( ( ( ( _ E V a N H F F C P ' B   ..............................",
"..................................... T ) C C F F L i q T W / ( / ( ( ( ( _ / u f V F F C J W v   ..............................",
"..................................... J ( F F F F G h O < n T ) ( ( ( ( ( ( ^ H r w F G C F G f o ..............................",
"..................................... Y ) V C F F P z O ..3 N T ( _ _ ' _ ^ P H r q G F F F F f O ..............................",
"......................................v T T G F F m u ......6 m T W T T W U F L i w H F F F G f X ..............................",
"........................................a ( U F V 4 ..........3 N N N V N N N F r 0 V C G F G f o ..............................",
"......................................  k _ U F V 0 ..........4 l r 2 4 7 0 7 0 2 2 0 V G G L g X ..............................",
"........................................r B F G C 0 ..........2 7 r w ; O ......: , : M G C j q ................................",
"..........................................  m P V 7 ............% w a 1 ..........; 2 N L N < ..................................",
"..........................................: m H F 0 ..............< 2 1 ............2 N L V 3 ..................................",
"............................................4 m L C d o ..........................r V H N 0 ....................................",
"..............................................q m m f * ........................% y m M y ......................................",
"................................................& % : 1 ........................2 : % & ........................................",
"................................................................................................................................",
"................................................................................................................................",
"................................................................................................................................",
"................................................................................................................................",
"................................................................................................................................",
"................................................................................................................................",
"................................................................................................................................"
};
