/* XPM */
static char *result[] = {
/* columns rows colors chars-per-pixel */
"64 42 111 2 ",
"   c #000001",
".  c #00000C",
"X  c #010015",
"o  c #030019",
"O  c #0A001B",
"+  c #11071F",
"@  c #0A0525",
"#  c #00002C",
"$  c #100720",
"%  c #140D23",
"&  c #161125",
"*  c #191527",
"=  c #1A162A",
"-  c #1E1B2D",
";  c #000938",
":  c #03143C",
">  c #15183C",
",  c #211E2F",
"<  c #211F30",
"1  c #231C38",
"2  c #242233",
"3  c #292936",
"4  c #29253B",
"5  c #2B2B3C",
"6  c #302B3F",
"7  c #31323F",
"8  c #252941",
"9  c #2B2A44",
"0  c #2B2C49",
"q  c #322F43",
"w  c #2D334E",
"e  c #343344",
"r  c #373945",
"t  c #393B46",
"y  c #36344A",
"u  c #3A374C",
"i  c #373A4A",
"p  c #3B3B4C",
"a  c #3D3C51",
"s  c #403E52",
"d  c #3F414D",
"f  c #40424E",
"g  c #434355",
"h  c #494D57",
"j  c #454559",
"k  c #46495A",
"l  c #4A4C5D",
"z  c #4D515C",
"x  c #50555D",
"c  c #5B595E",
"v  c #4C4E61",
"b  c #4E5163",
"n  c #515465",
"m  c #545963",
"M  c #5D5D63",
"N  c #535569",
"B  c #56596C",
"V  c #5A5D6D",
"C  c #5A5E71",
"Z  c #5D626D",
"A  c #5D6274",
"S  c #5F6478",
"D  c #64626A",
"F  c #616674",
"G  c #656A75",
"H  c #62667A",
"J  c #656A7D",
"K  c #696E7C",
"L  c #706E74",
"P  c #6C727E",
"I  c #676D80",
"U  c #696E81",
"Y  c #6E7484",
"T  c #707683",
"R  c #737A86",
"E  c #707788",
"W  c #757C8A",
"Q  c #787F8B",
"!  c #7B828E",
"~  c #7F888F",
"^  c #7D8491",
"/  c #838285",
"(  c #8D8C8E",
")  c #808793",
"_  c #828A95",
"`  c #858D99",
"'  c #87909B",
"]  c #8A929E",
"[  c #9A9A9C",
"{  c #8C95A1",
"}  c #919AA5",
"|  c #9F9FA2",
" . c #959FA9",
".. c #96A0AA",
"X. c #9BA5AE",
"o. c #9FAAB3",
"O. c #A1ADB5",
"+. c #A4AFB8",
"@. c #A7B2BB",
"#. c #A9B5BD",
"$. c #B5B4B5",
"%. c #ACB7C0",
"&. c #ADB9C1",
"*. c #B1BDC5",
"=. c #B3BFC8",
"-. c #B4C0C8",
";. c #D2D1D2",
":. c #DBDADB",
">. c #F4F4F4",
",. c #FBFBFB",
"<. c None",
/* pixels */
"<.<.<.<.<.<.<.<.<.<.<.<.<.<.<.<.<.<.<.<.<.<.<.<.<.<.<.<.<.<.<.<.<.<.<.<.<.<.<.<.<.<.<.<.<.<.<.<.<.<.<.<.<.<.<.<.<.<.<.<.<.<.<.<.",
"<.<.<.<.<.<.<.<.<.<.<.<.<.<.<.<.<.<.<.<.<.<.<.<.<.<.<.<.<.<.<.<.<.<.<.<.<.<.<.<.<.<.<.<.<.<.<.<.<.<.<.<.<.<.<.<.<.<.<.<.<.<.<.<.",
"<.<.<.<.<.<.<.<.<.<.<.<.<.<.<.<.<.<.<.<.<.<.<.<.<.<.<.<.<.<.<.<.<.<.<.<.<.<.<.<.<.<.<.<.<.<.<.<.<.<.<.<.<.<.<.<.<.<.<.<.<.<.<.<.",
"<.<.<.<.<.<.<.<.<.<.<.<.<.<.<.<.<.<.<.<.<.<.<.<.<.<.<.<.<.<.<.<.<.<.<.<.<.<.<.<.<.<.<.<.<.<.<.<.<.<.<.<.<.<.<.<.<.<.<.<.<.<.<.<.",
"<.<.<.<.<.<.<.<.<.<.<.<.<.<.<.<.<.<.<.<.<.<.<.<.<.<.<.<.<.<.<.<.<.<.<.<.<.<.<.<.<.<.<.<.<.<.<.<.<.<.<.<.<.<.<.<.<.<.<.<.<.<.<.<.",
"<.<.<.<.<.<.<.<.<.<.<.<.<.<.<.<.<.<.<.<.<.<.<.<.<.<.<.<.<.<.<.<.<.<.<.<.<.<.<.<.<.<.<.<.<.<.<.<.<.<.<.<.<.<.<.<.<.<.<.<.<.<.<.<.",
"<.<.<.<.<.<.<.<.<.<.<.<.<.<.<.<.<.<.- 5 e 5 <.<.<.<.<.<.<.<.<.<.<.5 y q 5 - <.<.<.<.<.<.<.<.<.<.<.<.<.<.<.<.<.<.<.<.<.<.<.<.<.<.",
"<.<.<.<.<.<.<.<.<.<.<.<.<.<.<.<.<.<.% N F j 5 <.<.X X o % & <.<.. z J S a O <.<.<.<.<.<.<.<.<.<.<.<.<.<.<.<.<.<.<.<.<.<.<.<.<.<.",
"<.<.<.<.<.<.<.<.<.<.<.<.<.<.<.<.<.<.<.d N v 4   3 G W Y N B g & v V B v e <.<.<.<.<.<.<.<.<.<.<.<.<.<.<.<.<.<.<.<.<.<.<.<.<.<.<.",
"<.<.<.<.<.<.<.<.<.<.<.<.<.<.<.<.<.<.<.<.= a h g k ^ ' ^ J I V g J B 5 o <.<.<.<.<.<.<.<.<.<.<.<.<.<.<.<.<.<.<.<.<.<.<.<.<.<.<.<.",
"<.<.<.<.<.<.<.<.<.<.<.<.<.<.<.<.<.<.<.<.<.* Q ^ S H H H S H H H J l O <.<.<.<.<.<.<.<.<.<.<.< < < < 2 <.<.<.<.<.<.<.<.<.<.<.<.<.",
"<.<.<.<.<.<.<.<.<.<.<.<.<.<.<.<.<.<.<.<.g ! W Y H H H H I ;   k H N q < <.<.<.<.<.<.O O   4 B W ^ ! _ Z   O <.<.<.<.<.<.<.<.<.<.",
"<.<.<.<.<.<.<.<.<.<.<.<.<.<.<.<.<.<.<.O t A H H H H J A w | ( o A F v 2 <.<.<.<.<.e v v v v B U R R Q F k v 9 <.<.<.<.<.<.<.<.<.",
"<.<.<.<.<.<.<.<.<.<.e i p t e e 5 <.<.@ r M A S H H S B M >.:.  C I A = <.<.<.5 5 k H H H A n v l v k V I H l t t <.<.<.<.<.<.<.",
"<.<.<.<.<.<.<.X   i H ^ ` ^ H H N o $   / ,.[ # H I : / ,.,.;.  C I B % <.<.5 C H C l l j n ^ ) ) ) ` K a s W ` ! e <.<.<.<.<.<.",
"<.<.<.<.<.<.3 P H b n F K H N b b N V 4 c $.L 0 H J a D $.$.( 9 S J H b 2 t B N N v a y V ^ ] ` ` ' ' Q P T K G K R m <.<.<.<.<.",
"<.<.<.<.<.p D ^ Y C V B m B V V V F H k X # x K Y J C j     > V H H I I k v S C V V V V Y ^ W ] } ` ` ` ] ] K b V ) U 4 <.<.<.<.",
"<.<.<.<.  G _ b u A ` ` ` ` ` ] W j l 5 g _ ` ` _ I H H H H H H H H H H H N n ) ` ` ` ] P a a X.#._ ` ` ` ` ` ` ) n B C 2 <.<.<.",
"<.<.<.2 b C G W Q ^ ` ` ` ` ` ` _ T y V T x ! Q z ! E H J J I J I H H H H T ) ` ` ] ` ` ) W ! K ` %.{ ) ` ` _ _ ) s n A & <.<.<.",
"<.<.<.- S N g _ ] ` ` ` ` ` ` _ } X.r G _   R P . ^ ^ A b b b b v C H H S T ) ' ` ` ` ` ` ] ] K T  .' ) _ _  .O.X.] T n k e <.<.",
"<.<.<.q C A F ] ] ] ` ` ` ` ` ` X.@.m A Q t Q R d ) ! b 1 = - - $ n I H H H I ) ` ` ` ` ` ` _ ] T u _ { ] ] O.#.#.*.^ a J j o <.",
"<.X t A j ) =.&.-.@.~ _ _ _ _ #.X.m ! Z f ) ] ` _ ] G = s j s a s B H H H H H H ! ` ` ` ` ` ` ] E b +.=.=.=.Q r h h e d J g X <.",
"<.X j I a Z ` ~ ! { @.+.@.O._ _ ! P ` ! D Z m V A Z g u B B B B B C H H H H H H Q ' ` ' ] ] ] { W k R ) ) _ x <.<.<.<.e l e = <.",
"<.$ p C t         M O.O.O.o...V n ] ' ] ) g f 7 . o a C Y E Y Y E T U H H H H B Q ] ' Q W Q W ! K s         <.<.<.<.<.<.O , <.<.",
"<.2 2 < <.<.<.<.<.<.2 <   m &.Q N ' ` ` ` ` ] P % d B E ` ` ` ` ` ` Q I H I C = P { _ h o < < < < < 2 <.<.<.<.<.<.<.<.<.<.<.<.<.",
"<.<.<.<.<.<.<.<.<.<.<.<.<.<.G z G ] ] ] ] { } Y = B E _ ` ` ` ` ` ` ` ^ H H C 4 d m l <.<.<.<.<.<.<.<.<.<.<.<.<.<.<.<.<.<.<.<.<.",
"<.<.<.<.<.<.<.<.<.<.<.<.<.<.  1 m Y Y P P P T V < k W { ` ` ` ` ` ` ` ` Q Y C 5       <.<.<.<.<.<.<.<.<.<.<.<.<.<.<.<.<.<.<.<.<.",
"<.<.<.<.<.<.<.<.<.<.<.<.<.<., , % X X X o o X $ <   H ` ` ` ` ` ` ` ` ` ' ! C 9 <.<.<.<.<.<.<.<.<.<.<.<.<.<.<.<.<.<.<.<.<.<.<.<.",
"<.<.<.<.<.<.<.<.<.<.<.<.<.<.<.<.<.<.<.<.<.<.<.<.<.$ N W ` ` ` ` ` ` ` ` ' Q C 9 <.<.<.<.<.<.<.<.<.<.<.<.<.<.<.<.<.<.<.<.<.<.<.<.",
"<.<.<.<.<.<.<.<.<.<.<.<.<.<.<.<.<.<.<.<.<.<.<.<.<.<.e B W ` ' ` ` ` ` ` { Q C 4 <.<.<.<.<.<.<.<.<.<.<.<.<.<.<.<.<.<.<.<.<.<.<.<.",
"<.<.<.<.<.<.<.<.<.<.<.<.<.<.<.<.<.<.<.<.<.<.<.<.<.<.<.5 N W ` ' ` ` ` ` ) W C e , <.<.<.<.<.<.<.<.<.<.<.<.<.<.<.<.<.<.<.<.<.<.<.",
"<.<.<.<.<.<.<.<.<.<.<.<.<.<.<.<.<.<.<.<.<.<.<.<.<.<.<.<.- N E ' ` ` ` ` U H H v e * <.<.<.<.<.<.<.<.<.<.<.<.<.<.<.<.<.<.<.<.<.<.",
"<.<.<.<.<.<.<.<.<.<.<.<.<.<.<.<.<.<.<.<.<.<.<.<.<.<.<.<.<.5 B E Y T Y E I J J S g . <.<.<.<.<.<.<.<.<.<.<.<.<.<.<.<.<.<.<.<.<.<.",
"<.<.<.<.<.<.<.<.<.<.<.<.<.<.<.<.<.<.<.<.<.<.<.<.<.<.<.<.<.. a B v v v n n b B I n 2 <.<.<.<.<.<.<.<.<.<.<.<.<.<.<.<.<.<.<.<.<.<.",
"<.<.<.<.<.<.<.<.<.<.<.<.<.<.<.<.<.<.<.<.<.<.<.<.<.<.<.<.<.* e g 2 & & % % X 5 C B g , <.<.<.<.<.<.<.<.<.<.<.<.<.<.<.<.<.<.<.<.<.",
"<.<.<.<.<.<.<.<.<.<.<.<.<.<.<.<.<.<.<.<.<.<.<.<.<.<.<.<.<.<.< q j y * <.<.<.<.3 C C - <.<.<.<.<.<.<.<.<.<.<.<.<.<.<.<.<.<.<.<.<.",
"<.<.<.<.<.<.<.<.<.<.<.<.<.<.<.<.<.<.<.<.<.<.<.<.<.<.<.<.<.<.<.< y e - <.<.<.<.<.g l < <.<.<.<.<.<.<.<.<.<.<.<.<.<.<.<.<.<.<.<.<.",
"<.<.<.<.<.<.<.<.<.<.<.<.<.<.<.<.<.<.<.<.<.<.<.<.<.<.<.<.<.<.<.<.* = 2 <.<.<.<.<.<.% 2 <.<.<.<.<.<.<.<.<.<.<.<.<.<.<.<.<.<.<.<.<.",
"<.<.<.<.<.<.<.<.<.<.<.<.<.<.<.<.<.<.<.<.<.<.<.<.<.<.<.<.<.<.<.<.<.<.<.<.<.<.<.<.<.<.<.<.<.<.<.<.<.<.<.<.<.<.<.<.<.<.<.<.<.<.<.<.",
"<.<.<.<.<.<.<.<.<.<.<.<.<.<.<.<.<.<.<.<.<.<.<.<.<.<.<.<.<.<.<.<.<.<.<.<.<.<.<.<.<.<.<.<.<.<.<.<.<.<.<.<.<.<.<.<.<.<.<.<.<.<.<.<.",
"<.<.<.<.<.<.<.<.<.<.<.<.<.<.<.<.<.<.<.<.<.<.<.<.<.<.<.<.<.<.<.<.<.<.<.<.<.<.<.<.<.<.<.<.<.<.<.<.<.<.<.<.<.<.<.<.<.<.<.<.<.<.<.<.",
"<.<.<.<.<.<.<.<.<.<.<.<.<.<.<.<.<.<.<.<.<.<.<.<.<.<.<.<.<.<.<.<.<.<.<.<.<.<.<.<.<.<.<.<.<.<.<.<.<.<.<.<.<.<.<.<.<.<.<.<.<.<.<.<."
};
