/* XPM */
static char *result[] = {
/* columns rows colors chars-per-pixel */
"64 42 90 1 ",
"  c #000001",
". c #00000A",
"X c #040017",
"o c #04001B",
"O c #0B011C",
"+ c #10071F",
"@ c #0B0827",
"# c #130B22",
"$ c #161226",
"% c #181426",
"& c #141029",
"* c #1A162A",
"= c #1E1B2D",
"- c #0F133B",
"; c #141236",
": c #1F1C31",
"> c #121A3A",
", c #201D2E",
"< c #211F31",
"1 c #232233",
"2 c #282736",
"3 c #292937",
"4 c #272738",
"5 c #29263A",
"6 c #2C2B3B",
"7 c #30303F",
"8 c #131E41",
"9 c #2F2E41",
"0 c #252D4A",
"q c #2A2E49",
"w c #312E42",
"e c #2F3140",
"r c #333344",
"t c #393947",
"y c #353448",
"u c #383649",
"i c #3B3B4C",
"p c #3E3D52",
"a c #3E404E",
"s c #3F4252",
"d c #424454",
"f c #464957",
"g c #46475A",
"h c #454858",
"j c #4A4D5C",
"k c #4C4E61",
"l c #4E5263",
"z c #4F5468",
"x c #515566",
"c c #575C67",
"v c #535669",
"b c #565A6C",
"n c #595D6C",
"m c #5A5E71",
"M c #5E636E",
"N c #5D6275",
"B c #5F6478",
"V c #606477",
"C c #646A75",
"Z c #62677A",
"A c #646A7C",
"S c #686D7E",
"D c #706E70",
"F c #6C727E",
"G c #727175",
"H c #676C80",
"J c #686E81",
"K c #6D7383",
"L c #707684",
"P c #737A87",
"I c #7E7E83",
"U c #717788",
"Y c #767D8A",
"T c #787F8D",
"R c #7A818E",
"E c #7D8491",
"W c #818084",
"Q c #838388",
"! c #808793",
"~ c #828996",
"^ c #858D99",
"/ c #87909B",
"( c #8A929E",
") c #939397",
"_ c #8B94A0",
"` c #A09FA2",
"' c #D4D4D5",
"] c #EAEAEA",
"[ c white",
"{ c None",
/* pixels */
"{{{{{{{{{{{{{{{{{{{{{{{{{{{{{{{{{{{{{{{{{{{{{{{{{{{{{{{{{{{{{{{{",
"{{{{{{{{{{{{{{{{{{{{{{{{{{{{{{{{{{{{{{{{{{{{{{{{{{{{{{{{{{{{{{{{",
"{{{{{{{{{{{{{{{{{{{{{{{{{{{{{{{{{{{{{{{{{{{{{{{{{{{{{{{{{{{{{{{{",
"{{{{{{{{{{{{{{{{{{{{{{{{{{{{{{{{{{{{{{{{{{{{{{{{{{{{{{{{{{{{{{{{",
"{{{{{{{{{{{{{{{{{{1$O*={{   OO{{OOXO={{{{{{{{{{{{{{{{{{{{{{{{{{{",
"{{{{{{{{{{{{{{{{{{=dji1.{nCNjli{dlkly*{{{{{{{{{{{{{{{{{{{{{{{{{{",
"{{{{{{{{{{{{{{{{{{OkZgi7iE_EAHxyNZZBt{{{{{{{{{{{{{{{{{{{{{{{{{{{",
"{{{{{{{{{{{{{{{{{{{96oKRNSSSZAANku66{{{{{{{{{{{{{{{{{{{{{{{{{{{{",
"{{{{{{{{{{{{{{{{{{{{tFYUABBZH0>kng5*{{{{{{{{{{{{{{{{{{{{{{{{{{{{",
"{{{{{{{{{{{{{{{{{{{.dYHNZZABkQD#Zmg<{{{{{{{{{{{{{{{{{{{{{{{{{{{{",
"{{{{{{{{{{{{{{{{{{{,<1nSZZAz&]' mHn<{{{{{{{{{{{{{{{{{{{{{{{{{{{{",
"{{{{{{{{{{{{{{{{{{{ G])8AA0I][' NJnO{{{{{{{{{{{{{{{{{{{{{{{{{{{{",
"{{{{{{{{{{{{{{{{{{{ G'W-ZAqG''`;NANg5{{{{{{{{{{{{{{{{{{{{{{{{{{{",
"{{{{{{{{{{{{{{{{{{{2& pNHAmp .;vZZAAd5er{{{{{{{{{{{{{{{{{{{{{{{{",
"{{{{{{{{{{{{{{{{{{{{aE~~^AmNmmmVZZZZVNBZi {{{{{{{{{{{{{{{{{{{{{{",
"{{{{{{{{{{{{{{{{{{{cFV!EMTKZHHHHHZZZSZZZUM {{{{{{{{{{{{{{{{{{{{{",
"{{{{{{{{{{{{{{{{{{.Y~ PFXERNbbbbbNZZZZZZERj{{{{{{{{{{{{{{{{{{{{{",
"{{{{{{{{{{{{{{{{{{.KE1RL3!Rb1=<<$lSZZZZZVK^f {{{{{{{{{{{{{{{{{{{",
"{{{{{{{{{{{{{{{{{{{iMR/^R(S5iiiiybSZZAZZBU/d{{{{{{{{{{{{{{{{{{{{",
"{{{{{{{{{{{{{{{{{{{{1FFGLFjwvxvvxmZZZZZZBKRFj{{{{{{{{{{{{{{{{{{{",
"{{{{{{{{{{{{{{{{{{{tt:=&ooyvJJJHJSAZZZZZZVZ^K {{{{{{{{{{{{{{{{{{",
"{{{{{{{{{{{{{{{{{{.CENBl=izJ~~~~~^TBZZAZZVA^F {{{{{{{{{{{{{{{{{{",
"{{{{{{{{{{{{{{{{{{ F_SSl$vKE^^^^^/^TjkHZZZZLPC7{{{{{{{{{{{{{{{{{",
"{{{{{{{{{{{{{{{{{{dKEZZbixR_^^^^^^^^nhmZAZAmR^r{{{{{{{{{{{{{{{{{",
"{{{{{{{{{{{{{{{{{7RRNZAAN:C_^^^^^^^^(C<BABABREr{{{{{{{{{{{{{{{{{",
"{{{{{{{{{{{{{{{{{rERNABAB6rnU^^^^^^^/TkibSBBKS6{{{{{{{{{{{{{{{{{",
"{{{{{{{{{{{{{{{{{r~ENBAAZy *kK~/^^^^EUN*kCZZBb4{{{{{{{{{{{{{{{{{",
"{{{{{{{{{{{{{{{{{6YTZABZN9{{#kL~~^^~HZN1zSAZAN5{{{{{{{{{{{{{{{{{",
"{{{{{{{{{{{{{{{{{{3F~ZAb4{{{{=xKHKHKAAN1xSZZZN5{{{{{{{{{{{{{{{{{",
"{{{{{{{{{{{{{{{{{{ L(AAxO{{{{Xpvdsdgjkg1yzZZSZ6{{{{{{{{{{{{{{{{{",
"{{{{{{{{{{{{{{{{{{.MRZAx${{{{*rp6*OOOX#=XiAZBx4{{{{{{{{{{{{{{{{{",
"{{{{{{{{{{{{{{{{{{{XtZSb%{{{{{{5gu*{{{{<#aZSl+{{{{{{{{{{{{{{{{{{",
"{{{{{{{{{{{{{{{{{{{.tAJxX{{{{{{{99,{{{{{ iAJxO{{{{{{{{{{{{{{{{{{",
"{{{{{{{{{{{{{{{{{{{{rxZNh6{{{{{{$={{{{{{sbZNs{{{{{{{{{{{{{{{{{{{",
"{{{{{{{{{{{{{{{{{{{{{OzANy{{{{{{{{{{{{{*bAN9{{{{{{{{{{{{{{{{{{{{",
"{{{{{{{{{{{{{{{{{{{{{{6y73{{{{{{{{{{{{{,6y6{{{{{{{{{{{{{{{{{{{{{",
"{{{{{{{{{{{{{{{{{{{{{{{{{{{{{{{{{{{{{{{{{{{{{{{{{{{{{{{{{{{{{{{{",
"{{{{{{{{{{{{{{{{{{{{{{{{{{{{{{{{{{{{{{{{{{{{{{{{{{{{{{{{{{{{{{{{",
"{{{{{{{{{{{{{{{{{{{{{{{{{{{{{{{{{{{{{{{{{{{{{{{{{{{{{{{{{{{{{{{{",
"{{{{{{{{{{{{{{{{{{{{{{{{{{{{{{{{{{{{{{{{{{{{{{{{{{{{{{{{{{{{{{{{",
"{{{{{{{{{{{{{{{{{{{{{{{{{{{{{{{{{{{{{{{{{{{{{{{{{{{{{{{{{{{{{{{{",
"{{{{{{{{{{{{{{{{{{{{{{{{{{{{{{{{{{{{{{{{{{{{{{{{{{{{{{{{{{{{{{{{"
};
