/* XPM */
static char *result[] = {
/* columns rows colors chars-per-pixel */
"64 42 85 1 ",
"  c #000000",
". c #00000A",
"X c #020014",
"o c #040019",
"O c #0B011B",
"+ c #10061F",
"@ c #090626",
"# c #130E22",
"$ c #161125",
"% c #181427",
"& c #141029",
"* c #191529",
"= c #1D1A2C",
"- c #0F153A",
"; c #141236",
": c #211E2F",
"> c #211F31",
", c #242234",
"< c #282736",
"1 c #28273A",
"2 c #2C2B3C",
"3 c #30303E",
"4 c #131E41",
"5 c #2F2D40",
"6 c #252D4A",
"7 c #2A2E49",
"8 c #302D42",
"9 c #333344",
"0 c #36364A",
"q c #38364A",
"w c #37394A",
"e c #3B3C4D",
"r c #3D3D52",
"t c #3E404E",
"y c #3F4052",
"u c #424454",
"i c #444852",
"p c #47465A",
"a c #464959",
"s c #4A4C5C",
"d c #4D515F",
"f c #4C4E60",
"g c #4E5264",
"h c #4F5468",
"j c #525566",
"k c #565B66",
"l c #535669",
"z c #565A6C",
"x c #595E6C",
"c c #5A5E71",
"v c #5D626E",
"b c #5D6275",
"n c #5F6478",
"m c #606574",
"M c #656B76",
"N c #62677A",
"B c #646A7C",
"V c #686D7E",
"C c #706F70",
"Z c #6C727E",
"A c #727175",
"S c #676C80",
"D c #696E81",
"F c #6E7483",
"G c #707684",
"H c #737A86",
"J c #7E7E83",
"K c #757C8B",
"L c #787F8E",
"P c #7A818E",
"I c #7C8491",
"U c #818084",
"Y c #838388",
"T c #808793",
"R c #828996",
"E c #858D99",
"W c #87909B",
"Q c #89919D",
"! c #939397",
"~ c #8C94A1",
"^ c #A09FA2",
"/ c #D4D4D5",
"( c #EAEAEA",
") c white",
"_ c None",
/* pixels */
"________________________________________________________________",
"________________________________________________________________",
"________________________________________________________________",
"__________________>,>,___________>,,,>__________________________",
"__________________$gcp2__   OO__ aNce+__________________________",
"___________________axs8 _xMbsge_uxbz0___________________________",
"____________________,pe2eIQIBDl9Nz0#____________________________",
"_____________________oGIbVVVNBNNBs+_____________________________",
"____________________iFLFNNnNB6-jNj1>____________________________",
"___________________.iHSnNNBbgYC@bbs>____________________________",
"___________________>>=zBNNBh&(/ cVc>____________________________",
"___________________ J(!4BB6J()/ cVz@____________________________",
"___________________ A/U-NB7A//^;bSbp1___________________________",
"___________________,& rbSBcr  ;jNNSNi18892______________________",
"____________________rTRREBbbcbcNNNNNmcNNNj.X____________________",
"___________________xZmTIvLFNSSSSVNNNNSNNBVGHk___________________",
"__________________.KR HZXRIbzzzzzbBNNNNNbFE~F __________________",
"__________________.ZP,KG<TPl,=>>$gBNNNNNNNNEZ.__________________",
"__________________ <kPQEPQB1eeqq0zBBBNNNNNNVHG3_________________",
"__________________vdiZZZGZs5llzllcNNNNBNNNNbPE<_________________",
"_________________9EIz,*&oo0zVDDVVBBNNnbBNBNnKIy_________________",
"_________________>TIbbng=egDIRRRREPNBf2NBNNNNFIj _______________",
"________________sZHSNBSg$lFIWWEEEQRLBzfizBNNbDWv _______________",
"_______________ mQVbNNBzehP~EEEEEEEEKDb*gVNNnFEx _______________",
"_______________ vEZNNNNBb=M~EEEEEEEEELc,gVnNnFWv _______________",
"_______________ xESbNNBVB1lPWEEEEEEEQPz,hFNNnBFsX_______________",
"_______________ xEFmNNBbg<0bPREEEEERWPc,rzNNNNnyO_______________",
"_______________ xWSnNnVlX__5bPEEEEEEEKb5.eBNNNBao_______________",
"_______________ mQVbNNVz$___5bPQWEWWFBba>rBBNNBio_______________",
"________________imKGNBle_____0bKKKKKDBBcw1pnBNSso_______________",
"_________________=RIbNr _____ ybllllczcDa.*xSNce________________",
"_________________3ILNNuo_____*wp1=>,=$9naO,cSc1_________________",
"__________________iNDBe ______,0y9$____e9#%zDn<_________________",
"___________________wcBxr_______,r0=____X#8sNns1_________________",
"____________________2bBz*_______*:,_____ouNBa __________________",
"_____________________992:_______________><992___________________",
"________________________________________________________________",
"________________________________________________________________",
"________________________________________________________________",
"________________________________________________________________",
"________________________________________________________________",
"________________________________________________________________"
};
