/* XPM */
static char *result[] = {
/* columns rows colors chars-per-pixel */
"64 42 109 2 ",
"   c #000001",
".  c #00000B",
"X  c #010015",
"o  c #03001B",
"O  c #0B001C",
"+  c #00002C",
"@  c #100720",
"#  c #140D24",
"$  c #161125",
"%  c #181527",
"&  c #1A1529",
"*  c #1E1C2E",
"=  c #000938",
"-  c #03143C",
";  c #15183C",
":  c #201E2F",
">  c #211F30",
",  c #232233",
"<  c #2B2A35",
"1  c #272638",
"2  c #282639",
"3  c #2C2B3C",
"4  c #31323F",
"5  c #2D2C42",
"6  c #2B2C49",
"7  c #312F43",
"8  c #2D334E",
"9  c #343445",
"0  c #363845",
"q  c #393B47",
"w  c #37364B",
"e  c #38364A",
"r  c #363849",
"t  c #3A3A4C",
"y  c #3D3C52",
"u  c #413E53",
"i  c #3F414E",
"p  c #3F4152",
"a  c #40424E",
"s  c #424354",
"d  c #464A55",
"f  c #4A4E56",
"g  c #454459",
"h  c #48475B",
"j  c #46495A",
"k  c #4A4B5D",
"l  c #4D515D",
"z  c #58565B",
"x  c #4D4E61",
"c  c #4E5163",
"v  c #515464",
"b  c #555A65",
"n  c #5E5D62",
"m  c #535669",
"M  c #56596C",
"N  c #595D6D",
"B  c #5A5E71",
"V  c #5E636E",
"C  c #5D6274",
"Z  c #5F6478",
"A  c #62656C",
"S  c #616574",
"D  c #646A76",
"F  c #686F77",
"G  c #62677A",
"H  c #656A7D",
"J  c #696E7C",
"K  c #706E74",
"L  c #6B717D",
"P  c #676D80",
"I  c #696E81",
"U  c #6E7483",
"Y  c #717684",
"T  c #737A85",
"R  c #7F7F81",
"E  c #707788",
"W  c #757C8A",
"Q  c #787F8B",
"!  c #7A818E",
"~  c #7D8592",
"^  c #848386",
"/  c #8D8C8E",
"(  c #808793",
")  c #828996",
"_  c #858D99",
"`  c #87909C",
"'  c #89919D",
"]  c #9A9A9C",
"[  c #8D95A1",
"{  c #8F99A3",
"}  c #929BA5",
"|  c #9F9FA2",
" . c #959EA8",
".. c #96A0A8",
"X. c #9AA5AD",
"o. c #9DA7B1",
"O. c #9FA9B3",
"+. c #A1ACB4",
"@. c #A5B0B9",
"#. c #A9B4BD",
"$. c #B5B4B5",
"%. c #ACB7C0",
"&. c #AEB9C2",
"*. c #B2BEC6",
"=. c #D2D1D2",
"-. c #DBDADB",
";. c #F4F4F4",
":. c #FBFBFB",
">. c None",
/* pixels */
">.>.>.>.>.>.>.>.>.>.>.>.>.>.>.>.>.>.>.>.>.>.>.>.>.>.>.>.>.>.>.>.>.>.>.>.>.>.>.>.>.>.>.>.>.>.>.>.>.>.>.>.>.>.>.>.>.>.>.>.>.>.>.>.",
">.>.>.>.>.>.>.>.>.>.>.>.>.>.>.>.>.>.>.>.>.>.>.>.>.>.>.>.>.>.>.>.>.>.>.>.>.>.>.>.>.>.>.>.>.>.>.>.>.>.>.>.>.>.>.>.>.>.>.>.>.>.>.>.",
">.>.>.>.>.>.>.>.>.>.>.>.>.>.>.>.>.>.>.>.>.>.>.>.>.>.>.>.>.>.>.>.>.>.>.>.>.>.>.>.>.>.>.>.>.>.>.>.>.>.>.>.>.>.>.>.>.>.>.>.>.>.>.>.",
">.>.>.>.>.>.>.>.>.>.>.>.>.>.>.>.>.>.>.>.>.>.>.>.>.>.>.>.>.>.>.>.>.>.>.>.>.>.>.>.>.>.>.>.>.>.>.>.>.>.>.>.>.>.>.>.>.>.>.>.>.>.>.>.",
">.>.>.>.>.>.>.>.>.>.>.>.>.>.>.>.>.>.>.>.* O >.>.>.>.>.>.>.>.>.>.>.>.# > >.>.>.>.>.>.>.>.>.>.>.>.>.>.>.>.>.>.>.>.>.>.>.>.>.>.>.>.",
">.>.>.>.>.>.>.>.>.>.>.>.>.>.>.>.>.>.>.& 9 k r >.>.>.>.>.>.>.>.>.>.p j , >.>.>.>.>.>.>.>.>.>.>.>.>.>.>.>.>.>.>.>.>.>.>.>.>.>.>.>.",
">.>.>.>.>.>.>.>.>.>.>.>.>.>.>.>.>.>.>.X t H j o >.>.>.>.>.>.>.>.# B C > >.>.>.>.>.>.>.>.>.>.>.>.>.>.>.>.>.>.>.>.>.>.>.>.>.>.>.>.",
">.>.>.>.>.>.>.>.>.>.>.>.>.>.>.>.>.>.>.X t H d X >.X X o # $ >.>.X M C * >.>.>.>.>.>.>.>.>.>.$ O X X X O $ # >.>.>.>.>.>.>.>.>.>.",
">.>.>.>.>.>.>.>.>.>.>.>.>.>.>.>.>.>.>.# r m 7   < D W L v M s # k M c , >.>.>.>.>.>.>.>.  2 v P W T T G m M 4     >.>.>.>.>.>.>.",
">.>.>.>.>.>.>.>.>.>.>.>.>.>.>.>.>.>.>.>.1 t k d j ~ ` ~ H P N s H M 7 * >.>.>.>.>.>.>.q u g B W ( Q ( Y B C b b l >.>.>.>.>.>.>.",
">.>.>.>.>.>.>.>.>.>., > : , > , , >.>.>.>.& W ~ Z G G G G G G G H h O >.>.>.>.>.> * , B P C k h g k k h g g Q ' ~ a >.>.>.>.>.>.",
">.>.>.>.>.>.>.    0 C W ~ W C C l . X   d ! W J G G Z H P = . j G v 9 > >.>.>.  k Z B m h m Q Q Q Q Q Q Q Q G m C ! N   >.>.>.>.",
">.>.>.>.>.>.< A M x N Y W Y B B m k x r 9 C G G G G H C 8 | / o C Z c , >.>., d M B N u v Y ` ` _ ` ' ` ` ' Y B G W D t >.>.>.>.",
">.>.>.>.>.> v ) W N x x k k c x M H H g < n A G G G Z M n ;.-.  C P N * >.>.y G N x c k I _ ( ` ' _ _ _ _ _ ` ' ) m B B 9 >.>.>.",
">.>.>.>.  A ) v y B ) ( ( ( ( ) Y u h . L :.] + G H - ^ :.:.=.  B P M #   j Z s U _ ( _ J g u X.#.( ) _ _ _ ) ( ) ( G x C 0 >.>.",
">.>.>.O h C J U L Q ' ' _ _ ' _ ( T Q f z $.F 6 G H y A $.$./ 5 C H C c v c m U ( ' _ ' ( J Y Q [ @.[ ) ( ( o.#.#.#.~ s P C s $ ",
">.>.>.p B N B _ ' _ _ _ _ _ ) } ' ! ) N   + l J U H B s     ; M G G H H H G G _ _ _ _ _ ' ' ' V U +.' '  . .X.+.+.+.T e N H M $ ",
">.X u G h H _ _ _ ) _ _ _ _ ) #.X.u h < s _ _ _ ) P G G G G G G G G G G Z E _ _ _ _ _ ) _ _ _ ' T h Q +.*.*.F   : , , * * C M $ ",
"$ k B m  .#.*.%.*.+.~ ( ( [ %._ L Q e N T l ! Q l ! E G P P H H H H G G G H E _ ` _ _ _ _ _ _ ' Y k @. .A L f >.>.>.>.>.>.t t * ",
"& N C t ' ..} } }  .o.+.} )  .U L _ < J )   T L . ~ ~ C c c c c k C G G D Z H W ) _ _ _ _ _ ' ' W x ' Y     >.>.>.>.>.>.>.>.# , ",
"& v N &           A &.&.o.~ y W ' ) s D ! q ! T i ( W c > & * * # c H H G G G C ! ' _ _ _ _ ~ _ Y u o >.>.>.>.>.>.>.>.>.>.>.>.>.",
"> 3 4 >.>.>.>.>.>.>.f 0 { #.x Y ' _ ) N i ( ' _ _ ' D & u u s y t N H G G G G G ! _ _ _ [ ( s 0 9 2 , : >.>.>.>.>.>.>.>.>.>.>.>.",
">.>.>.>.>.>.>.>.>.>.>.>.D ! k Q { ' ' ! V V b n V V g w B M M M M C Z G G H C s W { ' J S b >.>.>.>.>.>.>.>.>.>.>.>.>.>.>.>.>.>.",
">.>.>.>.>.>.>.>.>.>.>.>.>.  t J ! ! _ [ ~ d i 4 . o y B U U E E U U P G Z H C # V ~ W 0     >.>.>.>.>.>.>.>.>.>.>.>.>.>.>.>.>.>.",
">.>.>.>.>.>.>.>.>.>.>.>.>., > > $ 3 ! ' _ _ ' L # y M U _ _ _ ~ ) _ ~ G G G C 3 & , : >.>.>.>.>.>.>.>.>.>.>.>.>.>.>.>.>.>.>.>.>.",
">.>.>.>.>.>.>.>.>.>.>.>.>.>.>.>.>.>.d l V ' } T & N E ) _ _ _ [ _ _ ) ~ P G C 3 X >.>.>.>.>.>.>.>.>.>.>.>.>.>.>.>.>.>.>.>.>.>.>.",
">.>.>.>.>.>.>.>.>.>.>.>.>.>.>.>.>.>.>.  9 L T N > h W [ ` _ _ _ _ _ _ ' ! P B 3 >.>.>.>.>.>.>.>.>.>.>.>.>.>.>.>.>.>.>.>.>.>.>.>.",
">.>.>.>.>.>.>.>.>.>.>.>.>.>.>.>.>.>.>.>.>.X X # *   D _ ~ _ _ _ _ _ _ _ ' ~ B 5 >.>.>.>.>.>.>.>.>.>.>.>.>.>.>.>.>.>.>.>.>.>.>.>.",
">.>.>.>.>.>.>.>.>.>.>.>.>.>.>.>.>.>.>.>.>.>.>.>.>.@ m W _ _ _ _ _ _ _ _ ` Q B 3 >.>.>.>.>.>.>.>.>.>.>.>.>.>.>.>.>.>.>.>.>.>.>.>.",
">.>.>.>.>.>.>.>.>.>.>.>.>.>.>.>.>.>.>.>.>.>.>.>.>.>.7 B W _ [ ~ _ _ _ _ ' ~ B 2 >.>.>.>.>.>.>.>.>.>.>.>.>.>.>.>.>.>.>.>.>.>.>.>.",
">.>.>.>.>.>.>.>.>.>.>.>.>.>.>.>.>.>.>.>.>.>.>.>.>.>.>.3 m W _ _ _ _ _ _ ( W B r > >.>.>.>.>.>.>.>.>.>.>.>.>.>.>.>.>.>.>.>.>.>.>.",
">.>.>.>.>.>.>.>.>.>.>.>.>.>.>.>.>.>.>.>.>.>.>.>.>.>.>.>.* m E [ _ _ ` _ I G B x 9 % >.>.>.>.>.>.>.>.>.>.>.>.>.>.>.>.>.>.>.>.>.>.",
">.>.>.>.>.>.>.>.>.>.>.>.>.>.>.>.>.>.>.>.>.>.>.>.>.>.>.>.>.3 N E U E E U P H H Z s X >.>.>.>.>.>.>.>.>.>.>.>.>.>.>.>.>.>.>.>.>.>.",
">.>.>.>.>.>.>.>.>.>.>.>.>.>.>.>.>.>.>.>.>.>.>.>.>.>.>.>.>.. y M x k x c m c M H v , >.>.>.>.>.>.>.>.>.>.>.>.>.>.>.>.>.>.>.>.>.>.",
">.>.>.>.>.>.>.>.>.>.>.>.>.>.>.>.>.>.>.>.>.>.>.>.>.>.>.>.>.& 9 u , & # # $ X 3 B N s : >.>.>.>.>.>.>.>.>.>.>.>.>.>.>.>.>.>.>.>.>.",
">.>.>.>.>.>.>.>.>.>.>.>.>.>.>.>.>.>.>.>.>.>.>.>.>.>.>.>.>.>.> 7 g e % >.>.>.>.1 B B * >.>.>.>.>.>.>.>.>.>.>.>.>.>.>.>.>.>.>.>.>.",
">.>.>.>.>.>.>.>.>.>.>.>.>.>.>.>.>.>.>.>.>.>.>.>.>.>.>.>.>.>.>.> 9 9 * >.>.>.>.>.s h , >.>.>.>.>.>.>.>.>.>.>.>.>.>.>.>.>.>.>.>.>.",
">.>.>.>.>.>.>.>.>.>.>.>.>.>.>.>.>.>.>.>.>.>.>.>.>.>.>.>.>.>.>.>.& * > >.>.>.>.>.>.# > >.>.>.>.>.>.>.>.>.>.>.>.>.>.>.>.>.>.>.>.>.",
">.>.>.>.>.>.>.>.>.>.>.>.>.>.>.>.>.>.>.>.>.>.>.>.>.>.>.>.>.>.>.>.>.>.>.>.>.>.>.>.>.>.>.>.>.>.>.>.>.>.>.>.>.>.>.>.>.>.>.>.>.>.>.>.",
">.>.>.>.>.>.>.>.>.>.>.>.>.>.>.>.>.>.>.>.>.>.>.>.>.>.>.>.>.>.>.>.>.>.>.>.>.>.>.>.>.>.>.>.>.>.>.>.>.>.>.>.>.>.>.>.>.>.>.>.>.>.>.>.",
">.>.>.>.>.>.>.>.>.>.>.>.>.>.>.>.>.>.>.>.>.>.>.>.>.>.>.>.>.>.>.>.>.>.>.>.>.>.>.>.>.>.>.>.>.>.>.>.>.>.>.>.>.>.>.>.>.>.>.>.>.>.>.>.",
">.>.>.>.>.>.>.>.>.>.>.>.>.>.>.>.>.>.>.>.>.>.>.>.>.>.>.>.>.>.>.>.>.>.>.>.>.>.>.>.>.>.>.>.>.>.>.>.>.>.>.>.>.>.>.>.>.>.>.>.>.>.>.>."
};
