/* XPM */
static char *result[] = {
/* columns rows colors chars-per-pixel */
"64 64 202 2 ",
"   c #003A00",
".  c #002812",
"X  c #00002E",
"o  c #000D2D",
"O  c #00152D",
"+  c #001C2D",
"@  c #001826",
"#  c #000032",
"$  c #090032",
"%  c #1D0033",
"&  c #190731",
"*  c #0E1A31",
"=  c #210033",
"-  c #271B33",
";  c #391134",
":  c #03282D",
">  c #01312D",
",  c #06392A",
"<  c #1B342D",
"1  c #183A2D",
"2  c #0F3132",
"3  c #223A2D",
"4  c #342733",
"5  c #213931",
"6  c #2A2E31",
"7  c #450000",
"8  c #4F0000",
"9  c #520000",
"0  c #430536",
"q  c #56003A",
"w  c #481E36",
"e  c #5B1C3A",
"r  c #650027",
"t  c #660037",
"y  c #6B0239",
"u  c #680037",
"i  c #730038",
"p  c #750B38",
"a  c #6B1D3A",
"s  c #711F36",
"d  c #572335",
"f  c #4B2232",
"g  c #692637",
"h  c #732C37",
"j  c #78283C",
"k  c #7D303C",
"l  c #77303D",
"z  c #005500",
"x  c #005900",
"c  c #006400",
"v  c #006C00",
"b  c #00651F",
"n  c #09691F",
"m  c #166B1E",
"M  c #037617",
"N  c #187B17",
"B  c #007000",
"V  c #257A19",
"C  c #387F1A",
"Z  c #004728",
"A  c #1D442B",
"S  c #005529",
"D  c #0A5729",
"F  c #1D5328",
"G  c #22432C",
"H  c #264A2D",
"J  c #3B452F",
"K  c #3C4D2E",
"L  c #354B2D",
"P  c #2D5727",
"I  c #3D522D",
"U  c #365A2A",
"Y  c #254B31",
"T  c #2A5133",
"R  c #265033",
"E  c #3B5632",
"W  c #345533",
"Q  c #196724",
"!  c #006420",
"~  c #266D20",
"^  c #2E6D27",
"/  c #2C6C28",
"(  c #29642B",
")  c #3D7825",
"_  c #445B2C",
"`  c #435A31",
"'  c #415731",
"]  c #525C37",
"[  c #496B2D",
"{  c #486133",
"}  c #5A6E38",
"|  c #556736",
" . c #53792B",
".. c #7A1A45",
"X. c #661F40",
"o. c #1C4D4D",
"O. c #6A7A7D",
"+. c #B51A39",
"@. c #B91B39",
"#. c #B61737",
"$. c #86333F",
"%. c #8D2E3C",
"&. c #A5273F",
"*. c #851948",
"=. c #961C49",
"-. c #9D174C",
";. c #A31C4C",
":. c #AA1F4C",
">. c #912B44",
",. c #A92749",
"<. c #B62944",
"1. c #BA2C44",
"2. c #B32A4D",
"3. c #B82647",
"4. c #BC3F42",
"5. c #C52D49",
"6. c #CA2E4A",
"7. c #C42D45",
"8. c #CD3148",
"9. c #CC3A46",
"0. c #D3324A",
"q. c #DC394B",
"w. c #D22F49",
"e. c #E23A4D",
"r. c #C84144",
"t. c #D34546",
"y. c #DD434C",
"u. c #DA4649",
"i. c #E1464D",
"p. c #E6494B",
"a. c #F24B4E",
"s. c #2C8400",
"d. c #258603",
"f. c #328A00",
"g. c #2B9200",
"h. c #3B9307",
"j. c #278216",
"k. c #358317",
"l. c #338910",
"z. c #3A8A11",
"x. c #368419",
"c. c #3C8618",
"v. c #42930B",
"b. c #439607",
"n. c #529A0D",
"m. c #5F9C0C",
"M. c #458C15",
"N. c #4C9213",
"B. c #5D941B",
"V. c #5A9818",
"C. c #659700",
"Z. c #669900",
"A. c #628C1E",
"S. c #6B9D16",
"D. c #67971F",
"F. c #69971F",
"G. c #669B1B",
"H. c #6A9D1C",
"J. c #659A15",
"K. c #709F1C",
"L. c #6EA11A",
"P. c #6FA517",
"I. c #73A21D",
"U. c #7AA51E",
"Y. c #79AA1A",
"T. c #77A81A",
"R. c #5E8C23",
"E. c #5D8326",
"W. c #638B23",
"Q. c #669421",
"!. c #6A9522",
"~. c #6C9921",
"^. c #73A121",
"/. c #78A622",
"(. c #7FAB28",
"). c #7CAA25",
"_. c #388045",
"`. c #76877E",
"'. c #75927C",
"]. c #80AD27",
"[. c #84B228",
"{. c #8BB433",
"}. c #93BD36",
"|. c #95B93F",
" X c #9CC53D",
".X c #9FC83E",
"XX c #A1C93F",
"oX c #96B940",
"OX c #A5CD42",
"+X c #A8CF44",
"@X c #AAD344",
"#X c #7A868A",
"$X c #808B8E",
"%X c #819689",
"&X c #86988E",
"*X c #D7DBD8",
"=X c #EFEFF0",
"-X c #EFF2F0",
";X c #F1F2F2",
":X c #F7F6F8",
">X c #F8F9F8",
",X c None",
/* pixels */
",X,X,X,X,X,X,X,X,X,X,X,X,X,X,X,X,X,X,X,X,X,X,X,X,X,X,X,X,X,X,X,X,X,X,X,X,X,X,X,X,X,X,X,X,X,X,X,X,X,X,X,X,X,X,X,X,X,X,X,X,X,X,X,X",
",X,X,X,X,X,X,X,X,X,X,X,X,X,X,X,X,X,X,X,X,X,X,X,X,X,X,X,X,X,X,X,X,X,X,X,X,X,X,X,X,X,X,X,X,X,X,X,X,X,X,X,X,X,X,X,X,X,X,X,X,X,X,X,X",
",X,X,X,X,X,X,X,X,X,X,X,X,X,X,X,X,X,X,X,X,X,X,X,X,X,X,X,X,X,X,X,X,X,X,X,X,X,X,X,X,X,X,X,X,X,X,X,X,X,X,X,X,X,X,X,X,X,X,X,X,X,X,X,X",
",X,X,X,X,X,X,X,X,X,X,X,X,X,X,X,X,X,X,X,X,X,X,X,X,X,X,X,X,X,X,X,X,X,X,X,X,X,X,X,X,X,X,X,X,X,X,X,X,X,X,X,X,X,X,X,X,X,X,X,X,X,X,X,X",
",X,X,X,X,X,X,X,X,X,X,X,X,X,X,X,X,X,X,X,X,X,X,X,X,X,X,X,X,X,X,X,X,X,X,X,X,X,X,X,X,X,X,X,X,X,X,X,X,X,X,X,X,X,X,X,X,X,X,X,X,X,X,X,X",
",X,X,X,X,X,X,X,X,X,X,X,X,X,X,X,X,X,X,X,X,X,X,X,X,X,X,X,X,X,X,X,X,X,X,X,X,X,X,X,X,X,X,X,X,X,X,X,X,X,X,X,X,X,X,X,X,X,X,X,X,X,X,X,X",
",X,X,X,X,X,X,X,X,X,X,X,X,X,X,X,X,X,X,X,X,X,X,X,X,X,X,X,X,X,X,X,X,X,X,X,X,X,X,X,X,X,X,X,X,X,X,X,X,X,X,X,X,X,X,X,X,X,X,X,X,X,X,X,X",
",X,X,X,X,X,X,X,X,X,X,X,X,X,X,X,X,X,X,X,X,X,X,X,X,X,X,X,X,X,X,X,X,X,X,X,X,X,X,X,X,X,X,X,X,X,X,X,X,X,X,X,X,X,X,X,X,X,X,X,X,X,X,X,X",
",X,X,X,X,X,X,X,X,X,X,X,X,X,X,X,X,X,X,X,X,X,X,X,X,X,X,X,X,X,X,X,X,X,X,X,X,X,X,X,X,X,X,X,X,X,X,X,X,X,X,X,X,X,X,X,X,X,X,X,X,X,X,X,X",
",X,X,X,X,X,X,X,X,X,X,X,X,X,X,X,X,X,X,X,X,X,X,X,X,X,X,X,X,X,X,X,X,X,X,X,X,X,X,X,X,X,X,X,X,X,X,X,X,X,X,X,X,X,X,X,X,X,X,X,X,X,X,X,X",
",X,X,X,X,X,X,X,X,X,X,X,X,X,X,X,X,X,X,X,X,X,X,X,X,X,X,X,X,X,X,X,X,X,X,X,X,X,X,X,X,X,X,X,X,X,X,X,X,X,X,X,X,X,X,X,X,X,X,X,X,X,X,X,X",
",X,X,X,X,X,X,X,X,X,X,X,X,X,X,X,X,X,X,X,X,X,X,X,X,X,X,X,X,X,X,X,X,X,X,X,X,X,X,X,X,X,X,X,X,X,X,X,X,X,X,X,X,X,X,X,X,X,X,X,X,X,X,X,X",
",X,X,X,X,X,X,X,X,X,X,X,X,X,X,X,X,X,X,X,X,X,X,X,X,X,X,X,X,X,X,X,X,X,X,X,X,X,X,X,X,X,X,X,X,X,X,X,X,X,X,X,X,X,X,X,X,X,X,X,X,X,X,X,X",
",X,X,X,X,X,X,X,X,X,X,X,X,X,X,X,X,X,X,X,X,X,X,X,X,X,X,X,X,X,X,X,X,X,X,X,X,X,X,X,X,X,X,X,X,X,X,X,X,X,X,X,X,X,X,X,X,X,X,X,X,X,X,X,X",
",X,X,X,X,X,X,X,X,X,X,X,X,X,X,X,X,X,X,X,X,X,X,X,X,X,X,X,X,X,X,X,X,X,X,X,X,X,X,X,X,X,X,X,X,X,X,X,X,X,X,X,X,X,X,X,X,X,X,X,X,X,X,X,X",
",X,X,X,X,X,X,X,X,X,X,X,X,X,X,X,X,X,X,X,X,X,X,X,X,X,X,X,X,X,X,X,X,X,X,X,X,X,X,X,X,X,X,X,X,X,X,X,X,X,X,X,X,X,X,X,X,X,X,X,X,X,X,X,X",
",X,X,X,X,X,X,X,X+ O O O O + ,X,X,X,X,X,X# # # # # # # # # # # # # # ,X,X,X,X,X,X# # # # # # # # # # ,X,X,X,X,X,X,X,X,X,X,X,X,X,X",
",X,X,X,X,X,X,X,Xh >.k k $.h ,X,X,X,X,X,XI { ` ` ` ` ` ` ` ` ` ` { I ,X,X,X,X,X,XI { ` ` ` ` ` { { I ,X,X,X,X,X,X,X,X,X,X,X,X,X,X",
",X,X,X,X,X,XO h 4.u.t.t.u.&.h @ ,X,Xo I W.^.~.~.~.~.~.F.F.F.~.~.^.W.E # ,X,X# E W.I.~.~.F.~.~.~.^.W.I # ,X,X,X,X,X,X,X,X,X,X,X,X",
",X,X,X,X,X,X+ >.u.a.p.p.a.t.>.- ,X,X# W R.H.D.~.F.F.F.F.F.D.F.F.F.R.E # ,X,X# E R.H.F.D.F.F.!.!.H.R.W # ,X,X,X,X,X,X,X,X,X,X,X,X",
",X,X,X,X,X,X+ j 9.q.q.q.q.8.2...w + O > Z S S S S S S S S S S D D S > o + + o > S S S S S S S S S S > X ,X,X,X,X,X,X,X,X,X,X,X,X",
",X,X,X,X,X,X+ g ,.7.<.<.5.3.;.*.a e g g p i i i i i u u i i u t u t a g g g g a u u i i u y i i i p k h ,X,X,X,X,X,X,X,X,X,X,X,X",
",X,X,X,X,X,X,X,Xw d d ..,.-.g e ..,.3.7.9.t.t.t.t.9.1.1.r.t.1.<.<.<.1.1.1.1.<.<.<.1.t.9.1.1.9.t.t.t.i.r.h O ,X,X,X,X,X,X,X,X,X,X",
",X,X,X,X,X,X,X,Xd d 4 w ....- - ..-.3.9.u.i.i.i.i.i.0.0.y.y.0.w.w.0.0.0.0.0.0.0.w.q.y.y.0.0.y.i.i.y.i.r.l + ,X,X,X,X,X,X,X,X,X,X",
",X,X,X,X,X,X+ g &.3.=...e 4 + + 4 w f j ,.,.,.2.,.2.8.8.2.2.5.w.6.8.8.8.8.8.8.8.8.5.2.2.6.8.3.2.,.,.$.d 4 * ,X,X,X,X,X,X,X,X,X,X",
",X,X,X,X,X,X+ j 9.q.3.=.w @ w e w w f s -.:.;.;.-.:.5.6.:.:.5.0.w.8.8.8.8.8.8.w.0.6.:.:.6.5.,.-.;.=.a 4 4 * ,X,X,X,X,X,X,X,X,X,X",
",X,X,X,X,X,X+ k 9.i.0.,.d - *.=.*.;.3.5.6.6.6.6.6.6.0.0.6.6.0.0.0.0.0.0.0.0.w.w.0.w.6.6.0.0.6.6.6.6.6.<.g + ,X,X,X,X,X,X,X,X,X,X",
",X,X,X,X,X,XO k t.a.q.1.g - *.-.=.=.3.7.1.<.7.1.3.#.+.+.@.+.#.#.#.+.<.<.1.<.<.<.+.#.@.@.#.+.#.@.#.@.7.,.g O ,X,X,X,X,X,X,X,X,X,X",
",X,X,X,X,X,XO k t.p.q.1.g O 0 q q q u y y y a r 9 7 7 7 7 7 7 7 7 9 r a y u s r 8 7 7 7 7 7 7 7 7 9 r a 0 # ,X,X,X,X,X,X,X,X,X,X",
",X,X,X,X,X,XO k u.p.7.&.e : Z Z Z Z Z Z Z , . o.O.#X#X#X#X#X#X#X#XO.o.. , Z . o.O.$X#X#X#X#X#X#X$XO.o.. Z H ,X,X,X,X,X,X,X,X,X,X",
",X,X,X,X,X,XO $.u.i.%.w = , n M M M M M M B   `.*X:X;X-X=X=X=X;X>X*X`.  B v   `.*X:X;X=X=X=X-X;X:X*X#X  B m G = ,X,X,X,X,X,X,X,X",
",X,X,X,X,X,XO h r.r.g : 2 P c.b.v.v.M.v.b.s.c '.*X>X;X;X;X-X-X;X>X*X'.x f.f.c '.*X>X;X-X-X;X-X;X>X*X'.c f.M.T % ,X,X,X,X,X,X,X,X",
",X,X,X,X,X,X,X,Xh j ; , b k.B.L.H.F.G.H.H.V.d._.'.&X%X%X%X%X%X%X&X'._.d.V.V.d.) '.&X%X%X%X%X%X%X&X'._.d.J.D.E $ ,X,X,X,X,X,X,X,X",
",X,X,X,X,X,X,X,XO o # H k.n.L.^.T.T.I.I.T.H.V.s.c z x x x x x x z v s.V.I.I.V.j.c z x x x x x x z c s.V.^.!.' # ,X,X,X,X,X,X,X,X",
",X,X,X,X,X,X,X,X,X,XX I R.P.I.I.K.I.I.^.K.I.L.S.Z.C.Z.Z.C.C.Z.Z.C.Z.S.L.T.T.L.L.Z.C.Z.Z.C.Z.C.Z.C.Z.J.H.T.!.' # ,X,X,X,X,X,X,X,X",
",X,X,X,X,X,X,X,X,X,X# ` !.U.I.I.K.I.K.I.T.~.~.!.~.F.F.F.F.F.F.H.!.~.~.Q.Q.Q.!.!.~.D.~.H.F.F.F.F.D.~.^.T.T.!.' # ,X,X,X,X,X,X,X,X",
",X,X,X,X,X,X,X,X,X,X# ` !.T.^.^.I.H.I.I.Y.~. .Q / / / / / / / ^ ^ ^ / / / / / / ^ ^ ^ ^ / / / / Q  .~.T.T.Q.' # ,X,X,X,X,X,X,X,X",
",X,X,X,X,X,X,X,X,X,X# ' !.I.I.L.^.I.I.I.L.B.) Q / / / / / / / / / / / / / / / / / / / / / / / / Q ) B.P.I.!.` # ,X,X,X,X,X,X,X,X",
",X,X,X,X,X,X,X,X,X,X# ' !.T.^.L.K.I.I.F.M.z.B.Q.D.D.D.D.Q.Q.~.Q.~.!.Q.Q.!.B.!.~.Q.!.!.D.D.D.Q.Q.!.B.c.N.L.!.` # ,X,X,X,X,X,X,X,X",
",X,X,X,X,X,X,X,X,X,X# ` !.T.I.I.^.I.T.G.M.M.H.T.I.I.U.I.T.I.L.H.L.L.L.L.L.L.L.L.L.S.L.L.I.I.T.U.U.L.M.M.P.!.` # ,X,X,X,X,X,X,X,X",
",X,X,X,X,X,X,X,X,X,X# ` ~.Y./.I.I.I.I.H.H.F.I.I.I.I.I.I.^.H.N.l.l.z.z.z.z.z.z.z.z.z.l.N.S.^.I.I.I.I.H.L.Y.~.` # ,X,X,X,X,X,X,X,X",
",X,X,X,X,X,X,X,X,X,X# K W.~.G.L.H.I.I.I.T.^.I.I.^.K.I.K.I.H.N.l.l.z.z.z.z.z.z.z.z.l.l.M.H.I.I.I.I.^.L.H.~.E.I # ,X,X,X,X,X,X,X,X",
",X,X,X,X,X,X,X,X,X,X,X,XJ [ c.n.L.U.I.I.I.I.I.I.I.I.K.I.I.K.H.G.G.D.G.G.G.G.G.G.G.G.J.G.K.I.I.U.U.H.n.c.[ J ,X,X,X,X,X,X,X,X,X,X",
",X,X,X,X,X,X,X,X,X,X,X,X# : ! x.B.L.H.H.H.I.I.H.K.I.I.I.I.I.I.I.I.T.T.I.U.I.U.U.U.I.U.I.I.K.H.G.L.B.x.! > # ,X,X,X,X,X,X,X,X,X,X",
",X,X,X,X,X,X,X,X,X,X,X,X,X,X< ( c.v.v.N.S.^.I.I.K.^.I.I.K.I.K.I.I.I.I.K.^.I.K.K.K.K.K.I.U.G.N.h.b.c.( < ,X,X,X,X,X,X,X,X,X,X,X,X",
",X,X,X,X,X,X,X,X,X,X,X,X,X,X= < Q M M c.D.T.I.I.I.I.K.K.K.I.K.K.K.L.K.^.K.K.K.K.I.K.K.K.I.F.C M M Q 5 = ,X,X,X,X,X,X,X,X,X,X,X,X",
",X,X,X,X,X,X,X,X,X,X,X,X,X,X$ $ : > + U W.T.I.I.K.K.K.H.S.S.S.S.S.S.S.S.S.H.S.H.S.H.S.K.T.W.U + A G - = ,X,X,X,X,X,X,X,X,X,X,X,X",
",X,X,X,X,X,X,X,X,X,X,X,X,X,XK ' K J 4 [ !.T.I.K.K.K.).].].].(.(.(.(.].(.].].].].].].].(.T.F.[ 4 = = G G ,X,X,X,X,X,X,X,X,X,X,X,X",
",X,X,X,X,X,X,X,X,X,X,X,X# J E.!.D.W.!.~.I.T.I.K.J.U.}. X X X X X X X X X X X X X X XXX}./.S.H. .J 2 V ~ 3 = ,X,X,X,X,X,X,X,X,X,X",
",X,X,X,X,X,X,X,X,X,X,X,X> [ ~.Y.T.U.P.G.!.!.K.U.U.{.XX@X+X+XOX+XOX@XOX+XOX+XOX+X+X+X+XXX{.U.Y.D.K , j.j.( 3 ,X,X,X,X,X,X,X,X,X,X",
",X,X,X,X,X,X,X,X,X,X= A n M.L.).U.L.n.k.H _ A.].}.XXOXOXOX+XOXOXOXOXOXOXOXOXOXOXOXOX+XXXXX}.).D.K 2 V d.j.~ G = ,X,X,X,X,X,X,X,X",
",X,X,X,X,X,X,X,X,X,X= R N b.V.S.H.V.C b G _ A.[.XX+XOXOXOXOXXX+XOXOXXXOXOXOXOXOXOXOX+XXX+XXX[.A.J 2 V g.g.j.T % ,X,X,X,X,X,X,X,X",
",X,X,X,X,X,X,X,X,X,X% T j.g.h.M.h.k.F L E.F.G.(.XX+XOXOXOXOXOXXXOXOXOXXXOXOXXXOXOXOXOXOX@X.X[.A.J , V g.g.j.T = ,X,X,X,X,X,X,X,X",
",X,X,X,X,X,X,X,X,X,X= G ^ j.N N N Q , _ F.T.I.).}.OXOX@XOXOXOXOXOXOXOXOXOXOXOXOXOXOX+XXX X X).A.J 2 ~ V j.~ G = ,X,X,X,X,X,X,X,X",
",X,X,X,X,X,X,X,X,X,X,X,XG R Y G G F n M.G.U.I.I.^.{.XX@X@X@X@X@X@X@X@X@X@X@X@X@X@X@X@XXX{.U.U.W.I $ 3 R T G ,X,X,X,X,X,X,X,X,X,X",
",X,X,X,X,X,X,X,X,X,X,X,X= = % = % 3 N b.S.I.I.I.S.^.{.oX|.oX|.|.|.|.|.|.|.oX|.|.oXoXoX{.^.S.T.!._ X % = % = ,X,X,X,X,X,X,X,X,X,X",
",X,X,X,X,X,X,X,X,X,X,X,X,X,X,X,X= Y N b.L.T.^.I.I.!. .| } } } } } } } } } } } } | | ] } F.T.T.!.` # ,X,X,X,X,X,X,X,X,X,X,X,X,X,X",
",X,X,X,X,X,X,X,X,X,X,X,X,X,X,X,X= G Q c.B.L.L.T.Y.W.J # X X X X X X X X X X X X X X X P D.T.P.R.E $ ,X,X,X,X,X,X,X,X,X,X,X,X,X,X",
",X,X,X,X,X,X,X,X,X,X,X,X,X,X,X,X,X,X5 / x.n.P.U.Y.~.' # ,X,X,X,X,X,X,X,X,X,X,X,X& 1 ! M.H.I.n.x.T % ,X,X,X,X,X,X,X,X,X,X,X,X,X,X",
",X,X,X,X,X,X,X,X,X,X,X,X,X,X,X,X,X,X= < b x.R.!.~.E.K # ,X,X,X,X,X,X,X,X,X,X,X,X= Y N b.J.G.k.b 1 = ,X,X,X,X,X,X,X,X,X,X,X,X,X,X",
",X,X,X,X,X,X,X,X,X,X,X,X,X,X,X,X,X,X,X,XA T E ` { K ,X,X,X,X,X,X,X,X,X,X,X,X,X,X= Y V g.h.M./ < ,X,X,X,X,X,X,X,X,X,X,X,X,X,X,X,X",
",X,X,X,X,X,X,X,X,X,X,X,X,X,X,X,X,X,X,X,X= % $ # # # ,X,X,X,X,X,X,X,X,X,X,X,X,X,X% G ~ j.N Q 5 = ,X,X,X,X,X,X,X,X,X,X,X,X,X,X,X,X",
",X,X,X,X,X,X,X,X,X,X,X,X,X,X,X,X,X,X,X,X,X,X,X,X,X,X,X,X,X,X,X,X,X,X,X,X,X,X,X,X- < G H H A ,X,X,X,X,X,X,X,X,X,X,X,X,X,X,X,X,X,X",
",X,X,X,X,X,X,X,X,X,X,X,X,X,X,X,X,X,X,X,X,X,X,X,X,X,X,X,X,X,X,X,X,X,X,X,X,X,X,X,X- - = = = = ,X,X,X,X,X,X,X,X,X,X,X,X,X,X,X,X,X,X"
};
