/* XPM */
static char *result[] = {
/* columns rows colors chars-per-pixel */
"64 64 204 2 ",
"   c #003A00",
".  c #002812",
"X  c #00002E",
"o  c #000D2D",
"O  c #00152D",
"+  c #001C2D",
"@  c #001826",
"#  c #000032",
"$  c #090033",
"%  c #1D0034",
"&  c #180532",
"*  c #0E1A31",
"=  c #210033",
"-  c #271B33",
";  c #391134",
":  c #03282D",
">  c #01312D",
",  c #06392A",
"<  c #19352D",
"1  c #0F3132",
"2  c #223A2D",
"3  c #342733",
"4  c #213931",
"5  c #2A2E31",
"6  c #450000",
"7  c #4F0000",
"8  c #520000",
"9  c #430536",
"0  c #56003A",
"q  c #481E36",
"w  c #5B1C3A",
"e  c #650027",
"r  c #660037",
"t  c #6B0239",
"y  c #680037",
"u  c #730038",
"i  c #750B38",
"p  c #6B1D3A",
"a  c #711F36",
"s  c #572335",
"d  c #4B2232",
"f  c #692637",
"g  c #732C37",
"h  c #78283C",
"j  c #7D303C",
"k  c #77303D",
"l  c #005500",
"z  c #005900",
"x  c #006400",
"c  c #006C00",
"v  c #00651F",
"b  c #09691F",
"n  c #176C1E",
"m  c #037617",
"M  c #157719",
"N  c #197B18",
"B  c #007000",
"V  c #25791A",
"C  c #387F1A",
"Z  c #004728",
"A  c #1F422C",
"S  c #1A482A",
"D  c #005529",
"F  c #0A5729",
"G  c #1D4A2D",
"H  c #22442C",
"J  c #234A2E",
"K  c #2E4C2C",
"L  c #3B452F",
"P  c #3D4C2E",
"I  c #344A2E",
"U  c #2B5627",
"Y  c #3D522D",
"T  c #365A2A",
"R  c #244C31",
"E  c #284931",
"W  c #285133",
"Q  c #375533",
"!  c #3C4D30",
"~  c #196724",
"^  c #266D20",
"/  c #2E6D27",
"(  c #2C6C28",
")  c #28642A",
"_  c #3D7825",
"`  c #445B2C",
"'  c #435A31",
"]  c #415731",
"[  c #525C37",
"{  c #496B2C",
"}  c #486133",
"|  c #5A6E38",
" . c #556735",
".. c #53782C",
"X. c #7A1A45",
"o. c #661F40",
"O. c #1C4D4D",
"+. c #6A7A7D",
"@. c #B51A39",
"#. c #B91B39",
"$. c #B61737",
"%. c #86333F",
"&. c #8D2E3C",
"*. c #A5273F",
"=. c #851948",
"-. c #961C49",
";. c #9D174C",
":. c #A31C4C",
">. c #AA1F4C",
",. c #912B44",
"<. c #A92749",
"1. c #B62944",
"2. c #BA2C44",
"3. c #B32A4D",
"4. c #B82647",
"5. c #BC3F42",
"6. c #C52D49",
"7. c #CA2E4A",
"8. c #C42D45",
"9. c #CD3E45",
"0. c #CD3148",
"q. c #C93646",
"w. c #D3324A",
"e. c #DC394B",
"r. c #D22F49",
"t. c #E23A4D",
"y. c #C84144",
"u. c #D34546",
"i. c #DD434C",
"p. c #DA4649",
"a. c #E1464D",
"s. c #E6494B",
"d. c #F24B4E",
"f. c #2C8400",
"g. c #268604",
"h. c #348B04",
"j. c #2B9200",
"k. c #3B9208",
"l. c #278216",
"z. c #358317",
"x. c #338910",
"c. c #3A8A11",
"v. c #3C8519",
"b. c #3A8518",
"n. c #42930C",
"m. c #449706",
"M. c #549A0D",
"N. c #458C15",
"B. c #4C9213",
"V. c #5D941B",
"C. c #5A9818",
"Z. c #5D8D1B",
"A. c #659700",
"S. c #669900",
"D. c #628C1E",
"F. c #6C9D16",
"G. c #67971F",
"H. c #69971F",
"J. c #669B1B",
"K. c #6A9C1C",
"L. c #659A15",
"P. c #719F1D",
"I. c #6EA11A",
"U. c #6EA417",
"Y. c #73A21D",
"T. c #7AA61E",
"R. c #79AA1B",
"E. c #77A81A",
"W. c #5E8C23",
"Q. c #5D8226",
"!. c #638B23",
"~. c #669421",
"^. c #6A9522",
"/. c #6C9921",
"(. c #72A121",
"). c #7CAA24",
"_. c #7FAB28",
"`. c #78A622",
"'. c #388045",
"]. c #76877E",
"[. c #75927C",
"{. c #80AD27",
"}. c #86B42A",
"|. c #8BB334",
" X c #93BD36",
".X c #95B93F",
"XX c #9CC53D",
"oX c #9FC83E",
"OX c #A1C93F",
"+X c #96BA41",
"@X c #A5CD42",
"#X c #A8CF44",
"$X c #AAD344",
"%X c #7A868A",
"&X c #808B8E",
"*X c #819689",
"=X c #86988E",
"-X c #D7DBD8",
";X c #EFEFF0",
":X c #EFF2F0",
">X c #F1F2F2",
",X c #F7F6F8",
"<X c #F8F9F8",
"1X c None",
/* pixels */
"1X1X1X1X1X1X1X1X1X1X1X1X1X1X1X1X1X1X1X1X1X1X1X1X1X1X1X1X1X1X1X1X1X1X1X1X1X1X1X1X1X1X1X1X1X1X1X1X1X1X1X1X1X1X1X1X1X1X1X1X1X1X1X1X",
"1X1X1X1X1X1X1X1X1X1X1X1X1X1X1X1X1X1X1X1X1X1X1X1X1X1X1X1X1X1X1X1X1X1X1X1X1X1X1X1X1X1X1X1X1X1X1X1X1X1X1X1X1X1X1X1X1X1X1X1X1X1X1X1X",
"1X1X1X1X1X1X1X1X1X1X1X1X1X1X1X1X1X1X1X1X1X1X1X1X1X1X1X1X1X1X1X1X1X1X1X1X1X1X1X1X1X1X1X1X1X1X1X1X1X1X1X1X1X1X1X1X1X1X1X1X1X1X1X1X",
"1X1X1X1X1X1X1X1X1X1X1X1X1X1X1X1X1X1X1X1X1X1X1X1X1X1X1X1X1X1X1X1X1X1X1X1X1X1X1X1X1X1X1X1X1X1X1X1X1X1X1X1X1X1X1X1X1X1X1X1X1X1X1X1X",
"1X1X1X1X1X1X1X1X1X1X1X1X1X1X1X1X1X1X1X1X1X1X1X1X1X1X1X1X1X1X1X1X1X1X1X1X1X1X1X1X1X1X1X1X1X1X1X1X1X1X1X1X1X1X1X1X1X1X1X1X1X1X1X1X",
"1X1X1X1X1X1X1X1X1X1X1X1X1X1X1X1X1X1X1X1X1X1X1X1X1X1X1X1X1X1X1X1X1X1X1X1X1X1X1X1X1X1X1X1X1X1X1X1X1X1X1X1X1X1X1X1X1X1X1X1X1X1X1X1X",
"1X1X1X1X1X1X1X1X1X1X1X1X1X1X1X1X1X1X1X1X1X1X1X1X1X1X1X1X1X1X1X1X1X1X1X1X1X1X1X1X1X1X1X1X1X1X1X1X1X1X1X1X1X1X1X1X1X1X1X1X1X1X1X1X",
"1X1X1X1X1X1X1X1X1X1X1X1X1X1X1X1X1X1X1X1X1X1X1X1X1X1X1X1X1X1X1X1X1X1X1X1X1X1X1X1X1X1X1X1X1X1X1X1X1X1X1X1X1X1X1X1X1X1X1X1X1X1X1X1X",
"1X1X1X1X1X1X1X1X1X1X1X1X1X1X1X1X1X1X1X1X1X1X1X1X1X1X1X1X1X1X1X1X1X1X1X1X1X1X1X1X1X1X1X1X1X1X1X1X1X1X1X1X1X1X1X1X1X1X1X1X1X1X1X1X",
"1X1X1X1X1X1X1X1X1X1X1X1X1X1X1X1X1X1X1X1X1X1X1X1X1X1X1X1X1X1X1X1X1X1X1X1X1X1X1X1X1X1X1X1X1X1X1X1X1X1X1X1X1X1X1X1X1X1X1X1X1X1X1X1X",
"1X1X1X1X1X1X1X1X1X1X1X1X1X1X1X1X1X1X1X1X1X1X1X1X1X1X1X1X1X1X1X1X1X1X1X1X1X1X1X1X1X1X1X1X1X1X1X1X1X1X1X1X1X1X1X1X1X1X1X1X1X1X1X1X",
"1X1X1X1X1X1X1X1X1X1X1X1X1X1X1X1X1X1X1X1X1X1X1X1X1X1X1X1X1X1X1X1X1X1X1X1X1X1X1X1X1X1X1X1X1X1X1X1X1X1X1X1X1X1X1X1X1X1X1X1X1X1X1X1X",
"1X1X1X1X1X1X1X1X1X1X1X1X1X1X1X1X1X1X1X1X1X1X1X1X1X1X1X1X1X1X1X1X1X1X1X1X1X1X1X1X1X1X1X1X1X1X1X1X1X1X1X1X1X1X1X1X1X1X1X1X1X1X1X1X",
"1X1X1X1X1X1X1X1X1X1X1X1X1X1X1X1X1X1X1X1X1X1X1X1X1X1X1X1X1X1X1X1X1X1X1X1X1X1X1X1X1X1X1X1X1X1X1X1X1X1X1X1X1X1X1X1X1X1X1X1X1X1X1X1X",
"1X1X1X1X1X1X1X1X1X1X1X1X1X1X1X1X1X1X1X1X1X1X1X1X1X1X1X1X1X1X1X1X1X1X1X1X1X1X1X1X1X1X1X1X1X1X1X1X1X1X1X1X1X1X1X1X1X1X1X1X1X1X1X1X",
"1X1X1X1X1X1X1X1X1X1X1X1X1X1X1X1X1X1X1X1X1X1X1X1X1X1X1X1X1X1X1X1X1X1X1X1X1X1X1X1X1X1X1X1X1X1X1X1X1X1X1X1X1X1X1X1X1X1X1X1X1X1X1X1X",
"1X1X1X1X1X1X1X1XO O O O + O 1X1X1X1X1X1X# # # # # # # # # # # # # # 1X1X1X1X1X1X# # # # # # # # # # 1X1X1X1X1X1X1X1X1X1X1X1X1X1X",
"1X1X1X1X1X1X1X1Xg %.j j %.g 1X1X1X1X1X1XY } ' ' ' ' ' ' ' ' ' ' } Y 1X1X1X1X1X1XY } ' ' ' ' ' ' } Y 1X1X1X1X1X1X1X1X1X1X1X1X1X1X",
"1X1X1X1X1X1XO g 5.p.u.u.p.5.f @ 1X1X# Y !.(./././././.H.H./././.(.!.Y # 1X1X# ] !.(././././././.(.!.Y # 1X1X1X1X1X1X1X1X1X1X1X1X",
"1X1X1X1X1X1X+ ,.p.d.s.s.d.u.,.- 1X1X# Q W.K.G.H.G.H.H.G.H.G.H.H.K.W.Q # 1X1X# Q W.K.H.G.H.H.G.G.K.W.Q # 1X1X1X1X1X1X1X1X1X1X1X1X",
"1X1X1X1X1X1X+ h q.t.e.e.e.0.<.X.q + O > Z D D D D D D D D D D F F Z > O + + o > D D D D D D D D D D > X 1X1X1X1X1X1X1X1X1X1X1X1X",
"1X1X1X1X1X1X+ f <.2.1.1.2.4.<.=.p w f a i u u u u u y y u u y r t y p f f f f p r t u u t r u u u i j g 1X1X1X1X1X1X1X1X1X1X1X1X",
"1X1X1X1X1X1X1X1Xs s s X.:.<.p w X.<.4.q.9.u.u.u.u.9.2.2.9.y.2.4.4.1.1.2.2.2.2.1.4.2.u.9.2.2.9.u.u.u.a.y.g O 1X1X1X1X1X1X1X1X1X1X",
"1X1X1X1X1X1X1X1Xs s - q X.X.- - X.-.1.q.i.a.a.a.a.e.e.w.i.a.e.r.w.w.w.w.w.w.w.w.w.w.i.i.e.w.i.a.a.i.a.y.k + 1X1X1X1X1X1X1X1X1X1X",
"1X1X1X1X1X1X+ f *.4.-.X.w ; : : 3 q q h <.3.<.<.<.3.7.7.3.3.7.7.0.0.0.0.0.0.0.0.w.6.3.3.6.0.3.<.<.<.j s 3 * 1X1X1X1X1X1X1X1X1X1X",
"1X1X1X1X1X1X+ h q.e.4.-.q : q w q q q a ;.:.:.:.;.>.7.0.>.>.6.r.0.0.0.7.0.0.0.r.w.6.>.>.7.6.>.:.:.-.p q 3 * 1X1X1X1X1X1X1X1X1X1X",
"1X1X1X1X1X1X+ j u.a.w.<.w - =.-.-.-.2.7.7.7.7.7.7.7.w.w.7.7.r.w.w.w.w.r.w.w.r.w.w.r.7.7.w.w.7.7.0.6.6.<.f + 1X1X1X1X1X1X1X1X1X1X",
"1X1X1X1X1X1XO j u.d.e.2.f - X.;.-.;.4.8.2.2.8.2.#.@.@.@.#.@.@.@.$.@.1.2.1.1.1.1.@.$.#.#.@.$.@.#.#.#.8.1.f O 1X1X1X1X1X1X1X1X1X1X",
"1X1X1X1X1X1XO j u.s.e.2.f O 9 0 0 0 r t t t f e 8 6 6 6 6 6 6 6 6 8 e p u y p e 7 6 6 6 6 6 6 6 6 8 e p 9 # 1X1X1X1X1X1X1X1X1X1X",
"1X1X1X1X1X1XO j u.s.9.*.w : , Z Z Z , Z Z Z . O.+.%X%X%X%X%X%X%X%X+.O.. Z , . O.+.&X%X%X%X%X%X%X&X+.O.. Z H 1X1X1X1X1X1X1X1X1X1X",
"1X1X1X1X1X1XO %.a.s.&.9 = , b m m m m m m c   ].-X<X,X;X>X;X;X>X<X-X].  c c   ].-X,X>X;X;X;X:X>X<X-X%X  c n H = 1X1X1X1X1X1X1X1X",
"1X1X1X1X1X1XO g y.5.f : > T v.m.n.n.n.n.n.f.z [.-X<X:X:X:X:X:X>X<X-X[.x h.h.x [.-X<X>X:X:X>X:X>X<X-X[.x j.v.Q % 1X1X1X1X1X1X1X1X",
"1X1X1X1X1X1X1X1Xg h ; , v z.V.I.K.G.J.K.I.C.g.'.[.=X*X*X*X*X*X*X=X[.'.g.C.C.g.'.[.=X*X*X*X*X*X*X=X[.'.g.M.~.] $ 1X1X1X1X1X1X1X1X",
"1X1X1X1X1X1X1X1XO o # I z.M.I.(.E.E.Y.Y.E.(.B.f.x l l z z z z l l x f.C.Y.Y.C.f.x l l z z z z z l x f.C.`.^.] $ 1X1X1X1X1X1X1X1X",
"1X1X1X1X1X1X1X1X1X1X# Q W.U.Y.Y.P.Y.Y.Y.P.Y.I.F.S.A.S.A.S.S.S.A.A.S.F.U.E.E.I.F.S.A.S.S.A.S.S.S.S.S.L.K.Y.^.' # 1X1X1X1X1X1X1X1X",
"1X1X1X1X1X1X1X1X1X1X# ' ~.E.Y.Y.P.Y.Y.Y.Y././.^././.K.H.H.H./.K././.~.~.~.~.~././././.K.H.H.H.H.H.H.(.E.E.~.] # 1X1X1X1X1X1X1X1X",
"1X1X1X1X1X1X1X1X1X1X# ' ~.`.Y.(.Y.(.Y.Y.T./...~ ( / / / ( ( / / ( ( ( ( ( ( ( ( / / / / ( ( ( ( ~ ../.E.E.~.] # 1X1X1X1X1X1X1X1X",
"1X1X1X1X1X1X1X1X1X1X# ] ^.E.Y.I.Y.K.Y.Y.I.V._ ~ ) ( ( ( ( ( ( ( ( ( ( ( ( ( ( ( / ( ( ( ( ( ( ( ~ _ V.I.Y.^.' # 1X1X1X1X1X1X1X1X",
"1X1X1X1X1X1X1X1X1X1X# ] ^.Y.(.I.Y.Y.Y.H.N.c.V.~.~.~.G.V.~.~.~./././.~././.~./.~.~.~.^.~.G.G.~.~.~.V.v.B.I.^.' # 1X1X1X1X1X1X1X1X",
"1X1X1X1X1X1X1X1X1X1X# ' ^.E.E.Y.P.Y.E.J.N.N.I.T.E.(.E.E.E.Y.I.J.U.K.U.J.I.K.I.I.I.F.I.U.Y.Y.E.T.R.I.B.N.I.^.' # 1X1X1X1X1X1X1X1X",
"1X1X1X1X1X1X1X1X1X1X# ' /.R.`.I.Y.P.Y.Y.G.G.I.Y.Y.Y.Y.Y.(.K.B.c.c.c.c.c.c.c.c.c.c.c.x.B.K.Y.Y.Y.Y.I.I.I.R./.' # 1X1X1X1X1X1X1X1X",
"1X1X1X1X1X1X1X1X1X1X# Y !././.J.Y.(.Y.Y.E.Y.Y.Y.Y.Y.Y.Y.Y.K.N.x.x.c.c.c.c.c.c.c.c.x.x.B.K.Y.Y.Y.Y.(.I././.Q.Y # 1X1X1X1X1X1X1X1X",
"1X1X1X1X1X1X1X1X1X1X1X1XL { b.M.I.T.E.(.Y.Y.Y.Y.Y.K.P.Y.Y.K.K.L.J.G.L.L.J.J.J.J.J.J.L.L.P.Y.Y.T.`.F.M.v.{ L 1X1X1X1X1X1X1X1X1X1X",
"1X1X1X1X1X1X1X1X1X1X1X1X# : v b.V.K.L.K.K.(.I.Y.Y.P.Y.Y.Y.Y.Y.`.E.Y.T.(.T.P.T.T.T.P.`.(.Y.P.K.J.I.V.z.v > # 1X1X1X1X1X1X1X1X1X1X",
"1X1X1X1X1X1X1X1X1X1X1X1X1X1X< T v.m.k.M.F.(.Y.Y.Y.P.Y.Y.Y.Y.Y.Y.Y.Y.Y.Y.P.Y.P.P.P.P.P.T.P.H.B.k.n.N.) < 1X1X1X1X1X1X1X1X1X1X1X1X",
"1X1X1X1X1X1X1X1X1X1X1X1X1X1X% < n m v v.G.E.Y.Y.Y.Y.P.P.P.P.P.P.P.P.P.P.P.P.P.P.Y.P.P.P.T.J.C m m ~ 4 = 1X1X1X1X1X1X1X1X1X1X1X1X",
"1X1X1X1X1X1X1X1X1X1X1X1X1X1X$ $ : > O T ~.E.Y.P.P.P.F.K.F.F.F.F.F.F.F.K.F.K.F.K.F.K.F.F.E.!.T + A H - % 1X1X1X1X1X1X1X1X1X1X1X1X",
"1X1X1X1X1X1X1X1X1X1X1X1X1X1XP ] ] L 5  .~.E.(.P.P.Y._.{._._._._._._.{._.{.{.{.{.{.{.{.{.T.H.{ 3 = & H H 1X1X1X1X1X1X1X1X1X1X1X1X",
"1X1X1X1X1X1X1X1X1X1X1X1X# L Q./.~.!.^.H.Y.E.Y.P.F.`. XoXXXXXXXXXXXXXXXXXXXXXXXXXXXOXOX X`.L.H.Q.L 1 ^ ^ 2 = 1X1X1X1X1X1X1X1X1X1X",
"1X1X1X1X1X1X1X1X1X1X1X1X> { /.R.E.E.Y.K.~.~.F.E.`.|.OX#X#X$X@X#X#X@X#X#X@X@X#X#X@X#X#XOX|.).R.H.] 1 l.g.) 2 1X1X1X1X1X1X1X1X1X1X",
"1X1X1X1X1X1X1X1X1X1X= A b N.K.).T.Y.M.z.K ` D.{. XOX@X@X@X@X@X#X@X@X@XOX@X@X@X@X@X@X#XOXOX X{.D.L , V g.l.^ H = 1X1X1X1X1X1X1X1X",
"1X1X1X1X1X1X1X1X1X1X= W N m.C.F.F.C.z.v H ` D.}.oX#X@X@X@XOX@X@X@X@X@X@X@X@X@X@X@X@XOX@X$XOX{.D.L 1 V j.j.l.W = 1X1X1X1X1X1X1X1X",
"1X1X1X1X1X1X1X1X1X1X= W l.j.k.B.m.z.G K Q.H.J.{.oX#X#XOX@X@X@XOX@X@XOX@X@X@X@X@X@X@X@X@X$XoX{.D.L , V j.j.l.W = 1X1X1X1X1X1X1X1X",
"1X1X1X1X1X1X1X1X1X1X= H ( l.N M M M , ` H.R.P._. X@X#X$X@X@X$XOX@X@X@X@X@X@X@XOX@X@X@X@X@X X{.D.L 1 ^ l.V ^ H = 1X1X1X1X1X1X1X1X",
"1X1X1X1X1X1X1X1X1X1X1X1XH W R H A G ~ N.J.T.Y.(.`.|.OX$X$X$X$X$X$X$X$X$X$X$X$X#X$X$X$XOX|.R.T.!.Y $ 2 W W H 1X1X1X1X1X1X1X1X1X1X",
"1X1X1X1X1X1X1X1X1X1X1X1X= % = % % < M m.L.T.Y.K.D.^.|.+X.X.X.X.X.X.X.X.X.X.X.X.X+X+X+X|.(.F.E.^.] X = = = % 1X1X1X1X1X1X1X1X1X1X",
"1X1X1X1X1X1X1X1X1X1X1X1X1X1X1X1X= H M n.K.`.E./.{ !  .| | | | | | | | | | | | |  . .[ | H.R.E.~.' # 1X1X1X1X1X1X1X1X1X1X1X1X1X1X",
"1X1X1X1X1X1X1X1X1X1X1X1X1X1X1X1X= J M n.J.Y.U.W.I # # X X X X X X X X X X X X X # # X U Z.U.U.~.Q $ 1X1X1X1X1X1X1X1X1X1X1X1X1X1X",
"1X1X1X1X1X1X1X1X1X1X1X1X1X1X1X1X= R M n.I.Y.M.z.K & 1X1X1X1X1X1X1X1X1X1X1X1X1X1X% A ~ g.c.n.m.v.Q % 1X1X1X1X1X1X1X1X1X1X1X1X1X1X",
"1X1X1X1X1X1X1X1X1X1X1X1X1X1X1X1X= R N n.J.C.b.v < = 1X1X1X1X1X1X1X1X1X1X1X1X1X1X= J V l.N M N n A = 1X1X1X1X1X1X1X1X1X1X1X1X1X1X",
"1X1X1X1X1X1X1X1X1X1X1X1X1X1X1X1X= R V j.m.v.( < 1X1X1X1X1X1X1X1X1X1X1X1X1X1X1X1X1X1XH W J R R A 1X1X1X1X1X1X1X1X1X1X1X1X1X1X1X1X",
"1X1X1X1X1X1X1X1X1X1X1X1X1X1X1X1X= H ^ V N ~ 4 = 1X1X1X1X1X1X1X1X1X1X1X1X1X1X1X1X1X1X= = = = = = 1X1X1X1X1X1X1X1X1X1X1X1X1X1X1X1X",
"1X1X1X1X1X1X1X1X1X1X1X1X1X1X1X1X- < H J J A 1X1X1X1X1X1X1X1X1X1X1X1X1X1X1X1X1X1X1X1X1X1X1X1X1X1X1X1X1X1X1X1X1X1X1X1X1X1X1X1X1X1X",
"1X1X1X1X1X1X1X1X1X1X1X1X1X1X1X1X- - = = = % 1X1X1X1X1X1X1X1X1X1X1X1X1X1X1X1X1X1X1X1X1X1X1X1X1X1X1X1X1X1X1X1X1X1X1X1X1X1X1X1X1X1X"
};
