/* XPM */
static char *result[] = {
/* columns rows colors chars-per-pixel */
"64 64 32 1 ",
"  c black",
". c #140801",
"X c #270300",
"o c #341301",
"O c #571000",
"+ c #482503",
"@ c #472614",
"# c #5E3B18",
"$ c #623A14",
"% c #734B08",
"& c #785738",
"* c #676434",
"= c #414C55",
"- c #923000",
"; c #B34C00",
": c #82601A",
"> c #986B1A",
", c #AA7F32",
"< c #C47301",
"1 c #A98740",
"2 c #B39F59",
"3 c #A5A170",
"4 c #C8A360",
"5 c #CCB47C",
"6 c #718391",
"7 c #BDB983",
"8 c #EED297",
"9 c #DEDAA5",
"0 c #A0B2C0",
"q c #C7DCED",
"w c white",
"e c None",
/* pixels */
"eeeeeeeeeeeeeeeeeeeeeeeeeeeeeeeeeeeeeeeeeeeeeeeeeeeeeeeeeeeeeeee",
"eeeeeeeeeeeeeeeeeeeeeeeeeeeeeeeeeeeeeeeeeeeeeeeeeeeeeeeeeeeeeeee",
"eeeeeeeeeeeeeeeeeeeeeeeeeeeeeeeeeeeeeeeeeeeeeeeeeeeeeeeeeeeeeeee",
"eeeeeeeeeeeeeeeeeeeeeeeeeeeeeeeeeeeeeeeeeeeeeeeeeeeeeeeeeeeeeeee",
"eeeeeeeeeeeeeeeeeeeeeeeeeeeeeeeeeeeeeeeeeeeeeeeeeeeeeeeeeeeeeeee",
"eeeeeeeeeeeeeeeeeeeeeeee=eeeeeeeeeeeeeeeeeeeeeeeeeeeeeeeeeeeeeee",
"eeeeeeeeeeeeeeeeeeeeeee=q=eeeeeeeeeeeeeeeeeeeeeeeeeeeeeeeeeeeeee",
"eeeeeeeeeeeeeeeeeeeeeee=0q=eeeee*eee*eeeeeeeeeeeeeeeeeeeeeeeeeee",
"eeeeeeeeeeeeeeeeeeeeeee=60q=eee*eeeee*eeeeeeeeeeeeeeeeeeeeeeeeee",
"eeeeeeeeeeeeeeeeeeeeeee=660=eee*eeeee**eeeeeeeeeeeeeeeeeeeeeeeee",
"eeeeeeeeeeeeeeeeeeeeeee=660=ee**eeeee*w*eeeeeeeeeeeeeeeeeeeeeeee",
"eeeeeeeeeeeeeeeeeeeeeee=6660X*3*eXXXX39*eeeeeeeeeeeeeeeeeeeeeeee",
"eeeeeeeeeeeeeeeeeeeeeee=6XXX$*3w*&222XX*eeeeeeeeeeeeeeeeeeeeeeee",
"eeeeeeeeeeeeeeeeeeeeeeXXX$$$*33w*XX$$$2XXeeeeeeeeeeeeeeeeeeeeeee",
"eeeeeeeeeeeeeeeeeeeeeX++$$$$*33w*22XX$$$2Xeeeeeeeeeeeeeeeeeeeeee",
"eeeeeeeeeeeeeeeeeeeeX++$$$$*733w*&&22XX+$2Xeeeeeeeeeeeeeeeeeeeee",
"eeeeeeeeeeeeeeeeeeeX++$$$$&*733ww*&&&22X+$2Xeeeeeeeeeeeeeeeeeeee",
"eeeeeeeeeeeeeeeeeeX++$$$$&*7733ww*&&&&22X+$2Xeeeeeeeeeeeeeeeeeee",
"eeeeeeeeeeeeeeeeeeX+$$$$$&*77339ww*&&&&22X+$2Xeeeeeeeeeeeeeeeeee",
"eeeeeeeeeeeeeeeeeX++$$$$&&*77739ww*&&&&&&2X$$Xeeeeeeeeeeeeeeeeee",
"eeeeeeeeeeeeeeeeeXX++++$$$*777399ww*&&&&&&X+$&Xeeeeeeeeeeeeeeeee",
"eeeeeeeeeeeeeeeeeX+X++++++$*773399w*$$$$$$$X+$Xeeeeeeeeeeeeeeeee",
"eeeeeeeeeeeeeeeeX+++XXX++++*7733999*$$$$$$+X+++Xeeeeeeeeeeeeeeee",
"eeeeeeeeeeeeeeeeX+++$$&XXX+*7773399*+++++XXXXXXXeeeeeeeeeeeeeeee",
"eeeeeeeeeeeeeeeeX+++$$$&&&XX*77333*XXXXXX::111#eeeeeeeeeeeeeeeee",
"eeeeeeeeeeeeeeeeX+++$$$&&&&&*77733*&&&&X::1555#eeeeeeeeeeeeeeeee",
"eeeeeeeeeeeeeeeeX+++$$$&&&&&&**77*&&&&&X:151 8#eeeeeeeeeeeeeeeee",
"eeeeeeeeeeeeeeeeX+++$$$&&&&&&&&**&&&&&&X:11  8#eeeeeeeeeeeeeeeee",
"eeeeeeeeeeeeeeeeX+++$$$&&&&&&&&&&&&&&&&X:11w 8#eeeeeeeeeeeeeeeee",
"eeeeeeeeeeeeeeeeX+++$$$&&&&&&&&&&&&&&&&X:11  8#eeeeeeeeeeeeeeeee",
"eeeeeeeeeeeeeeeeX+++$$$&&&&&&&&&&&&&&&&X:11 X8#eeeeeeeeeeeeeeeee",
"eeeeeeeeeeeeeeeeX++++$$$&&&&&&&&&&&&&&&X:15 X88#eeeeeeeeeeeeeeee",
"eeeeeeeeeeeeeeeeeX+++$$$$&&&&&&&&&&&&&&&X:5 X58#eeeeeeeeeeeeeeee",
"eeeeeeeeeeeeeeeeeX++++$$$$&&&&&&&&&&&&&&X::5 58#eeeeeeeeeeeeeeee",
"eeeeeeeeeeeeeeeeeeX+++$$$$&&&&&&&&&&&&&&&X:11OOOeeeeeeeeeeeeeeee",
"eeeeeeeeeeeeeeeeeeeX+++$$$$&&&&&&&&&&&&&&&XXO-<<Oeeeeeeeeeeeeeee",
"eeeeeeeeeeeeeeeeeeeX++++$$$$$&&&&&&&&&&&&&$O-<;<Oeeeeeeeeeeeeeee",
"eeeeeeeeeeeeeeeee%%%X+++++$$$$$&&&&&&&&&$OO-;-;-Oeeeeeeeeeeeeeee",
"eeeeeeeeeeeeeeee%%,,4X+++++$$$$$$$&&&&&$$$O----Oeeeeeeeeeeeeeeee",
"eeeeeeeeeeeeeeeeee%%44XX++++++$$$$$$$$$$$O-OOOOOeeeeeeeeeeeeeeee",
"eeeeeeeeeeeeeeeeee%44,,4XX+++++++$$$$$$$$O-<<<;Oeeeeeeeeeeeeeeee",
"eeeeeeeeeeeeeeeee%,4,,4444XXX++++++++++++O-;-;Oeeeeeeeeeeeeeeeee",
"eeeeeeeeeeeeeeee%>,,,4444,444XXXXX++++XXXO---Oeeeeeeeeeeeeeeeeee",
"eeeeeeeeeeeeeeee%>,>44,,,4444,444,XXXX444O--Oeeeeeeeeeeeeeeeeeee",
"eeeeeeeeeeeeeeee%>>,,,%,4,,4,444,4,444444,OOeeeeeeeeeeeeeeeeeeee",
"eeeeeeeeeeeeeeee%>>,>%%4,,,,44,,4,,444,4,,%eeeeeeeeeeeeeeeeeeeee",
"eeeeeeeeeeeeeeee%>%>%%,,%%,XXXXX,,,44,44,>%eeeeeeeeeeeeeeeeeeeee",
"eeeeeeeeeeeeeeee%%%%.%%%.oX$$$&&X,>,4,4,,%,%eeeeeeeeeeeeeeeeeeee",
"eeeeeeeeeeeeeeee%e%%.%o .X$$+$&X&X>>,,,>>>%%eeeeeeeeeeeeeeeeeeee",
"eeeeeeeeeeeeeeeeee%..oo .X$++&&2XX >,>>%>%ee%eeeeeeeeeeeeeeeeeee",
"eeeeeeeeeeeeeeeeeX ..oo@ X$++&&2Xo >>>%e%%eeeeeeeeeeeeeeeeeeeeee",
"eeeeeeeeeeeeeeeeX$$ .oo@@X$++&&2XX%>%%eee%eeeeeeeeeeeeeeeeeeeeee",
"eeeeeeeeeeeeeeeeX$$ ..o@@X$$++&&X2%%2XXeeeeeeeeeeeeeeeeeeeeeeeee",
"eeeeeeeeeeeeeeeeX$++ .o@@.X$$$$X&%%&&&$Xeeeeeeeeeeeeeeeeeeeeeeee",
"eeeeeeeeeeeeeeeX&$++& oo@@XXXXX&&&&&++$Xeeeeeeeeeeeeeeeeeeeeeeee",
"eeeeeeeeeeeeeeeX$++&&& ooX$++&&&&++++$$Xeeeeeeeeeeeeeeeeeeeeeeee",
"eeeeeeeeeeeeeeeX$+$&2XX  X$++++++++$$XXeeeeeeeeeeeeeeeeeeeeeeeee",
"eeeeeeeeeeeeeeeX$+&2XeeeeX$$$+++$$$XXeeeeeeeeeeeeeeeeeeeeeeeeeee",
"eeeeeeeeeeeeeeeX$$XXeeeeeeX$$$$XXXXeeeeeeeeeeeeeeeeeeeeeeeeeeeee",
"eeeeeeeeeeeeeeeeXXeeeeeeeeeXXXXeeeeeeeeeeeeeeeeeeeeeeeeeeeeeeeee",
"eeeeeeeeeeeeeeeeeeeeeeeeeeeeeeeeeeeeeeeeeeeeeeeeeeeeeeeeeeeeeeee",
"eeeeeeeeeeeeeeeeeeeeeeeeeeeeeeeeeeeeeeeeeeeeeeeeeeeeeeeeeeeeeeee",
"eeeeeeeeeeeeeeeeeeeeeeeeeeeeeeeeeeeeeeeeeeeeeeeeeeeeeeeeeeeeeeee",
"eeeeeeeeeeeeeeeeeeeeeeeeeeeeeeeeeeeeeeeeeeeeeeeeeeeeeeeeeeeeeeee"
};
