/* XPM */
static char *result[] = {
/* columns rows colors chars-per-pixel */
"64 64 32 1 ",
"  c black",
". c #140801",
"X c #270300",
"o c #341301",
"O c #571000",
"+ c #482503",
"@ c #472614",
"# c #5E3B18",
"$ c #623A14",
"% c #734B08",
"& c #785738",
"* c #676434",
"= c #414C55",
"- c #923000",
"; c #B34C00",
": c #82601A",
"> c #986B1A",
", c #AA7F32",
"< c #C47301",
"1 c #A98740",
"2 c #B39F59",
"3 c #A5A170",
"4 c #C8A360",
"5 c #CCB47C",
"6 c #718391",
"7 c #BDB983",
"8 c #EED297",
"9 c #DEDAA5",
"0 c #A0B2C0",
"q c #C7DCED",
"w c white",
"e c None",
/* pixels */
"eeeeeeeeeeeeeeeeeeeeeeeeeeeeeeeeeeeeeeeeeeeeeeeeeeeeeeeeeeeeeeee",
"eeeeeeeeeeeeeeeeeeeeeeeeeeeeeeeeeeeeeeeeeeeeeeeeeeeeeeeeeeeeeeee",
"eeeeeeeeeeeeeeeeeeeeeeeeeeeeeeeeeeeeeeeeeeeeeeeeeeeeeeeeeeeeeeee",
"eeeeeeeeeeeeeeeeeeeeeeeeeeeeeeeeeeeeeeeeeeeeeeeeeeeeeeeeeeeeeeee",
"eeeeeeeeeeeeeeeeeeeeeeeeeeeeeeeeeeeeeee=eeeeeeeeeeeeeeeeeeeeeeee",
"eeeeeeeeeeeeeeeeeeeeee*eeeeeeeeeeee*ee=0=eeeeeeeeeeeeeeeeeeeeeee",
"eeeeeeeeeeeeeeeeeeeee*eeeeeeeeeeeeee*e=0=eeeeeeeeeeeeeeeeeeeeeee",
"eeeeeeeeeeeeeeeeeeee**eeeeeeeeeeeeee**60q=eeeeeeeeeeeeeeeeeeeeee",
"eeeeeeeeeeeeeeeeeee*3*eeeeeeeeeeeeeee**0q=eeeeeeeeeeeeeeeeeeeeee",
"eeeeeeeeeeeeeeeeeee*3*eeeeeeXXXXXXXXe*w*q=eeeeeeeeeeeeeeeeeeeeee",
"eeeeeeeeeeeeeeeeee*33w*eXXXXXX++$$&2XXXw*=eeeeeeeeeeeeeeeeeeeeee",
"eeeeeeeeeeeeeeeee*733w*X&&2222XX+$$&222X*=eeeeeeeeeeeeeeeeeeeeee",
"eeeeeeeeeeeeeeeee*733w*$&&&&2222XX+$&&22Xeeeeeeeeeeeeeeeeeeeeeee",
"eeeeeeeeeeeeeeee*7733ww*$&&&&&2222X+$&&&2Xeeeeeeeeeeeeeeeeeeeeee",
"eeeeeeeeeeeeeeee*77339w*$$$&&&&&222X+$$&&2Xeeeeeeeeeeeeeeeeeeeee",
"eeeeeeeeeeeeeeee*77339ww*$$$&&&&&&22X+$$&&2Xeeeeeeeeeeeeeeeeeeee",
"eeeeeeeeeeeeeeee*773339ww*$$$&&&&&&22X+$$&2Xeeeeeeeeeeeeeeeeeeee",
"eeeeeeeeeeeeeeee*7733399w*$$$$$&&&&&22X+$$&2Xeeeeeeeeeeeeeeeeeee",
"eeeeeeeeeeeeeeee*7773339w*+$$$$$$$$&&&2X+$$&Xeeeeeeeeeeeeeeeeeee",
"eeeeeeeeeeeeeeeX+*7733399*++$$$$$$$$$$$$X+$$$Xeeeeeeeeeeeeeeeeee",
"eeeeeeeeeeeeeeeX+*777333*+++++$$$$$$$$$$X++$$Xeeeeeeeeeeeeeeeeee",
"eeeeeeeeeeeeeeeX+$*7773*++++++++++$$+++++X++++Xeeeeeeeeeeeeeeeee",
"eeeeeeeeeeeeeeX++$$***XX++++++++++++XXXXXXXXXXXXeeeeeeeeeeeeeeee",
"eeeeeeeeeeeeeeX+++$$$&&&XXXXXXXXXXXX::::::::::#eeeeeeeeeeeeeeeee",
"eeeeeeeeeeeeeeX+++$$$&&&&&&&&&&&&&X::111111111#eeeeeeeeeeeeeeeee",
"eeeeeeeeeeeeeeX+++$$$&&&&&&&&&&&&&X:151 885551 eeeeeeeeeeeeeeeee",
"eeeeeeeeeeeeeeX+++$$$&&&&&&&&&&&&&X:11   8551  eeeeeeeeeeeeeeeee",
"eeeeeeeeeeeeeeX+++$$$&&&&&&&&&&&&&X:11w  8551w eeeeeeeeeeeeeeeee",
"eeeeeeeeeeeeeeX+++$$$&&&&&&&&&&&&&X:11   8551  eeeeeeeeeeeeeeeee",
"eeeeeeeeeeeeeeeX+++$$&&&&&&&&&&&&&X:11 X 5551 Xeeeeeeeeeeeeeeeee",
"eeeeeeeeeeeeeeeX+++$$$&&&&&&&&&&&&X::1 X 5558 Xeeeeeeeeeeeeeeeee",
"eeeeeeeeeeeeeeeX++++$$$&&&&&&&&&&&X::1 X 5558 Xeeeeeeeeeeeeeeeee",
"eeeeeeeeeeeeeeeeX+++$$$$&&&&&&&&&&&X::1 555555 eeeeeeeeeeeeeeeee",
"eeeeeeeeeeeeeeeeX++++$$$$&&&&&&&&&&&XX:OOOO11OOeeeeeeeeeeeeeeeee",
"eeeeeeeeeeeee%%%4X+++$$$$$$&&&&&&&&&&OX<<<<OO<<Xeeeeeeeeeeeeeeee",
"eeeeeeeeeeee%%>,,,X+++$$$$$$$&&&&&OOO;;;<;;<O-;Oeeeeeeeeeeeeeeee",
"eeeeeeeeeeeeee%%,,4X+++$$$$$$$$$$$$O--;-;-;-O--Oeeeeeeeeeeeeeeee",
"eeeeeeeeeeeeeee%%,,4X++++$$$$$$$$$+OO------OX-Oeeeeeeeeeeeeeeeee",
"eeeeeeeeeeeeee%4444,4XX+++++$$$$$$+O-OOOOOO<<Oeeeeeeeeeeeeeeeeee",
"eeeeeeeeeeeee%,,4,,4444XXXX+++$$$$+O-;<<<<;;<Oeeeeeeeeeeeeeeeeee",
"eeeeeeeeeeee%>,,>>44,,44444XXX++++++O-;<-;-;-Oeeeeeeeeeeeeeeeeee",
"eeeeeeeeeeee%%,>,44,%44444,444XXXXXXXX--;---Oeeeeeeeeeeeeeeeeeee",
"eeeeeeeeeee%%>>%4,,%,44,4,,444,4444444O---XOeeeeeeeeeeeeeeeeeeee",
"eeeeeeeeeeee%>%%,>%,,4,%%,4444,444,4444OOOOeeeeeeeeeeeeeeeeeeeee",
"eeeeeeeeeeee%%e%>%%>,%%@@%,,4,>44,,44,44%2Xeeeeeeeeeeeeeeeeeeeee",
"eeeeeeeeeee%ee%>% %%%oXXXXX,,>,4,,,44,,,%&Xeeeeeeeeeeeeeeeeeeeee",
"eeeeeeeeeeeeee%%e % oX$$+&&X,>,,,,,%,,%,%+Xeeeeeeeeeeeeeeeeeeeee",
"eeeeeeeeeeeeee%ee %oX$++&&X2X>%,,>%%>%$%$Xeeeeeeeeeeeeeeeeeeeeee",
"eeeeeeeeeeeeeeeee .oX$++&&2XX%%>>>%%>%X%Xeeeeeeeeeeeeeeeeeeeeeee",
"eeeeeeeeeeeeeeeee .oX+++&&2Xo@ %>%o%% e%eeeeeeeeeeeeeeeeeeeeeeee",
"eeeeeeeeeeeeeeeeee oX$+++&2Xo .%%@ %  eeeeeeeeeeeeeeeeeeeeeeeeee",
"eeeeeeeeeeeeeeeeee ooX$+++2X  o%@@@ &2Xeeeeeeeeeeeeeeeeeeeeeeeee",
"eeeeeeeeeeeeeeeeee oooX$$$X&22%X@@ &&&2Xeeeeeeeeeeeeeeeeeeeeeeee",
"eeeeeeeeeeeeeeeeeee oX$XXX&&&&22XX++++&Xeeeeeeeeeeeeeeeeeeeeeeee",
"eeeeeeeeeeeeeeeeeeeeX$$$++$&&&&&2X+$++Xeeeeeeeeeeeeeeeeeeeeeeeee",
"eeeeeeeeeeeeeeeeeeeeX$$$$++++$&&&2XXXXeeeeeeeeeeeeeeeeeeeeeeeeee",
"eeeeeeeeeeeeeeeeeeeeX$$$$$$+++++$$Xeeeeeeeeeeeeeeeeeeeeeeeeeeeee",
"eeeeeeeeeeeeeeeeeeeeeXX$$$$$$$$$$Xeeeeeeeeeeeeeeeeeeeeeeeeeeeeee",
"eeeeeeeeeeeeeeeeeeeeeeeXXXXXXXXXXeeeeeeeeeeeeeeeeeeeeeeeeeeeeeee",
"eeeeeeeeeeeeeeeeeeeeeeeeeeeeeeeeeeeeeeeeeeeeeeeeeeeeeeeeeeeeeeee",
"eeeeeeeeeeeeeeeeeeeeeeeeeeeeeeeeeeeeeeeeeeeeeeeeeeeeeeeeeeeeeeee",
"eeeeeeeeeeeeeeeeeeeeeeeeeeeeeeeeeeeeeeeeeeeeeeeeeeeeeeeeeeeeeeee",
"eeeeeeeeeeeeeeeeeeeeeeeeeeeeeeeeeeeeeeeeeeeeeeeeeeeeeeeeeeeeeeee",
"eeeeeeeeeeeeeeeeeeeeeeeeeeeeeeeeeeeeeeeeeeeeeeeeeeeeeeeeeeeeeeee"
};
