/* XPM */
static char *result[] = {
/* columns rows colors chars-per-pixel */
"64 64 32 1 ",
"  c black",
". c #140801",
"X c #270300",
"o c #341301",
"O c #571000",
"+ c #482503",
"@ c #472614",
"# c #5E3B18",
"$ c #623A14",
"% c #734B08",
"& c #785738",
"* c #676434",
"= c #414C55",
"- c #923000",
"; c #B34C00",
": c #82601A",
"> c #986B1A",
", c #AA7F32",
"< c #C47301",
"1 c #A98740",
"2 c #B39F59",
"3 c #A5A170",
"4 c #C8A360",
"5 c #CCB47C",
"6 c #718391",
"7 c #BDB983",
"8 c #EED297",
"9 c #DEDAA5",
"0 c #A0B2C0",
"q c #C7DCED",
"w c white",
"e c None",
/* pixels */
"eeeeeeeeeeeeeeeeeeeeeeeeeeeeeeeeeeeeeeeeeeeeeeeeeeeeeeeeeeeeeeee",
"eeeeeeeeeeeeeeeeeeeeeeeeeeeeeeeeeeeeeeeeeeeeeeeeeeeeeeeeeeeeeeee",
"eeeeeeeeeeeeeeeeeeeeeeeeeeeeeeeeeeeeeeeeeeeeeeeeeeeeeeeeeeeeeeee",
"eeeeeeeeeeeeeeeeeeeeeeeeeeeeeeeeeeeeeeeeeeeeeeeeeeeeeeeeeeeeeeee",
"eeeeeeeeeeeeeeeee*eeeeeeeeeeeeeeeeeeeeee*eeeeeeeeeeeeeeeeeeeeeee",
"eeeeeeeeeeeeeeee*eeeeeeeeeeeeeeeeeeeeeeee*eeeeeeeeeeeeeeeeeeeeee",
"eeeeeeeeeeeeeee*3*eeeeeeeeeeeeeeeeeeeeeee*eeeeeeeeeeeeeeeeeeeeee",
"eeeeeeeeeeeeeee*3*eeeeeeeeeeeeeeeeeeeeeee**eeeeeeeeeeeeeeeeeeeee",
"eeeeeeeeeeeeee*33*eeeeeXXXXXXXXeeeeeeeeee*w*eeeeeeeeeeeeeeeeeeee",
"eeeeeeeeeeeee*7339*eXXX++++$$$$XXXXeeeee*39*eeeeeeeeeeeeeeeeeeee",
"eeeeeeeeeeeee*7339*X$&2XXXXX++$$&22XXXee*39w*eeeeeeeeeeeeeee==ee",
"eeeeeeeeeeeee*7339w*$&&22222XX+$$&222XXX739w*eeeeeeeeeeeeee=6=ee",
"eeeeeeeeeeee*77339ww*$&&&&2222X+$$&&22X2X399*eeeeeeeeeeeee=60=ee",
"eeeeeeeeeeee*773399w9*$&&&&&222X+$$&&22X2X99*eeeeeeeeeeee=660=ee",
"eeeeeeeeeeee*7773399w*$$&&&&&222X+$$&&22X2X9*eeeeeeeeeee=660=eee",
"eeeeeeeeeeeee*7733999*$$$$&&&&&22X+$$&&2X$2X*eeeeeeeeeee=600=eee",
"eeeeeeeeeeeee*7733399*$$$$$$&&&&&2X+$$&22X&2Xeeeeeeeeee=660=eeee",
"eeeeeeeeeeeee*777333*+$$$$$$$$$$$&2X+$&&2X$&Xeeeeeeeeee=600=eeee",
"eeeeeeeeeeeeee*77333*++$$$$$$$$$$$$X+$$&&$X$Xeeeeeeeee=660q=eeee",
"eeeeeeeeeeeeeX+*773*+++++$$$$$$$$$$$X$$$$$X$&Xeeeeeeee=60q=eeeee",
"eeeeeeeeeeeeeX++***XX+++++++++++++++X++$$$X+$Xeeeeeee=600q=eeeee",
"eeeeeeeeeeeeeX++$$$&&XXX+++++XXXXXXXX+++++XXXXXeeeee=6600=eeeeee",
"eeeeeeeeeeeeeX++$$$&&&&&XXXXX:::::::XXXXXXX::#eeeeee=600q=eeeeee",
"eeeeeeeeeeeeeX+++$$&&&&&&&&&X:111111111111158#eeeee=660q=eeeeeee",
"eeeeeeeeeeeeeX+++$$$&&&&&&&X::11551: 555555 8#eeeee=600q=eeeeeee",
"eeeeeeeeeeeeeX+++$$$&&&&&&&X:11555:   8551  8#eeee=660q=eeeeeeee",
"eeeeeeeeeeeeeX+++$$$&&&&&&&X:11555:w  8551w 8#eeee=60q=eeeeeeeee",
"eeeeeeeeeeeeeeX+++$$$&&&&&&X:11555:   5551  8#eee=660q=eeeeeeeee",
"eeeeeeeeeeeeeeX+++$$$$&&&&&&X:11551 X 5551 X8#eee=60q=eeeeeeeeee",
"eeeeeeeeeeeeeeX+++$$$$$&&&&&X::1151 X 5551 X8#ee=600q=eeeeeeeeee",
"eeeeeeeeeeeeeeeX+++$$$$&&&&&&X::111 X 5555 X5#ee=60q=eeeeeeeeeee",
"eeeeeeeeeeeeeeeeX+++$$$$&&&&&&X::111 555555 5#e=600q=eeeeeeeeeee",
"eeeeeeeeeeeeeeeeeX+++$$$$$&&&&&XX:OOOOO1111OO#==60q=eeeeeeeeeeee",
"eeeeeeeeeeeeeee%%>X+++$$$$$&&&&&&O;<<<<OOOO<<O=660=eeeeeeeeeeeee",
"eeeeeeeeeeeeee%>>,4X+++$$$$$$$OOO;-;;<;<;O<;<O=600=eeeeeeeeeeeee",
"eeeeeeeeeeeee%%%%,44XX++$$$$$$$O---;-;-;-O;-;O660=eeeeeeeeeeeeee",
"eeeeeeeeeeeeeee%,44,,4XX+++$$$$+OOO----OO<O-O=60=eeeeeeeeeeeeeee",
"eeeeeeeeeeeeee%>4,,44444XX+++$$+O-;OOOO<<;-OO660=eeeeeeeeeeeeeee",
"eeeeeeeeeeeee%>,,,444,4444XXX+++O--;;<<;<;<-O66=eeeeeeeeeeeeeeee",
"eeeeeeeeeeeee%>,>,4,,,,,44444XXXXX---;;-;--O660=eeeeeeeeeeeeeeee",
"eeeeeeeeeeee%>%>>,,,,,,444,4444444O--------O60=eeeeeeeeeeeeeeeee",
"eeeeeeeeeee%%%e%,,>>>,,,,,444,444,4OO----OO  6=eeeeeeeeeeeeeeeee",
"eeeeeeeeeeeeee%>,>%%>XXX>,,4,,44,44,4OOOO%&X  =eeeeeeeeeeeeeeeee",
"eeeeeeeeeeeeee%>>%o%X$$&X>>,,44,,44,44444,%2X   eeeeeeeeeeeeeeee",
"eeeeeeeeeeeeee%>%.X$$+&2&X>,,4,,44,44,44%,%2Xeeeeeeeeeeeeeeeeeee",
"eeeeeeeeeeeeeee%eX$$++&&2&%>>,,4,,,4,>>,%%%$Xeeeeeeeeeeeeeeeeeee",
"eeeeeeeeeeeeeee%eX$$++&&2&X%>,>,,>>,>%>,%$%+Xeeeeeeeeeeeeeeeeeee",
"eeeeeeeeeeeeeeeeeX$++$&&2&X%>%>>,>>>%%,%$$$Xeeeeeeeeeeeeeeeeeeee",
"eeeeeeeeeeeeeeeeeX$$+$&&X&X@%%>>>%%,%o%%XXXeeeeeeeeeeeeeeeeeeeee",
"eeeeeeeeeeeeeeeeeeX$++&XoX@@ .%>%@%%  %%eeeeeeeeeeeeeeeeeeeeeeee",
"eeeeeeeeeeeeeeeeeX$X$+$Xo@@ .o%%@@%@@X%XXeeeeeeeeeeeeeeeeeeeeeee",
"eeeeeeeeeeeeeeeeX$&&XX$XXX@ .o%o@@%@X&&&2Xeeeeeeeeeeeeeeeeeeeeee",
"eeeeeeeeeeeeeeeX$+$&&&X&22X .oooo@@X&&&&&&Xeeeeeeeeeeeeeeeeeeeee",
"eeeeeeeeeeeeeeeX$$++$&&&&&2X.oooooX&&&&+$$Xeeeeeeeeeeeeeeeeeeeee",
"eeeeeeeeeeeeeeeX$$+++++++$&&Xo   X$++++$$$Xeeeeeeeeeeeeeeeeeeeee",
"eeeeeeeeeeeeeeeeX$$$++++++++$XeXX$$$$$$XXXeeeeeeeeeeeeeeeeeeeeee",
"eeeeeeeeeeeeeeeeeXXX$$$$$$$$$XeeeXXXXXXeeeeeeeeeeeeeeeeeeeeeeeee",
"eeeeeeeeeeeeeeeeeeeeXXXXXXXXXeeeeeeeeeeeeeeeeeeeeeeeeeeeeeeeeeee",
"eeeeeeeeeeeeeeeeeeeeeeeeeeeeeeeeeeeeeeeeeeeeeeeeeeeeeeeeeeeeeeee",
"eeeeeeeeeeeeeeeeeeeeeeeeeeeeeeeeeeeeeeeeeeeeeeeeeeeeeeeeeeeeeeee",
"eeeeeeeeeeeeeeeeeeeeeeeeeeeeeeeeeeeeeeeeeeeeeeeeeeeeeeeeeeeeeeee",
"eeeeeeeeeeeeeeeeeeeeeeeeeeeeeeeeeeeeeeeeeeeeeeeeeeeeeeeeeeeeeeee",
"eeeeeeeeeeeeeeeeeeeeeeeeeeeeeeeeeeeeeeeeeeeeeeeeeeeeeeeeeeeeeeee",
"eeeeeeeeeeeeeeeeeeeeeeeeeeeeeeeeeeeeeeeeeeeeeeeeeeeeeeeeeeeeeeee"
};
