/* XPM */
static char *result[] = {
/* columns rows colors chars-per-pixel */
"64 64 32 1 ",
"  c black",
". c #140801",
"X c #270300",
"o c #341301",
"O c #571000",
"+ c #482503",
"@ c #472614",
"# c #5E3B18",
"$ c #623A14",
"% c #734B08",
"& c #785738",
"* c #676434",
"= c #414C55",
"- c #923000",
"; c #B34C00",
": c #82601A",
"> c #986B1A",
", c #AA7F32",
"< c #C47301",
"1 c #A98740",
"2 c #B39F59",
"3 c #A5A170",
"4 c #C8A360",
"5 c #CCB47C",
"6 c #718391",
"7 c #BDB983",
"8 c #EED297",
"9 c #DEDAA5",
"0 c #A0B2C0",
"q c #C7DCED",
"w c white",
"e c None",
/* pixels */
"eeeeeeeeeeeeeeeeeeeeeeeeeeeeeeeeeeeeeeeeeeeeeeeeeeeeeeeeeeeeeeee",
"eeeeeeeeeeeeeeeeeeeeeeeeeeeeeeeeeeeeeeeeeeeeeeeeeeeeeeeeeeeeeeee",
"eeeeeeeeeeeeeeeeeeeeeeeeeeeeeeeeeeeeeeeeeeeeeeeeeeeeeeeeeeeeeeee",
"eeeeeeeeeeeeeeeeeeeeeeeeeeeeeeeeeeeeeeeeeeeeeeeeeeeeeeeeeeeeeeee",
"eeeeeeeeeeeeeeeeeeeeeeeeeeeeeeeeeeeeeeee=eeeeeeeeeeeeeeeeeeeeeee",
"eeeeeeeeeeeeeeeeeeeeeee*eeeeeeeeeeee*ee=6=eeeeeeeeeeeeeeeeeeeeee",
"eeeeeeeeeeeeeeeeeeeeee*eeeeeeeeeeeeee*e=q=eeeeeeeeeeeeeeeeeeeeee",
"eeeeeeeeeeeeeeeeeeeee**eeeeeeeeeeeeee**6q0=eeeeeeeeeeeeeeeeeeeee",
"eeeeeeeeeeeeeeeeeeee*3*eeeeeeeeeeeeeee**0q=eeeeeeeeeeeeeeeeeeeee",
"eeeeeeeeeeeeeeeeeeee*3*eeeeeeXXXXXXXXe*7*q=eeeeeeeeeeeeeeeeeeeee",
"eeeeeeeeeeeeeeeeeee*333*eXXXXXX++$$&2XXX9*=eeeeeeeeeeeeeeeeeeeee",
"eeeeeeeeeeeeeeeeee*7333*X&&2222XX+$$&222X*=eeeeeeeeeeeeeeeeeeeee",
"eeeeeeeeeeeeeeeeee*7339*$&&&&2222XX+$&&22X=eeeeeeeeeeeeeeeeeeeee",
"eeeeeeeeeeeeeeeee*77339w*$&&&&&2222X+$&&&2Xeeeeeeeeeeeeeeeeeeeee",
"eeeeeeeeeeeeeeeee*77339w*$$$&&&&&222X+$$&&2Xeeeeeeeeeeeeeeeeeeee",
"eeeeeeeeeeeeeeeee*77333w9*$$$&&&&&&22X+$$&&2Xeeeeeeeeeeeeeeeeeee",
"eeeeeeeeeeeeeeeee*773339w9*$$$&&&&&&22X+$$&2Xeeeeeeeeeeeeeeeeeee",
"eeeeeeeeeeeeeeeee*777339w9*$$$$$&&&&&22X+$$&2Xeeeeeeeeeeeeeeeeee",
"eeeeeeeeeeeeeeeee*7773399w*+$$$$$$$$&&&2X+$$&Xeeeeeeeeeeeeeeeeee",
"eeeeeeeeeeeeeeeeX+*7733999*++$$$$$$$$$$$$X+$$$Xeeeeeeeeeeeeeeeee",
"eeeeeeeeeeeeeeeeX+*777339*+++++$$$$$$$$$$X++$$Xeeeeeeeeeeeeeeeee",
"eeeeeeeeeeeeeeeeX+$*7733*++++++++++$$+++++X++++Xeeeeeeeeeeeeeeee",
"eeeeeeeeeeeeeeeX++$$***XX++++++++++++XXXXXXXXXXXXeeeeeeeeeeeeeee",
"eeeeeeeeeeeeeeeX+++$$$&&&XXXXXXXXXXXX::::::::::#eeeeeeeeeeeeeeee",
"eeeeeeeeeeeeeeeX+++$$$&&&&&&&&&&&&&X::111111111#eeeeeeeeeeeeeeee",
"eeeeeeeeeeeeeeeX+++$$$&&&&&&&&&&&&&X:151 885551 eeeeeeeeeeeeeeee",
"eeeeeeeeeeeeeeeX+++$$$&&&&&&&&&&&&&X:11   8551  eeeeeeeeeeeeeeee",
"eeeeeeeeeeeeeeeX+++$$$&&&&&&&&&&&&&X:11w  8551w eeeeeeeeeeeeeeee",
"eeeeeeeeeeeeeeeX+++$$$&&&&&&&&&&&&&X:11   8551  eeeeeeeeeeeeeeee",
"eeeeeeeeeeeeeeeeX+++$$&&&&&&&&&&&&&X:11 X 5551 Xeeeeeeeeeeeeeeee",
"eeeeeeeeeeeeeeeeX+++$$$&&&&&&&&&&&&X::1 X 5558 Xeeeeeeeeeeeeeeee",
"eeeeeeeeeeeeeeeeX++++$$$&&&&&&&&&&&X::1 X 5558 Xeeeeeeeeeeeeeeee",
"eeeeeeeeeeeeeeeeeX+++$$$$&&&&&&&&&&&X::1 555555 eeeeeeeeeeeeeeee",
"eeeeeeeeeeeeeeeeeX++++$$$$&&&&&&&&&&&XX:OOOO11OOeeeeeeeeeeeeeeee",
"eeeeeeeeeeeeeeeee%X+++$$$$$$&&&&&&&&&&OX<<<<OO<<Oeeeeeeeeeeeeeee",
"eeeeeeeeeeeeeee%%,,X+++$$$$$$$&&&&&OOO;;;<;;<O-;Oeeeeeeeeeeeeeee",
"eeeeeeeeeeeeee%%%%,4X+++$$$$$$$$$$$$O--;-;-;-O--Oeeeeeeeeeeeeeee",
"eeeeeeeeeeeeeeeee%%44X++++$$$$$$$$$+OO------OO-Oeeeeeeeeeeeeeeee",
"eeeeeeeeeeeeeeee%>,44,XX+++++$$$$$$+O-OOOOOO<<Oeeeeeeeeeeeeeeeee",
"eeeeeeeeeeeeeee%>,4,,4,,XXXX+++$$$$+O-;<<<<;;<Oeeeeeeeeeeeeeeeee",
"eeeeeeeeeeeeee%>,,%4,,%,444,XXX++++++O-;<-;-;-Oeeeeeeeeeeeeeeeee",
"eeeeeeeeeeeee%%%%%,,,%,,>,,,4,4XXXXXXXX--;---Oeeeeeeeeeeeeeeeeee",
"eeeeeeeeeeeeeeeee%>%%>,>>,,,,4444444,44O----Oeeeeeeeeeeeeeeeeeee",
"eeeeeeeeeeeeeeeee%%.%>>%>>,>>,44,44,,444OOOOeeeeeeeeeeeeeeeeeeee",
"eeeeeeeeeeeeeeeee% .%%%oXXXX>,,4,44,,4,4,,%Xeeeeeeeeeeeeeeeeeeee",
"eeeeeeeeeeeeeeeeee .%.oX++&&X>,,,,4,,4,,,%%Xeeeeeeeeeeeeeeeeeeee",
"eeeeeeeeeeeeeeeeee . .X++&22&X>,,,,>,,%,%+%Xeeeeeeeeeeeeeeeeeeee",
"eeeeeeeeeeeeeeeeee ..X$++&&&2&X>>,,>>,,%%$Xeeeeeeeeeeeeeeeeeeeee",
"eeeeeeeeeeeeeeeeee .oX$++&&&$2X%>>,>>,>%%Xeeeeeeeeeeeeeeeeeeeeee",
"eeeeeeeeeeeeeeeeee .oX$++&&$X&X %>%>>>%@%eeeeeeeeeeeeeeeeeeeeeee",
"eeeeeeeeeeeeeeeeee .ooX$++&$XX .%%@%>>%X%Xeeeeeeeeeeeeeeeeeeeeee",
"eeeeeeeeeeeeeeeeeeXXXXX$+$$$X. .o%@%>%&&22XXeeeeeeeeeeeeeeeeeeee",
"eeeeeeeeeeeeeeeeeX$$$+$XX+$$Xo .o@@@% &2&&$+Xeeeeeeeeeeeeeeeeeee",
"eeeeeeeeeeeeeeeeX$$+++22&XXX.o oo@@@ &2&$++$Xeeeeeeeeeeeeeeeeeee",
"eeeeeeeeeeeeeeeeX$$$++&&22X.o .o@@@ &&+++$$Xeeeeeeeeeeeeeeeeeeee",
"eeeeeeeeeeeeeeeeeX$$$++&&&&Xo .o@@ &++++$$Xeeeeeeeeeeeeeeeeeeeee",
"eeeeeeeeeeeeeeeeeeX$$$++&&&&Xo.o  ++++$$XXeeeeeeeeeeeeeeeeeeeeee",
"eeeeeeeeeeeeeeeeeeeXX$$$++$$$X  $$$$$$XXeeeeeeeeeeeeeeeeeeeeeeee",
"eeeeeeeeeeeeeeeeeeeeeXX$$$$$$XeeXXXXXXeeeeeeeeeeeeeeeeeeeeeeeeee",
"eeeeeeeeeeeeeeeeeeeeeeeXXXXXXeeeeeeeeeeeeeeeeeeeeeeeeeeeeeeeeeee",
"eeeeeeeeeeeeeeeeeeeeeeeeeeeeeeeeeeeeeeeeeeeeeeeeeeeeeeeeeeeeeeee",
"eeeeeeeeeeeeeeeeeeeeeeeeeeeeeeeeeeeeeeeeeeeeeeeeeeeeeeeeeeeeeeee",
"eeeeeeeeeeeeeeeeeeeeeeeeeeeeeeeeeeeeeeeeeeeeeeeeeeeeeeeeeeeeeeee",
"eeeeeeeeeeeeeeeeeeeeeeeeeeeeeeeeeeeeeeeeeeeeeeeeeeeeeeeeeeeeeeee"
};
