/* XPM */
static char *result[] = {
/* columns rows colors chars-per-pixel */
"123 64 87 1 ",
"  c #000000",
". c #090400",
"X c #0C0A06",
"o c #100C07",
"O c #110E0B",
"+ c #14110E",
"@ c #151411",
"# c #191715",
"$ c #1A1917",
"% c #1C1B19",
"& c #201F1D",
"* c #21201F",
"= c #242423",
"- c #292927",
"; c #2D2D2B",
": c #31302E",
"> c #343434",
", c #3E3E3D",
"< c #3F403F",
"1 c #40403F",
"2 c #3F4242",
"3 c #454544",
"4 c #494B4C",
"5 c #4C4F50",
"6 c #4E5151",
"7 c #525555",
"8 c #545758",
"9 c #555859",
"0 c #5A5D5E",
"q c #5B5F60",
"w c #5D6162",
"e c #626566",
"r c #646768",
"t c #65696A",
"y c #6A6E6E",
"u c #6B6F70",
"i c #6D7172",
"p c #717677",
"a c #777877",
"s c #717778",
"d c #757A7C",
"f c #797E7E",
"g c #7A7F80",
"h c #7D8283",
"j c #818687",
"k c #828788",
"l c #84898A",
"z c #8A8D8E",
"x c #8A8F90",
"c c #8D9192",
"v c #929494",
"b c #939798",
"n c #949899",
"m c #999D9D",
"M c #9B9FA0",
"N c #9EA2A3",
"B c #A2A4A5",
"V c #A6A8A7",
"C c #A4A7A8",
"Z c #A5A9A9",
"A c #A9ACAC",
"S c #AEB0AF",
"D c #ACAFB0",
"F c #AFB2B3",
"G c #B4B6B6",
"H c #B6B8B7",
"J c #B6B8B8",
"K c #BABCBC",
"L c #BEC1C1",
"P c #C2C4C4",
"I c #C6C8C8",
"U c #CACCCC",
"Y c #CDCFD0",
"T c #CED1D1",
"R c #D2D4D4",
"E c #D6D9D9",
"W c #DBDDDD",
"Q c #DFE1E1",
"! c #E2E4E4",
"~ c #E5E7E8",
"^ c #E6E8E8",
"/ c #EBECEC",
"( c #EFF0F0",
") c #F3F4F4",
"_ c #F8F7F7",
"` c #F9F9F9",
"' c None",
/* pixels */
"'''''''''''''''''''''''''''''''''''''''''''''''''''''''''''''''''''''''''''''''''''''''''''''''''''''''''''''''''''''''''''",
"'''''''''''''''''''''''''''''''''''''''''''''''''''''''''''''''''''''''''''''''''''''''''''''''''''''''''''''''''''''''''''",
"'''''''''''''''''''''''''''''''''''''''''''''''''''''''''''''''''''''''''''''''''''''''''''''''''''''''''''''''''''''''''''",
"'''''''''''''''''''''''''''''''''''''''''''''''''''''''''''''''''''''''''''''''''''''''''''''''''''''''''''''''''''''''''''",
"'''''''''''''''''''''''''''''''''''''''''''''''''''''''''''''''''''''''''''''''''''''''''''''''''''''''''''''''''''''''''''",
"'''''''''''''''''''''''''''''''''''''''''''''''''''''''''''''''''''''''''''''''''''''''''''''''''''''''''''''''''''''''''''",
"'''''''''''''''''''''''''''''''''''''''''''''''''''''''''''''''''''''''''''''''''''''''''''''''''''''''''''''''''''''''''''",
"'''''''''''''''''''''''''''''''''''''''''''''''''''''''''''''''''''''''''''''''''''''''''''''''''''''''''''''''''''''''''''",
"'''''''''''''''''''''''''''''''''''''''''''''''''''''''''''''''''''''''''''''''''''''''''''''''''''''''''''''''''''''''''''",
"'''''''''''''''''''''''''''''''''''''''''''''''''''''''''''''''''''''''''''''''''''''''''''''''''''''''''''''''''''''''''''",
"'''''''''''''''''''''''''''''''''''''''''''''''''''''''''''''''''''''''''''''''''''''''''''''''''''''''''''''''''''''''''''",
"'''''''''''''''''''''''''''''''''''''''''''''''''''''''''''''''''''''''''''''''''''''''''''''''''''''''''''''''''''''''''''",
"'''''''''''''''''''''''''''''''''''''''''''''''''''''''''''''''''''''''''''''''''''''''''''''''''''''''''''''''''''''''''''",
"'''''''''''''''''''''''''''''''''''''''''''''''''''''''''''''''''''''''''''''''''''''''''''''''''''''''''''''''''''''''''''",
"'''''''''''''''''''''''''''''''''''''''''''''''''''''''''''''''''''''''''''''''''''''''''''''''''''''''''''''''''''''''''''",
"'''''''''''''''''''''''''''''''''''''''''''''''''''''''''''''''''''''''''''''''''''''''''''''''''''''''''''''''''''''''''''",
"'''''''''''''''''''''''''''''''''''''''''''''''''''''''''''''''''''''''''''''''''''''''''''''''''''''''''''''''''''''''''''",
"'''''''''''''''''''''''''''''''''''''''''''''''''''''''''''''''''''''''''''''''''''''''''''''''''''''''''''''''''''''''''''",
"'''''''''''''''''''''''''''''''''''''''''''''''''''''''''''''''''''''''''''''''''''''''''''''''''''''''''''''''''''''''''''",
"'''''''''''''''''''''''''''''''''''''''''''''''''''''''''''''''''''''''''''''''''''''''''''''''''''''''''''''''''%%%%%%%%''",
"%$%%%%%%%%$$%%%$%%%%%%%%%%%%%%%%%%%%%%%%%%%%%%$%%%%%%%%%%%%%%%%%%$%%%%$%%%%%%%%%%%%%%%%%%%%%%%%%%%%%%%$%%%%%%%%%%%%%%%$%%%%",
"%%%%%%%%%%%&%%%%%%%%%%%%%%%%%%%%%%%%%%%%%%%%%%%%%%%%%%%%%%%%%%%%%%%%%%%%%%%%%%%%%%%%%%%%%%%%%%%%%%%%%%%$%%%%$$%%%%%%%%$%%%%",
"%%%%%%%%$%%%%$%%%$%%%%%%%%#%%%%%#%%%%%%%%%%%%%$%%%%%%%%%$%%$$%%%$%%%%%$%%$%$%%%$$%%%%$%%%%%%%$%$%%%%%%%$%%%%%%$%%%%%%%%%%$%",
"%$$%$$%$%%$$%%%%%%%%%%%%%%%%%%%%%%%%$%$%%%%%%%%%%%%%%%%%$%$%%%%%%%$$%$%%%%$%%%$%%%%%%$%%%%%%%%%%&%%%%%%%%%%*%%=&%%=% %%$%%%",
"%%*%%%%%&%&%&%&=============%%*&%&%%%%=================&&%&%%%&%%*%%*%%&&%*%%&%&%&&&%%&==========$%@.@@O+.X     o@ X1+%%%%%",
"...@%@........O              o ......@                 ......OO ........... ... ... .o           #.=,=;>>2346qetwtcIv =%$%%",
"iyue5eiuyyuuyiqzHGHHGHHGHHGKntuyyyyyiexKGGHHHHGGHHHGHHJltuyuyryyiuuuuuuuyyyyyyyyyyyyuypAHHGHHHGGKPILcfhhjkhklzhkCU~Y+$%$%%%",
"zkzu4szllllzzjmQ^~~~^!^!!~/RckkzlllzhmW~~~~~~~~~~!~~!/Ikllljt0wdlklkllllllzkzlzklllzljP/!~~~~~~~~~!ChlhwukkkghCY!!!y =%%$%%",
"lhkhphkhhhhsteVRQWQQQQQQW!RlfwwhkjjhxE!WQQQQQQQQQQQW!Igjjjky5878hjhjhjjjjjjjjjjjjjkkfK!WQQWQQQQQW!Zdjkd6ekghCT!!W~m -$$%%%'",
"zkhkzkhkhle57kczU!QQQQQQ!Evhj00hkkhlR!W!QQQQQQQQQQQ!Tkjkkjky6988hkkkkjjjkjkjjjjjjkkdG!Q!QQQ!QQQQ!GfljkkhghNUQ!QW~K *%%%%%$'",
"zswqyhkkld88jvvzB!QQQQQ!WmglkjhkkhhU~W!QQQ!QQQQQQQ!Rxhkkjjkgw98pkhjkkjjkjkhwtjjkjkfZ!QQQQQQQQQQ!KfkkkkhhmI!!QQQ~P=.*%%$%%''",
"h8785plhld4gvvvzBQQQQQQQCfljjjkkkhP!QQQQQQQQQQQQQ!Wnhkkkkkkkkggkkkjjjkjkjjh9qjkkkgMQ!QQQQ!QQQQ!PgklhhgnLQ!QQQQ~I: =%%$%%'''",
"h80q7izkkjlczzzvYQQQQQ!FfllkkjklgK!QQQQQQQQQQQQQQWMdjhhhhhjhhhjjjjjjjhhhjhkhhjjkgbWQQQQQQQQQQ!UhhdhzZPW~QQ!WQ~P: =$$%%%%'''",
"h9224pfgpAQPAZHTQWQQQQFihgfggfhsF!QWQQ!QQQQQQ!QQ~JcnbbbbbbbbbbxlzllzzzzzzkklkjljcE!QQQQQQQ!Q!RccNGPE!!!WQQW!~HX =$%%%%%''''",
"FACNADAAK^//(/(/////(QHKLLLLPLLU((()())))))_`))`~WQWQWWQWWQWQWWWWWWWWWWWWRRRRRRR/_))((()((())EEWQ!!!QQ!!QQ~Wv @=$%$%%%'''''",
"/Q!!!!!^`___```_````)Q~~~!~!~!/`_```````_``_```(QQWQQQ!Q!Q!QQ!Q!Q!QQ!WE!Q!Q!!!!)`___`````_`_!Q!!QQQQQQWW~!L0 =*$$%%%%''''''",
"~WQQWQ!)________`)`)QQWWQQQQW!)_`)__)__)___)__(W!LjK~QQQQQQQQQQWWQQQWBzT!QQQWQ/__)___)`)___~QQQWQQQQQ!~QIj  -%%$%%%$'''''''",
"^Q!Q!!)`_``_``````_!Q!!QQQ!Q!_`_``````````__`)!!~ImI!QQ!QQQQQ!Q!!!!!!HBE!QQ!Q/`_``````````/W!Q!!!!~~!RGa  ==$$%%%%%''''''''",
"!EWWE/))())()/))((QEWWWWWWWW/())(())()()))/)/WEEWWEWWWWEWWWWWWWWWEWEEWEWWWWW!)()())())())~EWEWEWRPGBd,  %-%$%%%%%%'''''''''",
"3<<<33333333333333,<<1,<,<<<43333333333333333,3<<<3,11111111,11,1111113,2,,,4333333333333,1111,3>    .-=%$%$$%%%%''''''''''",
"                                                                                                X%=;=%%%%%$%%%%''''''''''''",
"*%%%**&**%**&&*%**%****%&%%****%=%***%*&&&&&*%&&*%*%&*%%&&%&&&*%&%%**%*%**%%%**%*%***%**%*&&%%***%%%$%%%%%%%%''''''''''''''",
"%%%%%%%$%$%$%%%%$%$$%$%%%$%$%%$$%$%%$%%%%$%%$%%%%%%$%%%%$%%$$%%%%$%$%%%$%%%%%%%%%$%%%%%%%$%%%%%%%%$%%%%%%%%''''''''''''''''",
"%%%$$$%%%$%%%$$%$$%%%%%$%$%%$%%%%%%$%%$$%%%$%%$$%%%$%%$%%$$%%%$%%$%%%%%%%$%%%%%%%%%$$%%%%%%$$%%%$%%%%%%%%''''''''''''''''''",
"%$%%%%%$%%$%%%%%%%%%$%%$%%$%%%%%$%%%$%%%$%%%$%%%$%%$%%$%%%%%%%$%%%$%%%%%%%%%%%%%%%%%%%%%%%%%%%%%%%%%%$'''''''''''''''''''''",
"'''''''''''''''''''''''''''''''''''''''''''''''''''''''''''''''''''''''''''''''''''''''''''''''''''''''''''''''''''''''''''",
"'''''''''''''''''''''''''''''''''''''''''''''''''''''''''''''''''''''''''''''''''''''''''''''''''''''''''''''''''''''''''''",
"'''''''''''''''''''''''''''''''''''''''''''''''''''''''''''''''''''''''''''''''''''''''''''''''''''''''''''''''''''''''''''",
"'''''''''''''''''''''''''''''''''''''''''''''''''''''''''''''''''''''''''''''''''''''''''''''''''''''''''''''''''''''''''''",
"'''''''''''''''''''''''''''''''''''''''''''''''''''''''''''''''''''''''''''''''''''''''''''''''''''''''''''''''''''''''''''",
"'''''''''''''''''''''''''''''''''''''''''''''''''''''''''''''''''''''''''''''''''''''''''''''''''''''''''''''''''''''''''''",
"'''''''''''''''''''''''''''''''''''''''''''''''''''''''''''''''''''''''''''''''''''''''''''''''''''''''''''''''''''''''''''",
"'''''''''''''''''''''''''''''''''''''''''''''''''''''''''''''''''''''''''''''''''''''''''''''''''''''''''''''''''''''''''''",
"'''''''''''''''''''''''''''''''''''''''''''''''''''''''''''''''''''''''''''''''''''''''''''''''''''''''''''''''''''''''''''",
"'''''''''''''''''''''''''''''''''''''''''''''''''''''''''''''''''''''''''''''''''''''''''''''''''''''''''''''''''''''''''''",
"'''''''''''''''''''''''''''''''''''''''''''''''''''''''''''''''''''''''''''''''''''''''''''''''''''''''''''''''''''''''''''",
"'''''''''''''''''''''''''''''''''''''''''''''''''''''''''''''''''''''''''''''''''''''''''''''''''''''''''''''''''''''''''''",
"'''''''''''''''''''''''''''''''''''''''''''''''''''''''''''''''''''''''''''''''''''''''''''''''''''''''''''''''''''''''''''",
"'''''''''''''''''''''''''''''''''''''''''''''''''''''''''''''''''''''''''''''''''''''''''''''''''''''''''''''''''''''''''''",
"'''''''''''''''''''''''''''''''''''''''''''''''''''''''''''''''''''''''''''''''''''''''''''''''''''''''''''''''''''''''''''",
"'''''''''''''''''''''''''''''''''''''''''''''''''''''''''''''''''''''''''''''''''''''''''''''''''''''''''''''''''''''''''''",
"'''''''''''''''''''''''''''''''''''''''''''''''''''''''''''''''''''''''''''''''''''''''''''''''''''''''''''''''''''''''''''",
"'''''''''''''''''''''''''''''''''''''''''''''''''''''''''''''''''''''''''''''''''''''''''''''''''''''''''''''''''''''''''''",
"'''''''''''''''''''''''''''''''''''''''''''''''''''''''''''''''''''''''''''''''''''''''''''''''''''''''''''''''''''''''''''"
};
