/* XPM */
static char *_7e8e84b919741d2b9fbb2e51cbee658mDgnDGcqLAiBNypx[] = {
/* columns rows colors chars-per-pixel */
"64 64 94 2 ",
"   c #3B4567",
".  c #3D4769",
"X  c #3E486A",
"o  c #424D6E",
"O  c #444F70",
"+  c #465172",
"@  c #4A5475",
"#  c #4C5778",
"$  c #4E5979",
"%  c #525D7D",
"&  c #55607F",
"*  c #556282",
"=  c #596482",
"-  c #5C6987",
";  c #5E6D8B",
":  c #616D8B",
">  c #62708E",
",  c #667491",
"<  c #6A7794",
"1  c #6B7996",
"2  c #6E7D99",
"3  c #727F9B",
"4  c #74829D",
"5  c #78859F",
"6  c #7786A1",
"7  c #7986A1",
"8  c #7A8AA5",
"9  c #7E8EA9",
"0  c #8493AD",
"q  c #8994AC",
"w  c #8C98AF",
"e  c #8797B0",
"r  c #8897B1",
"t  c #8B9BB4",
"y  c #919FB6",
"u  c #93A0B7",
"i  c #95A1B7",
"p  c #91A0B8",
"a  c #91A0B9",
"s  c #92A1B9",
"d  c #95A2B9",
"f  c #94A3BA",
"g  c #96A3BA",
"h  c #95A4BB",
"j  c #96A4BC",
"k  c #96A5BC",
"l  c #97A5BC",
"z  c #98A7BE",
"x  c #99A7BE",
"c  c #9AA8BF",
"v  c #9CA8BE",
"b  c #9DAABF",
"n  c #9BA9C0",
"m  c #9DACC2",
"M  c #9FADC3",
"N  c #A0AEC4",
"B  c #A1AFC4",
"V  c #A3B0C6",
"C  c #A3B1C6",
"Z  c #A4B0C4",
"A  c #A5B0C4",
"S  c #A6B2C5",
"D  c #A4B2C7",
"F  c #A8B3C7",
"G  c #A6B3C8",
"H  c #A6B4C9",
"J  c #A7B4C9",
"K  c #A9B4C8",
"L  c #A9B6CB",
"P  c #AAB7CA",
"I  c #ABB8CB",
"U  c #ACB8CB",
"Y  c #ABB8CD",
"T  c #AEBACD",
"R  c #AEBACE",
"E  c #B1BCCF",
"W  c #B1BDCF",
"Q  c #AFBCD0",
"!  c #B0BDD0",
"~  c #B1BED1",
"^  c #B2BFD1",
"/  c #B3BFD2",
"(  c #B3C0D2",
")  c #B3C0D3",
"_  c #B4C0D2",
"`  c #B5C1D4",
"'  c #B5C2D4",
"]  c #B6C2D4",
"[  c #B7C4D6",
"{  c #B8C5D7",
"}  c #BAC5D7",
"|  c #BBC7D8",
" . c #BBC7D9",
".. c #BDC8DA",
/* pixels */
"n Q ' ' ' ' ' ' ' ' ' ' ' ' ' ' ' ' ' ' ' ' ' ' ' ' ' Y y 8 + * e n Q ` ` [ ` ` ) ` ` ` ` ` ` ` ' ) ' ' ) ) ) ) ) ) ) ' Y t 8 @ ",
"Q c f f f f f f f f h k f f f f y m y n a y a n k j k y t 9 - < H Q n h a s h h a n s h s h h h h h h h a n n h h h h h a t 9 - ",
"' f t t t t t t t t t t t t t t t t t t t t t t t t t t t 9 ; 2 / ` s t t t t t t t t t t t t t t t t t t t t t t t t t t t 9 ; ",
"' h t t t t t t t t t t t t t t t t t t t t t t t t t t t 9 ; 2 / ` s t t t t t t t t t t t t t t t t t t t t t t t t t t t 9 ; ",
"' f t t t t t t t t t t t t t t t t t t t t t t t t t t t 9 ; 4 ` ' s t t t t t t t t t t t t t t t t t t t t t t t t t t t 9 ; ",
"' f t t t t t t t t t t t t t t t t t t t t t t t t t t t 9 ; 2 Q ` s t t t t t t t t t t t t t t t t t t t t t t t t t t t 9 ; ",
") s t t t t t t t t t t t t t t r t r t t t t t t t t t t 8 ; 6 Q ` a t t t t t t t t t t t t t t t t t t t t 0 t t t t t t 9 ; ",
"w 9 8 8 8 6 8 8 8 8 8 8 8 8 8 8 8 8 8 8 8 8 8 8 8 8 8 6 2 , * - 0 w 8 8 8 8 8 8 8 8 6 8 8 8 8 8 8 8 8 8 8 8 8 8 8 8 8 6 6 1 , * ",
"+ - ; ; ; ; ; ; - ; ; ; ; ; ; ; ; ; ; ; ; ; ; ; ; : : = o o   o o + = : ; ; ; ; - - - - ; ; - ; ; ; ; : ; ; ; ; ; ; ; ; * X X X ",
"- 1 3 3 4 2 2 1 , * * ; > 1 4 2 3 3 3 3 3 3 3 3 3 3 3 1 & = & = & : 2 4 3 4 3 2 1 , - * - , 2 2 3 3 3 4 3 3 3 4 2 4 4 4 , - * - ",
"~ ~ ~ ~ ~ ' Q f 9 * X 1 t M Q ' ~ _ ~ ) ~ ~ _ ~ ~ _ / W W W W W W W ) ) ) _ _ W c 9 * X 1 e M Q ~ / _ ~ ~ ~ ) ) ) ) ) ) ( ( Q R ",
"{ ..{ { [ | ' n e * + 6 s L { { { { ..[ ..{ ..[ [ | [ } } } { ' { [ [ { { [ .._ c 9 ; X 2 s Y { { ..{ { { | [ [ ) [ [ { { { { { ",
"k x x x n k k s e , = y Q D n k n n k x x k x n k c x x x h b x h c c x x h c h t 9 , ; e Q V n c b f m c n k c c k n c h z c h ",
"t t t t t t t t e 1 > b ..M t t t t t t t t t t t t t t t t t t t t t t t t t t t w 1 > a | V t t t t t t t t t t t t t t t t t ",
"t t t t t t t t e 1 ; m ..M t t t t t t t t t t t t t t t t t t t t t t t t t t t 9 2 > h | M t t t t t t t t t t t t t t t t t ",
"t t t t t t t t t 1 > m ..V t t t t t t t t t t t t t t t t t t t t t t t t t t t e 1 > k | M t t t t t t t t t t t t t t t t t ",
"t t t t t t t t q 1 > m ..M t t t t t t t t t t t t t t t t t t t t t t t t t t t 0 1 > f } D t t t t t t t t t t t t t t t t t ",
"t t t t t t t t r 1 ; n | M t t t t t t t t t q t t w t t t t t t t t t t t t t t 0 1 > i { M t e t t r r r t r t t r t t t t r ",
"6 6 6 8 6 8 6 6 5 - % 8 s 8 < < < < < < < < < < < < < < < < < 1 6 6 8 6 6 6 7 6 7 4 - & 5 i 8 < < < 1 < < < < < < < < < < < < < ",
"; : ; ; ; ; ; ; - + o = > % o o o o o o o o o o o o o o o o o # - ; ; ; > ; ; : ; - @ o & > % o O O . O o o o o o o o o o o o o ",
"3 3 3 3 3 2 3 3 3 : = < 3 : = % # o X o @ % * % = & = % & = = - 1 4 2 4 3 3 3 3 4 1 > = , 4 : % $ # O   o @ % = = % = = = = = = ",
"Y Y Y Y Q Y Y Q U F F F U K N t 8 * X = 8 t B L S F F S K D D F Y Y Y Y U U T U L L H F H I K S t 8 * X = 7 y N S F S B F D S S ",
"/ / ~ / ~ ~ ~ _ / / / ~ / / / b t : + 1 f D W _ ~ / _ _ _ W ) ) / ~ ~ ~ ~ ~ ~ _ ) _ _ ) ) ) _ _ m e - O 1 f D ~ ] / / / / / W / ",
"x x x k x m k k x l x x x x h i t 1 = 0 T F v v x l x h b l c c x k x x x x x k x h c k x x k x y t < * 0 Y G x l v x x x f x x ",
"t t t t t t t t t t t t t t t t t 1 > t } P t t t t t t t t t t t t t t t t t t t t t t t t t y t e 2 - t | F t t t t t y t t t ",
"t t t t t t t t t t t t t t t t q 3 ; t } L t t t t t t t t t t t t t t t t t t t t y t t t t t t e 4 ; w | K y t t t t t t t t ",
"t t t t t t t t t t t t t t t t t 3 ; t } U t t t u t t t t t t t t t t s t t t t t t t t t t t t t 2 ; t | F t t t t t t t t t ",
"t t t t t t t t t t t t t t t t r 3 : t { L y y t t t t t t t t t t t t t t t t t t t t t t t t t e 3 - w { P y t t t t t t t t ",
"t t w r r t w w t t t t r t w t q 2 ; t _ L w t t t w t w q e t t t r t t t t r w w t 0 t t e t t e 1 ; q _ B t t t w t t t t q ",
"< < < < < < < < 1 1 < < < < < 1 , - $ < q 8 < < < 1 < < 1 1 < < < < < < 1 < < < < < < < < < < < < < = $ < q 5 < < < < 1 1 < < 1 ",
"o o   o . o . o o . .     . X o .     X o o   o X o   o X X . X   X X X   X X X o o X X   X . X . . .   o o o .   . o   . o X X ",
"% % % = % = & = = = * = = = % = = = = = % & & & * & & & @ @   X @ # & = = = = = * - % * = % * = = = = = = & & = = & = & % # +   ",
"r K ~ W R ~ Q ~ ~ Q Q Q Q Q Q Q W ~ Q ~ ~ T ~ T E ! ~ G 0 3 . # 8 w L T ~ W W W Q Q Q ~ Q ~ Q ~ W ~ Q W T ~ ~ ~ ~ E ~ E B 0 3 o ",
"v ~ { { { { { { ' ..' | | | | ' ' | ' ..' | | ..[ { | Q t 8 O $ q c ' | { { } } { ` | `  .' { [ ' | { ' ..[ _ { [ { { [ Y y 7 O ",
"E m x l x l n j x x n k j k n n x x k x k x n j l l k s t 9 - , H T n k m l l h n n n n k c k n x x x x m f k x x x l x f t 8 = ",
"/ f t t t t t t t t t t t t t t t t t t t t t t t t t t t 0 ; 3 ~ _ s t t t t t t t t t t t t t t t t t t t t t t t t t t t 9 : ",
"' f t t t t t t t t t t t t t t t t t t t t t t t t t t t 0 - 3 ~ ' s t t t t t t t t t t t t t t t t t t t t t t t t t t t 0 - ",
"' j t t t t t t t t t t t t t t t t t t t t t t t t t t r 9 ; 3 ~ ' s t t t t t t t t t t t t t t t t t t t t t t t t t t t 9 ; ",
"/ f t t t t t t t t t t t t t t t t t t t t t t t t t t t 0 : 3 ~ ' s t t t t t t t t t t t t t t t t t t t t t t t t t t t 9 ; ",
"/ f t t t t t t t t t t t t t t t t t t t t t t t t t t t 8 - 2 ~ ' y t t t t t t t t t t t t t t t t t t t t t t t t t t t 9 ; ",
"t 0 8 8 8 8 8 8 8 8 8 8 8 8 8 8 8 8 8 8 8 8 8 8 6 8 8 7 2 , % : r w 0 7 8 8 8 8 8 8 8 8 8 8 8 8 8 6 8 8 8 8 8 8 8 8 8 8 6 1 , * ",
"# = : : : ; ; : ; ; , ; ; ; ; ; - : > ; ; ; ; > : : : - O O   o O # - ; ; : : ; ; ; - , ; ; ; ; ; , ; ; : ; ; : ; ; ; ; - O o . ",
": 3 7 7 6 6 7 1 , * * : 1 4 6 6 7 7 7 6 6 6 6 6 6 6 6 3 : : : : : : 4 6 7 7 7 4 2 , - * ; < 2 6 6 6 8 6 6 6 7 7 6 6 6 7 3 : - : ",
"E / / / ' ' Q k 9 * O 1 r N / / ' ~ / / / ' / ' / / / / ~ E T T E ~ _ ~ / / ~ W s 9 * X , t M / / / / / / / / / ' ~ ~ ' ~ E ! ~ ",
"' ' ' ' ' ' ~ m e * O 6 k G / [ / / / [ [ / [ / / [ / [ ' ' ' _ ' ' _ [ _ [ _ / n 9 * + 6 y L ` | / / / / / / / / / { / ~ / { / ",
"n j m n k x x t e , * y ~ V n n n n n n k n k n x n m f x x m x x x x x x x x l t e , - t Q V n n n n n n n n n n l n l l x x n ",
"t t t t t t t t t < : n ..N t t t t t t t t t t t t t t t t t t t t t t t t t t t e 2 : h | M t t t t t t t t t t t y t t t t t ",
"t t t t t t t t e 2 : m ..N t t t t t t t t t t t t t t t t t t t t t t t t t t t e < ; h  .M t t t t t y t t t t t t t t t t t ",
"t t t t t t t t r 1 : m ..M t t t t t t t t t t t t t t t t t t t t t t t t t t t r 1 > f | B t t t t t t t t t t t t t t t t t ",
"t t t t t t t t r 1 ; n ..M t t t t t t t t t t t t t t t t t t t t t t t t t t t q 1 : f ..B t t t t t t t t t y t t t t t t t ",
"t t t t t t t t r 1 ; n | M t t t e t q t t t r t t t t r t t r t t t t t t t t t 0 1 : f { M r e t t t e t e e t r t r t t t t ",
"6 6 6 6 6 6 6 7 6 - * 6 j 8 1 1 < < 1 < < < < < < < < < < < < 1 6 6 6 6 6 6 6 6 6 4 - % 5 f 8 < < < < 1 < < < , < < < < < < < < ",
"; ; ; ; - ; ; ; - + . % ; # o X X X o X X o X X X X . X X o o O * - ; ; : ; - ; ; - + X % ; # o . X . . o . O o o o o o . o . . ",
"3 3 3 3 3 3 3 3 3 : = < 3 : * % # o   o # % = = = = = = = = = - 2 6 4 2 3 3 4 3 2 2 : = , 2 , % * $ o   O # % = % = % = = = = = ",
"~ ~ ~ ~ ~ ~ ~ ~ ~ W E E ~ E T y 9 = X - 8 f Y T T T T E T W E E ~ ~ Q ) ~ ~ ~ ~ ~ ~ Q T / ~ Q Y y 9 *   - 0 y Y Y R R R R R Y R ",
"{ | | { ..' ..[ } } } { { ..' m t : o < t S [ ..' | { { _ { _ ..| { { { ' ..[ | | [ | | { { { { n t - O , t N | } } } ../ { { { ",
"k k k n k k k x l h x f h x x t 0 1 - 0 T L c k k k x x k k k x k k n k k k k k n j k k k k n k t e 1 = 0 Q G n l y v l l v l j ",
"t t t t t t t t t t t t t t t t t 1 ; t { L t t t t t t t t t t t t t t t t t t t t t t t t t t t t 3 ; r ..G t r y t t t t t t ",
"t t t t t t t t t t t t t t t t t 4 : w { I t t t t t t t t t t t t t t t t t t t t t t t t t t t t 3 - t [ K t t t t t t t t t ",
"t t t t t t t t t t t t t t t t 0 4 : t | L t t t t t t t t t t t t t t t t t t t t t t t t t t t t < - y | K y t t t t t t t t ",
"t t t t t t t t t t t t t t t t 0 4 ; t | H t t t t t t t t t t t t t t t t t t t t t t t t t t t t 1 ; y [ F t t t t t t t t t ",
"t t e t t e t e t t 0 t t t t t t 3 ; t { H t t t t e t t e t e t t e t t t t t t t e t t e t e t e 1 - w ..A t t t r t t t r t ",
"4 6 4 4 4 4 4 4 4 4 4 4 4 4 6 4 4 ; & 4 f r 4 4 4 6 4 4 6 4 4 6 4 4 6 4 6 6 4 4 4 4 4 4 4 4 7 4 4 4 ; * 4 y 0 4 4 4 4 4 4 4 3 4 ",
"+ X + X o o o o + X o o o o o o o X X o @ O + + X X + X X + X X + X X O X X O X X + X + X + X + X O X . o O O o o o o o o o O O "
};
